G04 EAGLE Gerber RS-274X export*
G75*
%MOMM*%
%FSLAX34Y34*%
%LPD*%
%INBottom Copper*%
%IPPOS*%
%AMOC8*
5,1,8,0,0,1.08239X$1,22.5*%
G01*
%ADD10C,1.524000*%
%ADD11C,1.900000*%
%ADD12P,1.429621X8X292.500000*%
%ADD13P,1.429621X8X112.500000*%
%ADD14P,1.814519X8X22.500000*%
%ADD15P,1.924489X8X22.500000*%
%ADD16R,1.778000X1.778000*%
%ADD17P,1.429621X8X202.500000*%
%ADD18C,1.600200*%
%ADD19P,1.732040X8X22.500000*%
%ADD20R,1.498600X1.498600*%
%ADD21C,1.498600*%
%ADD22P,1.429621X8X22.500000*%
%ADD23C,1.138000*%
%ADD24C,2.540000*%
%ADD25R,1.267000X1.267000*%
%ADD26C,1.267000*%
%ADD27C,0.609600*%

G36*
X663689Y3312D02*
X663689Y3312D01*
X663803Y3311D01*
X663934Y3332D01*
X664067Y3343D01*
X664177Y3370D01*
X664290Y3388D01*
X664417Y3429D01*
X664546Y3461D01*
X664650Y3506D01*
X664759Y3542D01*
X664877Y3604D01*
X664999Y3656D01*
X665095Y3717D01*
X665197Y3770D01*
X665270Y3829D01*
X665415Y3921D01*
X665657Y4137D01*
X665730Y4195D01*
X669667Y8132D01*
X669741Y8219D01*
X669822Y8300D01*
X669900Y8407D01*
X669986Y8508D01*
X670045Y8606D01*
X670112Y8698D01*
X670172Y8817D01*
X670241Y8931D01*
X670283Y9037D01*
X670335Y9139D01*
X670375Y9266D01*
X670424Y9389D01*
X670449Y9500D01*
X670483Y9609D01*
X670493Y9703D01*
X670531Y9871D01*
X670549Y10195D01*
X670559Y10287D01*
X670559Y26452D01*
X672080Y27973D01*
X672154Y28060D01*
X672235Y28140D01*
X672313Y28247D01*
X672399Y28349D01*
X672458Y28447D01*
X672525Y28539D01*
X672585Y28658D01*
X672654Y28771D01*
X672696Y28877D01*
X672748Y28979D01*
X672788Y29106D01*
X672837Y29229D01*
X672862Y29341D01*
X672896Y29450D01*
X672906Y29543D01*
X672944Y29711D01*
X672962Y30035D01*
X672972Y30128D01*
X672972Y30488D01*
X694305Y51820D01*
X694379Y51907D01*
X694460Y51988D01*
X694538Y52095D01*
X694624Y52196D01*
X694683Y52294D01*
X694750Y52386D01*
X694810Y52505D01*
X694879Y52619D01*
X694921Y52725D01*
X694973Y52827D01*
X695013Y52954D01*
X695062Y53077D01*
X695087Y53188D01*
X695121Y53297D01*
X695131Y53391D01*
X695169Y53559D01*
X695187Y53883D01*
X695197Y53975D01*
X695197Y284967D01*
X695194Y285005D01*
X695196Y285043D01*
X695174Y285251D01*
X695157Y285459D01*
X695148Y285496D01*
X695144Y285534D01*
X695089Y285735D01*
X695039Y285937D01*
X695024Y285972D01*
X695013Y286009D01*
X694926Y286199D01*
X694844Y286391D01*
X694824Y286423D01*
X694808Y286458D01*
X694691Y286631D01*
X694579Y286807D01*
X694554Y286835D01*
X694532Y286867D01*
X694390Y287019D01*
X694250Y287175D01*
X694221Y287199D01*
X694195Y287226D01*
X694029Y287354D01*
X693866Y287485D01*
X693833Y287504D01*
X693803Y287527D01*
X693619Y287625D01*
X693438Y287729D01*
X693402Y287742D01*
X693368Y287760D01*
X693171Y287828D01*
X692975Y287900D01*
X692938Y287908D01*
X692902Y287920D01*
X692695Y287955D01*
X692491Y287995D01*
X692453Y287996D01*
X692415Y288003D01*
X692206Y288004D01*
X691998Y288010D01*
X691960Y288005D01*
X691922Y288006D01*
X691715Y287973D01*
X691509Y287946D01*
X691472Y287935D01*
X691435Y287929D01*
X691236Y287864D01*
X691037Y287803D01*
X691002Y287787D01*
X690966Y287775D01*
X690781Y287678D01*
X690593Y287587D01*
X690562Y287565D01*
X690528Y287547D01*
X690456Y287489D01*
X690191Y287301D01*
X690069Y287180D01*
X689995Y287122D01*
X686693Y283820D01*
X686619Y283733D01*
X686538Y283652D01*
X686460Y283545D01*
X686374Y283444D01*
X686315Y283346D01*
X686248Y283254D01*
X686188Y283135D01*
X686119Y283021D01*
X686077Y282915D01*
X686025Y282813D01*
X685985Y282686D01*
X685936Y282563D01*
X685911Y282452D01*
X685877Y282343D01*
X685867Y282249D01*
X685829Y282081D01*
X685811Y281757D01*
X685801Y281665D01*
X685801Y274665D01*
X679990Y268855D01*
X679941Y268797D01*
X679885Y268745D01*
X679781Y268609D01*
X679671Y268479D01*
X679631Y268413D01*
X679585Y268353D01*
X679504Y268203D01*
X679416Y268056D01*
X679388Y267986D01*
X679352Y267918D01*
X679296Y267757D01*
X679233Y267598D01*
X679217Y267524D01*
X679192Y267452D01*
X679163Y267283D01*
X679126Y267117D01*
X679122Y267040D01*
X679109Y266965D01*
X679108Y266794D01*
X679099Y266624D01*
X679107Y266548D01*
X679106Y266472D01*
X679133Y266303D01*
X679151Y266133D01*
X679171Y266060D01*
X679183Y265985D01*
X679236Y265822D01*
X679282Y265658D01*
X679313Y265588D01*
X679337Y265516D01*
X679416Y265365D01*
X679487Y265209D01*
X679530Y265146D01*
X679565Y265078D01*
X679631Y264996D01*
X679763Y264800D01*
X679925Y264627D01*
X679990Y264545D01*
X685801Y258735D01*
X685801Y257047D01*
X674370Y257047D01*
X674294Y257041D01*
X674218Y257044D01*
X674049Y257021D01*
X673879Y257007D01*
X673805Y256989D01*
X673729Y256979D01*
X673565Y256930D01*
X673400Y256889D01*
X673330Y256859D01*
X673257Y256837D01*
X673103Y256762D01*
X672946Y256694D01*
X672882Y256653D01*
X672814Y256620D01*
X672674Y256521D01*
X672530Y256429D01*
X672474Y256378D01*
X672411Y256334D01*
X672290Y256214D01*
X672162Y256100D01*
X672114Y256041D01*
X672060Y255987D01*
X671959Y255849D01*
X671852Y255716D01*
X671814Y255650D01*
X671769Y255588D01*
X671693Y255436D01*
X671608Y255287D01*
X671581Y255216D01*
X671547Y255148D01*
X671496Y254985D01*
X671436Y254825D01*
X671422Y254750D01*
X671399Y254677D01*
X671387Y254573D01*
X671342Y254341D01*
X671334Y254105D01*
X671323Y254000D01*
X671323Y242569D01*
X669635Y242569D01*
X663825Y248380D01*
X663767Y248429D01*
X663715Y248485D01*
X663579Y248589D01*
X663449Y248699D01*
X663383Y248739D01*
X663323Y248785D01*
X663173Y248866D01*
X663026Y248954D01*
X662956Y248982D01*
X662888Y249018D01*
X662727Y249074D01*
X662568Y249137D01*
X662494Y249153D01*
X662422Y249178D01*
X662253Y249207D01*
X662087Y249244D01*
X662010Y249248D01*
X661935Y249261D01*
X661764Y249262D01*
X661594Y249271D01*
X661518Y249263D01*
X661442Y249264D01*
X661273Y249237D01*
X661103Y249219D01*
X661030Y249199D01*
X660955Y249187D01*
X660792Y249134D01*
X660628Y249088D01*
X660558Y249057D01*
X660486Y249033D01*
X660335Y248954D01*
X660179Y248883D01*
X660116Y248840D01*
X660048Y248805D01*
X659966Y248739D01*
X659770Y248607D01*
X659597Y248445D01*
X659515Y248380D01*
X653705Y242569D01*
X644235Y242569D01*
X637539Y249265D01*
X637539Y258735D01*
X643350Y264545D01*
X643399Y264603D01*
X643455Y264656D01*
X643559Y264791D01*
X643669Y264921D01*
X643709Y264987D01*
X643755Y265047D01*
X643835Y265197D01*
X643924Y265344D01*
X643952Y265415D01*
X643988Y265482D01*
X644044Y265643D01*
X644107Y265802D01*
X644123Y265876D01*
X644148Y265948D01*
X644177Y266117D01*
X644214Y266284D01*
X644218Y266360D01*
X644231Y266435D01*
X644232Y266606D01*
X644241Y266776D01*
X644233Y266852D01*
X644234Y266928D01*
X644207Y267097D01*
X644189Y267267D01*
X644169Y267340D01*
X644157Y267415D01*
X644104Y267578D01*
X644058Y267742D01*
X644027Y267812D01*
X644003Y267884D01*
X643924Y268035D01*
X643853Y268191D01*
X643810Y268254D01*
X643775Y268322D01*
X643709Y268404D01*
X643577Y268600D01*
X643415Y268772D01*
X643350Y268855D01*
X639286Y272919D01*
X639199Y272993D01*
X639119Y273074D01*
X639011Y273152D01*
X638910Y273238D01*
X638812Y273297D01*
X638720Y273364D01*
X638601Y273424D01*
X638487Y273493D01*
X638381Y273535D01*
X638279Y273587D01*
X638152Y273627D01*
X638029Y273676D01*
X637918Y273701D01*
X637809Y273735D01*
X637715Y273745D01*
X637548Y273783D01*
X637223Y273801D01*
X637131Y273811D01*
X605481Y273811D01*
X603427Y274662D01*
X589022Y289067D01*
X588993Y289092D01*
X588967Y289121D01*
X588805Y289252D01*
X588646Y289387D01*
X588613Y289407D01*
X588583Y289430D01*
X588403Y289533D01*
X588223Y289641D01*
X588188Y289656D01*
X588155Y289674D01*
X587959Y289747D01*
X587765Y289825D01*
X587728Y289833D01*
X587692Y289846D01*
X587487Y289886D01*
X587283Y289931D01*
X587245Y289933D01*
X587208Y289941D01*
X587000Y289947D01*
X586791Y289959D01*
X586753Y289955D01*
X586715Y289956D01*
X586508Y289929D01*
X586300Y289907D01*
X586264Y289897D01*
X586226Y289892D01*
X586026Y289831D01*
X585825Y289776D01*
X585790Y289760D01*
X585753Y289749D01*
X585566Y289658D01*
X585376Y289570D01*
X585344Y289549D01*
X585310Y289532D01*
X585141Y289412D01*
X584967Y289295D01*
X584939Y289269D01*
X584908Y289247D01*
X584760Y289100D01*
X584607Y288957D01*
X584584Y288927D01*
X584557Y288900D01*
X584434Y288731D01*
X584307Y288566D01*
X584289Y288532D01*
X584267Y288501D01*
X584173Y288315D01*
X584074Y288131D01*
X584061Y288095D01*
X584044Y288061D01*
X583982Y287862D01*
X583914Y287664D01*
X583908Y287627D01*
X583896Y287590D01*
X583886Y287498D01*
X583831Y287178D01*
X583830Y287006D01*
X583820Y286913D01*
X583820Y285137D01*
X578463Y279780D01*
X577722Y279780D01*
X577722Y288925D01*
X577716Y289001D01*
X577719Y289077D01*
X577696Y289246D01*
X577682Y289416D01*
X577664Y289490D01*
X577654Y289566D01*
X577605Y289730D01*
X577564Y289895D01*
X577534Y289965D01*
X577512Y290038D01*
X577437Y290192D01*
X577369Y290349D01*
X577328Y290413D01*
X577295Y290481D01*
X577196Y290621D01*
X577104Y290765D01*
X577053Y290821D01*
X577009Y290884D01*
X576889Y291005D01*
X576775Y291133D01*
X576716Y291181D01*
X576715Y291182D01*
X576662Y291235D01*
X576524Y291336D01*
X576391Y291443D01*
X576325Y291481D01*
X576263Y291525D01*
X576111Y291602D01*
X575962Y291687D01*
X575891Y291713D01*
X575823Y291748D01*
X575660Y291799D01*
X575500Y291859D01*
X575425Y291873D01*
X575352Y291896D01*
X575248Y291908D01*
X575016Y291953D01*
X574780Y291961D01*
X574675Y291972D01*
X565530Y291972D01*
X565530Y292713D01*
X570887Y298070D01*
X572663Y298070D01*
X572701Y298073D01*
X572739Y298071D01*
X572946Y298093D01*
X573154Y298110D01*
X573191Y298119D01*
X573229Y298123D01*
X573430Y298178D01*
X573633Y298228D01*
X573668Y298243D01*
X573705Y298254D01*
X573895Y298341D01*
X574087Y298423D01*
X574119Y298443D01*
X574153Y298459D01*
X574327Y298576D01*
X574503Y298688D01*
X574531Y298713D01*
X574563Y298735D01*
X574715Y298878D01*
X574871Y299017D01*
X574894Y299046D01*
X574922Y299072D01*
X575049Y299238D01*
X575180Y299401D01*
X575199Y299434D01*
X575223Y299464D01*
X575321Y299648D01*
X575424Y299829D01*
X575438Y299865D01*
X575456Y299899D01*
X575523Y300096D01*
X575596Y300292D01*
X575603Y300329D01*
X575616Y300365D01*
X575651Y300572D01*
X575691Y300776D01*
X575692Y300814D01*
X575698Y300852D01*
X575700Y301061D01*
X575706Y301269D01*
X575701Y301307D01*
X575701Y301345D01*
X575669Y301552D01*
X575642Y301758D01*
X575631Y301795D01*
X575625Y301832D01*
X575560Y302031D01*
X575499Y302230D01*
X575482Y302265D01*
X575471Y302301D01*
X575374Y302486D01*
X575282Y302674D01*
X575260Y302705D01*
X575243Y302739D01*
X575185Y302811D01*
X574997Y303076D01*
X574876Y303198D01*
X574817Y303272D01*
X567578Y310511D01*
X567491Y310585D01*
X567411Y310666D01*
X567304Y310744D01*
X567202Y310830D01*
X567105Y310889D01*
X567012Y310956D01*
X566894Y311016D01*
X566780Y311085D01*
X566674Y311127D01*
X566572Y311179D01*
X566445Y311219D01*
X566322Y311268D01*
X566210Y311293D01*
X566101Y311327D01*
X566008Y311337D01*
X565840Y311375D01*
X565516Y311393D01*
X565424Y311403D01*
X461361Y311403D01*
X461323Y311400D01*
X461285Y311402D01*
X461077Y311380D01*
X460869Y311363D01*
X460832Y311354D01*
X460794Y311350D01*
X460593Y311295D01*
X460390Y311245D01*
X460356Y311230D01*
X460319Y311219D01*
X460129Y311132D01*
X459937Y311050D01*
X459905Y311030D01*
X459870Y311014D01*
X459697Y310897D01*
X459521Y310785D01*
X459493Y310760D01*
X459461Y310738D01*
X459309Y310595D01*
X459153Y310456D01*
X459129Y310427D01*
X459101Y310400D01*
X458974Y310235D01*
X458843Y310072D01*
X458824Y310039D01*
X458801Y310009D01*
X458702Y309825D01*
X458599Y309644D01*
X458586Y309608D01*
X458568Y309574D01*
X458500Y309377D01*
X458428Y309181D01*
X458420Y309144D01*
X458408Y309108D01*
X458373Y308901D01*
X458333Y308697D01*
X458332Y308659D01*
X458325Y308621D01*
X458324Y308411D01*
X458318Y308204D01*
X458323Y308166D01*
X458322Y308128D01*
X458355Y307921D01*
X458382Y307715D01*
X458393Y307678D01*
X458399Y307641D01*
X458464Y307442D01*
X458524Y307243D01*
X458541Y307208D01*
X458553Y307172D01*
X458650Y306987D01*
X458741Y306799D01*
X458763Y306768D01*
X458781Y306734D01*
X458839Y306662D01*
X459027Y306397D01*
X459148Y306275D01*
X459206Y306201D01*
X459995Y305413D01*
X459995Y297837D01*
X454638Y292480D01*
X447062Y292480D01*
X441705Y297837D01*
X441705Y305413D01*
X442494Y306201D01*
X442518Y306230D01*
X442547Y306256D01*
X442678Y306418D01*
X442813Y306577D01*
X442833Y306610D01*
X442857Y306640D01*
X442960Y306821D01*
X443068Y307000D01*
X443082Y307035D01*
X443101Y307068D01*
X443173Y307264D01*
X443251Y307458D01*
X443259Y307495D01*
X443272Y307531D01*
X443312Y307735D01*
X443358Y307939D01*
X443360Y307978D01*
X443367Y308015D01*
X443374Y308223D01*
X443385Y308432D01*
X443381Y308470D01*
X443382Y308508D01*
X443355Y308715D01*
X443333Y308923D01*
X443323Y308959D01*
X443318Y308997D01*
X443258Y309197D01*
X443202Y309398D01*
X443187Y309433D01*
X443176Y309470D01*
X443084Y309657D01*
X442997Y309847D01*
X442975Y309878D01*
X442959Y309913D01*
X442838Y310083D01*
X442721Y310256D01*
X442695Y310284D01*
X442673Y310315D01*
X442526Y310463D01*
X442384Y310616D01*
X442353Y310639D01*
X442326Y310666D01*
X442158Y310789D01*
X441992Y310916D01*
X441958Y310934D01*
X441928Y310956D01*
X441741Y311050D01*
X441557Y311149D01*
X441521Y311161D01*
X441487Y311179D01*
X441288Y311242D01*
X441091Y311309D01*
X441053Y311315D01*
X441017Y311327D01*
X440924Y311337D01*
X440604Y311392D01*
X440432Y311393D01*
X440339Y311403D01*
X431196Y311403D01*
X429142Y312254D01*
X427142Y314255D01*
X422123Y319274D01*
X422036Y319348D01*
X421955Y319429D01*
X421848Y319507D01*
X421747Y319593D01*
X421649Y319652D01*
X421557Y319719D01*
X421438Y319779D01*
X421324Y319848D01*
X421218Y319890D01*
X421116Y319942D01*
X420989Y319982D01*
X420866Y320031D01*
X420755Y320056D01*
X420646Y320090D01*
X420552Y320100D01*
X420384Y320138D01*
X420060Y320156D01*
X419968Y320166D01*
X417104Y320166D01*
X413416Y321694D01*
X410594Y324516D01*
X409215Y327844D01*
X409198Y327878D01*
X409185Y327914D01*
X409085Y328098D01*
X408990Y328283D01*
X408968Y328314D01*
X408949Y328348D01*
X408821Y328513D01*
X408697Y328680D01*
X408670Y328707D01*
X408647Y328737D01*
X408493Y328879D01*
X408344Y329025D01*
X408313Y329047D01*
X408285Y329073D01*
X408111Y329188D01*
X407940Y329308D01*
X407906Y329324D01*
X407874Y329345D01*
X407683Y329431D01*
X407495Y329522D01*
X407459Y329533D01*
X407424Y329548D01*
X407222Y329602D01*
X407022Y329661D01*
X406984Y329666D01*
X406948Y329676D01*
X406740Y329697D01*
X406533Y329723D01*
X406495Y329721D01*
X406457Y329725D01*
X406248Y329712D01*
X406040Y329704D01*
X406002Y329697D01*
X405964Y329694D01*
X405761Y329648D01*
X405556Y329606D01*
X405521Y329593D01*
X405483Y329584D01*
X405290Y329506D01*
X405095Y329432D01*
X405062Y329413D01*
X405026Y329398D01*
X404848Y329290D01*
X404668Y329185D01*
X404638Y329161D01*
X404606Y329141D01*
X404447Y329005D01*
X404286Y328873D01*
X404260Y328844D01*
X404232Y328819D01*
X404097Y328659D01*
X403959Y328503D01*
X403939Y328471D01*
X403915Y328441D01*
X403869Y328360D01*
X403697Y328085D01*
X403630Y327927D01*
X403585Y327844D01*
X402206Y324516D01*
X399384Y321694D01*
X395696Y320166D01*
X391704Y320166D01*
X388016Y321694D01*
X385194Y324516D01*
X383815Y327844D01*
X383798Y327878D01*
X383785Y327914D01*
X383685Y328098D01*
X383590Y328283D01*
X383568Y328314D01*
X383549Y328348D01*
X383421Y328513D01*
X383297Y328680D01*
X383270Y328707D01*
X383247Y328737D01*
X383093Y328879D01*
X382944Y329025D01*
X382913Y329047D01*
X382885Y329073D01*
X382711Y329188D01*
X382540Y329308D01*
X382506Y329324D01*
X382474Y329345D01*
X382283Y329431D01*
X382095Y329522D01*
X382059Y329533D01*
X382024Y329548D01*
X381822Y329602D01*
X381622Y329661D01*
X381584Y329666D01*
X381548Y329676D01*
X381340Y329697D01*
X381133Y329723D01*
X381095Y329721D01*
X381057Y329725D01*
X380848Y329712D01*
X380640Y329704D01*
X380602Y329697D01*
X380564Y329694D01*
X380361Y329648D01*
X380156Y329606D01*
X380121Y329593D01*
X380083Y329584D01*
X379890Y329506D01*
X379695Y329432D01*
X379662Y329413D01*
X379626Y329398D01*
X379448Y329290D01*
X379268Y329185D01*
X379238Y329161D01*
X379206Y329141D01*
X379047Y329005D01*
X378886Y328873D01*
X378860Y328844D01*
X378832Y328819D01*
X378697Y328659D01*
X378559Y328503D01*
X378539Y328471D01*
X378515Y328441D01*
X378469Y328360D01*
X378297Y328085D01*
X378230Y327927D01*
X378185Y327844D01*
X376806Y324516D01*
X373984Y321694D01*
X370296Y320166D01*
X366304Y320166D01*
X362616Y321694D01*
X359794Y324516D01*
X358415Y327844D01*
X358398Y327878D01*
X358385Y327914D01*
X358285Y328098D01*
X358190Y328283D01*
X358168Y328314D01*
X358149Y328348D01*
X358021Y328513D01*
X357897Y328680D01*
X357870Y328707D01*
X357847Y328737D01*
X357693Y328879D01*
X357544Y329025D01*
X357513Y329047D01*
X357485Y329073D01*
X357311Y329188D01*
X357140Y329308D01*
X357106Y329324D01*
X357074Y329345D01*
X356883Y329431D01*
X356695Y329522D01*
X356659Y329533D01*
X356624Y329548D01*
X356422Y329602D01*
X356222Y329661D01*
X356184Y329666D01*
X356148Y329676D01*
X355940Y329697D01*
X355733Y329723D01*
X355695Y329721D01*
X355657Y329725D01*
X355448Y329712D01*
X355240Y329704D01*
X355202Y329697D01*
X355164Y329694D01*
X354961Y329648D01*
X354756Y329606D01*
X354721Y329593D01*
X354683Y329584D01*
X354490Y329506D01*
X354295Y329432D01*
X354262Y329413D01*
X354226Y329398D01*
X354048Y329290D01*
X353868Y329185D01*
X353838Y329161D01*
X353806Y329141D01*
X353647Y329005D01*
X353486Y328873D01*
X353460Y328844D01*
X353432Y328819D01*
X353297Y328659D01*
X353159Y328503D01*
X353139Y328471D01*
X353115Y328441D01*
X353069Y328360D01*
X352897Y328085D01*
X352830Y327927D01*
X352785Y327844D01*
X351406Y324516D01*
X348584Y321694D01*
X344896Y320166D01*
X340904Y320166D01*
X337216Y321694D01*
X334394Y324516D01*
X332866Y328204D01*
X332866Y332196D01*
X334394Y335884D01*
X337216Y338706D01*
X340904Y340234D01*
X344896Y340234D01*
X348584Y338706D01*
X351406Y335884D01*
X352785Y332556D01*
X352802Y332522D01*
X352815Y332486D01*
X352914Y332303D01*
X353010Y332117D01*
X353032Y332086D01*
X353051Y332052D01*
X353179Y331888D01*
X353303Y331720D01*
X353330Y331693D01*
X353353Y331663D01*
X353506Y331521D01*
X353656Y331375D01*
X353687Y331353D01*
X353715Y331327D01*
X353889Y331212D01*
X354060Y331092D01*
X354094Y331076D01*
X354126Y331055D01*
X354316Y330969D01*
X354504Y330878D01*
X354541Y330867D01*
X354576Y330852D01*
X354777Y330798D01*
X354978Y330739D01*
X355016Y330734D01*
X355052Y330724D01*
X355260Y330703D01*
X355467Y330677D01*
X355505Y330679D01*
X355543Y330675D01*
X355752Y330688D01*
X355960Y330696D01*
X355998Y330703D01*
X356036Y330706D01*
X356238Y330752D01*
X356444Y330794D01*
X356480Y330807D01*
X356517Y330816D01*
X356709Y330894D01*
X356905Y330968D01*
X356938Y330987D01*
X356973Y331002D01*
X357151Y331110D01*
X357332Y331215D01*
X357362Y331239D01*
X357394Y331259D01*
X357552Y331395D01*
X357714Y331527D01*
X357739Y331556D01*
X357768Y331581D01*
X357902Y331741D01*
X358041Y331897D01*
X358061Y331930D01*
X358085Y331959D01*
X358130Y332040D01*
X358303Y332315D01*
X358370Y332473D01*
X358415Y332556D01*
X359794Y335884D01*
X362616Y338706D01*
X366304Y340234D01*
X370296Y340234D01*
X373984Y338706D01*
X376806Y335884D01*
X378185Y332556D01*
X378202Y332522D01*
X378215Y332486D01*
X378314Y332303D01*
X378410Y332117D01*
X378432Y332086D01*
X378451Y332052D01*
X378579Y331888D01*
X378703Y331720D01*
X378730Y331693D01*
X378753Y331663D01*
X378906Y331521D01*
X379056Y331375D01*
X379087Y331353D01*
X379115Y331327D01*
X379289Y331212D01*
X379460Y331092D01*
X379494Y331076D01*
X379526Y331055D01*
X379716Y330969D01*
X379904Y330878D01*
X379941Y330867D01*
X379976Y330852D01*
X380177Y330798D01*
X380378Y330739D01*
X380416Y330734D01*
X380452Y330724D01*
X380660Y330703D01*
X380867Y330677D01*
X380905Y330679D01*
X380943Y330675D01*
X381152Y330688D01*
X381360Y330696D01*
X381398Y330703D01*
X381436Y330706D01*
X381638Y330752D01*
X381844Y330794D01*
X381880Y330807D01*
X381917Y330816D01*
X382109Y330894D01*
X382305Y330968D01*
X382338Y330987D01*
X382373Y331002D01*
X382551Y331110D01*
X382732Y331215D01*
X382762Y331239D01*
X382794Y331259D01*
X382952Y331395D01*
X383114Y331527D01*
X383139Y331556D01*
X383168Y331581D01*
X383302Y331741D01*
X383441Y331897D01*
X383461Y331930D01*
X383485Y331959D01*
X383530Y332040D01*
X383703Y332315D01*
X383770Y332473D01*
X383815Y332556D01*
X385194Y335884D01*
X388016Y338706D01*
X391704Y340234D01*
X394568Y340234D01*
X394682Y340243D01*
X394796Y340242D01*
X394927Y340263D01*
X395060Y340274D01*
X395170Y340301D01*
X395283Y340319D01*
X395409Y340360D01*
X395538Y340392D01*
X395643Y340437D01*
X395752Y340473D01*
X395870Y340534D01*
X395992Y340587D01*
X396088Y340648D01*
X396189Y340701D01*
X396263Y340760D01*
X396408Y340852D01*
X396650Y341068D01*
X396723Y341126D01*
X400406Y344809D01*
X400430Y344838D01*
X400459Y344864D01*
X400590Y345026D01*
X400725Y345185D01*
X400745Y345218D01*
X400769Y345248D01*
X400872Y345429D01*
X400980Y345608D01*
X400994Y345643D01*
X401013Y345676D01*
X401085Y345872D01*
X401163Y346066D01*
X401171Y346103D01*
X401184Y346139D01*
X401224Y346344D01*
X401270Y346548D01*
X401272Y346586D01*
X401279Y346623D01*
X401285Y346831D01*
X401297Y347040D01*
X401293Y347078D01*
X401294Y347116D01*
X401267Y347323D01*
X401245Y347531D01*
X401235Y347567D01*
X401230Y347605D01*
X401170Y347805D01*
X401114Y348006D01*
X401098Y348041D01*
X401087Y348078D01*
X400996Y348265D01*
X400909Y348455D01*
X400887Y348486D01*
X400871Y348521D01*
X400750Y348691D01*
X400633Y348864D01*
X400607Y348892D01*
X400585Y348923D01*
X400439Y349071D01*
X400295Y349224D01*
X400265Y349247D01*
X400238Y349274D01*
X400070Y349397D01*
X399904Y349524D01*
X399870Y349542D01*
X399840Y349564D01*
X399654Y349658D01*
X399469Y349757D01*
X399433Y349770D01*
X399399Y349787D01*
X399200Y349849D01*
X399003Y349917D01*
X398965Y349923D01*
X398929Y349935D01*
X398836Y349945D01*
X398516Y350000D01*
X398344Y350001D01*
X398251Y350011D01*
X272888Y350011D01*
X270834Y350862D01*
X237765Y383932D01*
X237678Y384006D01*
X237597Y384087D01*
X237490Y384165D01*
X237389Y384251D01*
X237291Y384310D01*
X237199Y384377D01*
X237080Y384437D01*
X236966Y384506D01*
X236860Y384548D01*
X236758Y384600D01*
X236631Y384640D01*
X236508Y384689D01*
X236397Y384714D01*
X236288Y384748D01*
X236194Y384758D01*
X236026Y384796D01*
X235702Y384814D01*
X235610Y384824D01*
X228513Y384824D01*
X227024Y386313D01*
X227024Y401087D01*
X228513Y402576D01*
X243287Y402576D01*
X244776Y401087D01*
X244776Y393990D01*
X244785Y393876D01*
X244784Y393762D01*
X244805Y393631D01*
X244816Y393498D01*
X244843Y393388D01*
X244861Y393275D01*
X244902Y393148D01*
X244934Y393020D01*
X244979Y392915D01*
X245015Y392806D01*
X245077Y392688D01*
X245129Y392566D01*
X245190Y392470D01*
X245243Y392369D01*
X245302Y392295D01*
X245394Y392150D01*
X245610Y391908D01*
X245668Y391835D01*
X275422Y362081D01*
X275509Y362007D01*
X275590Y361926D01*
X275697Y361848D01*
X275798Y361762D01*
X275896Y361703D01*
X275988Y361636D01*
X276107Y361576D01*
X276221Y361507D01*
X276327Y361465D01*
X276429Y361413D01*
X276556Y361373D01*
X276679Y361324D01*
X276790Y361299D01*
X276899Y361265D01*
X276993Y361255D01*
X277161Y361217D01*
X277485Y361199D01*
X277577Y361189D01*
X393298Y361189D01*
X393412Y361198D01*
X393526Y361197D01*
X393657Y361218D01*
X393790Y361229D01*
X393900Y361256D01*
X394013Y361274D01*
X394140Y361315D01*
X394268Y361347D01*
X394373Y361392D01*
X394482Y361428D01*
X394600Y361490D01*
X394722Y361542D01*
X394818Y361603D01*
X394919Y361656D01*
X394993Y361715D01*
X395138Y361807D01*
X395380Y362023D01*
X395453Y362081D01*
X423458Y390087D01*
X425016Y391644D01*
X425108Y391753D01*
X425208Y391855D01*
X425268Y391941D01*
X425335Y392020D01*
X425409Y392142D01*
X425491Y392259D01*
X425536Y392353D01*
X425590Y392443D01*
X425643Y392575D01*
X425705Y392704D01*
X425734Y392804D01*
X425773Y392901D01*
X425804Y393040D01*
X425844Y393177D01*
X425857Y393280D01*
X425880Y393383D01*
X425888Y393525D01*
X425905Y393666D01*
X425901Y393771D01*
X425907Y393875D01*
X425892Y394017D01*
X425887Y394159D01*
X425866Y394262D01*
X425855Y394366D01*
X425817Y394503D01*
X425789Y394643D01*
X425752Y394741D01*
X425724Y394841D01*
X425665Y394971D01*
X425615Y395104D01*
X425562Y395195D01*
X425519Y395290D01*
X425439Y395408D01*
X425368Y395532D01*
X425302Y395613D01*
X425243Y395699D01*
X425146Y395803D01*
X425055Y395913D01*
X424977Y395983D01*
X424906Y396059D01*
X424793Y396145D01*
X424686Y396240D01*
X424597Y396295D01*
X424514Y396359D01*
X424388Y396426D01*
X424268Y396502D01*
X424171Y396543D01*
X424079Y396592D01*
X423945Y396638D01*
X423813Y396694D01*
X423712Y396718D01*
X423613Y396752D01*
X423472Y396776D01*
X423334Y396809D01*
X423229Y396817D01*
X423126Y396835D01*
X422984Y396836D01*
X422842Y396846D01*
X422738Y396837D01*
X422633Y396838D01*
X422492Y396816D01*
X422350Y396803D01*
X422275Y396782D01*
X422146Y396761D01*
X421733Y396626D01*
X421695Y396614D01*
X421096Y396366D01*
X417104Y396366D01*
X413416Y397894D01*
X410594Y400716D01*
X409215Y404044D01*
X409198Y404078D01*
X409185Y404114D01*
X409086Y404297D01*
X408990Y404483D01*
X408968Y404514D01*
X408949Y404548D01*
X408821Y404712D01*
X408697Y404880D01*
X408670Y404907D01*
X408647Y404937D01*
X408494Y405079D01*
X408344Y405225D01*
X408313Y405247D01*
X408285Y405273D01*
X408112Y405388D01*
X407940Y405508D01*
X407906Y405524D01*
X407874Y405545D01*
X407684Y405631D01*
X407496Y405722D01*
X407459Y405733D01*
X407424Y405748D01*
X407223Y405802D01*
X407022Y405861D01*
X406984Y405866D01*
X406948Y405876D01*
X406740Y405897D01*
X406533Y405923D01*
X406495Y405921D01*
X406457Y405925D01*
X406248Y405912D01*
X406040Y405904D01*
X406002Y405897D01*
X405964Y405894D01*
X405762Y405848D01*
X405556Y405806D01*
X405520Y405793D01*
X405483Y405784D01*
X405291Y405706D01*
X405095Y405632D01*
X405062Y405613D01*
X405027Y405598D01*
X404849Y405490D01*
X404668Y405385D01*
X404638Y405361D01*
X404606Y405341D01*
X404448Y405205D01*
X404286Y405073D01*
X404261Y405044D01*
X404232Y405019D01*
X404098Y404859D01*
X403959Y404703D01*
X403939Y404670D01*
X403915Y404641D01*
X403870Y404560D01*
X403697Y404285D01*
X403630Y404127D01*
X403585Y404044D01*
X402206Y400716D01*
X399384Y397894D01*
X395696Y396366D01*
X391704Y396366D01*
X388016Y397894D01*
X385194Y400716D01*
X383815Y404044D01*
X383798Y404078D01*
X383785Y404114D01*
X383686Y404297D01*
X383590Y404483D01*
X383568Y404514D01*
X383549Y404548D01*
X383421Y404712D01*
X383297Y404880D01*
X383270Y404907D01*
X383247Y404937D01*
X383094Y405079D01*
X382944Y405225D01*
X382913Y405247D01*
X382885Y405273D01*
X382712Y405388D01*
X382540Y405508D01*
X382506Y405524D01*
X382474Y405545D01*
X382284Y405631D01*
X382096Y405722D01*
X382059Y405733D01*
X382024Y405748D01*
X381823Y405802D01*
X381622Y405861D01*
X381584Y405866D01*
X381548Y405876D01*
X381340Y405897D01*
X381133Y405923D01*
X381095Y405921D01*
X381057Y405925D01*
X380848Y405912D01*
X380640Y405904D01*
X380602Y405897D01*
X380564Y405894D01*
X380362Y405848D01*
X380156Y405806D01*
X380120Y405793D01*
X380083Y405784D01*
X379891Y405706D01*
X379695Y405632D01*
X379662Y405613D01*
X379627Y405598D01*
X379449Y405490D01*
X379268Y405385D01*
X379238Y405361D01*
X379206Y405341D01*
X379048Y405205D01*
X378886Y405073D01*
X378861Y405044D01*
X378832Y405019D01*
X378698Y404859D01*
X378559Y404703D01*
X378539Y404670D01*
X378515Y404641D01*
X378470Y404560D01*
X378297Y404285D01*
X378230Y404127D01*
X378185Y404044D01*
X376806Y400716D01*
X373984Y397894D01*
X370296Y396366D01*
X366304Y396366D01*
X362616Y397894D01*
X359794Y400716D01*
X358365Y404166D01*
X358293Y404306D01*
X358229Y404451D01*
X358180Y404526D01*
X358140Y404605D01*
X358046Y404732D01*
X357960Y404864D01*
X357900Y404930D01*
X357847Y405002D01*
X357734Y405112D01*
X357628Y405229D01*
X357557Y405284D01*
X357494Y405347D01*
X357364Y405437D01*
X357241Y405535D01*
X357163Y405578D01*
X357089Y405630D01*
X356947Y405698D01*
X356810Y405775D01*
X356725Y405805D01*
X356645Y405844D01*
X356494Y405888D01*
X356345Y405942D01*
X356257Y405958D01*
X356172Y405983D01*
X356016Y406003D01*
X355860Y406032D01*
X355771Y406033D01*
X355682Y406045D01*
X355525Y406039D01*
X355367Y406042D01*
X355278Y406029D01*
X355189Y406026D01*
X355035Y405995D01*
X354879Y405973D01*
X354793Y405946D01*
X354706Y405928D01*
X354558Y405873D01*
X354408Y405825D01*
X354328Y405785D01*
X354244Y405754D01*
X354108Y405675D01*
X353967Y405604D01*
X353894Y405552D01*
X353817Y405507D01*
X353695Y405407D01*
X353567Y405315D01*
X353504Y405251D01*
X353435Y405195D01*
X353331Y405077D01*
X353220Y404964D01*
X353168Y404892D01*
X353109Y404825D01*
X353025Y404691D01*
X352933Y404563D01*
X352905Y404500D01*
X352846Y404407D01*
X352655Y403952D01*
X352653Y403946D01*
X352651Y403942D01*
X352199Y402548D01*
X351482Y401141D01*
X350553Y399863D01*
X349437Y398747D01*
X348159Y397818D01*
X346752Y397101D01*
X345947Y396840D01*
X345947Y406400D01*
X345947Y415960D01*
X346752Y415699D01*
X348159Y414982D01*
X349437Y414053D01*
X350553Y412937D01*
X351482Y411659D01*
X352199Y410252D01*
X352651Y408858D01*
X352712Y408713D01*
X352764Y408564D01*
X352807Y408485D01*
X352841Y408403D01*
X352925Y408269D01*
X353000Y408131D01*
X353055Y408060D01*
X353102Y407984D01*
X353206Y407865D01*
X353303Y407741D01*
X353368Y407680D01*
X353427Y407613D01*
X353549Y407513D01*
X353665Y407405D01*
X353739Y407356D01*
X353808Y407299D01*
X353944Y407220D01*
X354076Y407133D01*
X354157Y407096D01*
X354234Y407051D01*
X354382Y406995D01*
X354525Y406930D01*
X354611Y406907D01*
X354695Y406875D01*
X354850Y406843D01*
X355002Y406802D01*
X355091Y406793D01*
X355178Y406775D01*
X355336Y406769D01*
X355493Y406753D01*
X355582Y406759D01*
X355671Y406755D01*
X355828Y406774D01*
X355985Y406784D01*
X356072Y406804D01*
X356161Y406815D01*
X356312Y406859D01*
X356466Y406894D01*
X356549Y406927D01*
X356635Y406952D01*
X356777Y407020D01*
X356923Y407080D01*
X356999Y407126D01*
X357080Y407165D01*
X357209Y407255D01*
X357344Y407337D01*
X357412Y407395D01*
X357485Y407446D01*
X357598Y407556D01*
X357718Y407659D01*
X357775Y407727D01*
X357839Y407789D01*
X357934Y407916D01*
X358035Y408037D01*
X358068Y408097D01*
X358134Y408185D01*
X358361Y408623D01*
X358363Y408630D01*
X358365Y408634D01*
X359794Y412084D01*
X362616Y414906D01*
X366304Y416434D01*
X370296Y416434D01*
X373984Y414906D01*
X376806Y412084D01*
X378185Y408756D01*
X378202Y408722D01*
X378215Y408686D01*
X378315Y408502D01*
X378410Y408317D01*
X378432Y408286D01*
X378451Y408252D01*
X378579Y408087D01*
X378703Y407920D01*
X378730Y407893D01*
X378753Y407863D01*
X378907Y407721D01*
X379056Y407575D01*
X379087Y407553D01*
X379115Y407527D01*
X379289Y407412D01*
X379460Y407292D01*
X379494Y407276D01*
X379526Y407255D01*
X379717Y407169D01*
X379905Y407078D01*
X379941Y407067D01*
X379976Y407052D01*
X380178Y406998D01*
X380378Y406939D01*
X380416Y406934D01*
X380452Y406924D01*
X380660Y406903D01*
X380867Y406877D01*
X380905Y406879D01*
X380943Y406875D01*
X381152Y406888D01*
X381360Y406896D01*
X381398Y406903D01*
X381436Y406906D01*
X381639Y406952D01*
X381844Y406994D01*
X381879Y407007D01*
X381917Y407016D01*
X382110Y407094D01*
X382305Y407168D01*
X382338Y407187D01*
X382374Y407202D01*
X382552Y407310D01*
X382732Y407415D01*
X382762Y407439D01*
X382794Y407459D01*
X382953Y407595D01*
X383114Y407727D01*
X383140Y407756D01*
X383168Y407781D01*
X383303Y407941D01*
X383441Y408097D01*
X383461Y408129D01*
X383485Y408159D01*
X383531Y408240D01*
X383703Y408515D01*
X383770Y408673D01*
X383815Y408756D01*
X385194Y412084D01*
X388016Y414906D01*
X391704Y416434D01*
X395696Y416434D01*
X399384Y414906D01*
X402206Y412084D01*
X403585Y408756D01*
X403602Y408722D01*
X403615Y408686D01*
X403715Y408502D01*
X403810Y408317D01*
X403832Y408286D01*
X403851Y408252D01*
X403979Y408087D01*
X404103Y407920D01*
X404130Y407893D01*
X404153Y407863D01*
X404307Y407721D01*
X404456Y407575D01*
X404487Y407553D01*
X404515Y407527D01*
X404689Y407412D01*
X404860Y407292D01*
X404894Y407276D01*
X404926Y407255D01*
X405117Y407169D01*
X405305Y407078D01*
X405341Y407067D01*
X405376Y407052D01*
X405578Y406998D01*
X405778Y406939D01*
X405816Y406934D01*
X405852Y406924D01*
X406060Y406903D01*
X406267Y406877D01*
X406305Y406879D01*
X406343Y406875D01*
X406552Y406888D01*
X406760Y406896D01*
X406798Y406903D01*
X406836Y406906D01*
X407039Y406952D01*
X407244Y406994D01*
X407279Y407007D01*
X407317Y407016D01*
X407510Y407094D01*
X407705Y407168D01*
X407738Y407187D01*
X407774Y407202D01*
X407952Y407310D01*
X408132Y407415D01*
X408162Y407439D01*
X408194Y407459D01*
X408353Y407595D01*
X408514Y407727D01*
X408540Y407756D01*
X408568Y407781D01*
X408703Y407941D01*
X408841Y408097D01*
X408861Y408129D01*
X408885Y408159D01*
X408931Y408240D01*
X409103Y408515D01*
X409170Y408673D01*
X409215Y408756D01*
X410594Y412084D01*
X413416Y414906D01*
X417104Y416434D01*
X421096Y416434D01*
X424784Y414906D01*
X427606Y412084D01*
X428985Y408756D01*
X429002Y408722D01*
X429015Y408686D01*
X429115Y408502D01*
X429210Y408317D01*
X429232Y408286D01*
X429251Y408252D01*
X429379Y408087D01*
X429503Y407920D01*
X429530Y407893D01*
X429553Y407863D01*
X429707Y407721D01*
X429856Y407575D01*
X429887Y407553D01*
X429915Y407527D01*
X430089Y407412D01*
X430260Y407292D01*
X430294Y407276D01*
X430326Y407255D01*
X430517Y407169D01*
X430705Y407078D01*
X430741Y407067D01*
X430776Y407052D01*
X430978Y406998D01*
X431178Y406939D01*
X431216Y406934D01*
X431252Y406924D01*
X431460Y406903D01*
X431667Y406877D01*
X431705Y406879D01*
X431743Y406875D01*
X431952Y406888D01*
X432160Y406896D01*
X432198Y406903D01*
X432236Y406906D01*
X432439Y406952D01*
X432644Y406994D01*
X432679Y407007D01*
X432717Y407016D01*
X432910Y407094D01*
X433105Y407168D01*
X433138Y407187D01*
X433174Y407202D01*
X433352Y407310D01*
X433532Y407415D01*
X433562Y407439D01*
X433594Y407459D01*
X433753Y407595D01*
X433914Y407727D01*
X433940Y407756D01*
X433968Y407781D01*
X434103Y407941D01*
X434241Y408097D01*
X434261Y408129D01*
X434285Y408159D01*
X434331Y408240D01*
X434503Y408515D01*
X434570Y408673D01*
X434615Y408756D01*
X435994Y412084D01*
X438816Y414906D01*
X442504Y416434D01*
X446496Y416434D01*
X450184Y414906D01*
X453006Y412084D01*
X454385Y408756D01*
X454402Y408722D01*
X454415Y408686D01*
X454515Y408502D01*
X454610Y408317D01*
X454632Y408286D01*
X454651Y408252D01*
X454779Y408087D01*
X454903Y407920D01*
X454930Y407893D01*
X454953Y407863D01*
X455107Y407721D01*
X455256Y407575D01*
X455287Y407553D01*
X455315Y407527D01*
X455489Y407412D01*
X455660Y407292D01*
X455694Y407276D01*
X455726Y407255D01*
X455917Y407169D01*
X456105Y407078D01*
X456141Y407067D01*
X456176Y407052D01*
X456378Y406998D01*
X456578Y406939D01*
X456616Y406934D01*
X456652Y406924D01*
X456860Y406903D01*
X457067Y406877D01*
X457105Y406879D01*
X457143Y406875D01*
X457352Y406888D01*
X457560Y406896D01*
X457598Y406903D01*
X457636Y406906D01*
X457839Y406952D01*
X458044Y406994D01*
X458079Y407007D01*
X458117Y407016D01*
X458310Y407094D01*
X458505Y407168D01*
X458538Y407187D01*
X458574Y407202D01*
X458752Y407310D01*
X458932Y407415D01*
X458962Y407439D01*
X458994Y407459D01*
X459153Y407595D01*
X459314Y407727D01*
X459340Y407756D01*
X459368Y407781D01*
X459503Y407941D01*
X459641Y408097D01*
X459661Y408129D01*
X459685Y408159D01*
X459731Y408240D01*
X459903Y408515D01*
X459970Y408673D01*
X460015Y408756D01*
X461394Y412084D01*
X464216Y414906D01*
X467904Y416434D01*
X471896Y416434D01*
X475584Y414906D01*
X478406Y412084D01*
X479785Y408756D01*
X479802Y408722D01*
X479815Y408686D01*
X479915Y408502D01*
X480010Y408317D01*
X480032Y408286D01*
X480051Y408252D01*
X480179Y408087D01*
X480303Y407920D01*
X480330Y407893D01*
X480353Y407863D01*
X480507Y407721D01*
X480656Y407575D01*
X480687Y407553D01*
X480715Y407527D01*
X480889Y407412D01*
X481060Y407292D01*
X481094Y407276D01*
X481126Y407255D01*
X481317Y407169D01*
X481505Y407078D01*
X481541Y407067D01*
X481576Y407052D01*
X481778Y406998D01*
X481978Y406939D01*
X482016Y406934D01*
X482052Y406924D01*
X482260Y406903D01*
X482467Y406877D01*
X482505Y406879D01*
X482543Y406875D01*
X482752Y406888D01*
X482960Y406896D01*
X482998Y406903D01*
X483036Y406906D01*
X483239Y406952D01*
X483444Y406994D01*
X483479Y407007D01*
X483517Y407016D01*
X483710Y407094D01*
X483905Y407168D01*
X483938Y407187D01*
X483974Y407202D01*
X484152Y407310D01*
X484332Y407415D01*
X484362Y407439D01*
X484394Y407459D01*
X484553Y407595D01*
X484714Y407727D01*
X484740Y407756D01*
X484768Y407781D01*
X484903Y407941D01*
X485041Y408097D01*
X485061Y408129D01*
X485085Y408159D01*
X485131Y408240D01*
X485303Y408515D01*
X485370Y408673D01*
X485415Y408756D01*
X486794Y412084D01*
X489616Y414906D01*
X493304Y416434D01*
X497296Y416434D01*
X500984Y414906D01*
X503806Y412084D01*
X505185Y408756D01*
X505202Y408722D01*
X505215Y408686D01*
X505315Y408502D01*
X505410Y408317D01*
X505432Y408286D01*
X505451Y408252D01*
X505579Y408087D01*
X505703Y407920D01*
X505730Y407893D01*
X505753Y407863D01*
X505907Y407721D01*
X506056Y407575D01*
X506087Y407553D01*
X506115Y407527D01*
X506289Y407412D01*
X506460Y407292D01*
X506494Y407276D01*
X506526Y407255D01*
X506717Y407169D01*
X506905Y407078D01*
X506941Y407067D01*
X506976Y407052D01*
X507178Y406998D01*
X507378Y406939D01*
X507416Y406934D01*
X507452Y406924D01*
X507660Y406903D01*
X507867Y406877D01*
X507905Y406879D01*
X507943Y406875D01*
X508152Y406888D01*
X508360Y406896D01*
X508398Y406903D01*
X508436Y406906D01*
X508639Y406952D01*
X508844Y406994D01*
X508879Y407007D01*
X508917Y407016D01*
X509110Y407094D01*
X509305Y407168D01*
X509338Y407187D01*
X509374Y407202D01*
X509552Y407310D01*
X509732Y407415D01*
X509762Y407439D01*
X509794Y407459D01*
X509953Y407595D01*
X510114Y407727D01*
X510140Y407756D01*
X510168Y407781D01*
X510303Y407941D01*
X510441Y408097D01*
X510461Y408129D01*
X510485Y408159D01*
X510531Y408240D01*
X510703Y408515D01*
X510770Y408673D01*
X510815Y408756D01*
X512194Y412084D01*
X515016Y414906D01*
X518704Y416434D01*
X521568Y416434D01*
X521682Y416443D01*
X521796Y416442D01*
X521927Y416463D01*
X522060Y416474D01*
X522170Y416501D01*
X522283Y416519D01*
X522410Y416560D01*
X522538Y416592D01*
X522643Y416637D01*
X522752Y416673D01*
X522870Y416735D01*
X522992Y416787D01*
X523088Y416848D01*
X523189Y416901D01*
X523263Y416960D01*
X523408Y417052D01*
X523650Y417268D01*
X523723Y417326D01*
X527025Y420628D01*
X527049Y420657D01*
X527078Y420683D01*
X527209Y420845D01*
X527344Y421004D01*
X527364Y421037D01*
X527388Y421067D01*
X527491Y421247D01*
X527599Y421427D01*
X527613Y421462D01*
X527632Y421495D01*
X527704Y421691D01*
X527782Y421885D01*
X527790Y421922D01*
X527803Y421958D01*
X527843Y422163D01*
X527889Y422367D01*
X527891Y422405D01*
X527898Y422442D01*
X527904Y422650D01*
X527916Y422859D01*
X527912Y422897D01*
X527913Y422935D01*
X527886Y423142D01*
X527864Y423350D01*
X527854Y423386D01*
X527849Y423424D01*
X527789Y423624D01*
X527733Y423825D01*
X527717Y423860D01*
X527706Y423897D01*
X527615Y424084D01*
X527528Y424274D01*
X527506Y424306D01*
X527490Y424340D01*
X527369Y424510D01*
X527252Y424683D01*
X527226Y424711D01*
X527204Y424742D01*
X527057Y424891D01*
X526914Y425043D01*
X526884Y425066D01*
X526857Y425093D01*
X526689Y425216D01*
X526523Y425343D01*
X526489Y425361D01*
X526459Y425383D01*
X526272Y425477D01*
X526088Y425576D01*
X526052Y425588D01*
X526018Y425606D01*
X525819Y425668D01*
X525622Y425736D01*
X525584Y425742D01*
X525548Y425754D01*
X525455Y425764D01*
X525135Y425819D01*
X524963Y425820D01*
X524870Y425830D01*
X516912Y425830D01*
X511555Y431187D01*
X511555Y438763D01*
X516912Y444120D01*
X524488Y444120D01*
X529845Y438763D01*
X529845Y430805D01*
X529848Y430767D01*
X529846Y430729D01*
X529868Y430521D01*
X529885Y430313D01*
X529894Y430276D01*
X529898Y430238D01*
X529953Y430037D01*
X530003Y429835D01*
X530018Y429800D01*
X530029Y429763D01*
X530116Y429573D01*
X530198Y429381D01*
X530218Y429349D01*
X530234Y429314D01*
X530351Y429141D01*
X530463Y428965D01*
X530488Y428937D01*
X530510Y428905D01*
X530653Y428753D01*
X530792Y428597D01*
X530821Y428573D01*
X530847Y428545D01*
X531014Y428418D01*
X531176Y428287D01*
X531208Y428269D01*
X531239Y428245D01*
X531424Y428146D01*
X531604Y428043D01*
X531640Y428030D01*
X531674Y428012D01*
X531871Y427944D01*
X532067Y427872D01*
X532104Y427864D01*
X532140Y427852D01*
X532347Y427817D01*
X532551Y427777D01*
X532589Y427776D01*
X532627Y427769D01*
X532836Y427768D01*
X533044Y427762D01*
X533082Y427767D01*
X533120Y427766D01*
X533327Y427799D01*
X533533Y427826D01*
X533570Y427837D01*
X533607Y427843D01*
X533806Y427908D01*
X534005Y427969D01*
X534040Y427985D01*
X534076Y427997D01*
X534261Y428094D01*
X534449Y428185D01*
X534480Y428207D01*
X534514Y428225D01*
X534586Y428283D01*
X534851Y428471D01*
X534973Y428592D01*
X535047Y428650D01*
X539619Y433222D01*
X539693Y433309D01*
X539774Y433390D01*
X539852Y433497D01*
X539938Y433598D01*
X539997Y433696D01*
X540064Y433788D01*
X540124Y433907D01*
X540193Y434021D01*
X540235Y434127D01*
X540287Y434229D01*
X540327Y434356D01*
X540376Y434479D01*
X540401Y434590D01*
X540435Y434699D01*
X540445Y434793D01*
X540483Y434961D01*
X540501Y435285D01*
X540511Y435377D01*
X540511Y456798D01*
X540502Y456912D01*
X540503Y457026D01*
X540482Y457157D01*
X540471Y457290D01*
X540444Y457400D01*
X540426Y457513D01*
X540385Y457639D01*
X540353Y457768D01*
X540308Y457873D01*
X540272Y457982D01*
X540211Y458100D01*
X540158Y458222D01*
X540097Y458318D01*
X540044Y458419D01*
X539985Y458493D01*
X539893Y458638D01*
X539677Y458880D01*
X539619Y458953D01*
X535047Y463525D01*
X535018Y463549D01*
X534992Y463578D01*
X534830Y463709D01*
X534671Y463844D01*
X534638Y463864D01*
X534608Y463888D01*
X534427Y463991D01*
X534248Y464099D01*
X534213Y464113D01*
X534180Y464132D01*
X533984Y464204D01*
X533790Y464282D01*
X533753Y464290D01*
X533717Y464303D01*
X533512Y464343D01*
X533308Y464389D01*
X533270Y464391D01*
X533233Y464398D01*
X533025Y464404D01*
X532816Y464416D01*
X532778Y464412D01*
X532740Y464413D01*
X532533Y464386D01*
X532325Y464364D01*
X532289Y464354D01*
X532251Y464349D01*
X532051Y464289D01*
X531850Y464233D01*
X531815Y464217D01*
X531778Y464206D01*
X531591Y464115D01*
X531401Y464028D01*
X531369Y464006D01*
X531335Y463990D01*
X531166Y463869D01*
X530992Y463752D01*
X530964Y463726D01*
X530933Y463704D01*
X530785Y463558D01*
X530641Y463422D01*
X523747Y463422D01*
X523747Y470328D01*
X523903Y470467D01*
X523927Y470496D01*
X523955Y470522D01*
X524082Y470688D01*
X524213Y470850D01*
X524232Y470884D01*
X524255Y470914D01*
X524353Y471098D01*
X524457Y471279D01*
X524470Y471315D01*
X524488Y471349D01*
X524556Y471546D01*
X524628Y471742D01*
X524636Y471779D01*
X524648Y471815D01*
X524683Y472022D01*
X524723Y472226D01*
X524724Y472264D01*
X524731Y472302D01*
X524732Y472511D01*
X524738Y472719D01*
X524733Y472757D01*
X524734Y472795D01*
X524701Y473002D01*
X524674Y473208D01*
X524663Y473245D01*
X524657Y473282D01*
X524592Y473480D01*
X524531Y473680D01*
X524515Y473715D01*
X524503Y473751D01*
X524406Y473936D01*
X524315Y474124D01*
X524293Y474155D01*
X524275Y474189D01*
X524217Y474261D01*
X524029Y474526D01*
X523908Y474648D01*
X523850Y474722D01*
X522453Y476119D01*
X522365Y476193D01*
X522285Y476274D01*
X522178Y476352D01*
X522077Y476438D01*
X521979Y476497D01*
X521887Y476564D01*
X521768Y476624D01*
X521654Y476693D01*
X521548Y476735D01*
X521446Y476787D01*
X521319Y476827D01*
X521196Y476876D01*
X521085Y476901D01*
X520976Y476935D01*
X520882Y476945D01*
X520714Y476983D01*
X520390Y477001D01*
X520298Y477011D01*
X330602Y477011D01*
X330488Y477002D01*
X330374Y477003D01*
X330243Y476982D01*
X330110Y476971D01*
X330000Y476944D01*
X329887Y476926D01*
X329760Y476885D01*
X329632Y476853D01*
X329527Y476808D01*
X329418Y476772D01*
X329300Y476710D01*
X329178Y476658D01*
X329082Y476597D01*
X328981Y476544D01*
X328907Y476485D01*
X328762Y476393D01*
X328520Y476177D01*
X328447Y476119D01*
X317491Y465162D01*
X315437Y464311D01*
X244126Y464311D01*
X244012Y464302D01*
X243898Y464303D01*
X243766Y464282D01*
X243634Y464271D01*
X243523Y464244D01*
X243410Y464226D01*
X243284Y464185D01*
X243155Y464153D01*
X243050Y464108D01*
X242942Y464072D01*
X242824Y464010D01*
X242702Y463958D01*
X242606Y463897D01*
X242504Y463844D01*
X242431Y463785D01*
X242286Y463693D01*
X242043Y463477D01*
X241971Y463419D01*
X240928Y462376D01*
X237666Y461024D01*
X234134Y461024D01*
X230872Y462376D01*
X228376Y464872D01*
X227024Y468134D01*
X227024Y471666D01*
X228376Y474928D01*
X230872Y477424D01*
X234134Y478776D01*
X237666Y478776D01*
X240928Y477424D01*
X241971Y476381D01*
X242058Y476307D01*
X242138Y476226D01*
X242246Y476148D01*
X242347Y476062D01*
X242445Y476003D01*
X242537Y475936D01*
X242655Y475876D01*
X242769Y475807D01*
X242876Y475765D01*
X242977Y475713D01*
X243104Y475673D01*
X243228Y475624D01*
X243339Y475599D01*
X243448Y475565D01*
X243541Y475555D01*
X243709Y475517D01*
X244033Y475499D01*
X244126Y475489D01*
X310748Y475489D01*
X310862Y475498D01*
X310976Y475497D01*
X311107Y475518D01*
X311240Y475529D01*
X311350Y475556D01*
X311463Y475574D01*
X311590Y475615D01*
X311718Y475647D01*
X311823Y475692D01*
X311932Y475728D01*
X312050Y475790D01*
X312172Y475842D01*
X312268Y475903D01*
X312369Y475956D01*
X312443Y476015D01*
X312588Y476107D01*
X312830Y476323D01*
X312903Y476381D01*
X323859Y487338D01*
X325913Y488189D01*
X524987Y488189D01*
X527041Y487338D01*
X550838Y463541D01*
X551689Y461487D01*
X551689Y430688D01*
X550838Y428634D01*
X548837Y426634D01*
X543839Y421636D01*
X543815Y421607D01*
X543786Y421581D01*
X543655Y421419D01*
X543520Y421260D01*
X543500Y421227D01*
X543476Y421197D01*
X543373Y421016D01*
X543265Y420837D01*
X543251Y420802D01*
X543232Y420769D01*
X543160Y420573D01*
X543082Y420379D01*
X543074Y420342D01*
X543061Y420306D01*
X543021Y420101D01*
X542975Y419897D01*
X542973Y419859D01*
X542966Y419822D01*
X542960Y419614D01*
X542948Y419405D01*
X542952Y419367D01*
X542951Y419329D01*
X542978Y419122D01*
X543000Y418914D01*
X543010Y418878D01*
X543015Y418840D01*
X543075Y418640D01*
X543131Y418439D01*
X543147Y418404D01*
X543158Y418367D01*
X543249Y418180D01*
X543336Y417990D01*
X543358Y417958D01*
X543374Y417924D01*
X543495Y417755D01*
X543612Y417581D01*
X543638Y417553D01*
X543660Y417522D01*
X543806Y417374D01*
X543950Y417221D01*
X543980Y417198D01*
X544007Y417171D01*
X544175Y417048D01*
X544341Y416921D01*
X544375Y416903D01*
X544405Y416881D01*
X544591Y416787D01*
X544776Y416688D01*
X544812Y416675D01*
X544846Y416658D01*
X545045Y416596D01*
X545242Y416528D01*
X545280Y416522D01*
X545316Y416510D01*
X545409Y416500D01*
X545729Y416445D01*
X545901Y416444D01*
X545994Y416434D01*
X554645Y416434D01*
X554740Y416339D01*
X554769Y416314D01*
X554795Y416286D01*
X554957Y416155D01*
X555116Y416019D01*
X555149Y416000D01*
X555179Y415976D01*
X555360Y415873D01*
X555539Y415765D01*
X555574Y415751D01*
X555607Y415732D01*
X555803Y415659D01*
X555997Y415582D01*
X556034Y415573D01*
X556070Y415560D01*
X556274Y415520D01*
X556478Y415475D01*
X556517Y415473D01*
X556554Y415465D01*
X556762Y415459D01*
X556971Y415447D01*
X557009Y415451D01*
X557047Y415450D01*
X557253Y415477D01*
X557462Y415499D01*
X557498Y415510D01*
X557536Y415515D01*
X557736Y415575D01*
X557937Y415630D01*
X557972Y415646D01*
X558009Y415657D01*
X558197Y415749D01*
X558386Y415836D01*
X558417Y415857D01*
X558452Y415874D01*
X558622Y415995D01*
X558795Y416111D01*
X558823Y416137D01*
X558854Y416159D01*
X559002Y416306D01*
X559155Y416449D01*
X559178Y416479D01*
X559205Y416506D01*
X559328Y416675D01*
X559455Y416840D01*
X559473Y416874D01*
X559495Y416905D01*
X559589Y417091D01*
X559688Y417275D01*
X559700Y417311D01*
X559718Y417345D01*
X559781Y417545D01*
X559848Y417742D01*
X559854Y417779D01*
X559866Y417816D01*
X559876Y417908D01*
X559931Y418228D01*
X559932Y418400D01*
X559942Y418494D01*
X559942Y477743D01*
X560793Y479797D01*
X562794Y481797D01*
X572872Y491875D01*
X572896Y491904D01*
X572925Y491930D01*
X573056Y492092D01*
X573191Y492251D01*
X573211Y492284D01*
X573235Y492314D01*
X573338Y492494D01*
X573446Y492674D01*
X573460Y492709D01*
X573479Y492742D01*
X573551Y492938D01*
X573629Y493132D01*
X573637Y493169D01*
X573650Y493205D01*
X573690Y493410D01*
X573736Y493614D01*
X573738Y493652D01*
X573745Y493689D01*
X573751Y493897D01*
X573763Y494106D01*
X573759Y494144D01*
X573760Y494182D01*
X573733Y494389D01*
X573711Y494597D01*
X573701Y494633D01*
X573696Y494671D01*
X573636Y494871D01*
X573580Y495072D01*
X573564Y495107D01*
X573553Y495144D01*
X573462Y495331D01*
X573375Y495521D01*
X573353Y495553D01*
X573337Y495587D01*
X573216Y495756D01*
X573099Y495930D01*
X573073Y495958D01*
X573051Y495989D01*
X572905Y496137D01*
X572761Y496290D01*
X572731Y496313D01*
X572704Y496340D01*
X572536Y496463D01*
X572370Y496590D01*
X572336Y496608D01*
X572306Y496630D01*
X572120Y496724D01*
X571935Y496823D01*
X571899Y496836D01*
X571865Y496853D01*
X571666Y496915D01*
X571469Y496983D01*
X571431Y496989D01*
X571395Y497001D01*
X571302Y497011D01*
X570982Y497066D01*
X570810Y497067D01*
X570717Y497077D01*
X566976Y497077D01*
X560955Y503098D01*
X560897Y503147D01*
X560844Y503203D01*
X560709Y503307D01*
X560579Y503418D01*
X560513Y503457D01*
X560453Y503503D01*
X560303Y503584D01*
X560156Y503672D01*
X560085Y503701D01*
X560018Y503737D01*
X559857Y503792D01*
X559698Y503855D01*
X559624Y503872D01*
X559552Y503897D01*
X559383Y503925D01*
X559216Y503962D01*
X559140Y503966D01*
X559065Y503979D01*
X558894Y503980D01*
X558724Y503990D01*
X558648Y503982D01*
X558572Y503982D01*
X558403Y503956D01*
X558233Y503938D01*
X558160Y503917D01*
X558085Y503906D01*
X557922Y503852D01*
X557758Y503807D01*
X557688Y503775D01*
X557616Y503751D01*
X557465Y503672D01*
X557309Y503601D01*
X557246Y503559D01*
X557178Y503523D01*
X557096Y503458D01*
X556900Y503326D01*
X556728Y503164D01*
X556645Y503098D01*
X550624Y497077D01*
X541576Y497077D01*
X535555Y503098D01*
X535497Y503148D01*
X535445Y503203D01*
X535309Y503307D01*
X535179Y503418D01*
X535113Y503457D01*
X535053Y503503D01*
X534903Y503584D01*
X534756Y503672D01*
X534686Y503701D01*
X534618Y503737D01*
X534457Y503792D01*
X534298Y503855D01*
X534224Y503872D01*
X534152Y503897D01*
X533983Y503925D01*
X533817Y503962D01*
X533740Y503966D01*
X533665Y503979D01*
X533494Y503980D01*
X533324Y503990D01*
X533248Y503982D01*
X533172Y503982D01*
X533003Y503956D01*
X532833Y503938D01*
X532760Y503917D01*
X532685Y503906D01*
X532522Y503852D01*
X532358Y503807D01*
X532288Y503775D01*
X532216Y503751D01*
X532065Y503672D01*
X531909Y503601D01*
X531846Y503559D01*
X531778Y503523D01*
X531696Y503458D01*
X531500Y503326D01*
X531327Y503164D01*
X531245Y503098D01*
X525224Y497077D01*
X516176Y497077D01*
X510155Y503098D01*
X510097Y503148D01*
X510045Y503203D01*
X509909Y503307D01*
X509779Y503418D01*
X509713Y503457D01*
X509653Y503503D01*
X509503Y503584D01*
X509356Y503672D01*
X509286Y503701D01*
X509218Y503737D01*
X509057Y503792D01*
X508898Y503855D01*
X508824Y503872D01*
X508752Y503897D01*
X508583Y503925D01*
X508417Y503962D01*
X508340Y503966D01*
X508265Y503979D01*
X508094Y503980D01*
X507924Y503990D01*
X507848Y503982D01*
X507772Y503982D01*
X507603Y503956D01*
X507433Y503938D01*
X507360Y503917D01*
X507285Y503906D01*
X507122Y503852D01*
X506958Y503807D01*
X506888Y503775D01*
X506816Y503751D01*
X506665Y503672D01*
X506509Y503601D01*
X506446Y503559D01*
X506378Y503523D01*
X506296Y503458D01*
X506100Y503326D01*
X505927Y503164D01*
X505845Y503098D01*
X499824Y497077D01*
X490776Y497077D01*
X484755Y503098D01*
X484697Y503148D01*
X484645Y503203D01*
X484509Y503307D01*
X484379Y503418D01*
X484313Y503457D01*
X484253Y503503D01*
X484103Y503584D01*
X483956Y503672D01*
X483886Y503701D01*
X483818Y503737D01*
X483657Y503792D01*
X483498Y503855D01*
X483424Y503872D01*
X483352Y503897D01*
X483183Y503925D01*
X483017Y503962D01*
X482940Y503966D01*
X482865Y503979D01*
X482694Y503980D01*
X482524Y503990D01*
X482448Y503982D01*
X482372Y503982D01*
X482203Y503956D01*
X482033Y503938D01*
X481960Y503917D01*
X481885Y503906D01*
X481722Y503852D01*
X481558Y503807D01*
X481488Y503775D01*
X481416Y503751D01*
X481265Y503672D01*
X481109Y503601D01*
X481046Y503559D01*
X480978Y503523D01*
X480896Y503458D01*
X480700Y503326D01*
X480527Y503164D01*
X480445Y503098D01*
X474424Y497077D01*
X465376Y497077D01*
X458977Y503476D01*
X458977Y512524D01*
X465376Y518923D01*
X474424Y518923D01*
X480445Y512902D01*
X480503Y512853D01*
X480556Y512797D01*
X480691Y512693D01*
X480821Y512582D01*
X480887Y512543D01*
X480947Y512497D01*
X481097Y512416D01*
X481244Y512328D01*
X481315Y512299D01*
X481382Y512263D01*
X481543Y512208D01*
X481702Y512145D01*
X481776Y512128D01*
X481848Y512103D01*
X482017Y512075D01*
X482184Y512038D01*
X482260Y512034D01*
X482335Y512021D01*
X482506Y512020D01*
X482676Y512010D01*
X482752Y512018D01*
X482828Y512018D01*
X482997Y512044D01*
X483167Y512062D01*
X483240Y512083D01*
X483315Y512094D01*
X483478Y512148D01*
X483642Y512193D01*
X483712Y512225D01*
X483784Y512249D01*
X483935Y512328D01*
X484091Y512399D01*
X484154Y512441D01*
X484222Y512477D01*
X484304Y512542D01*
X484500Y512674D01*
X484672Y512836D01*
X484755Y512902D01*
X490776Y518923D01*
X499824Y518923D01*
X505845Y512902D01*
X505903Y512853D01*
X505956Y512797D01*
X506091Y512693D01*
X506221Y512582D01*
X506287Y512543D01*
X506347Y512497D01*
X506497Y512416D01*
X506644Y512328D01*
X506715Y512299D01*
X506782Y512263D01*
X506943Y512208D01*
X507102Y512145D01*
X507176Y512128D01*
X507248Y512103D01*
X507417Y512075D01*
X507584Y512038D01*
X507660Y512034D01*
X507735Y512021D01*
X507906Y512020D01*
X508076Y512010D01*
X508152Y512018D01*
X508228Y512018D01*
X508397Y512044D01*
X508567Y512062D01*
X508640Y512083D01*
X508715Y512094D01*
X508878Y512148D01*
X509042Y512193D01*
X509112Y512225D01*
X509184Y512249D01*
X509335Y512328D01*
X509491Y512399D01*
X509554Y512441D01*
X509622Y512477D01*
X509704Y512542D01*
X509900Y512674D01*
X510072Y512836D01*
X510155Y512902D01*
X516176Y518923D01*
X525224Y518923D01*
X531245Y512902D01*
X531303Y512853D01*
X531356Y512797D01*
X531491Y512693D01*
X531621Y512582D01*
X531687Y512543D01*
X531747Y512497D01*
X531897Y512416D01*
X532044Y512328D01*
X532115Y512299D01*
X532182Y512263D01*
X532343Y512208D01*
X532502Y512145D01*
X532576Y512128D01*
X532648Y512103D01*
X532817Y512075D01*
X532984Y512038D01*
X533060Y512034D01*
X533135Y512021D01*
X533306Y512020D01*
X533476Y512010D01*
X533552Y512018D01*
X533628Y512018D01*
X533797Y512044D01*
X533967Y512062D01*
X534040Y512083D01*
X534115Y512094D01*
X534278Y512148D01*
X534442Y512193D01*
X534512Y512225D01*
X534584Y512249D01*
X534735Y512328D01*
X534891Y512399D01*
X534954Y512441D01*
X535022Y512477D01*
X535104Y512542D01*
X535300Y512674D01*
X535472Y512836D01*
X535555Y512902D01*
X541576Y518923D01*
X550624Y518923D01*
X556645Y512902D01*
X556703Y512852D01*
X556755Y512797D01*
X556891Y512693D01*
X557021Y512582D01*
X557087Y512543D01*
X557147Y512497D01*
X557297Y512416D01*
X557444Y512328D01*
X557514Y512299D01*
X557582Y512263D01*
X557743Y512208D01*
X557902Y512145D01*
X557976Y512128D01*
X558048Y512103D01*
X558217Y512075D01*
X558383Y512038D01*
X558460Y512034D01*
X558535Y512021D01*
X558706Y512020D01*
X558876Y512010D01*
X558952Y512018D01*
X559028Y512018D01*
X559197Y512044D01*
X559367Y512062D01*
X559440Y512083D01*
X559515Y512094D01*
X559678Y512148D01*
X559842Y512193D01*
X559912Y512225D01*
X559984Y512249D01*
X560135Y512328D01*
X560291Y512399D01*
X560354Y512441D01*
X560422Y512477D01*
X560504Y512542D01*
X560700Y512674D01*
X560873Y512836D01*
X560955Y512902D01*
X566976Y518923D01*
X576024Y518923D01*
X582045Y512902D01*
X582103Y512852D01*
X582155Y512797D01*
X582291Y512693D01*
X582421Y512582D01*
X582487Y512543D01*
X582547Y512497D01*
X582697Y512416D01*
X582844Y512328D01*
X582914Y512299D01*
X582982Y512263D01*
X583143Y512208D01*
X583302Y512145D01*
X583376Y512128D01*
X583448Y512103D01*
X583617Y512075D01*
X583783Y512038D01*
X583860Y512034D01*
X583935Y512021D01*
X584106Y512020D01*
X584276Y512010D01*
X584352Y512018D01*
X584428Y512018D01*
X584597Y512044D01*
X584767Y512062D01*
X584840Y512083D01*
X584915Y512094D01*
X585078Y512148D01*
X585242Y512193D01*
X585312Y512225D01*
X585384Y512249D01*
X585535Y512328D01*
X585691Y512399D01*
X585754Y512441D01*
X585822Y512477D01*
X585904Y512542D01*
X586100Y512674D01*
X586273Y512836D01*
X586355Y512902D01*
X592376Y518923D01*
X601424Y518923D01*
X607445Y512902D01*
X607503Y512852D01*
X607555Y512797D01*
X607691Y512693D01*
X607821Y512582D01*
X607887Y512543D01*
X607947Y512497D01*
X608097Y512416D01*
X608244Y512328D01*
X608314Y512299D01*
X608382Y512263D01*
X608543Y512208D01*
X608702Y512145D01*
X608776Y512128D01*
X608848Y512103D01*
X609017Y512075D01*
X609183Y512038D01*
X609260Y512034D01*
X609335Y512021D01*
X609506Y512020D01*
X609676Y512010D01*
X609752Y512018D01*
X609828Y512018D01*
X609997Y512044D01*
X610167Y512062D01*
X610240Y512083D01*
X610315Y512094D01*
X610478Y512148D01*
X610642Y512193D01*
X610712Y512225D01*
X610784Y512249D01*
X610935Y512328D01*
X611091Y512399D01*
X611154Y512441D01*
X611222Y512477D01*
X611304Y512542D01*
X611500Y512674D01*
X611673Y512836D01*
X611755Y512902D01*
X617776Y518923D01*
X626824Y518923D01*
X632845Y512902D01*
X632903Y512852D01*
X632955Y512797D01*
X633091Y512693D01*
X633221Y512582D01*
X633287Y512543D01*
X633347Y512497D01*
X633497Y512416D01*
X633644Y512328D01*
X633714Y512299D01*
X633782Y512263D01*
X633943Y512208D01*
X634102Y512145D01*
X634176Y512128D01*
X634248Y512103D01*
X634417Y512075D01*
X634583Y512038D01*
X634660Y512034D01*
X634735Y512021D01*
X634906Y512020D01*
X635076Y512010D01*
X635152Y512018D01*
X635228Y512018D01*
X635397Y512044D01*
X635567Y512062D01*
X635640Y512083D01*
X635715Y512094D01*
X635878Y512148D01*
X636042Y512193D01*
X636112Y512225D01*
X636184Y512249D01*
X636335Y512328D01*
X636491Y512399D01*
X636554Y512441D01*
X636622Y512477D01*
X636704Y512542D01*
X636900Y512674D01*
X637073Y512836D01*
X637155Y512902D01*
X643176Y518923D01*
X652224Y518923D01*
X658623Y512524D01*
X658623Y503476D01*
X652224Y497077D01*
X643176Y497077D01*
X637155Y503098D01*
X637097Y503147D01*
X637044Y503203D01*
X636909Y503307D01*
X636779Y503418D01*
X636713Y503457D01*
X636653Y503503D01*
X636503Y503584D01*
X636356Y503672D01*
X636285Y503701D01*
X636218Y503737D01*
X636057Y503792D01*
X635898Y503855D01*
X635824Y503872D01*
X635752Y503897D01*
X635583Y503925D01*
X635416Y503962D01*
X635340Y503966D01*
X635265Y503979D01*
X635094Y503980D01*
X634924Y503990D01*
X634848Y503982D01*
X634772Y503982D01*
X634603Y503956D01*
X634433Y503938D01*
X634360Y503917D01*
X634285Y503906D01*
X634122Y503852D01*
X633958Y503807D01*
X633888Y503775D01*
X633816Y503751D01*
X633665Y503672D01*
X633509Y503601D01*
X633446Y503559D01*
X633378Y503523D01*
X633296Y503458D01*
X633100Y503326D01*
X632928Y503164D01*
X632845Y503098D01*
X626824Y497077D01*
X617776Y497077D01*
X611755Y503098D01*
X611697Y503147D01*
X611644Y503203D01*
X611509Y503307D01*
X611379Y503418D01*
X611313Y503457D01*
X611253Y503503D01*
X611103Y503584D01*
X610956Y503672D01*
X610885Y503701D01*
X610818Y503737D01*
X610657Y503792D01*
X610498Y503855D01*
X610424Y503872D01*
X610352Y503897D01*
X610183Y503925D01*
X610016Y503962D01*
X609940Y503966D01*
X609865Y503979D01*
X609694Y503980D01*
X609524Y503990D01*
X609448Y503982D01*
X609372Y503982D01*
X609203Y503956D01*
X609033Y503938D01*
X608960Y503917D01*
X608885Y503906D01*
X608722Y503852D01*
X608558Y503807D01*
X608488Y503775D01*
X608416Y503751D01*
X608265Y503672D01*
X608109Y503601D01*
X608046Y503559D01*
X607978Y503523D01*
X607896Y503458D01*
X607700Y503326D01*
X607528Y503164D01*
X607445Y503098D01*
X601424Y497077D01*
X595143Y497077D01*
X595029Y497068D01*
X594915Y497069D01*
X594784Y497048D01*
X594651Y497037D01*
X594541Y497010D01*
X594428Y496992D01*
X594301Y496951D01*
X594173Y496919D01*
X594068Y496874D01*
X593959Y496838D01*
X593841Y496776D01*
X593719Y496724D01*
X593623Y496663D01*
X593522Y496610D01*
X593448Y496551D01*
X593303Y496459D01*
X593061Y496243D01*
X592988Y496185D01*
X572012Y475209D01*
X571938Y475122D01*
X571857Y475041D01*
X571779Y474934D01*
X571693Y474833D01*
X571634Y474735D01*
X571567Y474643D01*
X571507Y474524D01*
X571438Y474410D01*
X571396Y474304D01*
X571344Y474202D01*
X571304Y474075D01*
X571255Y473952D01*
X571230Y473841D01*
X571196Y473732D01*
X571186Y473638D01*
X571148Y473470D01*
X571130Y473146D01*
X571120Y473054D01*
X571120Y470291D01*
X571123Y470253D01*
X571121Y470215D01*
X571143Y470007D01*
X571160Y469799D01*
X571169Y469762D01*
X571173Y469724D01*
X571228Y469523D01*
X571278Y469320D01*
X571293Y469285D01*
X571304Y469249D01*
X571390Y469059D01*
X571473Y468867D01*
X571493Y468835D01*
X571509Y468800D01*
X571626Y468627D01*
X571738Y468451D01*
X571763Y468423D01*
X571785Y468391D01*
X571928Y468238D01*
X572067Y468083D01*
X572096Y468059D01*
X572123Y468031D01*
X572288Y467904D01*
X572451Y467773D01*
X572484Y467754D01*
X572514Y467731D01*
X572698Y467632D01*
X572879Y467529D01*
X572915Y467516D01*
X572949Y467498D01*
X573146Y467430D01*
X573342Y467357D01*
X573379Y467350D01*
X573415Y467338D01*
X573622Y467303D01*
X573826Y467263D01*
X573864Y467262D01*
X573902Y467255D01*
X574111Y467254D01*
X574319Y467247D01*
X574357Y467252D01*
X574395Y467252D01*
X574602Y467285D01*
X574808Y467312D01*
X574845Y467323D01*
X574882Y467329D01*
X575080Y467394D01*
X575280Y467454D01*
X575315Y467471D01*
X575351Y467483D01*
X575536Y467579D01*
X575724Y467671D01*
X575755Y467693D01*
X575789Y467711D01*
X575861Y467769D01*
X576126Y467957D01*
X576248Y468078D01*
X576322Y468136D01*
X577174Y468989D01*
X580909Y470536D01*
X600191Y470536D01*
X603926Y468989D01*
X606784Y466131D01*
X608331Y462396D01*
X608331Y458354D01*
X606784Y454619D01*
X603926Y451761D01*
X600858Y450490D01*
X600824Y450473D01*
X600788Y450460D01*
X600604Y450360D01*
X600418Y450265D01*
X600388Y450243D01*
X600354Y450224D01*
X600190Y450097D01*
X600022Y449972D01*
X599995Y449945D01*
X599965Y449922D01*
X599823Y449769D01*
X599677Y449619D01*
X599655Y449588D01*
X599629Y449560D01*
X599514Y449386D01*
X599394Y449215D01*
X599378Y449181D01*
X599356Y449149D01*
X599270Y448958D01*
X599180Y448771D01*
X599169Y448734D01*
X599154Y448699D01*
X599100Y448497D01*
X599041Y448297D01*
X599036Y448259D01*
X599026Y448223D01*
X599005Y448015D01*
X598979Y447808D01*
X598981Y447770D01*
X598977Y447732D01*
X598990Y447523D01*
X598998Y447315D01*
X599005Y447277D01*
X599008Y447239D01*
X599054Y447036D01*
X599095Y446831D01*
X599109Y446796D01*
X599117Y446758D01*
X599196Y446565D01*
X599270Y446370D01*
X599289Y446337D01*
X599303Y446301D01*
X599412Y446123D01*
X599517Y445943D01*
X599541Y445913D01*
X599561Y445881D01*
X599697Y445723D01*
X599829Y445561D01*
X599858Y445536D01*
X599883Y445507D01*
X600042Y445373D01*
X600199Y445234D01*
X600231Y445214D01*
X600261Y445190D01*
X600342Y445145D01*
X600617Y444972D01*
X600775Y444905D01*
X600857Y444860D01*
X603926Y443589D01*
X606784Y440731D01*
X608331Y436996D01*
X608331Y432954D01*
X606784Y429219D01*
X603926Y426361D01*
X600858Y425090D01*
X600824Y425073D01*
X600788Y425060D01*
X600604Y424960D01*
X600418Y424865D01*
X600388Y424843D01*
X600354Y424824D01*
X600190Y424697D01*
X600022Y424572D01*
X599995Y424545D01*
X599965Y424522D01*
X599823Y424369D01*
X599677Y424219D01*
X599655Y424188D01*
X599629Y424160D01*
X599514Y423986D01*
X599394Y423815D01*
X599378Y423781D01*
X599356Y423749D01*
X599270Y423558D01*
X599180Y423371D01*
X599169Y423334D01*
X599154Y423299D01*
X599100Y423097D01*
X599041Y422897D01*
X599036Y422859D01*
X599026Y422823D01*
X599005Y422615D01*
X598979Y422408D01*
X598981Y422370D01*
X598977Y422332D01*
X598990Y422123D01*
X598998Y421915D01*
X599005Y421877D01*
X599008Y421839D01*
X599054Y421636D01*
X599095Y421431D01*
X599109Y421396D01*
X599117Y421358D01*
X599196Y421165D01*
X599270Y420970D01*
X599289Y420937D01*
X599303Y420901D01*
X599412Y420723D01*
X599517Y420543D01*
X599541Y420513D01*
X599561Y420481D01*
X599697Y420323D01*
X599829Y420161D01*
X599858Y420136D01*
X599883Y420107D01*
X600042Y419973D01*
X600199Y419834D01*
X600231Y419814D01*
X600261Y419790D01*
X600342Y419745D01*
X600617Y419572D01*
X600775Y419505D01*
X600857Y419460D01*
X603926Y418189D01*
X606784Y415331D01*
X608331Y411596D01*
X608331Y407554D01*
X606784Y403819D01*
X603926Y400961D01*
X600191Y399414D01*
X580909Y399414D01*
X577174Y400961D01*
X576322Y401814D01*
X576293Y401839D01*
X576267Y401867D01*
X576105Y401998D01*
X575946Y402133D01*
X575913Y402153D01*
X575883Y402177D01*
X575702Y402280D01*
X575523Y402388D01*
X575488Y402402D01*
X575455Y402421D01*
X575259Y402494D01*
X575065Y402571D01*
X575028Y402579D01*
X574992Y402593D01*
X574788Y402632D01*
X574584Y402678D01*
X574545Y402680D01*
X574508Y402687D01*
X574300Y402694D01*
X574091Y402705D01*
X574053Y402701D01*
X574015Y402703D01*
X573809Y402675D01*
X573600Y402653D01*
X573564Y402643D01*
X573526Y402638D01*
X573326Y402578D01*
X573125Y402523D01*
X573090Y402507D01*
X573053Y402496D01*
X572866Y402404D01*
X572676Y402317D01*
X572645Y402296D01*
X572610Y402279D01*
X572440Y402158D01*
X572267Y402041D01*
X572239Y402015D01*
X572208Y401993D01*
X572060Y401847D01*
X571907Y401704D01*
X571884Y401673D01*
X571857Y401647D01*
X571734Y401478D01*
X571607Y401312D01*
X571589Y401279D01*
X571567Y401248D01*
X571473Y401062D01*
X571374Y400878D01*
X571361Y400841D01*
X571344Y400807D01*
X571281Y400608D01*
X571214Y400411D01*
X571208Y400373D01*
X571196Y400337D01*
X571186Y400244D01*
X571131Y399924D01*
X571130Y399752D01*
X571120Y399659D01*
X571120Y370081D01*
X570269Y368027D01*
X568269Y366026D01*
X568268Y366026D01*
X568125Y365883D01*
X568100Y365854D01*
X568072Y365828D01*
X567941Y365666D01*
X567806Y365507D01*
X567786Y365474D01*
X567762Y365444D01*
X567659Y365263D01*
X567551Y365085D01*
X567537Y365049D01*
X567518Y365016D01*
X567445Y364820D01*
X567368Y364626D01*
X567360Y364589D01*
X567346Y364553D01*
X567306Y364348D01*
X567261Y364145D01*
X567259Y364107D01*
X567252Y364069D01*
X567245Y363861D01*
X567233Y363652D01*
X567237Y363614D01*
X567236Y363576D01*
X567263Y363369D01*
X567286Y363162D01*
X567296Y363125D01*
X567301Y363087D01*
X567361Y362886D01*
X567416Y362686D01*
X567432Y362651D01*
X567443Y362614D01*
X567535Y362427D01*
X567622Y362238D01*
X567643Y362206D01*
X567660Y362171D01*
X567781Y362002D01*
X567897Y361828D01*
X567923Y361800D01*
X567946Y361769D01*
X568092Y361621D01*
X568235Y361469D01*
X568265Y361445D01*
X568292Y361418D01*
X568460Y361296D01*
X568626Y361168D01*
X568660Y361150D01*
X568691Y361128D01*
X568877Y361034D01*
X569061Y360935D01*
X569097Y360923D01*
X569131Y360905D01*
X569330Y360843D01*
X569528Y360775D01*
X569565Y360769D01*
X569602Y360757D01*
X569695Y360747D01*
X570014Y360692D01*
X570186Y360691D01*
X570280Y360681D01*
X645665Y360681D01*
X647719Y359830D01*
X689995Y317553D01*
X690024Y317529D01*
X690050Y317500D01*
X690212Y317369D01*
X690371Y317234D01*
X690404Y317214D01*
X690434Y317190D01*
X690614Y317087D01*
X690794Y316979D01*
X690829Y316965D01*
X690862Y316946D01*
X691058Y316874D01*
X691252Y316796D01*
X691289Y316788D01*
X691325Y316775D01*
X691530Y316735D01*
X691734Y316689D01*
X691772Y316687D01*
X691809Y316680D01*
X692017Y316674D01*
X692226Y316662D01*
X692264Y316666D01*
X692302Y316665D01*
X692509Y316692D01*
X692717Y316714D01*
X692753Y316724D01*
X692791Y316729D01*
X692991Y316789D01*
X693192Y316845D01*
X693227Y316861D01*
X693264Y316872D01*
X693451Y316963D01*
X693641Y317050D01*
X693673Y317072D01*
X693707Y317088D01*
X693877Y317209D01*
X694050Y317326D01*
X694078Y317352D01*
X694109Y317374D01*
X694258Y317521D01*
X694410Y317664D01*
X694433Y317694D01*
X694460Y317721D01*
X694583Y317889D01*
X694710Y318055D01*
X694728Y318089D01*
X694750Y318119D01*
X694844Y318306D01*
X694943Y318490D01*
X694955Y318526D01*
X694973Y318560D01*
X695035Y318759D01*
X695103Y318956D01*
X695109Y318994D01*
X695121Y319030D01*
X695131Y319123D01*
X695186Y319443D01*
X695187Y319615D01*
X695197Y319708D01*
X695197Y374650D01*
X695188Y374764D01*
X695189Y374878D01*
X695168Y375009D01*
X695157Y375142D01*
X695130Y375252D01*
X695112Y375365D01*
X695071Y375492D01*
X695039Y375621D01*
X694994Y375725D01*
X694958Y375834D01*
X694896Y375952D01*
X694844Y376074D01*
X694783Y376170D01*
X694730Y376272D01*
X694671Y376345D01*
X694579Y376490D01*
X694363Y376732D01*
X694305Y376805D01*
X669797Y401312D01*
X669797Y511175D01*
X669788Y511289D01*
X669789Y511403D01*
X669768Y511534D01*
X669757Y511667D01*
X669730Y511777D01*
X669712Y511890D01*
X669671Y512017D01*
X669639Y512146D01*
X669594Y512250D01*
X669558Y512359D01*
X669496Y512477D01*
X669444Y512599D01*
X669383Y512695D01*
X669330Y512797D01*
X669271Y512870D01*
X669179Y513015D01*
X668963Y513257D01*
X668905Y513330D01*
X656205Y526030D01*
X656118Y526104D01*
X656037Y526185D01*
X655930Y526263D01*
X655829Y526349D01*
X655731Y526408D01*
X655639Y526475D01*
X655520Y526535D01*
X655406Y526604D01*
X655300Y526646D01*
X655198Y526698D01*
X655071Y526738D01*
X654948Y526787D01*
X654837Y526812D01*
X654728Y526846D01*
X654634Y526856D01*
X654467Y526894D01*
X654142Y526912D01*
X654050Y526922D01*
X41275Y526922D01*
X41161Y526913D01*
X41047Y526914D01*
X40916Y526893D01*
X40783Y526882D01*
X40673Y526855D01*
X40560Y526837D01*
X40433Y526796D01*
X40304Y526764D01*
X40200Y526719D01*
X40091Y526683D01*
X39973Y526621D01*
X39851Y526569D01*
X39755Y526508D01*
X39653Y526455D01*
X39580Y526396D01*
X39435Y526304D01*
X39193Y526088D01*
X39120Y526030D01*
X16895Y503805D01*
X16821Y503718D01*
X16740Y503637D01*
X16662Y503530D01*
X16576Y503429D01*
X16517Y503331D01*
X16450Y503239D01*
X16390Y503120D01*
X16321Y503006D01*
X16279Y502900D01*
X16227Y502798D01*
X16187Y502671D01*
X16138Y502548D01*
X16113Y502437D01*
X16079Y502328D01*
X16069Y502234D01*
X16031Y502067D01*
X16013Y501742D01*
X16003Y501650D01*
X16003Y15875D01*
X16012Y15761D01*
X16011Y15647D01*
X16032Y15516D01*
X16043Y15383D01*
X16070Y15273D01*
X16088Y15160D01*
X16129Y15033D01*
X16161Y14904D01*
X16206Y14800D01*
X16242Y14691D01*
X16304Y14573D01*
X16356Y14451D01*
X16417Y14355D01*
X16470Y14253D01*
X16529Y14180D01*
X16621Y14035D01*
X16837Y13793D01*
X16895Y13720D01*
X26420Y4195D01*
X26507Y4121D01*
X26588Y4040D01*
X26695Y3962D01*
X26796Y3876D01*
X26894Y3817D01*
X26986Y3750D01*
X27105Y3690D01*
X27219Y3621D01*
X27325Y3579D01*
X27427Y3527D01*
X27554Y3487D01*
X27677Y3438D01*
X27788Y3413D01*
X27897Y3379D01*
X27991Y3369D01*
X28159Y3331D01*
X28483Y3313D01*
X28575Y3303D01*
X663575Y3303D01*
X663689Y3312D01*
G37*
%LPC*%
G36*
X287576Y14477D02*
X287576Y14477D01*
X281177Y20876D01*
X281177Y29924D01*
X287576Y36323D01*
X296624Y36323D01*
X302645Y30302D01*
X302703Y30253D01*
X302756Y30197D01*
X302891Y30093D01*
X303021Y29982D01*
X303087Y29943D01*
X303147Y29897D01*
X303297Y29816D01*
X303444Y29728D01*
X303515Y29699D01*
X303582Y29663D01*
X303743Y29608D01*
X303902Y29545D01*
X303976Y29528D01*
X304048Y29503D01*
X304217Y29475D01*
X304384Y29438D01*
X304460Y29434D01*
X304535Y29421D01*
X304706Y29420D01*
X304876Y29410D01*
X304952Y29418D01*
X305028Y29418D01*
X305197Y29444D01*
X305367Y29462D01*
X305440Y29483D01*
X305515Y29494D01*
X305678Y29548D01*
X305842Y29593D01*
X305912Y29625D01*
X305984Y29649D01*
X306135Y29728D01*
X306291Y29799D01*
X306354Y29841D01*
X306422Y29877D01*
X306504Y29942D01*
X306700Y30074D01*
X306872Y30236D01*
X306955Y30302D01*
X312976Y36323D01*
X316717Y36323D01*
X316755Y36326D01*
X316793Y36324D01*
X317001Y36346D01*
X317209Y36363D01*
X317246Y36372D01*
X317284Y36376D01*
X317485Y36431D01*
X317687Y36481D01*
X317722Y36496D01*
X317759Y36507D01*
X317949Y36594D01*
X318141Y36676D01*
X318173Y36696D01*
X318208Y36712D01*
X318381Y36829D01*
X318557Y36941D01*
X318585Y36966D01*
X318617Y36988D01*
X318769Y37131D01*
X318925Y37270D01*
X318949Y37299D01*
X318977Y37325D01*
X319104Y37491D01*
X319235Y37654D01*
X319253Y37686D01*
X319277Y37717D01*
X319375Y37901D01*
X319479Y38082D01*
X319492Y38118D01*
X319510Y38152D01*
X319578Y38349D01*
X319650Y38545D01*
X319658Y38582D01*
X319670Y38618D01*
X319705Y38825D01*
X319745Y39029D01*
X319746Y39067D01*
X319753Y39105D01*
X319754Y39314D01*
X319760Y39522D01*
X319755Y39560D01*
X319756Y39598D01*
X319723Y39805D01*
X319696Y40011D01*
X319685Y40048D01*
X319679Y40085D01*
X319614Y40284D01*
X319553Y40483D01*
X319537Y40518D01*
X319525Y40554D01*
X319428Y40739D01*
X319337Y40927D01*
X319315Y40958D01*
X319297Y40992D01*
X319239Y41064D01*
X319051Y41329D01*
X318930Y41451D01*
X318872Y41525D01*
X305238Y55158D01*
X303237Y57159D01*
X302386Y59213D01*
X302386Y159862D01*
X303237Y161916D01*
X327700Y186379D01*
X327841Y186545D01*
X327986Y186709D01*
X328001Y186733D01*
X328020Y186755D01*
X328132Y186942D01*
X328249Y187127D01*
X328260Y187153D01*
X328274Y187177D01*
X328355Y187380D01*
X328440Y187581D01*
X328447Y187609D01*
X328457Y187636D01*
X328505Y187849D01*
X328556Y188061D01*
X328558Y188089D01*
X328564Y188117D01*
X328576Y188336D01*
X328593Y188553D01*
X328590Y188581D01*
X328592Y188610D01*
X328569Y188827D01*
X328550Y189044D01*
X328543Y189067D01*
X328540Y189100D01*
X328409Y189576D01*
X328375Y189649D01*
X328361Y189700D01*
X327659Y191393D01*
X327659Y197457D01*
X329980Y203058D01*
X334267Y207345D01*
X335430Y207827D01*
X335625Y207927D01*
X335821Y208023D01*
X335844Y208039D01*
X335869Y208052D01*
X336045Y208182D01*
X336223Y208308D01*
X336243Y208328D01*
X336266Y208345D01*
X336419Y208502D01*
X336574Y208655D01*
X336591Y208678D01*
X336611Y208698D01*
X336736Y208877D01*
X336864Y209054D01*
X336877Y209079D01*
X336893Y209103D01*
X336988Y209299D01*
X337087Y209494D01*
X337095Y209521D01*
X337108Y209547D01*
X337169Y209756D01*
X337235Y209965D01*
X337238Y209988D01*
X337247Y210020D01*
X337308Y210510D01*
X337305Y210590D01*
X337311Y210643D01*
X337311Y270987D01*
X338162Y273041D01*
X364613Y299491D01*
X364687Y299578D01*
X364768Y299659D01*
X364846Y299766D01*
X364932Y299867D01*
X364991Y299965D01*
X365058Y300057D01*
X365118Y300176D01*
X365187Y300290D01*
X365229Y300396D01*
X365281Y300498D01*
X365321Y300625D01*
X365370Y300748D01*
X365395Y300859D01*
X365429Y300968D01*
X365439Y301062D01*
X365477Y301230D01*
X365495Y301554D01*
X365505Y301646D01*
X365505Y305413D01*
X370862Y310770D01*
X378438Y310770D01*
X383795Y305413D01*
X383795Y297837D01*
X378438Y292480D01*
X374671Y292480D01*
X374557Y292471D01*
X374443Y292472D01*
X374312Y292451D01*
X374179Y292440D01*
X374069Y292413D01*
X373956Y292395D01*
X373829Y292354D01*
X373701Y292322D01*
X373596Y292277D01*
X373487Y292241D01*
X373369Y292179D01*
X373247Y292127D01*
X373151Y292066D01*
X373050Y292013D01*
X372976Y291954D01*
X372831Y291862D01*
X372589Y291646D01*
X372516Y291588D01*
X349381Y268453D01*
X349307Y268366D01*
X349226Y268285D01*
X349148Y268178D01*
X349062Y268077D01*
X349003Y267979D01*
X348936Y267887D01*
X348876Y267768D01*
X348807Y267654D01*
X348765Y267548D01*
X348713Y267446D01*
X348673Y267319D01*
X348624Y267196D01*
X348599Y267085D01*
X348565Y266976D01*
X348555Y266882D01*
X348517Y266714D01*
X348499Y266390D01*
X348489Y266298D01*
X348489Y210643D01*
X348506Y210425D01*
X348520Y210207D01*
X348526Y210179D01*
X348529Y210151D01*
X348581Y209939D01*
X348630Y209726D01*
X348641Y209700D01*
X348647Y209672D01*
X348734Y209471D01*
X348816Y209269D01*
X348831Y209245D01*
X348842Y209219D01*
X348959Y209034D01*
X349073Y208848D01*
X349092Y208827D01*
X349107Y208803D01*
X349252Y208640D01*
X349395Y208474D01*
X349417Y208456D01*
X349436Y208435D01*
X349606Y208298D01*
X349773Y208157D01*
X349793Y208146D01*
X349820Y208125D01*
X350248Y207881D01*
X350324Y207853D01*
X350370Y207827D01*
X351533Y207345D01*
X355820Y203058D01*
X358141Y197457D01*
X358141Y191393D01*
X355820Y185792D01*
X351533Y181505D01*
X345932Y179184D01*
X339868Y179184D01*
X339235Y179446D01*
X339028Y179513D01*
X338821Y179584D01*
X338793Y179589D01*
X338766Y179598D01*
X338550Y179630D01*
X338335Y179667D01*
X338306Y179667D01*
X338278Y179671D01*
X338060Y179669D01*
X337841Y179670D01*
X337813Y179665D01*
X337785Y179665D01*
X337570Y179627D01*
X337354Y179593D01*
X337327Y179584D01*
X337299Y179579D01*
X337093Y179508D01*
X336885Y179439D01*
X336860Y179426D01*
X336833Y179416D01*
X336641Y179312D01*
X336448Y179211D01*
X336430Y179197D01*
X336400Y179181D01*
X336011Y178878D01*
X335956Y178819D01*
X335915Y178786D01*
X314456Y157328D01*
X314382Y157241D01*
X314301Y157160D01*
X314223Y157053D01*
X314137Y156952D01*
X314078Y156854D01*
X314011Y156762D01*
X313951Y156643D01*
X313882Y156529D01*
X313840Y156423D01*
X313788Y156321D01*
X313748Y156194D01*
X313699Y156071D01*
X313674Y155960D01*
X313640Y155851D01*
X313630Y155757D01*
X313592Y155589D01*
X313574Y155265D01*
X313564Y155173D01*
X313564Y63902D01*
X313573Y63788D01*
X313572Y63674D01*
X313593Y63543D01*
X313604Y63410D01*
X313631Y63300D01*
X313649Y63187D01*
X313690Y63060D01*
X313722Y62932D01*
X313767Y62827D01*
X313803Y62718D01*
X313865Y62600D01*
X313917Y62478D01*
X313978Y62382D01*
X314031Y62281D01*
X314090Y62207D01*
X314182Y62062D01*
X314398Y61820D01*
X314456Y61747D01*
X338988Y37215D01*
X339075Y37141D01*
X339156Y37060D01*
X339263Y36982D01*
X339364Y36896D01*
X339462Y36837D01*
X339554Y36770D01*
X339673Y36710D01*
X339787Y36641D01*
X339893Y36599D01*
X339995Y36547D01*
X340122Y36507D01*
X340245Y36458D01*
X340356Y36433D01*
X340465Y36399D01*
X340559Y36389D01*
X340727Y36351D01*
X341051Y36333D01*
X341143Y36323D01*
X347424Y36323D01*
X353445Y30302D01*
X353503Y30253D01*
X353556Y30197D01*
X353691Y30093D01*
X353821Y29982D01*
X353887Y29943D01*
X353947Y29897D01*
X354097Y29816D01*
X354244Y29728D01*
X354315Y29699D01*
X354382Y29663D01*
X354543Y29608D01*
X354702Y29545D01*
X354776Y29528D01*
X354848Y29503D01*
X355017Y29475D01*
X355184Y29438D01*
X355260Y29434D01*
X355335Y29421D01*
X355506Y29420D01*
X355676Y29410D01*
X355752Y29418D01*
X355828Y29418D01*
X355997Y29444D01*
X356167Y29462D01*
X356240Y29483D01*
X356315Y29494D01*
X356478Y29548D01*
X356642Y29593D01*
X356712Y29625D01*
X356784Y29649D01*
X356935Y29728D01*
X357091Y29799D01*
X357154Y29841D01*
X357222Y29877D01*
X357304Y29942D01*
X357500Y30074D01*
X357672Y30236D01*
X357755Y30302D01*
X363776Y36323D01*
X372824Y36323D01*
X378845Y30302D01*
X378903Y30252D01*
X378955Y30197D01*
X379091Y30093D01*
X379221Y29982D01*
X379287Y29943D01*
X379347Y29897D01*
X379497Y29816D01*
X379644Y29728D01*
X379714Y29699D01*
X379782Y29663D01*
X379943Y29608D01*
X380102Y29545D01*
X380176Y29528D01*
X380248Y29503D01*
X380417Y29475D01*
X380583Y29438D01*
X380660Y29434D01*
X380735Y29421D01*
X380906Y29420D01*
X381076Y29410D01*
X381152Y29418D01*
X381228Y29418D01*
X381397Y29444D01*
X381567Y29462D01*
X381640Y29483D01*
X381715Y29494D01*
X381878Y29548D01*
X382042Y29593D01*
X382112Y29625D01*
X382184Y29649D01*
X382335Y29728D01*
X382491Y29799D01*
X382554Y29841D01*
X382622Y29877D01*
X382704Y29942D01*
X382900Y30074D01*
X383073Y30236D01*
X383155Y30302D01*
X389176Y36323D01*
X398224Y36323D01*
X404245Y30302D01*
X404303Y30253D01*
X404356Y30197D01*
X404491Y30093D01*
X404621Y29982D01*
X404687Y29943D01*
X404747Y29897D01*
X404897Y29816D01*
X405044Y29728D01*
X405115Y29699D01*
X405182Y29663D01*
X405343Y29608D01*
X405502Y29545D01*
X405576Y29528D01*
X405648Y29503D01*
X405817Y29475D01*
X405984Y29438D01*
X406060Y29434D01*
X406135Y29421D01*
X406306Y29420D01*
X406476Y29410D01*
X406552Y29418D01*
X406628Y29418D01*
X406797Y29444D01*
X406967Y29462D01*
X407040Y29483D01*
X407115Y29494D01*
X407278Y29548D01*
X407442Y29593D01*
X407512Y29625D01*
X407584Y29649D01*
X407735Y29728D01*
X407891Y29799D01*
X407954Y29841D01*
X408022Y29877D01*
X408104Y29942D01*
X408300Y30074D01*
X408472Y30236D01*
X408555Y30302D01*
X414576Y36323D01*
X423624Y36323D01*
X429645Y30302D01*
X429703Y30253D01*
X429756Y30197D01*
X429891Y30093D01*
X430021Y29982D01*
X430087Y29943D01*
X430147Y29897D01*
X430297Y29816D01*
X430444Y29728D01*
X430515Y29699D01*
X430582Y29663D01*
X430743Y29608D01*
X430902Y29545D01*
X430976Y29528D01*
X431048Y29503D01*
X431217Y29475D01*
X431384Y29438D01*
X431460Y29434D01*
X431535Y29421D01*
X431706Y29420D01*
X431876Y29410D01*
X431952Y29418D01*
X432028Y29418D01*
X432197Y29444D01*
X432367Y29462D01*
X432440Y29483D01*
X432515Y29494D01*
X432678Y29548D01*
X432842Y29593D01*
X432912Y29625D01*
X432984Y29649D01*
X433135Y29728D01*
X433291Y29799D01*
X433354Y29841D01*
X433422Y29877D01*
X433504Y29942D01*
X433700Y30074D01*
X433872Y30236D01*
X433955Y30302D01*
X439976Y36323D01*
X441453Y36323D01*
X441453Y25400D01*
X441453Y14477D01*
X439976Y14477D01*
X433955Y20498D01*
X433897Y20548D01*
X433845Y20603D01*
X433709Y20707D01*
X433579Y20818D01*
X433513Y20857D01*
X433453Y20903D01*
X433303Y20984D01*
X433156Y21072D01*
X433086Y21101D01*
X433018Y21137D01*
X432857Y21192D01*
X432698Y21255D01*
X432624Y21272D01*
X432552Y21297D01*
X432383Y21325D01*
X432217Y21362D01*
X432140Y21366D01*
X432065Y21379D01*
X431894Y21380D01*
X431724Y21390D01*
X431648Y21382D01*
X431572Y21382D01*
X431403Y21356D01*
X431233Y21338D01*
X431160Y21317D01*
X431085Y21306D01*
X430922Y21252D01*
X430758Y21207D01*
X430688Y21175D01*
X430616Y21151D01*
X430465Y21072D01*
X430309Y21001D01*
X430246Y20959D01*
X430178Y20923D01*
X430096Y20858D01*
X429900Y20726D01*
X429727Y20564D01*
X429645Y20498D01*
X423624Y14477D01*
X414576Y14477D01*
X408555Y20498D01*
X408497Y20548D01*
X408445Y20603D01*
X408309Y20707D01*
X408179Y20818D01*
X408113Y20857D01*
X408053Y20903D01*
X407903Y20984D01*
X407756Y21072D01*
X407686Y21101D01*
X407618Y21137D01*
X407457Y21192D01*
X407298Y21255D01*
X407224Y21272D01*
X407152Y21297D01*
X406983Y21325D01*
X406817Y21362D01*
X406740Y21366D01*
X406665Y21379D01*
X406494Y21380D01*
X406324Y21390D01*
X406248Y21382D01*
X406172Y21382D01*
X406003Y21356D01*
X405833Y21338D01*
X405760Y21317D01*
X405685Y21306D01*
X405522Y21252D01*
X405358Y21207D01*
X405288Y21175D01*
X405216Y21151D01*
X405065Y21072D01*
X404909Y21001D01*
X404846Y20959D01*
X404778Y20923D01*
X404696Y20858D01*
X404500Y20726D01*
X404327Y20564D01*
X404245Y20498D01*
X398224Y14477D01*
X389176Y14477D01*
X383155Y20498D01*
X383097Y20547D01*
X383044Y20603D01*
X382909Y20707D01*
X382779Y20818D01*
X382713Y20857D01*
X382653Y20903D01*
X382503Y20984D01*
X382356Y21072D01*
X382285Y21101D01*
X382218Y21137D01*
X382057Y21192D01*
X381898Y21255D01*
X381824Y21272D01*
X381752Y21297D01*
X381583Y21325D01*
X381416Y21362D01*
X381340Y21366D01*
X381265Y21379D01*
X381094Y21380D01*
X380924Y21390D01*
X380848Y21382D01*
X380772Y21382D01*
X380603Y21356D01*
X380433Y21338D01*
X380360Y21317D01*
X380285Y21306D01*
X380122Y21252D01*
X379958Y21207D01*
X379888Y21175D01*
X379816Y21151D01*
X379665Y21072D01*
X379509Y21001D01*
X379446Y20959D01*
X379378Y20923D01*
X379296Y20858D01*
X379100Y20726D01*
X378928Y20564D01*
X378845Y20498D01*
X372824Y14477D01*
X363776Y14477D01*
X357755Y20498D01*
X357697Y20548D01*
X357645Y20603D01*
X357509Y20707D01*
X357379Y20818D01*
X357313Y20857D01*
X357253Y20903D01*
X357103Y20984D01*
X356956Y21072D01*
X356886Y21101D01*
X356818Y21137D01*
X356657Y21192D01*
X356498Y21255D01*
X356424Y21272D01*
X356352Y21297D01*
X356183Y21325D01*
X356017Y21362D01*
X355940Y21366D01*
X355865Y21379D01*
X355694Y21380D01*
X355524Y21390D01*
X355448Y21382D01*
X355372Y21382D01*
X355203Y21356D01*
X355033Y21338D01*
X354960Y21317D01*
X354885Y21306D01*
X354722Y21252D01*
X354558Y21207D01*
X354488Y21175D01*
X354416Y21151D01*
X354265Y21072D01*
X354109Y21001D01*
X354046Y20959D01*
X353978Y20923D01*
X353896Y20858D01*
X353700Y20726D01*
X353527Y20564D01*
X353445Y20498D01*
X347424Y14477D01*
X338376Y14477D01*
X332355Y20498D01*
X332297Y20548D01*
X332245Y20603D01*
X332109Y20707D01*
X331979Y20818D01*
X331913Y20857D01*
X331853Y20903D01*
X331703Y20984D01*
X331556Y21072D01*
X331486Y21101D01*
X331418Y21137D01*
X331257Y21192D01*
X331098Y21255D01*
X331024Y21272D01*
X330952Y21297D01*
X330783Y21325D01*
X330617Y21362D01*
X330540Y21366D01*
X330465Y21379D01*
X330294Y21380D01*
X330124Y21390D01*
X330048Y21382D01*
X329972Y21382D01*
X329803Y21356D01*
X329633Y21338D01*
X329560Y21317D01*
X329485Y21306D01*
X329322Y21252D01*
X329158Y21207D01*
X329088Y21175D01*
X329016Y21151D01*
X328865Y21072D01*
X328709Y21001D01*
X328646Y20959D01*
X328578Y20923D01*
X328496Y20858D01*
X328300Y20726D01*
X328127Y20564D01*
X328045Y20498D01*
X322024Y14477D01*
X312976Y14477D01*
X306955Y20498D01*
X306897Y20548D01*
X306845Y20603D01*
X306709Y20707D01*
X306579Y20818D01*
X306513Y20857D01*
X306453Y20903D01*
X306303Y20984D01*
X306156Y21072D01*
X306086Y21101D01*
X306018Y21137D01*
X305857Y21192D01*
X305698Y21255D01*
X305624Y21272D01*
X305552Y21297D01*
X305383Y21325D01*
X305217Y21362D01*
X305140Y21366D01*
X305065Y21379D01*
X304894Y21380D01*
X304724Y21390D01*
X304648Y21382D01*
X304572Y21382D01*
X304403Y21356D01*
X304233Y21338D01*
X304160Y21317D01*
X304085Y21306D01*
X303922Y21252D01*
X303758Y21207D01*
X303688Y21175D01*
X303616Y21151D01*
X303465Y21072D01*
X303309Y21001D01*
X303246Y20959D01*
X303178Y20923D01*
X303096Y20858D01*
X302900Y20726D01*
X302727Y20564D01*
X302645Y20498D01*
X296624Y14477D01*
X287576Y14477D01*
G37*
%LPD*%
%LPC*%
G36*
X577734Y66039D02*
X577734Y66039D01*
X573999Y67586D01*
X571141Y70444D01*
X569594Y74179D01*
X569594Y78221D01*
X571141Y81956D01*
X573999Y84814D01*
X577068Y86085D01*
X577101Y86102D01*
X577137Y86115D01*
X577321Y86215D01*
X577507Y86310D01*
X577537Y86332D01*
X577571Y86351D01*
X577736Y86479D01*
X577903Y86603D01*
X577930Y86630D01*
X577960Y86653D01*
X578102Y86807D01*
X578248Y86956D01*
X578270Y86987D01*
X578296Y87015D01*
X578411Y87189D01*
X578531Y87360D01*
X578547Y87394D01*
X578569Y87426D01*
X578654Y87616D01*
X578745Y87805D01*
X578756Y87841D01*
X578771Y87876D01*
X578825Y88078D01*
X578884Y88278D01*
X578889Y88315D01*
X578899Y88352D01*
X578920Y88561D01*
X578946Y88767D01*
X578944Y88805D01*
X578948Y88843D01*
X578935Y89052D01*
X578927Y89260D01*
X578920Y89298D01*
X578917Y89336D01*
X578871Y89540D01*
X578829Y89744D01*
X578816Y89779D01*
X578808Y89817D01*
X578729Y90010D01*
X578655Y90205D01*
X578636Y90238D01*
X578622Y90274D01*
X578513Y90452D01*
X578408Y90632D01*
X578384Y90662D01*
X578364Y90694D01*
X578228Y90853D01*
X578096Y91014D01*
X578067Y91039D01*
X578042Y91068D01*
X577882Y91203D01*
X577726Y91341D01*
X577694Y91361D01*
X577664Y91385D01*
X577583Y91431D01*
X577308Y91603D01*
X577150Y91670D01*
X577067Y91715D01*
X573999Y92986D01*
X571141Y95844D01*
X569594Y99579D01*
X569594Y103621D01*
X571141Y107356D01*
X573999Y110214D01*
X577068Y111485D01*
X577102Y111502D01*
X577138Y111515D01*
X577321Y111615D01*
X577507Y111710D01*
X577537Y111732D01*
X577571Y111751D01*
X577736Y111879D01*
X577903Y112003D01*
X577930Y112030D01*
X577960Y112053D01*
X578102Y112206D01*
X578248Y112356D01*
X578270Y112387D01*
X578296Y112415D01*
X578411Y112589D01*
X578531Y112760D01*
X578547Y112794D01*
X578569Y112826D01*
X578654Y113016D01*
X578745Y113205D01*
X578756Y113241D01*
X578771Y113276D01*
X578825Y113477D01*
X578884Y113678D01*
X578889Y113715D01*
X578899Y113752D01*
X578920Y113961D01*
X578946Y114167D01*
X578944Y114205D01*
X578948Y114243D01*
X578935Y114452D01*
X578927Y114660D01*
X578920Y114698D01*
X578917Y114736D01*
X578871Y114939D01*
X578830Y115144D01*
X578816Y115180D01*
X578808Y115217D01*
X578729Y115410D01*
X578655Y115605D01*
X578636Y115638D01*
X578622Y115674D01*
X578513Y115851D01*
X578408Y116032D01*
X578384Y116062D01*
X578364Y116094D01*
X578228Y116252D01*
X578096Y116414D01*
X578067Y116439D01*
X578042Y116468D01*
X577882Y116603D01*
X577726Y116741D01*
X577694Y116761D01*
X577664Y116785D01*
X577583Y116830D01*
X577308Y117003D01*
X577150Y117070D01*
X577068Y117115D01*
X573999Y118386D01*
X571141Y121244D01*
X569594Y124979D01*
X569594Y129021D01*
X571141Y132756D01*
X573999Y135614D01*
X577067Y136885D01*
X577101Y136902D01*
X577137Y136915D01*
X577321Y137015D01*
X577507Y137110D01*
X577537Y137132D01*
X577571Y137151D01*
X577735Y137278D01*
X577903Y137403D01*
X577930Y137430D01*
X577960Y137453D01*
X578102Y137606D01*
X578248Y137756D01*
X578270Y137787D01*
X578296Y137815D01*
X578411Y137989D01*
X578531Y138160D01*
X578547Y138194D01*
X578569Y138226D01*
X578655Y138417D01*
X578745Y138604D01*
X578756Y138641D01*
X578771Y138676D01*
X578825Y138878D01*
X578884Y139078D01*
X578889Y139116D01*
X578899Y139152D01*
X578920Y139359D01*
X578946Y139567D01*
X578944Y139605D01*
X578948Y139643D01*
X578935Y139852D01*
X578927Y140060D01*
X578920Y140098D01*
X578917Y140136D01*
X578871Y140339D01*
X578830Y140544D01*
X578816Y140579D01*
X578808Y140617D01*
X578729Y140810D01*
X578655Y141005D01*
X578636Y141038D01*
X578622Y141074D01*
X578513Y141252D01*
X578408Y141432D01*
X578384Y141462D01*
X578364Y141494D01*
X578228Y141652D01*
X578096Y141814D01*
X578067Y141839D01*
X578042Y141868D01*
X577883Y142002D01*
X577726Y142141D01*
X577694Y142161D01*
X577664Y142185D01*
X577583Y142230D01*
X577308Y142403D01*
X577150Y142470D01*
X577068Y142515D01*
X573999Y143786D01*
X571141Y146644D01*
X569594Y150379D01*
X569594Y154421D01*
X571141Y158156D01*
X573999Y161014D01*
X577068Y162285D01*
X577101Y162302D01*
X577137Y162315D01*
X577321Y162415D01*
X577507Y162510D01*
X577537Y162532D01*
X577571Y162551D01*
X577736Y162679D01*
X577903Y162803D01*
X577930Y162830D01*
X577960Y162853D01*
X578102Y163007D01*
X578248Y163156D01*
X578270Y163187D01*
X578296Y163215D01*
X578411Y163389D01*
X578531Y163560D01*
X578547Y163594D01*
X578569Y163626D01*
X578654Y163816D01*
X578745Y164005D01*
X578756Y164041D01*
X578771Y164076D01*
X578825Y164278D01*
X578884Y164478D01*
X578889Y164515D01*
X578899Y164552D01*
X578920Y164761D01*
X578946Y164967D01*
X578944Y165005D01*
X578948Y165043D01*
X578935Y165252D01*
X578927Y165460D01*
X578920Y165498D01*
X578917Y165536D01*
X578871Y165740D01*
X578829Y165944D01*
X578816Y165979D01*
X578808Y166017D01*
X578729Y166210D01*
X578655Y166405D01*
X578636Y166438D01*
X578622Y166474D01*
X578513Y166652D01*
X578408Y166832D01*
X578384Y166862D01*
X578364Y166894D01*
X578228Y167053D01*
X578096Y167214D01*
X578067Y167239D01*
X578042Y167268D01*
X577882Y167403D01*
X577726Y167541D01*
X577694Y167561D01*
X577664Y167585D01*
X577583Y167631D01*
X577308Y167803D01*
X577150Y167870D01*
X577067Y167915D01*
X573999Y169186D01*
X571141Y172044D01*
X569594Y175779D01*
X569594Y179821D01*
X571141Y183556D01*
X573999Y186414D01*
X577068Y187685D01*
X577102Y187702D01*
X577138Y187715D01*
X577321Y187815D01*
X577507Y187910D01*
X577537Y187932D01*
X577571Y187951D01*
X577736Y188079D01*
X577903Y188203D01*
X577930Y188230D01*
X577960Y188253D01*
X578102Y188406D01*
X578248Y188556D01*
X578270Y188587D01*
X578296Y188615D01*
X578411Y188789D01*
X578531Y188960D01*
X578547Y188994D01*
X578569Y189026D01*
X578654Y189216D01*
X578745Y189405D01*
X578756Y189441D01*
X578771Y189476D01*
X578825Y189677D01*
X578884Y189878D01*
X578889Y189915D01*
X578899Y189952D01*
X578920Y190161D01*
X578946Y190367D01*
X578944Y190405D01*
X578948Y190443D01*
X578935Y190652D01*
X578927Y190860D01*
X578920Y190898D01*
X578917Y190936D01*
X578871Y191139D01*
X578830Y191344D01*
X578816Y191380D01*
X578808Y191417D01*
X578729Y191610D01*
X578655Y191805D01*
X578636Y191838D01*
X578622Y191874D01*
X578513Y192051D01*
X578408Y192232D01*
X578384Y192262D01*
X578364Y192294D01*
X578228Y192452D01*
X578096Y192614D01*
X578067Y192639D01*
X578042Y192668D01*
X577882Y192803D01*
X577726Y192941D01*
X577694Y192961D01*
X577664Y192985D01*
X577583Y193030D01*
X577308Y193203D01*
X577150Y193270D01*
X577068Y193315D01*
X573999Y194586D01*
X571141Y197444D01*
X569594Y201179D01*
X569594Y205221D01*
X571141Y208956D01*
X573999Y211814D01*
X577068Y213085D01*
X577102Y213102D01*
X577138Y213115D01*
X577321Y213215D01*
X577507Y213310D01*
X577537Y213332D01*
X577571Y213351D01*
X577736Y213479D01*
X577903Y213603D01*
X577930Y213630D01*
X577960Y213653D01*
X578102Y213806D01*
X578248Y213956D01*
X578270Y213987D01*
X578296Y214015D01*
X578411Y214189D01*
X578531Y214360D01*
X578547Y214394D01*
X578569Y214426D01*
X578654Y214616D01*
X578745Y214805D01*
X578756Y214841D01*
X578771Y214876D01*
X578825Y215077D01*
X578884Y215278D01*
X578889Y215315D01*
X578899Y215352D01*
X578920Y215561D01*
X578946Y215767D01*
X578944Y215805D01*
X578948Y215843D01*
X578935Y216052D01*
X578927Y216260D01*
X578920Y216298D01*
X578917Y216336D01*
X578871Y216539D01*
X578830Y216744D01*
X578816Y216780D01*
X578808Y216817D01*
X578729Y217010D01*
X578655Y217205D01*
X578636Y217238D01*
X578622Y217274D01*
X578513Y217451D01*
X578408Y217632D01*
X578384Y217662D01*
X578364Y217694D01*
X578228Y217852D01*
X578096Y218014D01*
X578067Y218039D01*
X578042Y218068D01*
X577882Y218203D01*
X577726Y218341D01*
X577694Y218361D01*
X577664Y218385D01*
X577583Y218430D01*
X577308Y218603D01*
X577150Y218670D01*
X577068Y218715D01*
X573999Y219986D01*
X571141Y222844D01*
X569594Y226579D01*
X569594Y230621D01*
X571141Y234356D01*
X573999Y237214D01*
X577734Y238761D01*
X597016Y238761D01*
X600751Y237214D01*
X603609Y234356D01*
X605156Y230621D01*
X605156Y226579D01*
X603609Y222844D01*
X600751Y219986D01*
X597682Y218715D01*
X597649Y218698D01*
X597613Y218685D01*
X597429Y218585D01*
X597243Y218490D01*
X597213Y218468D01*
X597179Y218449D01*
X597014Y218321D01*
X596847Y218197D01*
X596820Y218170D01*
X596790Y218147D01*
X596647Y217993D01*
X596502Y217844D01*
X596480Y217813D01*
X596454Y217785D01*
X596339Y217611D01*
X596219Y217440D01*
X596203Y217406D01*
X596181Y217374D01*
X596095Y217183D01*
X596005Y216996D01*
X595994Y216959D01*
X595979Y216924D01*
X595925Y216722D01*
X595866Y216522D01*
X595861Y216484D01*
X595851Y216448D01*
X595830Y216240D01*
X595804Y216033D01*
X595806Y215995D01*
X595802Y215957D01*
X595815Y215748D01*
X595823Y215540D01*
X595830Y215502D01*
X595833Y215464D01*
X595879Y215261D01*
X595920Y215056D01*
X595934Y215020D01*
X595942Y214983D01*
X596021Y214790D01*
X596095Y214595D01*
X596114Y214562D01*
X596128Y214526D01*
X596237Y214349D01*
X596342Y214168D01*
X596366Y214138D01*
X596386Y214106D01*
X596522Y213947D01*
X596654Y213786D01*
X596683Y213761D01*
X596708Y213732D01*
X596867Y213598D01*
X597024Y213459D01*
X597056Y213439D01*
X597086Y213415D01*
X597167Y213370D01*
X597442Y213197D01*
X597600Y213130D01*
X597682Y213085D01*
X600751Y211814D01*
X603609Y208956D01*
X605156Y205221D01*
X605156Y201179D01*
X603609Y197444D01*
X600751Y194586D01*
X597682Y193315D01*
X597649Y193298D01*
X597613Y193285D01*
X597429Y193185D01*
X597243Y193090D01*
X597213Y193068D01*
X597179Y193049D01*
X597014Y192921D01*
X596847Y192797D01*
X596820Y192770D01*
X596790Y192747D01*
X596647Y192593D01*
X596502Y192444D01*
X596480Y192413D01*
X596454Y192385D01*
X596339Y192211D01*
X596219Y192040D01*
X596203Y192006D01*
X596181Y191974D01*
X596095Y191783D01*
X596005Y191596D01*
X595994Y191559D01*
X595979Y191524D01*
X595925Y191322D01*
X595866Y191122D01*
X595861Y191084D01*
X595851Y191048D01*
X595830Y190840D01*
X595804Y190633D01*
X595806Y190595D01*
X595802Y190557D01*
X595815Y190348D01*
X595823Y190140D01*
X595830Y190102D01*
X595833Y190064D01*
X595879Y189861D01*
X595920Y189656D01*
X595934Y189620D01*
X595942Y189583D01*
X596021Y189390D01*
X596095Y189195D01*
X596114Y189162D01*
X596128Y189126D01*
X596237Y188949D01*
X596342Y188768D01*
X596366Y188738D01*
X596386Y188706D01*
X596522Y188547D01*
X596654Y188386D01*
X596683Y188361D01*
X596708Y188332D01*
X596867Y188198D01*
X597024Y188059D01*
X597056Y188039D01*
X597086Y188015D01*
X597167Y187970D01*
X597442Y187797D01*
X597600Y187730D01*
X597682Y187685D01*
X600751Y186414D01*
X603609Y183556D01*
X605156Y179821D01*
X605156Y175779D01*
X603609Y172044D01*
X600751Y169186D01*
X597683Y167915D01*
X597649Y167898D01*
X597613Y167885D01*
X597429Y167785D01*
X597243Y167690D01*
X597213Y167668D01*
X597179Y167649D01*
X597015Y167522D01*
X596847Y167397D01*
X596820Y167370D01*
X596790Y167347D01*
X596648Y167194D01*
X596502Y167044D01*
X596480Y167013D01*
X596454Y166985D01*
X596339Y166811D01*
X596219Y166640D01*
X596203Y166606D01*
X596181Y166574D01*
X596095Y166383D01*
X596005Y166196D01*
X595994Y166159D01*
X595979Y166124D01*
X595925Y165922D01*
X595866Y165722D01*
X595861Y165684D01*
X595851Y165648D01*
X595830Y165440D01*
X595804Y165233D01*
X595806Y165195D01*
X595802Y165157D01*
X595815Y164948D01*
X595823Y164740D01*
X595830Y164702D01*
X595833Y164664D01*
X595879Y164461D01*
X595920Y164256D01*
X595934Y164220D01*
X595942Y164183D01*
X596021Y163990D01*
X596095Y163795D01*
X596114Y163762D01*
X596128Y163726D01*
X596237Y163548D01*
X596342Y163368D01*
X596366Y163338D01*
X596386Y163306D01*
X596522Y163148D01*
X596654Y162986D01*
X596683Y162961D01*
X596708Y162932D01*
X596867Y162798D01*
X597024Y162659D01*
X597056Y162639D01*
X597086Y162615D01*
X597167Y162570D01*
X597442Y162397D01*
X597600Y162330D01*
X597682Y162285D01*
X600751Y161014D01*
X603609Y158156D01*
X605156Y154421D01*
X605156Y150379D01*
X603609Y146644D01*
X600751Y143786D01*
X597682Y142515D01*
X597649Y142498D01*
X597613Y142485D01*
X597429Y142385D01*
X597243Y142290D01*
X597213Y142268D01*
X597179Y142249D01*
X597014Y142121D01*
X596847Y141997D01*
X596820Y141970D01*
X596790Y141947D01*
X596648Y141793D01*
X596502Y141644D01*
X596480Y141613D01*
X596454Y141585D01*
X596339Y141411D01*
X596219Y141240D01*
X596203Y141206D01*
X596181Y141174D01*
X596096Y140984D01*
X596005Y140795D01*
X595994Y140759D01*
X595979Y140724D01*
X595925Y140522D01*
X595866Y140322D01*
X595861Y140285D01*
X595851Y140248D01*
X595830Y140039D01*
X595804Y139833D01*
X595806Y139795D01*
X595802Y139757D01*
X595815Y139548D01*
X595823Y139340D01*
X595830Y139302D01*
X595833Y139264D01*
X595879Y139060D01*
X595921Y138856D01*
X595934Y138821D01*
X595942Y138783D01*
X596021Y138590D01*
X596095Y138395D01*
X596114Y138362D01*
X596128Y138326D01*
X596237Y138148D01*
X596342Y137968D01*
X596366Y137938D01*
X596386Y137906D01*
X596522Y137747D01*
X596654Y137586D01*
X596683Y137561D01*
X596708Y137532D01*
X596868Y137397D01*
X597024Y137259D01*
X597056Y137239D01*
X597086Y137215D01*
X597167Y137169D01*
X597442Y136997D01*
X597600Y136930D01*
X597683Y136885D01*
X600751Y135614D01*
X603609Y132756D01*
X605156Y129021D01*
X605156Y124979D01*
X603609Y121244D01*
X600751Y118386D01*
X597682Y117115D01*
X597649Y117098D01*
X597613Y117085D01*
X597429Y116985D01*
X597243Y116890D01*
X597213Y116868D01*
X597179Y116849D01*
X597014Y116721D01*
X596847Y116597D01*
X596820Y116570D01*
X596790Y116547D01*
X596647Y116393D01*
X596502Y116244D01*
X596480Y116213D01*
X596454Y116185D01*
X596339Y116011D01*
X596219Y115840D01*
X596203Y115806D01*
X596181Y115774D01*
X596095Y115583D01*
X596005Y115396D01*
X595994Y115359D01*
X595979Y115324D01*
X595925Y115122D01*
X595866Y114922D01*
X595861Y114884D01*
X595851Y114848D01*
X595830Y114640D01*
X595804Y114433D01*
X595806Y114395D01*
X595802Y114357D01*
X595815Y114148D01*
X595823Y113940D01*
X595830Y113902D01*
X595833Y113864D01*
X595879Y113661D01*
X595920Y113456D01*
X595934Y113420D01*
X595942Y113383D01*
X596021Y113190D01*
X596095Y112995D01*
X596114Y112962D01*
X596128Y112926D01*
X596237Y112749D01*
X596342Y112568D01*
X596366Y112538D01*
X596386Y112506D01*
X596522Y112347D01*
X596654Y112186D01*
X596683Y112161D01*
X596708Y112132D01*
X596867Y111998D01*
X597024Y111859D01*
X597056Y111839D01*
X597086Y111815D01*
X597167Y111770D01*
X597442Y111597D01*
X597600Y111530D01*
X597682Y111485D01*
X600751Y110214D01*
X603609Y107356D01*
X605156Y103621D01*
X605156Y99579D01*
X603609Y95844D01*
X600751Y92986D01*
X597683Y91715D01*
X597649Y91698D01*
X597613Y91685D01*
X597429Y91585D01*
X597243Y91490D01*
X597213Y91468D01*
X597179Y91449D01*
X597015Y91322D01*
X596847Y91197D01*
X596820Y91170D01*
X596790Y91147D01*
X596648Y90994D01*
X596502Y90844D01*
X596480Y90813D01*
X596454Y90785D01*
X596339Y90611D01*
X596219Y90440D01*
X596203Y90406D01*
X596181Y90374D01*
X596095Y90183D01*
X596005Y89996D01*
X595994Y89959D01*
X595979Y89924D01*
X595925Y89722D01*
X595866Y89522D01*
X595861Y89484D01*
X595851Y89448D01*
X595830Y89240D01*
X595804Y89033D01*
X595806Y88995D01*
X595802Y88957D01*
X595815Y88748D01*
X595823Y88540D01*
X595830Y88502D01*
X595833Y88464D01*
X595879Y88261D01*
X595920Y88056D01*
X595934Y88020D01*
X595942Y87983D01*
X596021Y87790D01*
X596095Y87595D01*
X596114Y87562D01*
X596128Y87526D01*
X596237Y87348D01*
X596342Y87168D01*
X596366Y87138D01*
X596386Y87106D01*
X596522Y86948D01*
X596654Y86786D01*
X596683Y86761D01*
X596708Y86732D01*
X596867Y86598D01*
X597024Y86459D01*
X597056Y86439D01*
X597086Y86415D01*
X597167Y86370D01*
X597442Y86197D01*
X597600Y86130D01*
X597682Y86085D01*
X600751Y84814D01*
X603609Y81956D01*
X605156Y78221D01*
X605156Y74179D01*
X603609Y70444D01*
X600751Y67586D01*
X597016Y66039D01*
X577734Y66039D01*
G37*
%LPD*%
%LPC*%
G36*
X279907Y497077D02*
X279907Y497077D01*
X279907Y508000D01*
X279907Y518923D01*
X281384Y518923D01*
X287405Y512902D01*
X287463Y512853D01*
X287516Y512797D01*
X287651Y512693D01*
X287781Y512582D01*
X287847Y512543D01*
X287907Y512497D01*
X288057Y512416D01*
X288204Y512328D01*
X288275Y512299D01*
X288342Y512263D01*
X288503Y512208D01*
X288662Y512145D01*
X288736Y512128D01*
X288808Y512103D01*
X288977Y512075D01*
X289144Y512038D01*
X289220Y512034D01*
X289295Y512021D01*
X289466Y512020D01*
X289636Y512010D01*
X289712Y512018D01*
X289788Y512018D01*
X289957Y512044D01*
X290127Y512062D01*
X290200Y512083D01*
X290275Y512094D01*
X290438Y512148D01*
X290602Y512193D01*
X290672Y512225D01*
X290744Y512249D01*
X290895Y512328D01*
X291051Y512399D01*
X291114Y512441D01*
X291182Y512477D01*
X291264Y512542D01*
X291460Y512674D01*
X291632Y512836D01*
X291715Y512902D01*
X297736Y518923D01*
X306784Y518923D01*
X312805Y512902D01*
X312863Y512853D01*
X312916Y512797D01*
X313051Y512693D01*
X313181Y512582D01*
X313247Y512543D01*
X313307Y512497D01*
X313457Y512416D01*
X313604Y512328D01*
X313675Y512299D01*
X313742Y512263D01*
X313903Y512208D01*
X314062Y512145D01*
X314136Y512128D01*
X314208Y512103D01*
X314377Y512075D01*
X314544Y512038D01*
X314620Y512034D01*
X314695Y512021D01*
X314866Y512020D01*
X315036Y512010D01*
X315112Y512018D01*
X315188Y512018D01*
X315357Y512044D01*
X315527Y512062D01*
X315600Y512083D01*
X315675Y512094D01*
X315838Y512148D01*
X316002Y512193D01*
X316072Y512225D01*
X316144Y512249D01*
X316295Y512328D01*
X316451Y512399D01*
X316514Y512441D01*
X316582Y512477D01*
X316664Y512542D01*
X316860Y512674D01*
X317032Y512836D01*
X317115Y512902D01*
X323136Y518923D01*
X332184Y518923D01*
X338205Y512902D01*
X338263Y512853D01*
X338316Y512797D01*
X338451Y512693D01*
X338581Y512582D01*
X338647Y512543D01*
X338707Y512497D01*
X338857Y512416D01*
X339004Y512328D01*
X339075Y512299D01*
X339142Y512263D01*
X339303Y512208D01*
X339462Y512145D01*
X339536Y512128D01*
X339608Y512103D01*
X339777Y512075D01*
X339944Y512038D01*
X340020Y512034D01*
X340095Y512021D01*
X340266Y512020D01*
X340436Y512010D01*
X340512Y512018D01*
X340588Y512018D01*
X340757Y512044D01*
X340927Y512062D01*
X341000Y512083D01*
X341075Y512094D01*
X341238Y512148D01*
X341402Y512193D01*
X341472Y512225D01*
X341544Y512249D01*
X341695Y512328D01*
X341851Y512399D01*
X341914Y512441D01*
X341982Y512477D01*
X342064Y512542D01*
X342260Y512674D01*
X342432Y512836D01*
X342515Y512902D01*
X348536Y518923D01*
X357584Y518923D01*
X363605Y512902D01*
X363663Y512853D01*
X363716Y512797D01*
X363851Y512693D01*
X363981Y512582D01*
X364047Y512543D01*
X364107Y512497D01*
X364257Y512416D01*
X364404Y512328D01*
X364475Y512299D01*
X364542Y512263D01*
X364703Y512208D01*
X364862Y512145D01*
X364936Y512128D01*
X365008Y512103D01*
X365177Y512075D01*
X365344Y512038D01*
X365420Y512034D01*
X365495Y512021D01*
X365666Y512020D01*
X365836Y512010D01*
X365912Y512018D01*
X365988Y512018D01*
X366157Y512044D01*
X366327Y512062D01*
X366400Y512083D01*
X366475Y512094D01*
X366638Y512148D01*
X366802Y512193D01*
X366872Y512225D01*
X366944Y512249D01*
X367095Y512328D01*
X367251Y512399D01*
X367314Y512441D01*
X367382Y512477D01*
X367464Y512542D01*
X367660Y512674D01*
X367832Y512836D01*
X367915Y512902D01*
X373936Y518923D01*
X382984Y518923D01*
X389005Y512902D01*
X389063Y512853D01*
X389116Y512797D01*
X389251Y512693D01*
X389381Y512582D01*
X389447Y512543D01*
X389507Y512497D01*
X389657Y512416D01*
X389804Y512328D01*
X389875Y512299D01*
X389942Y512263D01*
X390103Y512208D01*
X390262Y512145D01*
X390336Y512128D01*
X390408Y512103D01*
X390577Y512075D01*
X390744Y512038D01*
X390820Y512034D01*
X390895Y512021D01*
X391066Y512020D01*
X391236Y512010D01*
X391312Y512018D01*
X391388Y512018D01*
X391557Y512044D01*
X391727Y512062D01*
X391800Y512083D01*
X391875Y512094D01*
X392038Y512148D01*
X392202Y512193D01*
X392272Y512225D01*
X392344Y512249D01*
X392495Y512328D01*
X392651Y512399D01*
X392714Y512441D01*
X392782Y512477D01*
X392864Y512542D01*
X393060Y512674D01*
X393232Y512836D01*
X393315Y512902D01*
X399336Y518923D01*
X408384Y518923D01*
X414405Y512902D01*
X414463Y512853D01*
X414516Y512797D01*
X414651Y512693D01*
X414781Y512582D01*
X414847Y512543D01*
X414907Y512497D01*
X415057Y512416D01*
X415204Y512328D01*
X415275Y512299D01*
X415342Y512263D01*
X415503Y512208D01*
X415662Y512145D01*
X415736Y512128D01*
X415808Y512103D01*
X415977Y512075D01*
X416144Y512038D01*
X416220Y512034D01*
X416295Y512021D01*
X416466Y512020D01*
X416636Y512010D01*
X416712Y512018D01*
X416788Y512018D01*
X416957Y512044D01*
X417127Y512062D01*
X417200Y512083D01*
X417275Y512094D01*
X417438Y512148D01*
X417602Y512193D01*
X417672Y512225D01*
X417744Y512249D01*
X417895Y512328D01*
X418051Y512399D01*
X418114Y512441D01*
X418182Y512477D01*
X418264Y512542D01*
X418460Y512674D01*
X418632Y512836D01*
X418715Y512902D01*
X424736Y518923D01*
X433784Y518923D01*
X440183Y512524D01*
X440183Y503476D01*
X433784Y497077D01*
X424736Y497077D01*
X418715Y503098D01*
X418657Y503148D01*
X418605Y503203D01*
X418469Y503307D01*
X418339Y503418D01*
X418273Y503457D01*
X418213Y503503D01*
X418063Y503584D01*
X417916Y503672D01*
X417846Y503701D01*
X417778Y503737D01*
X417617Y503792D01*
X417458Y503855D01*
X417384Y503872D01*
X417312Y503897D01*
X417143Y503925D01*
X416977Y503962D01*
X416900Y503966D01*
X416825Y503979D01*
X416654Y503980D01*
X416484Y503990D01*
X416408Y503982D01*
X416332Y503982D01*
X416163Y503956D01*
X415993Y503938D01*
X415920Y503917D01*
X415845Y503906D01*
X415682Y503852D01*
X415518Y503807D01*
X415448Y503775D01*
X415376Y503751D01*
X415225Y503672D01*
X415069Y503601D01*
X415006Y503559D01*
X414938Y503523D01*
X414856Y503458D01*
X414660Y503326D01*
X414487Y503164D01*
X414405Y503098D01*
X408384Y497077D01*
X399336Y497077D01*
X393315Y503098D01*
X393257Y503148D01*
X393205Y503203D01*
X393069Y503307D01*
X392939Y503418D01*
X392873Y503457D01*
X392813Y503503D01*
X392663Y503584D01*
X392516Y503672D01*
X392446Y503701D01*
X392378Y503737D01*
X392217Y503792D01*
X392058Y503855D01*
X391984Y503872D01*
X391912Y503897D01*
X391743Y503925D01*
X391577Y503962D01*
X391500Y503966D01*
X391425Y503979D01*
X391254Y503980D01*
X391084Y503990D01*
X391008Y503982D01*
X390932Y503982D01*
X390763Y503956D01*
X390593Y503938D01*
X390520Y503917D01*
X390445Y503906D01*
X390282Y503852D01*
X390118Y503807D01*
X390048Y503775D01*
X389976Y503751D01*
X389825Y503672D01*
X389669Y503601D01*
X389606Y503559D01*
X389538Y503523D01*
X389456Y503458D01*
X389260Y503326D01*
X389087Y503164D01*
X389005Y503098D01*
X382984Y497077D01*
X373936Y497077D01*
X367915Y503098D01*
X367857Y503148D01*
X367805Y503203D01*
X367669Y503307D01*
X367539Y503418D01*
X367473Y503457D01*
X367413Y503503D01*
X367263Y503584D01*
X367116Y503672D01*
X367046Y503701D01*
X366978Y503737D01*
X366817Y503792D01*
X366658Y503855D01*
X366584Y503872D01*
X366512Y503897D01*
X366343Y503925D01*
X366177Y503962D01*
X366100Y503966D01*
X366025Y503979D01*
X365854Y503980D01*
X365684Y503990D01*
X365608Y503982D01*
X365532Y503982D01*
X365363Y503956D01*
X365193Y503938D01*
X365120Y503917D01*
X365045Y503906D01*
X364882Y503852D01*
X364718Y503807D01*
X364648Y503775D01*
X364576Y503751D01*
X364425Y503672D01*
X364269Y503601D01*
X364206Y503559D01*
X364138Y503523D01*
X364056Y503458D01*
X363860Y503326D01*
X363687Y503164D01*
X363605Y503098D01*
X357584Y497077D01*
X348536Y497077D01*
X342515Y503098D01*
X342457Y503148D01*
X342405Y503203D01*
X342269Y503307D01*
X342139Y503418D01*
X342073Y503457D01*
X342013Y503503D01*
X341863Y503584D01*
X341716Y503672D01*
X341646Y503701D01*
X341578Y503737D01*
X341417Y503792D01*
X341258Y503855D01*
X341184Y503872D01*
X341112Y503897D01*
X340943Y503925D01*
X340777Y503962D01*
X340700Y503966D01*
X340625Y503979D01*
X340454Y503980D01*
X340284Y503990D01*
X340208Y503982D01*
X340132Y503982D01*
X339963Y503956D01*
X339793Y503938D01*
X339720Y503917D01*
X339645Y503906D01*
X339482Y503852D01*
X339318Y503807D01*
X339248Y503775D01*
X339176Y503751D01*
X339025Y503672D01*
X338869Y503601D01*
X338806Y503559D01*
X338738Y503523D01*
X338656Y503458D01*
X338460Y503326D01*
X338287Y503164D01*
X338205Y503098D01*
X332184Y497077D01*
X323136Y497077D01*
X317115Y503098D01*
X317057Y503148D01*
X317005Y503203D01*
X316869Y503307D01*
X316739Y503418D01*
X316673Y503457D01*
X316613Y503503D01*
X316463Y503584D01*
X316316Y503672D01*
X316246Y503701D01*
X316178Y503737D01*
X316017Y503792D01*
X315858Y503855D01*
X315784Y503872D01*
X315712Y503897D01*
X315543Y503925D01*
X315377Y503962D01*
X315300Y503966D01*
X315225Y503979D01*
X315054Y503980D01*
X314884Y503990D01*
X314808Y503982D01*
X314732Y503982D01*
X314563Y503956D01*
X314393Y503938D01*
X314320Y503917D01*
X314245Y503906D01*
X314082Y503852D01*
X313918Y503807D01*
X313848Y503775D01*
X313776Y503751D01*
X313625Y503672D01*
X313469Y503601D01*
X313406Y503559D01*
X313338Y503523D01*
X313256Y503458D01*
X313060Y503326D01*
X312887Y503164D01*
X312805Y503098D01*
X306784Y497077D01*
X297736Y497077D01*
X291715Y503098D01*
X291657Y503148D01*
X291605Y503203D01*
X291469Y503307D01*
X291339Y503418D01*
X291273Y503457D01*
X291213Y503503D01*
X291063Y503584D01*
X290916Y503672D01*
X290846Y503701D01*
X290778Y503737D01*
X290617Y503792D01*
X290458Y503855D01*
X290384Y503872D01*
X290312Y503897D01*
X290143Y503925D01*
X289977Y503962D01*
X289900Y503966D01*
X289825Y503979D01*
X289654Y503980D01*
X289484Y503990D01*
X289408Y503982D01*
X289332Y503982D01*
X289163Y503956D01*
X288993Y503938D01*
X288920Y503917D01*
X288845Y503906D01*
X288682Y503852D01*
X288518Y503807D01*
X288448Y503775D01*
X288376Y503751D01*
X288225Y503672D01*
X288069Y503601D01*
X288006Y503559D01*
X287938Y503523D01*
X287856Y503458D01*
X287660Y503326D01*
X287487Y503164D01*
X287405Y503098D01*
X281384Y497077D01*
X279907Y497077D01*
G37*
%LPD*%
%LPC*%
G36*
X516176Y14477D02*
X516176Y14477D01*
X509777Y20876D01*
X509777Y29924D01*
X516176Y36323D01*
X525224Y36323D01*
X531245Y30302D01*
X531303Y30252D01*
X531355Y30197D01*
X531491Y30093D01*
X531621Y29982D01*
X531687Y29943D01*
X531747Y29897D01*
X531897Y29816D01*
X532044Y29728D01*
X532114Y29699D01*
X532182Y29663D01*
X532343Y29608D01*
X532502Y29545D01*
X532576Y29528D01*
X532648Y29503D01*
X532817Y29475D01*
X532983Y29438D01*
X533060Y29434D01*
X533135Y29421D01*
X533306Y29420D01*
X533476Y29410D01*
X533552Y29418D01*
X533628Y29418D01*
X533797Y29444D01*
X533967Y29462D01*
X534040Y29483D01*
X534115Y29494D01*
X534278Y29548D01*
X534442Y29593D01*
X534512Y29625D01*
X534584Y29649D01*
X534735Y29728D01*
X534891Y29799D01*
X534954Y29841D01*
X535022Y29877D01*
X535104Y29942D01*
X535300Y30074D01*
X535473Y30236D01*
X535555Y30302D01*
X541576Y36323D01*
X550624Y36323D01*
X556645Y30302D01*
X556703Y30252D01*
X556755Y30197D01*
X556891Y30093D01*
X557021Y29982D01*
X557087Y29943D01*
X557147Y29897D01*
X557297Y29816D01*
X557444Y29728D01*
X557514Y29699D01*
X557582Y29663D01*
X557743Y29608D01*
X557902Y29545D01*
X557976Y29528D01*
X558048Y29503D01*
X558217Y29475D01*
X558383Y29438D01*
X558460Y29434D01*
X558535Y29421D01*
X558706Y29420D01*
X558876Y29410D01*
X558952Y29418D01*
X559028Y29418D01*
X559197Y29444D01*
X559367Y29462D01*
X559440Y29483D01*
X559515Y29494D01*
X559678Y29548D01*
X559842Y29593D01*
X559912Y29625D01*
X559984Y29649D01*
X560135Y29728D01*
X560291Y29799D01*
X560354Y29841D01*
X560422Y29877D01*
X560504Y29942D01*
X560700Y30074D01*
X560873Y30236D01*
X560955Y30302D01*
X566976Y36323D01*
X576024Y36323D01*
X582045Y30302D01*
X582103Y30252D01*
X582155Y30197D01*
X582291Y30093D01*
X582421Y29982D01*
X582487Y29943D01*
X582547Y29897D01*
X582697Y29816D01*
X582844Y29728D01*
X582914Y29699D01*
X582982Y29663D01*
X583143Y29608D01*
X583302Y29545D01*
X583376Y29528D01*
X583448Y29503D01*
X583617Y29475D01*
X583783Y29438D01*
X583860Y29434D01*
X583935Y29421D01*
X584106Y29420D01*
X584276Y29410D01*
X584352Y29418D01*
X584428Y29418D01*
X584597Y29444D01*
X584767Y29462D01*
X584840Y29483D01*
X584915Y29494D01*
X585078Y29548D01*
X585242Y29593D01*
X585312Y29625D01*
X585384Y29649D01*
X585535Y29728D01*
X585691Y29799D01*
X585754Y29841D01*
X585822Y29877D01*
X585904Y29942D01*
X586100Y30074D01*
X586273Y30236D01*
X586355Y30302D01*
X592376Y36323D01*
X601424Y36323D01*
X607445Y30302D01*
X607503Y30252D01*
X607555Y30197D01*
X607691Y30093D01*
X607821Y29982D01*
X607887Y29943D01*
X607947Y29897D01*
X608097Y29816D01*
X608244Y29728D01*
X608314Y29699D01*
X608382Y29663D01*
X608543Y29608D01*
X608702Y29545D01*
X608776Y29528D01*
X608848Y29503D01*
X609017Y29475D01*
X609183Y29438D01*
X609260Y29434D01*
X609335Y29421D01*
X609506Y29420D01*
X609676Y29410D01*
X609752Y29418D01*
X609828Y29418D01*
X609997Y29444D01*
X610167Y29462D01*
X610240Y29483D01*
X610315Y29494D01*
X610478Y29548D01*
X610642Y29593D01*
X610712Y29625D01*
X610784Y29649D01*
X610935Y29728D01*
X611091Y29799D01*
X611154Y29841D01*
X611222Y29877D01*
X611304Y29942D01*
X611500Y30074D01*
X611673Y30236D01*
X611755Y30302D01*
X617776Y36323D01*
X626824Y36323D01*
X632845Y30302D01*
X632903Y30252D01*
X632955Y30197D01*
X633091Y30093D01*
X633221Y29982D01*
X633287Y29943D01*
X633347Y29897D01*
X633497Y29816D01*
X633644Y29728D01*
X633714Y29699D01*
X633782Y29663D01*
X633943Y29608D01*
X634102Y29545D01*
X634176Y29528D01*
X634248Y29503D01*
X634417Y29475D01*
X634583Y29438D01*
X634660Y29434D01*
X634735Y29421D01*
X634906Y29420D01*
X635076Y29410D01*
X635152Y29418D01*
X635228Y29418D01*
X635397Y29444D01*
X635567Y29462D01*
X635640Y29483D01*
X635715Y29494D01*
X635878Y29548D01*
X636042Y29593D01*
X636112Y29625D01*
X636184Y29649D01*
X636335Y29728D01*
X636491Y29799D01*
X636554Y29841D01*
X636622Y29877D01*
X636704Y29942D01*
X636900Y30074D01*
X637073Y30236D01*
X637155Y30302D01*
X643176Y36323D01*
X652224Y36323D01*
X658623Y29924D01*
X658623Y20876D01*
X652224Y14477D01*
X643176Y14477D01*
X637155Y20498D01*
X637097Y20547D01*
X637044Y20603D01*
X636909Y20707D01*
X636779Y20818D01*
X636713Y20857D01*
X636653Y20903D01*
X636503Y20984D01*
X636356Y21072D01*
X636285Y21101D01*
X636218Y21137D01*
X636057Y21192D01*
X635898Y21255D01*
X635824Y21272D01*
X635752Y21297D01*
X635583Y21325D01*
X635416Y21362D01*
X635340Y21366D01*
X635265Y21379D01*
X635094Y21380D01*
X634924Y21390D01*
X634848Y21382D01*
X634772Y21382D01*
X634603Y21356D01*
X634433Y21338D01*
X634360Y21317D01*
X634285Y21306D01*
X634122Y21252D01*
X633958Y21207D01*
X633888Y21175D01*
X633816Y21151D01*
X633665Y21072D01*
X633509Y21001D01*
X633446Y20959D01*
X633378Y20923D01*
X633296Y20858D01*
X633100Y20726D01*
X632928Y20564D01*
X632845Y20498D01*
X626824Y14477D01*
X617776Y14477D01*
X611755Y20498D01*
X611697Y20547D01*
X611644Y20603D01*
X611509Y20707D01*
X611379Y20818D01*
X611313Y20857D01*
X611253Y20903D01*
X611103Y20984D01*
X610956Y21072D01*
X610885Y21101D01*
X610818Y21137D01*
X610657Y21192D01*
X610498Y21255D01*
X610424Y21272D01*
X610352Y21297D01*
X610183Y21325D01*
X610016Y21362D01*
X609940Y21366D01*
X609865Y21379D01*
X609694Y21380D01*
X609524Y21390D01*
X609448Y21382D01*
X609372Y21382D01*
X609203Y21356D01*
X609033Y21338D01*
X608960Y21317D01*
X608885Y21306D01*
X608722Y21252D01*
X608558Y21207D01*
X608488Y21175D01*
X608416Y21151D01*
X608265Y21072D01*
X608109Y21001D01*
X608046Y20959D01*
X607978Y20923D01*
X607896Y20858D01*
X607700Y20726D01*
X607528Y20564D01*
X607445Y20498D01*
X601424Y14477D01*
X592376Y14477D01*
X586355Y20498D01*
X586297Y20547D01*
X586244Y20603D01*
X586109Y20707D01*
X585979Y20818D01*
X585913Y20857D01*
X585853Y20903D01*
X585703Y20984D01*
X585556Y21072D01*
X585485Y21101D01*
X585418Y21137D01*
X585257Y21192D01*
X585098Y21255D01*
X585024Y21272D01*
X584952Y21297D01*
X584783Y21325D01*
X584616Y21362D01*
X584540Y21366D01*
X584465Y21379D01*
X584294Y21380D01*
X584124Y21390D01*
X584048Y21382D01*
X583972Y21382D01*
X583803Y21356D01*
X583633Y21338D01*
X583560Y21317D01*
X583485Y21306D01*
X583322Y21252D01*
X583158Y21207D01*
X583088Y21175D01*
X583016Y21151D01*
X582865Y21072D01*
X582709Y21001D01*
X582646Y20959D01*
X582578Y20923D01*
X582496Y20858D01*
X582300Y20726D01*
X582128Y20564D01*
X582045Y20498D01*
X576024Y14477D01*
X566976Y14477D01*
X560955Y20498D01*
X560897Y20547D01*
X560844Y20603D01*
X560709Y20707D01*
X560579Y20818D01*
X560513Y20857D01*
X560453Y20903D01*
X560303Y20984D01*
X560156Y21072D01*
X560085Y21101D01*
X560018Y21137D01*
X559857Y21192D01*
X559698Y21255D01*
X559624Y21272D01*
X559552Y21297D01*
X559383Y21325D01*
X559216Y21362D01*
X559140Y21366D01*
X559065Y21379D01*
X558894Y21380D01*
X558724Y21390D01*
X558648Y21382D01*
X558572Y21382D01*
X558403Y21356D01*
X558233Y21338D01*
X558160Y21317D01*
X558085Y21306D01*
X557922Y21252D01*
X557758Y21207D01*
X557688Y21175D01*
X557616Y21151D01*
X557465Y21072D01*
X557309Y21001D01*
X557246Y20959D01*
X557178Y20923D01*
X557096Y20858D01*
X556900Y20726D01*
X556728Y20564D01*
X556645Y20498D01*
X550624Y14477D01*
X541576Y14477D01*
X535555Y20498D01*
X535497Y20547D01*
X535444Y20603D01*
X535309Y20707D01*
X535179Y20818D01*
X535113Y20857D01*
X535053Y20903D01*
X534903Y20984D01*
X534756Y21072D01*
X534685Y21101D01*
X534618Y21137D01*
X534457Y21192D01*
X534298Y21255D01*
X534224Y21272D01*
X534152Y21297D01*
X533983Y21325D01*
X533816Y21362D01*
X533740Y21366D01*
X533665Y21379D01*
X533494Y21380D01*
X533324Y21390D01*
X533248Y21382D01*
X533172Y21382D01*
X533003Y21356D01*
X532833Y21338D01*
X532760Y21317D01*
X532685Y21306D01*
X532522Y21252D01*
X532358Y21207D01*
X532288Y21175D01*
X532216Y21151D01*
X532065Y21072D01*
X531909Y21001D01*
X531846Y20959D01*
X531778Y20923D01*
X531696Y20858D01*
X531500Y20726D01*
X531328Y20564D01*
X531245Y20498D01*
X525224Y14477D01*
X516176Y14477D01*
G37*
%LPD*%
%LPC*%
G36*
X196136Y497077D02*
X196136Y497077D01*
X189737Y503476D01*
X189737Y512524D01*
X196136Y518923D01*
X205184Y518923D01*
X211205Y512902D01*
X211263Y512853D01*
X211316Y512797D01*
X211451Y512693D01*
X211581Y512582D01*
X211647Y512543D01*
X211707Y512497D01*
X211857Y512416D01*
X212004Y512328D01*
X212075Y512299D01*
X212142Y512263D01*
X212303Y512208D01*
X212462Y512145D01*
X212536Y512128D01*
X212608Y512103D01*
X212777Y512075D01*
X212944Y512038D01*
X213020Y512034D01*
X213095Y512021D01*
X213266Y512020D01*
X213436Y512010D01*
X213512Y512018D01*
X213588Y512018D01*
X213757Y512044D01*
X213927Y512062D01*
X214000Y512083D01*
X214075Y512094D01*
X214238Y512148D01*
X214402Y512193D01*
X214472Y512225D01*
X214544Y512249D01*
X214695Y512328D01*
X214851Y512399D01*
X214914Y512441D01*
X214982Y512477D01*
X215064Y512542D01*
X215260Y512674D01*
X215432Y512836D01*
X215515Y512902D01*
X221536Y518923D01*
X230584Y518923D01*
X236605Y512902D01*
X236663Y512852D01*
X236715Y512797D01*
X236851Y512693D01*
X236981Y512582D01*
X237047Y512543D01*
X237107Y512497D01*
X237257Y512416D01*
X237404Y512328D01*
X237474Y512299D01*
X237542Y512263D01*
X237703Y512208D01*
X237862Y512145D01*
X237936Y512128D01*
X238008Y512103D01*
X238177Y512075D01*
X238343Y512038D01*
X238420Y512034D01*
X238495Y512021D01*
X238666Y512020D01*
X238836Y512010D01*
X238912Y512018D01*
X238988Y512018D01*
X239157Y512044D01*
X239327Y512062D01*
X239400Y512083D01*
X239475Y512094D01*
X239638Y512148D01*
X239802Y512193D01*
X239872Y512225D01*
X239944Y512249D01*
X240095Y512328D01*
X240251Y512399D01*
X240314Y512441D01*
X240382Y512477D01*
X240464Y512542D01*
X240660Y512674D01*
X240833Y512836D01*
X240915Y512902D01*
X246936Y518923D01*
X255984Y518923D01*
X262005Y512902D01*
X262063Y512853D01*
X262116Y512797D01*
X262251Y512693D01*
X262381Y512582D01*
X262447Y512543D01*
X262507Y512497D01*
X262657Y512416D01*
X262804Y512328D01*
X262875Y512299D01*
X262942Y512263D01*
X263103Y512208D01*
X263262Y512145D01*
X263336Y512128D01*
X263408Y512103D01*
X263577Y512075D01*
X263744Y512038D01*
X263820Y512034D01*
X263895Y512021D01*
X264066Y512020D01*
X264236Y512010D01*
X264312Y512018D01*
X264388Y512018D01*
X264557Y512044D01*
X264727Y512062D01*
X264800Y512083D01*
X264875Y512094D01*
X265038Y512148D01*
X265202Y512193D01*
X265272Y512225D01*
X265344Y512249D01*
X265495Y512328D01*
X265651Y512399D01*
X265714Y512441D01*
X265782Y512477D01*
X265864Y512542D01*
X266060Y512674D01*
X266232Y512836D01*
X266315Y512902D01*
X272336Y518923D01*
X273813Y518923D01*
X273813Y508000D01*
X273813Y497077D01*
X272336Y497077D01*
X266315Y503098D01*
X266257Y503148D01*
X266205Y503203D01*
X266069Y503307D01*
X265939Y503418D01*
X265873Y503457D01*
X265813Y503503D01*
X265663Y503584D01*
X265516Y503672D01*
X265446Y503701D01*
X265378Y503737D01*
X265217Y503792D01*
X265058Y503855D01*
X264984Y503872D01*
X264912Y503897D01*
X264743Y503925D01*
X264577Y503962D01*
X264500Y503966D01*
X264425Y503979D01*
X264254Y503980D01*
X264084Y503990D01*
X264008Y503982D01*
X263932Y503982D01*
X263763Y503956D01*
X263593Y503938D01*
X263520Y503917D01*
X263445Y503906D01*
X263282Y503852D01*
X263118Y503807D01*
X263048Y503775D01*
X262976Y503751D01*
X262825Y503672D01*
X262669Y503601D01*
X262606Y503559D01*
X262538Y503523D01*
X262456Y503458D01*
X262260Y503326D01*
X262087Y503164D01*
X262005Y503098D01*
X255984Y497077D01*
X246936Y497077D01*
X240915Y503098D01*
X240857Y503147D01*
X240804Y503203D01*
X240669Y503307D01*
X240539Y503418D01*
X240473Y503457D01*
X240413Y503503D01*
X240263Y503584D01*
X240116Y503672D01*
X240045Y503701D01*
X239978Y503737D01*
X239817Y503792D01*
X239658Y503855D01*
X239584Y503872D01*
X239512Y503897D01*
X239343Y503925D01*
X239176Y503962D01*
X239100Y503966D01*
X239025Y503979D01*
X238854Y503980D01*
X238684Y503990D01*
X238608Y503982D01*
X238532Y503982D01*
X238363Y503956D01*
X238193Y503938D01*
X238120Y503917D01*
X238045Y503906D01*
X237882Y503852D01*
X237718Y503807D01*
X237648Y503775D01*
X237576Y503751D01*
X237425Y503672D01*
X237269Y503601D01*
X237206Y503559D01*
X237138Y503523D01*
X237056Y503458D01*
X236860Y503326D01*
X236688Y503164D01*
X236605Y503098D01*
X230584Y497077D01*
X221536Y497077D01*
X215515Y503098D01*
X215457Y503148D01*
X215405Y503203D01*
X215269Y503307D01*
X215139Y503418D01*
X215073Y503457D01*
X215013Y503503D01*
X214863Y503584D01*
X214716Y503672D01*
X214646Y503701D01*
X214578Y503737D01*
X214417Y503792D01*
X214258Y503855D01*
X214184Y503872D01*
X214112Y503897D01*
X213943Y503925D01*
X213777Y503962D01*
X213700Y503966D01*
X213625Y503979D01*
X213454Y503980D01*
X213284Y503990D01*
X213208Y503982D01*
X213132Y503982D01*
X212963Y503956D01*
X212793Y503938D01*
X212720Y503917D01*
X212645Y503906D01*
X212482Y503852D01*
X212318Y503807D01*
X212248Y503775D01*
X212176Y503751D01*
X212025Y503672D01*
X211869Y503601D01*
X211806Y503559D01*
X211738Y503523D01*
X211656Y503458D01*
X211460Y503326D01*
X211287Y503164D01*
X211205Y503098D01*
X205184Y497077D01*
X196136Y497077D01*
G37*
%LPD*%
%LPC*%
G36*
X36079Y366394D02*
X36079Y366394D01*
X32344Y367941D01*
X29486Y370799D01*
X27939Y374534D01*
X27939Y393816D01*
X29486Y397551D01*
X32344Y400409D01*
X36079Y401956D01*
X40121Y401956D01*
X43856Y400409D01*
X46714Y397551D01*
X47985Y394483D01*
X48002Y394449D01*
X48015Y394413D01*
X48115Y394229D01*
X48210Y394043D01*
X48232Y394013D01*
X48251Y393979D01*
X48378Y393815D01*
X48503Y393647D01*
X48530Y393620D01*
X48553Y393590D01*
X48706Y393448D01*
X48856Y393302D01*
X48887Y393280D01*
X48915Y393254D01*
X49089Y393139D01*
X49260Y393019D01*
X49294Y393003D01*
X49326Y392981D01*
X49517Y392895D01*
X49704Y392805D01*
X49741Y392794D01*
X49776Y392779D01*
X49978Y392725D01*
X50178Y392666D01*
X50216Y392661D01*
X50252Y392651D01*
X50460Y392630D01*
X50667Y392604D01*
X50705Y392606D01*
X50743Y392602D01*
X50952Y392615D01*
X51160Y392623D01*
X51198Y392630D01*
X51236Y392633D01*
X51439Y392679D01*
X51644Y392720D01*
X51679Y392734D01*
X51717Y392742D01*
X51910Y392821D01*
X52105Y392895D01*
X52138Y392914D01*
X52174Y392928D01*
X52352Y393037D01*
X52532Y393142D01*
X52562Y393166D01*
X52594Y393186D01*
X52752Y393322D01*
X52914Y393454D01*
X52939Y393483D01*
X52968Y393508D01*
X53102Y393667D01*
X53241Y393824D01*
X53261Y393856D01*
X53285Y393886D01*
X53330Y393967D01*
X53503Y394242D01*
X53570Y394400D01*
X53615Y394482D01*
X54886Y397551D01*
X57744Y400409D01*
X61479Y401956D01*
X65521Y401956D01*
X69256Y400409D01*
X72114Y397551D01*
X73661Y393816D01*
X73661Y374534D01*
X72114Y370799D01*
X69256Y367941D01*
X65521Y366394D01*
X61479Y366394D01*
X57744Y367941D01*
X54886Y370799D01*
X53615Y373868D01*
X53598Y373901D01*
X53585Y373937D01*
X53485Y374121D01*
X53390Y374307D01*
X53368Y374337D01*
X53349Y374371D01*
X53221Y374536D01*
X53097Y374703D01*
X53070Y374730D01*
X53047Y374760D01*
X52893Y374902D01*
X52744Y375048D01*
X52713Y375070D01*
X52685Y375096D01*
X52511Y375211D01*
X52340Y375331D01*
X52306Y375347D01*
X52274Y375369D01*
X52084Y375454D01*
X51895Y375545D01*
X51859Y375556D01*
X51824Y375571D01*
X51622Y375625D01*
X51422Y375684D01*
X51385Y375689D01*
X51348Y375699D01*
X51139Y375720D01*
X50933Y375746D01*
X50895Y375744D01*
X50857Y375748D01*
X50648Y375735D01*
X50440Y375727D01*
X50402Y375720D01*
X50364Y375717D01*
X50160Y375671D01*
X49956Y375629D01*
X49921Y375616D01*
X49883Y375608D01*
X49690Y375529D01*
X49495Y375455D01*
X49462Y375436D01*
X49426Y375422D01*
X49248Y375313D01*
X49068Y375208D01*
X49038Y375184D01*
X49006Y375164D01*
X48847Y375028D01*
X48686Y374896D01*
X48661Y374867D01*
X48632Y374842D01*
X48497Y374682D01*
X48359Y374526D01*
X48339Y374494D01*
X48315Y374464D01*
X48269Y374383D01*
X48097Y374108D01*
X48030Y373950D01*
X47985Y373867D01*
X46714Y370799D01*
X43856Y367941D01*
X40121Y366394D01*
X36079Y366394D01*
G37*
%LPD*%
%LPC*%
G36*
X138430Y30987D02*
X138430Y30987D01*
X121117Y30987D01*
X121394Y31840D01*
X122120Y33265D01*
X123060Y34559D01*
X124191Y35690D01*
X125485Y36630D01*
X126910Y37356D01*
X127985Y37706D01*
X128131Y37766D01*
X128280Y37819D01*
X128358Y37861D01*
X128440Y37896D01*
X128574Y37979D01*
X128713Y38055D01*
X128783Y38109D01*
X128859Y38157D01*
X128978Y38260D01*
X129102Y38357D01*
X129163Y38423D01*
X129230Y38482D01*
X129331Y38603D01*
X129438Y38719D01*
X129487Y38793D01*
X129544Y38862D01*
X129624Y38999D01*
X129711Y39130D01*
X129747Y39211D01*
X129792Y39289D01*
X129849Y39436D01*
X129914Y39580D01*
X129937Y39666D01*
X129969Y39749D01*
X130000Y39904D01*
X130041Y40056D01*
X130050Y40145D01*
X130068Y40233D01*
X130075Y40390D01*
X130090Y40547D01*
X130085Y40636D01*
X130088Y40726D01*
X130069Y40882D01*
X130060Y41040D01*
X130040Y41127D01*
X130029Y41215D01*
X129985Y41367D01*
X129950Y41520D01*
X129916Y41603D01*
X129891Y41689D01*
X129823Y41832D01*
X129764Y41977D01*
X129717Y42054D01*
X129679Y42134D01*
X129589Y42264D01*
X129506Y42398D01*
X129448Y42466D01*
X129397Y42539D01*
X129287Y42653D01*
X129185Y42772D01*
X129116Y42830D01*
X129054Y42894D01*
X128928Y42988D01*
X128807Y43089D01*
X128746Y43123D01*
X128658Y43188D01*
X128220Y43415D01*
X128214Y43417D01*
X128210Y43419D01*
X125054Y44726D01*
X122196Y47584D01*
X120649Y51319D01*
X120649Y55361D01*
X122196Y59096D01*
X125054Y61954D01*
X128789Y63501D01*
X148071Y63501D01*
X151806Y61954D01*
X154664Y59096D01*
X156211Y55361D01*
X156211Y51319D01*
X154664Y47584D01*
X151806Y44726D01*
X148650Y43419D01*
X148510Y43347D01*
X148366Y43284D01*
X148291Y43235D01*
X148211Y43194D01*
X148084Y43100D01*
X147952Y43014D01*
X147886Y42954D01*
X147814Y42901D01*
X147704Y42788D01*
X147588Y42682D01*
X147532Y42612D01*
X147470Y42548D01*
X147379Y42419D01*
X147282Y42295D01*
X147238Y42217D01*
X147187Y42144D01*
X147119Y42002D01*
X147042Y41864D01*
X147012Y41780D01*
X146973Y41699D01*
X146928Y41548D01*
X146875Y41400D01*
X146859Y41312D01*
X146833Y41226D01*
X146814Y41070D01*
X146785Y40915D01*
X146783Y40825D01*
X146772Y40737D01*
X146778Y40579D01*
X146775Y40421D01*
X146787Y40333D01*
X146791Y40244D01*
X146822Y40089D01*
X146844Y39933D01*
X146871Y39848D01*
X146888Y39760D01*
X146944Y39612D01*
X146991Y39462D01*
X147031Y39382D01*
X147063Y39299D01*
X147142Y39162D01*
X147212Y39021D01*
X147265Y38949D01*
X147310Y38871D01*
X147409Y38749D01*
X147502Y38622D01*
X147565Y38559D01*
X147622Y38490D01*
X147740Y38385D01*
X147852Y38274D01*
X147925Y38222D01*
X147992Y38163D01*
X148126Y38079D01*
X148254Y37988D01*
X148316Y37959D01*
X148410Y37901D01*
X148864Y37709D01*
X148871Y37708D01*
X148875Y37706D01*
X149950Y37356D01*
X151375Y36630D01*
X152669Y35690D01*
X153800Y34559D01*
X154740Y33265D01*
X155466Y31840D01*
X155743Y30987D01*
X138430Y30987D01*
X138430Y30987D01*
G37*
%LPD*%
%LPC*%
G36*
X523262Y82930D02*
X523262Y82930D01*
X517905Y88287D01*
X517905Y95863D01*
X518821Y96778D01*
X518845Y96807D01*
X518874Y96833D01*
X519005Y96995D01*
X519140Y97154D01*
X519160Y97187D01*
X519184Y97217D01*
X519287Y97398D01*
X519395Y97577D01*
X519409Y97612D01*
X519428Y97645D01*
X519500Y97840D01*
X519578Y98035D01*
X519586Y98072D01*
X519599Y98108D01*
X519639Y98312D01*
X519685Y98516D01*
X519687Y98555D01*
X519694Y98592D01*
X519701Y98800D01*
X519712Y99009D01*
X519708Y99047D01*
X519709Y99085D01*
X519682Y99292D01*
X519660Y99500D01*
X519650Y99536D01*
X519645Y99574D01*
X519585Y99775D01*
X519529Y99975D01*
X519514Y100010D01*
X519503Y100047D01*
X519411Y100234D01*
X519324Y100424D01*
X519302Y100455D01*
X519286Y100490D01*
X519165Y100660D01*
X519048Y100833D01*
X519022Y100861D01*
X519000Y100892D01*
X518853Y101040D01*
X518711Y101193D01*
X518680Y101216D01*
X518653Y101243D01*
X518485Y101366D01*
X518319Y101493D01*
X518285Y101511D01*
X518255Y101533D01*
X518068Y101627D01*
X517884Y101726D01*
X517848Y101738D01*
X517814Y101756D01*
X517615Y101819D01*
X517418Y101886D01*
X517380Y101892D01*
X517344Y101904D01*
X517251Y101914D01*
X516931Y101969D01*
X516759Y101970D01*
X516666Y101980D01*
X512034Y101980D01*
X511996Y101977D01*
X511958Y101979D01*
X511750Y101957D01*
X511542Y101940D01*
X511505Y101931D01*
X511467Y101927D01*
X511266Y101872D01*
X511063Y101822D01*
X511029Y101807D01*
X510992Y101796D01*
X510802Y101709D01*
X510610Y101627D01*
X510578Y101607D01*
X510543Y101591D01*
X510370Y101474D01*
X510194Y101362D01*
X510166Y101337D01*
X510134Y101315D01*
X509982Y101172D01*
X509826Y101033D01*
X509802Y101004D01*
X509774Y100978D01*
X509647Y100812D01*
X509516Y100649D01*
X509497Y100616D01*
X509474Y100586D01*
X509375Y100402D01*
X509272Y100221D01*
X509259Y100185D01*
X509241Y100151D01*
X509173Y99954D01*
X509101Y99758D01*
X509093Y99721D01*
X509081Y99685D01*
X509046Y99478D01*
X509006Y99274D01*
X509005Y99236D01*
X508998Y99198D01*
X508997Y98989D01*
X508991Y98781D01*
X508996Y98743D01*
X508995Y98705D01*
X509028Y98498D01*
X509055Y98292D01*
X509066Y98255D01*
X509072Y98218D01*
X509137Y98019D01*
X509197Y97820D01*
X509214Y97785D01*
X509226Y97749D01*
X509323Y97564D01*
X509414Y97376D01*
X509436Y97345D01*
X509454Y97311D01*
X509512Y97239D01*
X509700Y96974D01*
X509821Y96852D01*
X509879Y96778D01*
X510795Y95863D01*
X510795Y95122D01*
X504697Y95122D01*
X504697Y101318D01*
X504734Y101328D01*
X504937Y101378D01*
X504971Y101393D01*
X505008Y101404D01*
X505198Y101491D01*
X505390Y101573D01*
X505422Y101593D01*
X505457Y101609D01*
X505630Y101726D01*
X505806Y101838D01*
X505834Y101863D01*
X505866Y101885D01*
X506018Y102028D01*
X506174Y102167D01*
X506198Y102196D01*
X506226Y102222D01*
X506353Y102388D01*
X506484Y102551D01*
X506503Y102584D01*
X506526Y102614D01*
X506625Y102798D01*
X506728Y102979D01*
X506741Y103015D01*
X506759Y103049D01*
X506827Y103246D01*
X506899Y103442D01*
X506907Y103479D01*
X506919Y103515D01*
X506954Y103722D01*
X506994Y103926D01*
X506995Y103964D01*
X507002Y104002D01*
X507003Y104211D01*
X507009Y104419D01*
X507004Y104457D01*
X507005Y104495D01*
X506972Y104702D01*
X506945Y104908D01*
X506934Y104945D01*
X506928Y104982D01*
X506863Y105181D01*
X506803Y105380D01*
X506786Y105415D01*
X506774Y105451D01*
X506677Y105636D01*
X506586Y105824D01*
X506564Y105855D01*
X506546Y105889D01*
X506488Y105961D01*
X506300Y106226D01*
X506179Y106348D01*
X506121Y106422D01*
X505205Y107337D01*
X505205Y114913D01*
X510562Y120270D01*
X518138Y120270D01*
X523495Y114913D01*
X523495Y107337D01*
X522579Y106422D01*
X522555Y106393D01*
X522526Y106367D01*
X522395Y106205D01*
X522260Y106046D01*
X522240Y106013D01*
X522216Y105983D01*
X522113Y105802D01*
X522005Y105623D01*
X521991Y105588D01*
X521972Y105555D01*
X521899Y105359D01*
X521822Y105165D01*
X521814Y105128D01*
X521801Y105092D01*
X521761Y104888D01*
X521715Y104684D01*
X521713Y104645D01*
X521706Y104608D01*
X521699Y104400D01*
X521688Y104191D01*
X521692Y104153D01*
X521691Y104115D01*
X521718Y103908D01*
X521740Y103700D01*
X521750Y103664D01*
X521755Y103626D01*
X521815Y103425D01*
X521871Y103225D01*
X521886Y103190D01*
X521897Y103153D01*
X521989Y102966D01*
X522076Y102776D01*
X522098Y102745D01*
X522114Y102710D01*
X522235Y102540D01*
X522352Y102367D01*
X522378Y102339D01*
X522400Y102308D01*
X522547Y102160D01*
X522689Y102007D01*
X522720Y101984D01*
X522747Y101957D01*
X522915Y101834D01*
X523081Y101707D01*
X523115Y101689D01*
X523145Y101667D01*
X523332Y101573D01*
X523516Y101474D01*
X523552Y101462D01*
X523586Y101444D01*
X523785Y101381D01*
X523982Y101314D01*
X524020Y101308D01*
X524056Y101296D01*
X524149Y101286D01*
X524469Y101231D01*
X524641Y101230D01*
X524734Y101220D01*
X530838Y101220D01*
X536195Y95863D01*
X536195Y88287D01*
X530838Y82930D01*
X523262Y82930D01*
G37*
%LPD*%
%LPC*%
G36*
X523262Y130555D02*
X523262Y130555D01*
X517905Y135912D01*
X517905Y143488D01*
X518821Y144403D01*
X518832Y144417D01*
X518839Y144423D01*
X518850Y144436D01*
X518874Y144458D01*
X519005Y144620D01*
X519140Y144779D01*
X519160Y144812D01*
X519184Y144842D01*
X519287Y145023D01*
X519395Y145202D01*
X519409Y145237D01*
X519428Y145270D01*
X519500Y145465D01*
X519578Y145660D01*
X519586Y145697D01*
X519599Y145733D01*
X519639Y145937D01*
X519685Y146141D01*
X519687Y146180D01*
X519694Y146217D01*
X519701Y146425D01*
X519712Y146634D01*
X519708Y146672D01*
X519709Y146710D01*
X519682Y146917D01*
X519660Y147125D01*
X519650Y147161D01*
X519645Y147199D01*
X519585Y147400D01*
X519529Y147600D01*
X519514Y147635D01*
X519503Y147672D01*
X519411Y147859D01*
X519324Y148049D01*
X519302Y148080D01*
X519286Y148115D01*
X519165Y148285D01*
X519048Y148458D01*
X519022Y148486D01*
X519000Y148517D01*
X518853Y148665D01*
X518711Y148818D01*
X518680Y148841D01*
X518653Y148868D01*
X518485Y148991D01*
X518319Y149118D01*
X518285Y149136D01*
X518255Y149158D01*
X518068Y149252D01*
X517884Y149351D01*
X517848Y149363D01*
X517814Y149381D01*
X517615Y149444D01*
X517418Y149511D01*
X517380Y149517D01*
X517344Y149529D01*
X517251Y149539D01*
X516931Y149594D01*
X516759Y149595D01*
X516666Y149605D01*
X512034Y149605D01*
X511996Y149602D01*
X511958Y149604D01*
X511750Y149582D01*
X511542Y149565D01*
X511505Y149556D01*
X511467Y149552D01*
X511266Y149497D01*
X511063Y149447D01*
X511029Y149432D01*
X510992Y149421D01*
X510802Y149334D01*
X510610Y149252D01*
X510578Y149232D01*
X510543Y149216D01*
X510370Y149099D01*
X510194Y148987D01*
X510166Y148962D01*
X510134Y148940D01*
X509982Y148797D01*
X509826Y148658D01*
X509802Y148629D01*
X509774Y148603D01*
X509647Y148437D01*
X509516Y148274D01*
X509497Y148241D01*
X509474Y148211D01*
X509375Y148027D01*
X509272Y147846D01*
X509259Y147810D01*
X509241Y147776D01*
X509173Y147579D01*
X509101Y147383D01*
X509093Y147346D01*
X509081Y147310D01*
X509046Y147103D01*
X509006Y146899D01*
X509005Y146861D01*
X508998Y146823D01*
X508997Y146614D01*
X508991Y146406D01*
X508996Y146368D01*
X508995Y146330D01*
X509028Y146123D01*
X509055Y145917D01*
X509066Y145880D01*
X509072Y145843D01*
X509137Y145644D01*
X509197Y145445D01*
X509214Y145410D01*
X509226Y145374D01*
X509323Y145189D01*
X509414Y145001D01*
X509436Y144970D01*
X509454Y144936D01*
X509512Y144864D01*
X509700Y144599D01*
X509821Y144477D01*
X509879Y144403D01*
X510795Y143488D01*
X510795Y142747D01*
X504697Y142747D01*
X504697Y148943D01*
X504734Y148953D01*
X504937Y149003D01*
X504971Y149018D01*
X505008Y149029D01*
X505198Y149116D01*
X505390Y149198D01*
X505422Y149218D01*
X505457Y149234D01*
X505630Y149351D01*
X505806Y149463D01*
X505834Y149488D01*
X505866Y149510D01*
X506018Y149653D01*
X506174Y149792D01*
X506198Y149821D01*
X506226Y149847D01*
X506353Y150013D01*
X506484Y150176D01*
X506503Y150209D01*
X506526Y150239D01*
X506625Y150423D01*
X506728Y150604D01*
X506741Y150640D01*
X506759Y150674D01*
X506827Y150871D01*
X506899Y151067D01*
X506907Y151104D01*
X506919Y151140D01*
X506954Y151347D01*
X506994Y151551D01*
X506995Y151589D01*
X507002Y151627D01*
X507003Y151836D01*
X507009Y152044D01*
X507004Y152082D01*
X507005Y152120D01*
X506972Y152327D01*
X506945Y152533D01*
X506934Y152570D01*
X506928Y152607D01*
X506863Y152806D01*
X506803Y153005D01*
X506786Y153040D01*
X506774Y153076D01*
X506677Y153261D01*
X506586Y153449D01*
X506564Y153480D01*
X506546Y153514D01*
X506488Y153586D01*
X506300Y153851D01*
X506179Y153973D01*
X506121Y154047D01*
X505205Y154962D01*
X505205Y162538D01*
X510562Y167895D01*
X518138Y167895D01*
X523495Y162538D01*
X523495Y154962D01*
X522579Y154047D01*
X522555Y154018D01*
X522526Y153992D01*
X522395Y153830D01*
X522260Y153671D01*
X522240Y153638D01*
X522216Y153608D01*
X522113Y153427D01*
X522005Y153248D01*
X521991Y153213D01*
X521972Y153180D01*
X521899Y152984D01*
X521822Y152790D01*
X521814Y152753D01*
X521801Y152717D01*
X521761Y152513D01*
X521715Y152309D01*
X521713Y152270D01*
X521706Y152233D01*
X521699Y152025D01*
X521688Y151816D01*
X521692Y151778D01*
X521691Y151740D01*
X521718Y151533D01*
X521740Y151325D01*
X521750Y151289D01*
X521755Y151251D01*
X521815Y151050D01*
X521871Y150850D01*
X521886Y150815D01*
X521897Y150778D01*
X521989Y150591D01*
X522076Y150401D01*
X522098Y150370D01*
X522114Y150335D01*
X522235Y150165D01*
X522352Y149992D01*
X522378Y149964D01*
X522400Y149933D01*
X522547Y149785D01*
X522689Y149632D01*
X522720Y149609D01*
X522747Y149582D01*
X522915Y149459D01*
X523081Y149332D01*
X523115Y149314D01*
X523145Y149292D01*
X523332Y149198D01*
X523516Y149099D01*
X523552Y149087D01*
X523586Y149069D01*
X523785Y149006D01*
X523982Y148939D01*
X524020Y148933D01*
X524056Y148921D01*
X524149Y148911D01*
X524469Y148856D01*
X524641Y148855D01*
X524734Y148845D01*
X530838Y148845D01*
X536195Y143488D01*
X536195Y135912D01*
X530838Y130555D01*
X523262Y130555D01*
G37*
%LPD*%
%LPC*%
G36*
X447547Y14477D02*
X447547Y14477D01*
X447547Y25400D01*
X447547Y36323D01*
X449024Y36323D01*
X455045Y30302D01*
X455103Y30253D01*
X455156Y30197D01*
X455291Y30093D01*
X455421Y29982D01*
X455487Y29943D01*
X455547Y29897D01*
X455697Y29816D01*
X455844Y29728D01*
X455915Y29699D01*
X455982Y29663D01*
X456143Y29608D01*
X456302Y29545D01*
X456376Y29528D01*
X456448Y29503D01*
X456617Y29475D01*
X456784Y29438D01*
X456860Y29434D01*
X456935Y29421D01*
X457106Y29420D01*
X457276Y29410D01*
X457352Y29418D01*
X457428Y29418D01*
X457597Y29444D01*
X457767Y29462D01*
X457840Y29483D01*
X457915Y29494D01*
X458078Y29548D01*
X458242Y29593D01*
X458312Y29625D01*
X458384Y29649D01*
X458535Y29728D01*
X458691Y29799D01*
X458754Y29841D01*
X458822Y29877D01*
X458904Y29942D01*
X459100Y30074D01*
X459272Y30236D01*
X459355Y30302D01*
X465376Y36323D01*
X474424Y36323D01*
X480823Y29924D01*
X480823Y20876D01*
X474424Y14477D01*
X465376Y14477D01*
X459355Y20498D01*
X459297Y20548D01*
X459245Y20603D01*
X459109Y20707D01*
X458979Y20818D01*
X458913Y20857D01*
X458853Y20903D01*
X458703Y20984D01*
X458556Y21072D01*
X458486Y21101D01*
X458418Y21137D01*
X458257Y21192D01*
X458098Y21255D01*
X458024Y21272D01*
X457952Y21297D01*
X457783Y21325D01*
X457617Y21362D01*
X457540Y21366D01*
X457465Y21379D01*
X457294Y21380D01*
X457124Y21390D01*
X457048Y21382D01*
X456972Y21382D01*
X456803Y21356D01*
X456633Y21338D01*
X456560Y21317D01*
X456485Y21306D01*
X456322Y21252D01*
X456158Y21207D01*
X456088Y21175D01*
X456016Y21151D01*
X455865Y21072D01*
X455709Y21001D01*
X455646Y20959D01*
X455578Y20923D01*
X455496Y20858D01*
X455300Y20726D01*
X455127Y20564D01*
X455045Y20498D01*
X449024Y14477D01*
X447547Y14477D01*
G37*
%LPD*%
%LPC*%
G36*
X516333Y278383D02*
X516333Y278383D01*
X509645Y285072D01*
X509598Y285111D01*
X509557Y285156D01*
X509411Y285271D01*
X509269Y285391D01*
X509217Y285423D01*
X509169Y285460D01*
X509005Y285550D01*
X508846Y285646D01*
X508790Y285669D01*
X508736Y285698D01*
X508561Y285760D01*
X508388Y285829D01*
X508329Y285842D01*
X508271Y285863D01*
X508088Y285896D01*
X507907Y285936D01*
X507846Y285939D01*
X507786Y285950D01*
X507600Y285953D01*
X507414Y285963D01*
X507353Y285957D01*
X507292Y285958D01*
X507108Y285931D01*
X506924Y285911D01*
X506865Y285895D01*
X506804Y285886D01*
X506627Y285830D01*
X506448Y285781D01*
X506392Y285755D01*
X506334Y285737D01*
X506169Y285653D01*
X505999Y285575D01*
X505949Y285541D01*
X505894Y285513D01*
X505745Y285403D01*
X505590Y285300D01*
X505546Y285258D01*
X505496Y285222D01*
X505366Y285089D01*
X505231Y284962D01*
X505193Y284913D01*
X505151Y284870D01*
X505093Y284782D01*
X504930Y284570D01*
X504831Y284386D01*
X504775Y284301D01*
X504316Y283400D01*
X503341Y282057D01*
X502168Y280884D01*
X500825Y279909D01*
X499347Y279156D01*
X498347Y278831D01*
X498347Y288925D01*
X498347Y299019D01*
X499347Y298694D01*
X500825Y297941D01*
X502168Y296966D01*
X503341Y295793D01*
X504316Y294450D01*
X504775Y293549D01*
X504807Y293498D01*
X504832Y293442D01*
X504936Y293288D01*
X505034Y293129D01*
X505074Y293083D01*
X505108Y293033D01*
X505235Y292897D01*
X505357Y292757D01*
X505404Y292718D01*
X505446Y292673D01*
X505593Y292560D01*
X505736Y292441D01*
X505789Y292410D01*
X505837Y292373D01*
X506001Y292285D01*
X506161Y292191D01*
X506218Y292169D01*
X506272Y292140D01*
X506448Y292079D01*
X506621Y292012D01*
X506681Y292000D01*
X506738Y291980D01*
X506922Y291949D01*
X507104Y291910D01*
X507165Y291907D01*
X507225Y291897D01*
X507411Y291896D01*
X507597Y291887D01*
X507657Y291894D01*
X507718Y291894D01*
X507902Y291923D01*
X508087Y291945D01*
X508145Y291961D01*
X508206Y291971D01*
X508382Y292029D01*
X508561Y292080D01*
X508616Y292106D01*
X508674Y292125D01*
X508839Y292211D01*
X509007Y292290D01*
X509058Y292325D01*
X509112Y292353D01*
X509194Y292418D01*
X509414Y292570D01*
X509565Y292714D01*
X509645Y292778D01*
X516333Y299467D01*
X525067Y299467D01*
X531242Y293292D01*
X531242Y284558D01*
X525067Y278383D01*
X516333Y278383D01*
G37*
%LPD*%
%LPC*%
G36*
X182053Y24383D02*
X182053Y24383D01*
X178179Y25988D01*
X175213Y28954D01*
X173608Y32828D01*
X173608Y37022D01*
X175213Y40896D01*
X178179Y43862D01*
X182053Y45467D01*
X186247Y45467D01*
X190121Y43862D01*
X193087Y40896D01*
X193546Y39788D01*
X193628Y39627D01*
X193704Y39463D01*
X193741Y39408D01*
X193771Y39349D01*
X193878Y39203D01*
X193979Y39054D01*
X194024Y39006D01*
X194064Y38952D01*
X194193Y38826D01*
X194317Y38694D01*
X194370Y38654D01*
X194417Y38607D01*
X194565Y38504D01*
X194708Y38394D01*
X194767Y38363D01*
X194821Y38325D01*
X194984Y38246D01*
X195143Y38161D01*
X195206Y38139D01*
X195266Y38110D01*
X195438Y38060D01*
X195610Y38001D01*
X195675Y37990D01*
X195739Y37971D01*
X195918Y37949D01*
X196096Y37918D01*
X196163Y37918D01*
X196228Y37910D01*
X196408Y37916D01*
X196589Y37915D01*
X196655Y37926D01*
X196721Y37928D01*
X196898Y37964D01*
X197077Y37992D01*
X197140Y38013D01*
X197205Y38026D01*
X197374Y38090D01*
X197545Y38146D01*
X197604Y38177D01*
X197666Y38200D01*
X197823Y38291D01*
X197983Y38374D01*
X198024Y38407D01*
X198094Y38447D01*
X198476Y38759D01*
X198498Y38785D01*
X198516Y38799D01*
X205183Y45467D01*
X206503Y45467D01*
X206503Y34925D01*
X206503Y24383D01*
X205183Y24383D01*
X198516Y31051D01*
X198378Y31168D01*
X198246Y31290D01*
X198191Y31327D01*
X198140Y31370D01*
X197986Y31463D01*
X197835Y31563D01*
X197774Y31591D01*
X197718Y31625D01*
X197550Y31692D01*
X197385Y31766D01*
X197321Y31783D01*
X197259Y31808D01*
X197084Y31847D01*
X196909Y31894D01*
X196843Y31900D01*
X196778Y31915D01*
X196598Y31925D01*
X196418Y31943D01*
X196352Y31939D01*
X196285Y31942D01*
X196106Y31923D01*
X195926Y31912D01*
X195861Y31897D01*
X195795Y31890D01*
X195621Y31842D01*
X195445Y31802D01*
X195383Y31777D01*
X195319Y31759D01*
X195155Y31684D01*
X194988Y31616D01*
X194931Y31582D01*
X194871Y31554D01*
X194720Y31453D01*
X194567Y31359D01*
X194517Y31316D01*
X194461Y31278D01*
X194330Y31155D01*
X194193Y31037D01*
X194150Y30986D01*
X194102Y30941D01*
X193992Y30797D01*
X193876Y30659D01*
X193850Y30613D01*
X193801Y30549D01*
X193568Y30114D01*
X193557Y30083D01*
X193546Y30062D01*
X193087Y28954D01*
X190121Y25988D01*
X186247Y24383D01*
X182053Y24383D01*
G37*
%LPD*%
%LPC*%
G36*
X274128Y433958D02*
X274128Y433958D01*
X270254Y435563D01*
X267288Y438529D01*
X265683Y442403D01*
X265683Y446597D01*
X267288Y450471D01*
X270254Y453437D01*
X274128Y455042D01*
X278322Y455042D01*
X282196Y453437D01*
X285162Y450471D01*
X285621Y449363D01*
X285703Y449202D01*
X285779Y449038D01*
X285816Y448983D01*
X285846Y448924D01*
X285953Y448778D01*
X286054Y448629D01*
X286099Y448581D01*
X286139Y448527D01*
X286268Y448401D01*
X286392Y448269D01*
X286445Y448229D01*
X286492Y448182D01*
X286640Y448079D01*
X286783Y447969D01*
X286842Y447938D01*
X286896Y447900D01*
X287059Y447821D01*
X287218Y447736D01*
X287281Y447714D01*
X287341Y447685D01*
X287513Y447635D01*
X287685Y447576D01*
X287750Y447565D01*
X287814Y447546D01*
X287993Y447524D01*
X288171Y447493D01*
X288238Y447493D01*
X288303Y447485D01*
X288483Y447491D01*
X288664Y447490D01*
X288730Y447501D01*
X288796Y447503D01*
X288973Y447539D01*
X289152Y447567D01*
X289215Y447588D01*
X289280Y447601D01*
X289449Y447665D01*
X289620Y447721D01*
X289679Y447752D01*
X289741Y447775D01*
X289898Y447866D01*
X290058Y447949D01*
X290099Y447982D01*
X290169Y448022D01*
X290551Y448334D01*
X290573Y448360D01*
X290591Y448374D01*
X297258Y455042D01*
X298578Y455042D01*
X298578Y444500D01*
X298578Y433958D01*
X297258Y433958D01*
X290591Y440626D01*
X290453Y440743D01*
X290321Y440865D01*
X290266Y440902D01*
X290215Y440945D01*
X290061Y441038D01*
X289910Y441138D01*
X289849Y441166D01*
X289793Y441200D01*
X289625Y441267D01*
X289460Y441341D01*
X289396Y441358D01*
X289334Y441383D01*
X289159Y441422D01*
X288984Y441469D01*
X288918Y441475D01*
X288853Y441490D01*
X288673Y441500D01*
X288493Y441518D01*
X288427Y441514D01*
X288360Y441517D01*
X288181Y441498D01*
X288001Y441487D01*
X287936Y441472D01*
X287870Y441465D01*
X287696Y441417D01*
X287520Y441377D01*
X287458Y441352D01*
X287394Y441334D01*
X287230Y441259D01*
X287063Y441191D01*
X287006Y441157D01*
X286946Y441129D01*
X286795Y441028D01*
X286642Y440934D01*
X286592Y440891D01*
X286536Y440853D01*
X286405Y440730D01*
X286268Y440612D01*
X286225Y440561D01*
X286177Y440516D01*
X286067Y440372D01*
X285951Y440234D01*
X285925Y440188D01*
X285876Y440124D01*
X285643Y439689D01*
X285632Y439658D01*
X285621Y439637D01*
X285162Y438529D01*
X282196Y435563D01*
X278322Y433958D01*
X274128Y433958D01*
G37*
%LPD*%
%LPC*%
G36*
X257555Y302684D02*
X257555Y302684D01*
X253129Y304517D01*
X249742Y307904D01*
X247909Y312330D01*
X247909Y317120D01*
X249742Y321546D01*
X253129Y324933D01*
X257555Y326766D01*
X262345Y326766D01*
X266771Y324933D01*
X270158Y321546D01*
X271991Y317120D01*
X271991Y312330D01*
X270158Y307904D01*
X266771Y304517D01*
X262345Y302684D01*
X257555Y302684D01*
G37*
%LPD*%
%LPC*%
G36*
X155955Y302684D02*
X155955Y302684D01*
X151529Y304517D01*
X148142Y307904D01*
X146309Y312330D01*
X146309Y317120D01*
X148142Y321546D01*
X151529Y324933D01*
X155955Y326766D01*
X160745Y326766D01*
X165171Y324933D01*
X168558Y321546D01*
X170391Y317120D01*
X170391Y312330D01*
X168558Y307904D01*
X165171Y304517D01*
X160745Y302684D01*
X155955Y302684D01*
G37*
%LPD*%
%LPC*%
G36*
X54355Y99484D02*
X54355Y99484D01*
X49929Y101317D01*
X46542Y104704D01*
X44709Y109130D01*
X44709Y113920D01*
X46542Y118346D01*
X49929Y121733D01*
X54355Y123566D01*
X59145Y123566D01*
X63571Y121733D01*
X66958Y118346D01*
X68791Y113920D01*
X68791Y109130D01*
X66958Y104704D01*
X63571Y101317D01*
X59145Y99484D01*
X54355Y99484D01*
G37*
%LPD*%
%LPC*%
G36*
X181355Y99484D02*
X181355Y99484D01*
X176929Y101317D01*
X173542Y104704D01*
X171709Y109130D01*
X171709Y113920D01*
X173542Y118346D01*
X176929Y121733D01*
X181355Y123566D01*
X186145Y123566D01*
X190571Y121733D01*
X193958Y118346D01*
X195791Y113920D01*
X195791Y109130D01*
X193958Y104704D01*
X190571Y101317D01*
X186145Y99484D01*
X181355Y99484D01*
G37*
%LPD*%
%LPC*%
G36*
X107337Y460755D02*
X107337Y460755D01*
X101980Y466112D01*
X101980Y473688D01*
X107337Y479045D01*
X114913Y479045D01*
X120270Y473688D01*
X120270Y466112D01*
X114913Y460755D01*
X107337Y460755D01*
G37*
%LPD*%
%LPC*%
G36*
X396262Y190880D02*
X396262Y190880D01*
X390905Y196237D01*
X390905Y203813D01*
X396262Y209170D01*
X403838Y209170D01*
X409195Y203813D01*
X409195Y196237D01*
X403838Y190880D01*
X396262Y190880D01*
G37*
%LPD*%
%LPC*%
G36*
X545487Y279780D02*
X545487Y279780D01*
X540130Y285137D01*
X540130Y292713D01*
X545487Y298070D01*
X553063Y298070D01*
X558420Y292713D01*
X558420Y285137D01*
X553063Y279780D01*
X545487Y279780D01*
G37*
%LPD*%
%LPC*%
G36*
X107337Y384555D02*
X107337Y384555D01*
X101980Y389912D01*
X101980Y397488D01*
X107337Y402845D01*
X114913Y402845D01*
X120270Y397488D01*
X120270Y389912D01*
X114913Y384555D01*
X107337Y384555D01*
G37*
%LPD*%
%LPC*%
G36*
X272437Y375030D02*
X272437Y375030D01*
X267080Y380387D01*
X267080Y387963D01*
X272437Y393320D01*
X280013Y393320D01*
X285370Y387963D01*
X285370Y380387D01*
X280013Y375030D01*
X272437Y375030D01*
G37*
%LPD*%
%LPC*%
G36*
X472462Y60705D02*
X472462Y60705D01*
X467105Y66062D01*
X467105Y73638D01*
X472462Y78995D01*
X480038Y78995D01*
X485395Y73638D01*
X485395Y66062D01*
X480038Y60705D01*
X472462Y60705D01*
G37*
%LPD*%
%LPC*%
G36*
X472462Y111505D02*
X472462Y111505D01*
X467105Y116862D01*
X467105Y124438D01*
X472462Y129795D01*
X480038Y129795D01*
X485395Y124438D01*
X485395Y116862D01*
X480038Y111505D01*
X472462Y111505D01*
G37*
%LPD*%
%LPC*%
G36*
X161312Y349630D02*
X161312Y349630D01*
X155955Y354987D01*
X155955Y362563D01*
X161312Y367920D01*
X168888Y367920D01*
X174245Y362563D01*
X174245Y354987D01*
X168888Y349630D01*
X161312Y349630D01*
G37*
%LPD*%
%LPC*%
G36*
X247037Y44830D02*
X247037Y44830D01*
X241680Y50187D01*
X241680Y57763D01*
X247037Y63120D01*
X254613Y63120D01*
X259970Y57763D01*
X259970Y50187D01*
X254613Y44830D01*
X247037Y44830D01*
G37*
%LPD*%
%LPC*%
G36*
X472462Y136905D02*
X472462Y136905D01*
X467105Y142262D01*
X467105Y149838D01*
X472462Y155195D01*
X480038Y155195D01*
X485395Y149838D01*
X485395Y142262D01*
X480038Y136905D01*
X472462Y136905D01*
G37*
%LPD*%
%LPC*%
G36*
X396262Y136905D02*
X396262Y136905D01*
X390905Y142262D01*
X390905Y149838D01*
X396262Y155195D01*
X403838Y155195D01*
X409195Y149838D01*
X409195Y142262D01*
X403838Y136905D01*
X396262Y136905D01*
G37*
%LPD*%
%LPC*%
G36*
X396262Y86105D02*
X396262Y86105D01*
X390905Y91462D01*
X390905Y99038D01*
X396262Y104395D01*
X403838Y104395D01*
X409195Y99038D01*
X409195Y91462D01*
X403838Y86105D01*
X396262Y86105D01*
G37*
%LPD*%
%LPC*%
G36*
X472462Y86105D02*
X472462Y86105D01*
X467105Y91462D01*
X467105Y99038D01*
X472462Y104395D01*
X480038Y104395D01*
X485395Y99038D01*
X485395Y91462D01*
X480038Y86105D01*
X472462Y86105D01*
G37*
%LPD*%
%LPC*%
G36*
X351812Y425830D02*
X351812Y425830D01*
X346455Y431187D01*
X346455Y438763D01*
X351812Y444120D01*
X359388Y444120D01*
X364745Y438763D01*
X364745Y431187D01*
X359388Y425830D01*
X351812Y425830D01*
G37*
%LPD*%
%LPC*%
G36*
X396262Y165480D02*
X396262Y165480D01*
X390905Y170837D01*
X390905Y178413D01*
X396262Y183770D01*
X403838Y183770D01*
X409195Y178413D01*
X409195Y170837D01*
X403838Y165480D01*
X396262Y165480D01*
G37*
%LPD*%
%LPC*%
G36*
X472462Y165480D02*
X472462Y165480D01*
X467105Y170837D01*
X467105Y178413D01*
X472462Y183770D01*
X480038Y183770D01*
X485395Y178413D01*
X485395Y170837D01*
X480038Y165480D01*
X472462Y165480D01*
G37*
%LPD*%
%LPC*%
G36*
X472462Y190880D02*
X472462Y190880D01*
X467105Y196237D01*
X467105Y203813D01*
X472462Y209170D01*
X480038Y209170D01*
X485395Y203813D01*
X485395Y196237D01*
X480038Y190880D01*
X472462Y190880D01*
G37*
%LPD*%
%LPC*%
G36*
X156034Y461024D02*
X156034Y461024D01*
X152772Y462376D01*
X150276Y464872D01*
X148924Y468134D01*
X148924Y471666D01*
X150276Y474928D01*
X152772Y477424D01*
X156034Y478776D01*
X159566Y478776D01*
X162828Y477424D01*
X165324Y474928D01*
X166676Y471666D01*
X166676Y468134D01*
X165324Y464872D01*
X162828Y462376D01*
X159566Y461024D01*
X156034Y461024D01*
G37*
%LPD*%
%LPC*%
G36*
X234134Y435624D02*
X234134Y435624D01*
X230872Y436976D01*
X228376Y439472D01*
X227024Y442734D01*
X227024Y446266D01*
X228376Y449528D01*
X230872Y452024D01*
X234134Y453376D01*
X237666Y453376D01*
X240928Y452024D01*
X243424Y449528D01*
X244776Y446266D01*
X244776Y442734D01*
X243424Y439472D01*
X240928Y436976D01*
X237666Y435624D01*
X234134Y435624D01*
G37*
%LPD*%
%LPC*%
G36*
X156034Y435624D02*
X156034Y435624D01*
X152772Y436976D01*
X150276Y439472D01*
X148924Y442734D01*
X148924Y446266D01*
X150276Y449528D01*
X152772Y452024D01*
X156034Y453376D01*
X159566Y453376D01*
X162828Y452024D01*
X165324Y449528D01*
X166676Y446266D01*
X166676Y442734D01*
X165324Y439472D01*
X162828Y436976D01*
X159566Y435624D01*
X156034Y435624D01*
G37*
%LPD*%
%LPC*%
G36*
X156034Y384824D02*
X156034Y384824D01*
X152772Y386176D01*
X150276Y388672D01*
X148924Y391934D01*
X148924Y395466D01*
X150276Y398728D01*
X152772Y401224D01*
X156034Y402576D01*
X159566Y402576D01*
X162828Y401224D01*
X165324Y398728D01*
X166676Y395466D01*
X166676Y391934D01*
X165324Y388672D01*
X162828Y386176D01*
X159566Y384824D01*
X156034Y384824D01*
G37*
%LPD*%
%LPC*%
G36*
X156034Y410224D02*
X156034Y410224D01*
X152772Y411576D01*
X150276Y414072D01*
X148924Y417334D01*
X148924Y420866D01*
X150276Y424128D01*
X152772Y426624D01*
X156034Y427976D01*
X159566Y427976D01*
X162828Y426624D01*
X165324Y424128D01*
X166676Y420866D01*
X166676Y417334D01*
X165324Y414072D01*
X162828Y411576D01*
X159566Y410224D01*
X156034Y410224D01*
G37*
%LPD*%
%LPC*%
G36*
X460913Y439444D02*
X460913Y439444D01*
X457888Y440697D01*
X455572Y443013D01*
X454319Y446038D01*
X454319Y449312D01*
X455572Y452337D01*
X457888Y454653D01*
X460913Y455906D01*
X464187Y455906D01*
X467212Y454653D01*
X469528Y452337D01*
X470781Y449312D01*
X470781Y446038D01*
X469528Y443013D01*
X467212Y440697D01*
X464187Y439444D01*
X460913Y439444D01*
G37*
%LPD*%
%LPC*%
G36*
X412113Y439444D02*
X412113Y439444D01*
X409088Y440697D01*
X406772Y443013D01*
X405519Y446038D01*
X405519Y449312D01*
X406772Y452337D01*
X409088Y454653D01*
X412113Y455906D01*
X415387Y455906D01*
X418412Y454653D01*
X420728Y452337D01*
X421981Y449312D01*
X421981Y446038D01*
X420728Y443013D01*
X418412Y440697D01*
X415387Y439444D01*
X412113Y439444D01*
G37*
%LPD*%
%LPC*%
G36*
X346149Y132674D02*
X346149Y132674D01*
X346149Y144333D01*
X347810Y143888D01*
X349655Y143123D01*
X351386Y142124D01*
X352971Y140908D01*
X354383Y139496D01*
X355599Y137911D01*
X356598Y136180D01*
X357363Y134335D01*
X357808Y132674D01*
X346149Y132674D01*
G37*
%LPD*%
%LPC*%
G36*
X346149Y126176D02*
X346149Y126176D01*
X357808Y126176D01*
X357363Y124515D01*
X356598Y122670D01*
X355599Y120939D01*
X354383Y119354D01*
X352971Y117942D01*
X351386Y116726D01*
X349655Y115727D01*
X347810Y114962D01*
X346149Y114517D01*
X346149Y126176D01*
G37*
%LPD*%
%LPC*%
G36*
X327992Y132674D02*
X327992Y132674D01*
X328437Y134335D01*
X329202Y136180D01*
X330201Y137911D01*
X331417Y139496D01*
X332829Y140908D01*
X334414Y142124D01*
X336145Y143123D01*
X337990Y143888D01*
X339651Y144333D01*
X339651Y132674D01*
X327992Y132674D01*
G37*
%LPD*%
%LPC*%
G36*
X337990Y114962D02*
X337990Y114962D01*
X336145Y115727D01*
X334414Y116726D01*
X332829Y117942D01*
X331417Y119354D01*
X330201Y120939D01*
X329202Y122670D01*
X328437Y124515D01*
X327992Y126176D01*
X339651Y126176D01*
X339651Y114517D01*
X337990Y114962D01*
G37*
%LPD*%
%LPC*%
G36*
X141477Y17779D02*
X141477Y17779D01*
X141477Y24893D01*
X155743Y24893D01*
X155466Y24040D01*
X154740Y22615D01*
X153800Y21321D01*
X152669Y20190D01*
X151375Y19250D01*
X149950Y18524D01*
X148429Y18029D01*
X146850Y17779D01*
X141477Y17779D01*
G37*
%LPD*%
%LPC*%
G36*
X130010Y17779D02*
X130010Y17779D01*
X128431Y18029D01*
X126910Y18524D01*
X125485Y19250D01*
X124191Y20190D01*
X123060Y21321D01*
X122120Y22615D01*
X121394Y24040D01*
X121117Y24893D01*
X135383Y24893D01*
X135383Y17779D01*
X130010Y17779D01*
G37*
%LPD*%
%LPC*%
G36*
X136074Y114649D02*
X136074Y114649D01*
X136074Y123170D01*
X137572Y122684D01*
X139261Y121823D01*
X140794Y120709D01*
X142134Y119369D01*
X143248Y117836D01*
X144109Y116147D01*
X144595Y114649D01*
X136074Y114649D01*
G37*
%LPD*%
%LPC*%
G36*
X59874Y317849D02*
X59874Y317849D01*
X59874Y326370D01*
X61372Y325884D01*
X63061Y325023D01*
X64594Y323909D01*
X65934Y322569D01*
X67048Y321036D01*
X67909Y319347D01*
X68395Y317849D01*
X59874Y317849D01*
G37*
%LPD*%
%LPC*%
G36*
X59874Y311601D02*
X59874Y311601D01*
X68395Y311601D01*
X67909Y310103D01*
X67048Y308414D01*
X65934Y306881D01*
X64594Y305541D01*
X63061Y304427D01*
X61372Y303566D01*
X59874Y303080D01*
X59874Y311601D01*
G37*
%LPD*%
%LPC*%
G36*
X45105Y317849D02*
X45105Y317849D01*
X45591Y319347D01*
X46452Y321036D01*
X47566Y322569D01*
X48906Y323909D01*
X50439Y325023D01*
X52128Y325884D01*
X53626Y326370D01*
X53626Y317849D01*
X45105Y317849D01*
G37*
%LPD*%
%LPC*%
G36*
X136074Y108401D02*
X136074Y108401D01*
X144595Y108401D01*
X144109Y106903D01*
X143248Y105214D01*
X142134Y103681D01*
X140794Y102341D01*
X139261Y101227D01*
X137572Y100366D01*
X136074Y99880D01*
X136074Y108401D01*
G37*
%LPD*%
%LPC*%
G36*
X121305Y114649D02*
X121305Y114649D01*
X121791Y116147D01*
X122652Y117836D01*
X123766Y119369D01*
X125106Y120709D01*
X126639Y121823D01*
X128328Y122684D01*
X129826Y123170D01*
X129826Y114649D01*
X121305Y114649D01*
G37*
%LPD*%
%LPC*%
G36*
X128328Y100366D02*
X128328Y100366D01*
X126639Y101227D01*
X125106Y102341D01*
X123766Y103681D01*
X122652Y105214D01*
X121791Y106903D01*
X121305Y108401D01*
X129826Y108401D01*
X129826Y99880D01*
X128328Y100366D01*
G37*
%LPD*%
%LPC*%
G36*
X52128Y303566D02*
X52128Y303566D01*
X50439Y304427D01*
X48906Y305541D01*
X47566Y306881D01*
X46452Y308414D01*
X45591Y310103D01*
X45105Y311601D01*
X53626Y311601D01*
X53626Y303080D01*
X52128Y303566D01*
G37*
%LPD*%
%LPC*%
G36*
X677417Y242569D02*
X677417Y242569D01*
X677417Y250953D01*
X685801Y250953D01*
X685801Y249265D01*
X679105Y242569D01*
X677417Y242569D01*
G37*
%LPD*%
%LPC*%
G36*
X304672Y447547D02*
X304672Y447547D01*
X304672Y455042D01*
X305992Y455042D01*
X312167Y448867D01*
X312167Y447547D01*
X304672Y447547D01*
G37*
%LPD*%
%LPC*%
G36*
X212597Y37972D02*
X212597Y37972D01*
X212597Y45467D01*
X213917Y45467D01*
X220092Y39292D01*
X220092Y37972D01*
X212597Y37972D01*
G37*
%LPD*%
%LPC*%
G36*
X304672Y433958D02*
X304672Y433958D01*
X304672Y441453D01*
X312167Y441453D01*
X312167Y440133D01*
X305992Y433958D01*
X304672Y433958D01*
G37*
%LPD*%
%LPC*%
G36*
X212597Y24383D02*
X212597Y24383D01*
X212597Y31878D01*
X220092Y31878D01*
X220092Y30558D01*
X213917Y24383D01*
X212597Y24383D01*
G37*
%LPD*%
%LPC*%
G36*
X485206Y291972D02*
X485206Y291972D01*
X485531Y292972D01*
X486284Y294450D01*
X487259Y295793D01*
X488432Y296966D01*
X489775Y297941D01*
X491253Y298694D01*
X492253Y299019D01*
X492253Y291972D01*
X485206Y291972D01*
G37*
%LPD*%
%LPC*%
G36*
X491253Y279156D02*
X491253Y279156D01*
X489775Y279909D01*
X488432Y280884D01*
X487259Y282057D01*
X486284Y283400D01*
X485531Y284878D01*
X485206Y285878D01*
X492253Y285878D01*
X492253Y278831D01*
X491253Y279156D01*
G37*
%LPD*%
%LPC*%
G36*
X333340Y409447D02*
X333340Y409447D01*
X333601Y410252D01*
X334318Y411659D01*
X335247Y412937D01*
X336363Y414053D01*
X337641Y414982D01*
X339048Y415699D01*
X339853Y415960D01*
X339853Y409447D01*
X333340Y409447D01*
G37*
%LPD*%
%LPC*%
G36*
X339048Y397101D02*
X339048Y397101D01*
X337641Y397818D01*
X336363Y398747D01*
X335247Y399863D01*
X334318Y401141D01*
X333601Y402548D01*
X333340Y403353D01*
X339853Y403353D01*
X339853Y396840D01*
X339048Y397101D01*
G37*
%LPD*%
%LPC*%
G36*
X358647Y463422D02*
X358647Y463422D01*
X358647Y469520D01*
X359388Y469520D01*
X364745Y464163D01*
X364745Y463422D01*
X358647Y463422D01*
G37*
%LPD*%
%LPC*%
G36*
X403097Y72897D02*
X403097Y72897D01*
X403097Y78995D01*
X403838Y78995D01*
X409195Y73638D01*
X409195Y72897D01*
X403097Y72897D01*
G37*
%LPD*%
%LPC*%
G36*
X253872Y31622D02*
X253872Y31622D01*
X253872Y37720D01*
X254613Y37720D01*
X259970Y32363D01*
X259970Y31622D01*
X253872Y31622D01*
G37*
%LPD*%
%LPC*%
G36*
X403097Y123697D02*
X403097Y123697D01*
X403097Y129795D01*
X403838Y129795D01*
X409195Y124438D01*
X409195Y123697D01*
X403097Y123697D01*
G37*
%LPD*%
%LPC*%
G36*
X304672Y387222D02*
X304672Y387222D01*
X304672Y393320D01*
X305413Y393320D01*
X310770Y387963D01*
X310770Y387222D01*
X304672Y387222D01*
G37*
%LPD*%
%LPC*%
G36*
X244347Y361822D02*
X244347Y361822D01*
X244347Y367920D01*
X245088Y367920D01*
X250445Y362563D01*
X250445Y361822D01*
X244347Y361822D01*
G37*
%LPD*%
%LPC*%
G36*
X346455Y463422D02*
X346455Y463422D01*
X346455Y464163D01*
X351812Y469520D01*
X352553Y469520D01*
X352553Y463422D01*
X346455Y463422D01*
G37*
%LPD*%
%LPC*%
G36*
X358647Y451230D02*
X358647Y451230D01*
X358647Y457328D01*
X364745Y457328D01*
X364745Y456587D01*
X359388Y451230D01*
X358647Y451230D01*
G37*
%LPD*%
%LPC*%
G36*
X244347Y349630D02*
X244347Y349630D01*
X244347Y355728D01*
X250445Y355728D01*
X250445Y354987D01*
X245088Y349630D01*
X244347Y349630D01*
G37*
%LPD*%
%LPC*%
G36*
X511555Y463422D02*
X511555Y463422D01*
X511555Y464163D01*
X516912Y469520D01*
X517653Y469520D01*
X517653Y463422D01*
X511555Y463422D01*
G37*
%LPD*%
%LPC*%
G36*
X492505Y142747D02*
X492505Y142747D01*
X492505Y143488D01*
X497862Y148845D01*
X498603Y148845D01*
X498603Y142747D01*
X492505Y142747D01*
G37*
%LPD*%
%LPC*%
G36*
X232155Y361822D02*
X232155Y361822D01*
X232155Y362563D01*
X237512Y367920D01*
X238253Y367920D01*
X238253Y361822D01*
X232155Y361822D01*
G37*
%LPD*%
%LPC*%
G36*
X292480Y387222D02*
X292480Y387222D01*
X292480Y387963D01*
X297837Y393320D01*
X298578Y393320D01*
X298578Y387222D01*
X292480Y387222D01*
G37*
%LPD*%
%LPC*%
G36*
X492505Y95122D02*
X492505Y95122D01*
X492505Y95863D01*
X497862Y101220D01*
X498603Y101220D01*
X498603Y95122D01*
X492505Y95122D01*
G37*
%LPD*%
%LPC*%
G36*
X504697Y82930D02*
X504697Y82930D01*
X504697Y89028D01*
X510795Y89028D01*
X510795Y88287D01*
X505438Y82930D01*
X504697Y82930D01*
G37*
%LPD*%
%LPC*%
G36*
X390905Y72897D02*
X390905Y72897D01*
X390905Y73638D01*
X396262Y78995D01*
X397003Y78995D01*
X397003Y72897D01*
X390905Y72897D01*
G37*
%LPD*%
%LPC*%
G36*
X403097Y60705D02*
X403097Y60705D01*
X403097Y66803D01*
X409195Y66803D01*
X409195Y66062D01*
X403838Y60705D01*
X403097Y60705D01*
G37*
%LPD*%
%LPC*%
G36*
X390905Y123697D02*
X390905Y123697D01*
X390905Y124438D01*
X396262Y129795D01*
X397003Y129795D01*
X397003Y123697D01*
X390905Y123697D01*
G37*
%LPD*%
%LPC*%
G36*
X304672Y375030D02*
X304672Y375030D01*
X304672Y381128D01*
X310770Y381128D01*
X310770Y380387D01*
X305413Y375030D01*
X304672Y375030D01*
G37*
%LPD*%
%LPC*%
G36*
X504697Y130555D02*
X504697Y130555D01*
X504697Y136653D01*
X510795Y136653D01*
X510795Y135912D01*
X505438Y130555D01*
X504697Y130555D01*
G37*
%LPD*%
%LPC*%
G36*
X241680Y31622D02*
X241680Y31622D01*
X241680Y32363D01*
X247037Y37720D01*
X247778Y37720D01*
X247778Y31622D01*
X241680Y31622D01*
G37*
%LPD*%
%LPC*%
G36*
X403097Y111505D02*
X403097Y111505D01*
X403097Y117603D01*
X409195Y117603D01*
X409195Y116862D01*
X403838Y111505D01*
X403097Y111505D01*
G37*
%LPD*%
%LPC*%
G36*
X253872Y19430D02*
X253872Y19430D01*
X253872Y25528D01*
X259970Y25528D01*
X259970Y24787D01*
X254613Y19430D01*
X253872Y19430D01*
G37*
%LPD*%
%LPC*%
G36*
X523747Y451230D02*
X523747Y451230D01*
X523747Y457328D01*
X529845Y457328D01*
X529845Y456587D01*
X524488Y451230D01*
X523747Y451230D01*
G37*
%LPD*%
%LPC*%
G36*
X570887Y279780D02*
X570887Y279780D01*
X565530Y285137D01*
X565530Y285878D01*
X571628Y285878D01*
X571628Y279780D01*
X570887Y279780D01*
G37*
%LPD*%
%LPC*%
G36*
X497862Y82930D02*
X497862Y82930D01*
X492505Y88287D01*
X492505Y89028D01*
X498603Y89028D01*
X498603Y82930D01*
X497862Y82930D01*
G37*
%LPD*%
%LPC*%
G36*
X396262Y111505D02*
X396262Y111505D01*
X390905Y116862D01*
X390905Y117603D01*
X397003Y117603D01*
X397003Y111505D01*
X396262Y111505D01*
G37*
%LPD*%
%LPC*%
G36*
X396262Y60705D02*
X396262Y60705D01*
X390905Y66062D01*
X390905Y66803D01*
X397003Y66803D01*
X397003Y60705D01*
X396262Y60705D01*
G37*
%LPD*%
%LPC*%
G36*
X497862Y130555D02*
X497862Y130555D01*
X492505Y135912D01*
X492505Y136653D01*
X498603Y136653D01*
X498603Y130555D01*
X497862Y130555D01*
G37*
%LPD*%
%LPC*%
G36*
X297837Y375030D02*
X297837Y375030D01*
X292480Y380387D01*
X292480Y381128D01*
X298578Y381128D01*
X298578Y375030D01*
X297837Y375030D01*
G37*
%LPD*%
%LPC*%
G36*
X516912Y451230D02*
X516912Y451230D01*
X511555Y456587D01*
X511555Y457328D01*
X517653Y457328D01*
X517653Y451230D01*
X516912Y451230D01*
G37*
%LPD*%
%LPC*%
G36*
X237512Y349630D02*
X237512Y349630D01*
X232155Y354987D01*
X232155Y355728D01*
X238253Y355728D01*
X238253Y349630D01*
X237512Y349630D01*
G37*
%LPD*%
%LPC*%
G36*
X247037Y19430D02*
X247037Y19430D01*
X241680Y24787D01*
X241680Y25528D01*
X247778Y25528D01*
X247778Y19430D01*
X247037Y19430D01*
G37*
%LPD*%
%LPC*%
G36*
X351812Y451230D02*
X351812Y451230D01*
X346455Y456587D01*
X346455Y457328D01*
X352553Y457328D01*
X352553Y451230D01*
X351812Y451230D01*
G37*
%LPD*%
%LPC*%
G36*
X238947Y422147D02*
X238947Y422147D01*
X238947Y427442D01*
X239307Y427325D01*
X240552Y426691D01*
X241682Y425870D01*
X242670Y424882D01*
X243491Y423752D01*
X244125Y422507D01*
X244242Y422147D01*
X238947Y422147D01*
G37*
%LPD*%
%LPC*%
G36*
X238947Y416053D02*
X238947Y416053D01*
X244242Y416053D01*
X244125Y415693D01*
X243491Y414448D01*
X242670Y413318D01*
X241682Y412330D01*
X240552Y411509D01*
X239307Y410875D01*
X238947Y410758D01*
X238947Y416053D01*
G37*
%LPD*%
%LPC*%
G36*
X227558Y422147D02*
X227558Y422147D01*
X227675Y422507D01*
X228309Y423752D01*
X229130Y424882D01*
X230118Y425870D01*
X231248Y426691D01*
X232493Y427325D01*
X232853Y427442D01*
X232853Y422147D01*
X227558Y422147D01*
G37*
%LPD*%
%LPC*%
G36*
X232493Y410875D02*
X232493Y410875D01*
X231248Y411509D01*
X230118Y412330D01*
X229130Y413318D01*
X228309Y414448D01*
X227675Y415693D01*
X227558Y416053D01*
X232853Y416053D01*
X232853Y410758D01*
X232493Y410875D01*
G37*
%LPD*%
D10*
X146050Y27940D02*
X130810Y27940D01*
X130810Y53340D02*
X146050Y53340D01*
D11*
X183750Y111525D03*
X132950Y111525D03*
X259950Y314725D03*
X158350Y314725D03*
X56750Y314725D03*
X56750Y111525D03*
D12*
X250825Y53975D03*
X250825Y28575D03*
D10*
X38100Y376555D02*
X38100Y391795D01*
X63500Y391795D02*
X63500Y376555D01*
D13*
X111125Y393700D03*
X111125Y469900D03*
D14*
X546100Y508000D03*
X520700Y25400D03*
X571500Y508000D03*
X596900Y508000D03*
X622300Y508000D03*
X647700Y508000D03*
X520700Y508000D03*
X495300Y508000D03*
X469900Y508000D03*
X429260Y508000D03*
X403860Y508000D03*
X378460Y508000D03*
X353060Y508000D03*
X327660Y508000D03*
X302260Y508000D03*
X276860Y508000D03*
X251460Y508000D03*
X546100Y25400D03*
X571500Y25400D03*
X596900Y25400D03*
X622300Y25400D03*
X647700Y25400D03*
X469900Y25400D03*
X444500Y25400D03*
X419100Y25400D03*
X393700Y25400D03*
X368300Y25400D03*
X342900Y25400D03*
X226060Y508000D03*
X200660Y508000D03*
X317500Y25400D03*
X292100Y25400D03*
D15*
X674370Y279400D03*
X648970Y279400D03*
D16*
X648970Y304800D03*
D15*
X674370Y304800D03*
X674370Y254000D03*
X648970Y254000D03*
D10*
X594995Y228600D02*
X579755Y228600D01*
X579755Y203200D02*
X594995Y203200D01*
X594995Y177800D02*
X579755Y177800D01*
X579755Y127000D02*
X594995Y127000D01*
X594995Y101600D02*
X579755Y101600D01*
X579755Y76200D02*
X594995Y76200D01*
X594995Y152400D02*
X579755Y152400D01*
X582930Y460375D02*
X598170Y460375D01*
X598170Y434975D02*
X582930Y434975D01*
X582930Y409575D02*
X598170Y409575D01*
D17*
X241300Y358775D03*
X165100Y358775D03*
D18*
X495300Y288925D03*
D19*
X520700Y288925D03*
D18*
X184150Y34925D03*
D19*
X209550Y34925D03*
D17*
X574675Y288925D03*
X549275Y288925D03*
D20*
X546100Y406400D03*
D21*
X520700Y406400D03*
X495300Y406400D03*
X469900Y406400D03*
X444500Y406400D03*
X419100Y406400D03*
X393700Y406400D03*
X368300Y406400D03*
X342900Y406400D03*
X342900Y330200D03*
X368300Y330200D03*
X393700Y330200D03*
X419100Y330200D03*
X444500Y330200D03*
X469900Y330200D03*
X495300Y330200D03*
X520700Y330200D03*
X546100Y330200D03*
D18*
X276225Y444500D03*
D19*
X301625Y444500D03*
D22*
X276225Y384175D03*
X301625Y384175D03*
D23*
X413750Y447675D03*
X462550Y447675D03*
D17*
X450850Y301625D03*
X374650Y301625D03*
D24*
X342900Y194425D03*
X342900Y129425D03*
D25*
X235900Y393700D03*
D26*
X235900Y419100D03*
X235900Y444500D03*
X235900Y469900D03*
X157800Y469900D03*
X157800Y444500D03*
X157800Y419100D03*
X157800Y393700D03*
D22*
X400050Y200025D03*
X476250Y200025D03*
X400050Y174625D03*
X476250Y174625D03*
X400050Y69850D03*
X476250Y69850D03*
X400050Y120650D03*
X476250Y120650D03*
X527050Y139700D03*
X514350Y158750D03*
X501650Y139700D03*
X527050Y92075D03*
X514350Y111125D03*
X501650Y92075D03*
D17*
X476250Y95250D03*
X400050Y95250D03*
X476250Y146050D03*
X400050Y146050D03*
D13*
X355600Y434975D03*
X355600Y460375D03*
D12*
X520700Y460375D03*
X520700Y434975D03*
D27*
X483532Y343281D02*
X470451Y330200D01*
X469900Y330200D01*
X483532Y343281D02*
X610489Y343281D01*
X648970Y304800D01*
X445051Y330200D02*
X444500Y330200D01*
X688848Y295402D02*
X688975Y295275D01*
X688848Y295402D02*
X688848Y310797D01*
X469943Y355092D02*
X445051Y330200D01*
X469943Y355092D02*
X644553Y355092D01*
X688848Y310797D01*
X688975Y295275D02*
X688975Y294005D01*
X674370Y279400D01*
X432308Y316992D02*
X419100Y330200D01*
X606593Y279400D02*
X648970Y279400D01*
X569001Y316992D02*
X432308Y316992D01*
X569001Y316992D02*
X606593Y279400D01*
X562258Y367919D02*
X565531Y371192D01*
X431419Y367919D02*
X393700Y330200D01*
X431419Y367919D02*
X562258Y367919D01*
X565531Y476631D02*
X596900Y508000D01*
X565531Y476631D02*
X565531Y371192D01*
X307975Y60325D02*
X342900Y25400D01*
X307975Y60325D02*
X307975Y158750D01*
X342900Y193675D02*
X342900Y194425D01*
X342900Y193675D02*
X307975Y158750D01*
X342900Y194425D02*
X342900Y269875D01*
X374650Y301625D01*
X274000Y355600D02*
X235900Y393700D01*
X396875Y355600D02*
X428625Y387350D01*
X527050Y387350D01*
X546100Y406400D01*
X396875Y355600D02*
X274000Y355600D01*
X235900Y469900D02*
X314325Y469900D01*
X327025Y482600D01*
X523875Y482600D01*
X546100Y431800D02*
X520700Y406400D01*
X546100Y460375D02*
X523875Y482600D01*
X546100Y460375D02*
X546100Y431800D01*
M02*
