G04 EAGLE Gerber RS-274X export*
G75*
%MOMM*%
%FSLAX34Y34*%
%LPD*%
%INTop Copper*%
%IPPOS*%
%AMOC8*
5,1,8,0,0,1.08239X$1,22.5*%
G01*
%ADD10C,1.524000*%
%ADD11C,1.900000*%
%ADD12P,1.429621X8X292.500000*%
%ADD13P,1.429621X8X112.500000*%
%ADD14P,1.814519X8X22.500000*%
%ADD15P,1.924489X8X22.500000*%
%ADD16R,1.778000X1.778000*%
%ADD17P,1.429621X8X202.500000*%
%ADD18C,1.600200*%
%ADD19P,1.732040X8X22.500000*%
%ADD20R,1.498600X1.498600*%
%ADD21C,1.498600*%
%ADD22P,1.429621X8X22.500000*%
%ADD23C,1.138000*%
%ADD24C,2.540000*%
%ADD25R,1.267000X1.267000*%
%ADD26C,1.267000*%
%ADD27C,0.609600*%
%ADD28C,1.016000*%
%ADD29C,1.270000*%
%ADD30C,0.812800*%


D10*
X146050Y27940D02*
X130810Y27940D01*
X130810Y53340D02*
X146050Y53340D01*
D11*
X183750Y111525D03*
X132950Y111525D03*
X259950Y314725D03*
X158350Y314725D03*
X56750Y314725D03*
X56750Y111525D03*
D12*
X250825Y53975D03*
X250825Y28575D03*
D10*
X38100Y376555D02*
X38100Y391795D01*
X63500Y391795D02*
X63500Y376555D01*
D13*
X111125Y393700D03*
X111125Y469900D03*
D14*
X546100Y508000D03*
X520700Y25400D03*
X571500Y508000D03*
X596900Y508000D03*
X622300Y508000D03*
X647700Y508000D03*
X520700Y508000D03*
X495300Y508000D03*
X469900Y508000D03*
X429260Y508000D03*
X403860Y508000D03*
X378460Y508000D03*
X353060Y508000D03*
X327660Y508000D03*
X302260Y508000D03*
X276860Y508000D03*
X251460Y508000D03*
X546100Y25400D03*
X571500Y25400D03*
X596900Y25400D03*
X622300Y25400D03*
X647700Y25400D03*
X469900Y25400D03*
X444500Y25400D03*
X419100Y25400D03*
X393700Y25400D03*
X368300Y25400D03*
X342900Y25400D03*
X226060Y508000D03*
X200660Y508000D03*
X317500Y25400D03*
X292100Y25400D03*
D15*
X674370Y279400D03*
X648970Y279400D03*
D16*
X648970Y304800D03*
D15*
X674370Y304800D03*
X674370Y254000D03*
X648970Y254000D03*
D10*
X594995Y228600D02*
X579755Y228600D01*
X579755Y203200D02*
X594995Y203200D01*
X594995Y177800D02*
X579755Y177800D01*
X579755Y127000D02*
X594995Y127000D01*
X594995Y101600D02*
X579755Y101600D01*
X579755Y76200D02*
X594995Y76200D01*
X594995Y152400D02*
X579755Y152400D01*
X582930Y460375D02*
X598170Y460375D01*
X598170Y434975D02*
X582930Y434975D01*
X582930Y409575D02*
X598170Y409575D01*
D17*
X241300Y358775D03*
X165100Y358775D03*
D18*
X495300Y288925D03*
D19*
X520700Y288925D03*
D18*
X184150Y34925D03*
D19*
X209550Y34925D03*
D17*
X574675Y288925D03*
X549275Y288925D03*
D20*
X546100Y406400D03*
D21*
X520700Y406400D03*
X495300Y406400D03*
X469900Y406400D03*
X444500Y406400D03*
X419100Y406400D03*
X393700Y406400D03*
X368300Y406400D03*
X342900Y406400D03*
X342900Y330200D03*
X368300Y330200D03*
X393700Y330200D03*
X419100Y330200D03*
X444500Y330200D03*
X469900Y330200D03*
X495300Y330200D03*
X520700Y330200D03*
X546100Y330200D03*
D18*
X276225Y444500D03*
D19*
X301625Y444500D03*
D22*
X276225Y384175D03*
X301625Y384175D03*
D23*
X413750Y447675D03*
X462550Y447675D03*
D17*
X450850Y301625D03*
X374650Y301625D03*
D24*
X342900Y194425D03*
X342900Y129425D03*
D25*
X235900Y393700D03*
D26*
X235900Y419100D03*
X235900Y444500D03*
X235900Y469900D03*
X157800Y469900D03*
X157800Y444500D03*
X157800Y419100D03*
X157800Y393700D03*
D22*
X400050Y200025D03*
X476250Y200025D03*
X400050Y174625D03*
X476250Y174625D03*
X400050Y69850D03*
X476250Y69850D03*
X400050Y120650D03*
X476250Y120650D03*
X527050Y139700D03*
X514350Y158750D03*
X501650Y139700D03*
X527050Y92075D03*
X514350Y111125D03*
X501650Y92075D03*
D17*
X476250Y95250D03*
X400050Y95250D03*
X476250Y146050D03*
X400050Y146050D03*
D13*
X355600Y434975D03*
X355600Y460375D03*
D12*
X520700Y460375D03*
X520700Y434975D03*
D27*
X378460Y504535D02*
X378460Y508000D01*
X326644Y394632D02*
X353357Y367919D01*
X326644Y394632D02*
X326644Y452719D01*
X378460Y504535D01*
X353357Y367919D02*
X457581Y367919D01*
X495300Y330200D01*
X520700Y330200D02*
X520700Y320675D01*
X508889Y308864D01*
X458089Y308864D01*
X450850Y301625D01*
D28*
X178435Y53340D02*
X138430Y53340D01*
X172085Y46990D02*
X184150Y34925D01*
X172085Y46990D02*
X178435Y53340D01*
X180575Y55480D01*
X183750Y55480D02*
X183750Y111525D01*
X183750Y55480D02*
X180575Y55480D01*
X183750Y55480D02*
X249320Y55480D01*
X250825Y53975D01*
D27*
X235900Y444500D02*
X276225Y444500D01*
X276225Y384175D01*
X276225Y331000D01*
D29*
X279285Y295390D02*
X355018Y295390D01*
X393466Y256941D01*
D28*
X400050Y200025D02*
X400050Y174625D01*
X377825Y152400D01*
X377825Y41275D01*
X393700Y25400D01*
D29*
X402991Y247416D02*
X393466Y256941D01*
X402991Y247416D02*
X415691Y234716D01*
D27*
X549275Y288925D02*
X549275Y327025D01*
X546100Y330200D01*
X549275Y288925D02*
X520700Y288925D01*
D29*
X520700Y234716D02*
X415691Y234716D01*
X520700Y234716D02*
X527284Y234716D01*
X558800Y203200D01*
X587375Y203200D01*
D30*
X520700Y234716D02*
X520700Y288925D01*
D28*
X400050Y219075D02*
X400050Y200025D01*
X400050Y219075D02*
X415691Y234716D01*
D29*
X279285Y295390D02*
X259950Y314725D01*
D27*
X263525Y318300D02*
X276225Y331000D01*
X263525Y318300D02*
X263525Y317500D01*
X260750Y314725D01*
X259950Y314725D01*
X157800Y366075D02*
X157800Y393700D01*
X157800Y366075D02*
X165100Y358775D01*
X132400Y393700D02*
X111125Y393700D01*
X132400Y393700D02*
X157800Y419100D01*
X111125Y393700D02*
X73025Y393700D01*
X63500Y384175D01*
X142875Y444500D02*
X117475Y469900D01*
X111125Y469900D01*
X142875Y444500D02*
X157800Y444500D01*
X111125Y469900D02*
X85725Y469900D01*
X38100Y422275D01*
X38100Y384175D01*
X527050Y139700D02*
X539750Y127000D01*
X587375Y127000D01*
X536575Y101600D02*
X527050Y92075D01*
X536575Y101600D02*
X587375Y101600D01*
X476250Y95250D02*
X476250Y69850D01*
X476250Y95250D02*
X492125Y111125D01*
X514350Y111125D01*
X476250Y120650D02*
X476250Y146050D01*
X488950Y158750D01*
X514350Y158750D01*
X546100Y38100D02*
X546100Y25400D01*
X546100Y38100D02*
X530225Y53975D01*
X466725Y53975D01*
X444500Y76200D01*
X444500Y101600D01*
X400050Y146050D01*
X622300Y457200D02*
X571500Y508000D01*
X622300Y457200D02*
X622300Y428625D01*
X603250Y409575D01*
X590550Y409575D01*
X536575Y466725D02*
X495300Y508000D01*
X568325Y419100D02*
X568325Y349250D01*
X587375Y330200D02*
X587375Y228600D01*
X587375Y330200D02*
X568325Y349250D01*
X536575Y450850D02*
X536575Y466725D01*
X536575Y450850D02*
X568325Y419100D01*
X520700Y25400D02*
X497443Y25400D01*
X454914Y40386D02*
X400050Y95250D01*
X482457Y40386D02*
X497443Y25400D01*
X482457Y40386D02*
X454914Y40386D01*
X606425Y152400D02*
X622300Y136525D01*
X622300Y25400D01*
X606425Y152400D02*
X587375Y152400D01*
X558800Y152400D01*
X536575Y174625D01*
X476250Y174625D01*
X647700Y139700D02*
X647700Y25400D01*
X647700Y139700D02*
X609600Y177800D01*
X587375Y177800D01*
X561975Y177800D01*
X539750Y200025D01*
X476250Y200025D01*
X584200Y434975D02*
X520700Y498475D01*
X520700Y508000D01*
X584200Y434975D02*
X590550Y434975D01*
X546100Y504825D02*
X546100Y508000D01*
X546100Y504825D02*
X590550Y460375D01*
X571500Y60325D02*
X571500Y25400D01*
X571500Y60325D02*
X587375Y76200D01*
X368300Y406400D02*
X376238Y414338D01*
X409575Y447675D01*
X413750Y447675D01*
X376238Y414338D02*
X355600Y434975D01*
X393700Y406400D02*
X409575Y422275D01*
X438150Y422275D01*
X462550Y446675D01*
X462550Y447675D01*
X474250Y434975D02*
X520700Y434975D01*
X474250Y434975D02*
X462550Y446675D01*
M02*
