G04 EAGLE Gerber RS-274X export*
G75*
%MOMM*%
%FSLAX34Y34*%
%LPD*%
%INSilkscreen Top*%
%IPPOS*%
%AMOC8*
5,1,8,0,0,1.08239X$1,22.5*%
G01*
%ADD10C,0.152400*%
%ADD11C,0.101600*%
%ADD12C,0.127000*%
%ADD13C,0.254000*%
%ADD14C,0.304800*%
%ADD15C,0.177800*%
%ADD16R,0.508000X0.381000*%
%ADD17C,0.076200*%
%ADD18R,0.381000X0.508000*%
%ADD19C,0.200000*%
%ADD20C,0.015238*%


D10*
X40184Y363570D02*
X37472Y366282D01*
X32049Y366282D01*
X29337Y363570D01*
X29337Y352724D01*
X32049Y350012D01*
X37472Y350012D01*
X40184Y352724D01*
X45709Y350012D02*
X45709Y360859D01*
X51132Y366282D01*
X56555Y360859D01*
X56555Y350012D01*
X56555Y358147D02*
X45709Y358147D01*
X62080Y350012D02*
X62080Y366282D01*
X72927Y350012D01*
X72927Y366282D01*
X548118Y70612D02*
X564388Y70612D01*
X564388Y78747D01*
X561676Y81459D01*
X550830Y81459D01*
X548118Y78747D01*
X548118Y70612D01*
X553541Y89695D02*
X553541Y95119D01*
X556253Y97830D01*
X564388Y97830D01*
X564388Y89695D01*
X561676Y86984D01*
X558965Y89695D01*
X558965Y97830D01*
X564388Y103355D02*
X564388Y111490D01*
X561676Y114202D01*
X558965Y111490D01*
X558965Y106067D01*
X556253Y103355D01*
X553541Y106067D01*
X553541Y114202D01*
X548118Y119727D02*
X564388Y119727D01*
X556253Y119727D02*
X553541Y122438D01*
X553541Y127862D01*
X556253Y130573D01*
X564388Y130573D01*
X553541Y152470D02*
X548118Y157893D01*
X564388Y157893D01*
X564388Y152470D02*
X564388Y163316D01*
X572457Y367157D02*
X572457Y383427D01*
X572457Y367157D02*
X580592Y367157D01*
X583304Y369869D01*
X583304Y380715D01*
X580592Y383427D01*
X572457Y383427D01*
X591541Y378004D02*
X596964Y378004D01*
X599676Y375292D01*
X599676Y367157D01*
X591541Y367157D01*
X588829Y369869D01*
X591541Y372580D01*
X599676Y372580D01*
X605201Y367157D02*
X613336Y367157D01*
X616047Y369869D01*
X613336Y372580D01*
X607912Y372580D01*
X605201Y375292D01*
X607912Y378004D01*
X616047Y378004D01*
X621572Y383427D02*
X621572Y367157D01*
X621572Y375292D02*
X624284Y378004D01*
X629707Y378004D01*
X632419Y375292D01*
X632419Y367157D01*
X654315Y367157D02*
X665162Y367157D01*
X654315Y367157D02*
X665162Y378004D01*
X665162Y380715D01*
X662450Y383427D01*
X657027Y383427D01*
X654315Y380715D01*
X7358Y78627D02*
X7358Y62357D01*
X7358Y78627D02*
X15493Y78627D01*
X18204Y75915D01*
X18204Y70492D01*
X15493Y67780D01*
X7358Y67780D01*
X26441Y62357D02*
X31864Y62357D01*
X34576Y65069D01*
X34576Y70492D01*
X31864Y73204D01*
X26441Y73204D01*
X23729Y70492D01*
X23729Y65069D01*
X26441Y62357D01*
X40101Y65069D02*
X40101Y73204D01*
X40101Y65069D02*
X42812Y62357D01*
X45524Y65069D01*
X48236Y62357D01*
X50947Y65069D01*
X50947Y73204D01*
X59184Y62357D02*
X64607Y62357D01*
X59184Y62357D02*
X56472Y65069D01*
X56472Y70492D01*
X59184Y73204D01*
X64607Y73204D01*
X67319Y70492D01*
X67319Y67780D01*
X56472Y67780D01*
X72844Y62357D02*
X72844Y73204D01*
X78267Y73204D02*
X72844Y67780D01*
X78267Y73204D02*
X80979Y73204D01*
D11*
X365633Y240919D02*
X365633Y254138D01*
X365633Y240919D02*
X372243Y240919D01*
X374446Y243122D01*
X374446Y251935D01*
X372243Y254138D01*
X365633Y254138D01*
X380933Y249732D02*
X385340Y249732D01*
X387543Y247529D01*
X387543Y240919D01*
X380933Y240919D01*
X378730Y243122D01*
X380933Y245325D01*
X387543Y245325D01*
X391828Y240919D02*
X398437Y240919D01*
X400640Y243122D01*
X398437Y245325D01*
X394031Y245325D01*
X391828Y247529D01*
X394031Y249732D01*
X400640Y249732D01*
X404925Y254138D02*
X404925Y240919D01*
X404925Y247529D02*
X407128Y249732D01*
X411534Y249732D01*
X413738Y247529D01*
X413738Y240919D01*
X418022Y240919D02*
X418022Y254138D01*
X418022Y240919D02*
X424632Y240919D01*
X426835Y243122D01*
X426835Y247529D01*
X424632Y249732D01*
X418022Y249732D01*
X433322Y240919D02*
X437729Y240919D01*
X439932Y243122D01*
X439932Y247529D01*
X437729Y249732D01*
X433322Y249732D01*
X431119Y247529D01*
X431119Y243122D01*
X433322Y240919D01*
X446420Y249732D02*
X450826Y249732D01*
X453029Y247529D01*
X453029Y240919D01*
X446420Y240919D01*
X444217Y243122D01*
X446420Y245325D01*
X453029Y245325D01*
X457314Y240919D02*
X457314Y249732D01*
X461720Y249732D02*
X457314Y245325D01*
X461720Y249732D02*
X463923Y249732D01*
X477041Y254138D02*
X477041Y240919D01*
X470431Y240919D01*
X468228Y243122D01*
X468228Y247529D01*
X470431Y249732D01*
X477041Y249732D01*
X496626Y249732D02*
X503235Y249732D01*
X496626Y249732D02*
X494423Y247529D01*
X494423Y243122D01*
X496626Y240919D01*
X503235Y240919D01*
X509723Y240919D02*
X514130Y240919D01*
X516333Y243122D01*
X516333Y247529D01*
X514130Y249732D01*
X509723Y249732D01*
X507520Y247529D01*
X507520Y243122D01*
X509723Y240919D01*
X520617Y240919D02*
X520617Y249732D01*
X527227Y249732D01*
X529430Y247529D01*
X529430Y240919D01*
X535918Y243122D02*
X535918Y251935D01*
X535918Y243122D02*
X538121Y240919D01*
X538121Y249732D02*
X533714Y249732D01*
X542446Y249732D02*
X542446Y240919D01*
X542446Y245325D02*
X546852Y249732D01*
X549056Y249732D01*
X555563Y240919D02*
X559970Y240919D01*
X562173Y243122D01*
X562173Y247529D01*
X559970Y249732D01*
X555563Y249732D01*
X553360Y247529D01*
X553360Y243122D01*
X555563Y240919D01*
X566458Y254138D02*
X568661Y254138D01*
X568661Y240919D01*
X566458Y240919D02*
X570864Y240919D01*
X575189Y254138D02*
X577392Y254138D01*
X577392Y240919D01*
X575189Y240919D02*
X579595Y240919D01*
X586124Y240919D02*
X590530Y240919D01*
X586124Y240919D02*
X583921Y243122D01*
X583921Y247529D01*
X586124Y249732D01*
X590530Y249732D01*
X592733Y247529D01*
X592733Y245325D01*
X583921Y245325D01*
X597018Y240919D02*
X597018Y249732D01*
X601424Y249732D02*
X597018Y245325D01*
X601424Y249732D02*
X603627Y249732D01*
X372243Y232802D02*
X367836Y232802D01*
X365633Y230599D01*
X365633Y221786D01*
X367836Y219583D01*
X372243Y219583D01*
X374446Y221786D01*
X374446Y230599D01*
X372243Y232802D01*
X378730Y232802D02*
X378730Y219583D01*
X378730Y232802D02*
X385340Y232802D01*
X387543Y230599D01*
X387543Y226193D01*
X385340Y223989D01*
X378730Y223989D01*
X396234Y219583D02*
X396234Y232802D01*
X391828Y232802D02*
X400640Y232802D01*
X404925Y219583D02*
X409331Y219583D01*
X407128Y219583D02*
X407128Y232802D01*
X404925Y232802D02*
X409331Y232802D01*
X413656Y232802D02*
X413656Y219583D01*
X418063Y228396D02*
X413656Y232802D01*
X418063Y228396D02*
X422469Y232802D01*
X422469Y219583D01*
X426754Y221786D02*
X426754Y232802D01*
X426754Y221786D02*
X428957Y219583D01*
X433363Y219583D01*
X435566Y221786D01*
X435566Y232802D01*
X446460Y232802D02*
X448664Y230599D01*
X446460Y232802D02*
X442054Y232802D01*
X439851Y230599D01*
X439851Y228396D01*
X442054Y226193D01*
X446460Y226193D01*
X448664Y223989D01*
X448664Y221786D01*
X446460Y219583D01*
X442054Y219583D01*
X439851Y221786D01*
X466045Y228396D02*
X470452Y219583D01*
X474858Y228396D01*
X479143Y228396D02*
X483549Y232802D01*
X483549Y219583D01*
X479143Y219583D02*
X487955Y219583D01*
X492240Y219583D02*
X492240Y221786D01*
X494443Y221786D01*
X494443Y219583D01*
X492240Y219583D01*
X498788Y221786D02*
X498788Y230599D01*
X500992Y232802D01*
X505398Y232802D01*
X507601Y230599D01*
X507601Y221786D01*
X505398Y219583D01*
X500992Y219583D01*
X498788Y221786D01*
X507601Y230599D01*
D10*
X316738Y124587D02*
X300468Y124587D01*
X300468Y132722D01*
X303180Y135434D01*
X308603Y135434D01*
X311315Y132722D01*
X311315Y124587D01*
X311315Y130010D02*
X316738Y135434D01*
X300468Y140959D02*
X300468Y151805D01*
X300468Y140959D02*
X316738Y140959D01*
X316738Y151805D01*
X308603Y146382D02*
X308603Y140959D01*
X300468Y165465D02*
X303180Y168177D01*
X300468Y165465D02*
X300468Y160042D01*
X303180Y157330D01*
X305891Y157330D01*
X308603Y160042D01*
X308603Y165465D01*
X311315Y168177D01*
X314026Y168177D01*
X316738Y165465D01*
X316738Y160042D01*
X314026Y157330D01*
X300468Y173702D02*
X300468Y184548D01*
X300468Y173702D02*
X316738Y173702D01*
X316738Y184548D01*
X308603Y179125D02*
X308603Y173702D01*
X316738Y195497D02*
X300468Y195497D01*
X300468Y200920D02*
X300468Y190073D01*
D12*
X119380Y15240D02*
X87630Y15240D01*
X119380Y15240D02*
X119380Y21590D01*
X113030Y21590D01*
X113030Y34290D01*
X119380Y34290D01*
X119380Y46990D01*
X113030Y46990D01*
X113030Y59690D01*
X119380Y59690D01*
X119380Y66040D01*
X87630Y66040D01*
X87630Y57150D01*
X87630Y27940D01*
X87630Y15240D01*
X87630Y27940D02*
X7620Y27940D01*
X2540Y30480D01*
X2540Y41148D01*
X7620Y53340D02*
X87630Y53340D01*
X7620Y53340D02*
X2540Y50800D01*
X2540Y40132D01*
X25400Y57150D02*
X87630Y57150D01*
X25400Y57150D02*
X21844Y53848D01*
X25400Y24130D02*
X87630Y24130D01*
X25400Y24130D02*
X21844Y27432D01*
X93350Y53743D02*
X97163Y57556D01*
X97163Y46116D01*
X93350Y46116D02*
X100977Y46116D01*
X102247Y20208D02*
X94620Y20208D01*
X102247Y27835D01*
X102247Y29741D01*
X100340Y31648D01*
X96527Y31648D01*
X94620Y29741D01*
D13*
X182680Y75565D02*
X182682Y75641D01*
X182688Y75717D01*
X182698Y75792D01*
X182712Y75866D01*
X182729Y75940D01*
X182751Y76013D01*
X182776Y76085D01*
X182805Y76155D01*
X182838Y76223D01*
X182874Y76290D01*
X182914Y76355D01*
X182957Y76417D01*
X183003Y76478D01*
X183052Y76535D01*
X183105Y76590D01*
X183160Y76643D01*
X183217Y76692D01*
X183278Y76738D01*
X183340Y76781D01*
X183405Y76821D01*
X183472Y76857D01*
X183540Y76890D01*
X183610Y76919D01*
X183682Y76944D01*
X183755Y76966D01*
X183829Y76983D01*
X183903Y76997D01*
X183978Y77007D01*
X184054Y77013D01*
X184130Y77015D01*
X184206Y77013D01*
X184282Y77007D01*
X184357Y76997D01*
X184431Y76983D01*
X184505Y76966D01*
X184578Y76944D01*
X184650Y76919D01*
X184720Y76890D01*
X184788Y76857D01*
X184855Y76821D01*
X184920Y76781D01*
X184982Y76738D01*
X185043Y76692D01*
X185100Y76643D01*
X185155Y76590D01*
X185208Y76535D01*
X185257Y76478D01*
X185303Y76417D01*
X185346Y76355D01*
X185386Y76290D01*
X185422Y76223D01*
X185455Y76155D01*
X185484Y76085D01*
X185509Y76013D01*
X185531Y75940D01*
X185548Y75866D01*
X185562Y75792D01*
X185572Y75717D01*
X185578Y75641D01*
X185580Y75565D01*
X185578Y75489D01*
X185572Y75413D01*
X185562Y75338D01*
X185548Y75264D01*
X185531Y75190D01*
X185509Y75117D01*
X185484Y75045D01*
X185455Y74975D01*
X185422Y74907D01*
X185386Y74840D01*
X185346Y74775D01*
X185303Y74713D01*
X185257Y74652D01*
X185208Y74595D01*
X185155Y74540D01*
X185100Y74487D01*
X185043Y74438D01*
X184982Y74392D01*
X184920Y74349D01*
X184855Y74309D01*
X184788Y74273D01*
X184720Y74240D01*
X184650Y74211D01*
X184578Y74186D01*
X184505Y74164D01*
X184431Y74147D01*
X184357Y74133D01*
X184282Y74123D01*
X184206Y74117D01*
X184130Y74115D01*
X184054Y74117D01*
X183978Y74123D01*
X183903Y74133D01*
X183829Y74147D01*
X183755Y74164D01*
X183682Y74186D01*
X183610Y74211D01*
X183540Y74240D01*
X183472Y74273D01*
X183405Y74309D01*
X183340Y74349D01*
X183278Y74392D01*
X183217Y74438D01*
X183160Y74487D01*
X183105Y74540D01*
X183052Y74595D01*
X183003Y74652D01*
X182957Y74713D01*
X182914Y74775D01*
X182874Y74840D01*
X182838Y74907D01*
X182805Y74975D01*
X182776Y75045D01*
X182751Y75117D01*
X182729Y75190D01*
X182712Y75264D01*
X182698Y75338D01*
X182688Y75413D01*
X182682Y75489D01*
X182680Y75565D01*
X285750Y339725D02*
X31750Y339725D01*
X285750Y339725D02*
X285750Y85725D01*
X31750Y85725D01*
X31750Y339725D01*
D10*
X244475Y62865D02*
X257175Y62865D01*
X257315Y62863D01*
X257455Y62857D01*
X257595Y62848D01*
X257734Y62834D01*
X257873Y62817D01*
X258011Y62796D01*
X258149Y62771D01*
X258286Y62742D01*
X258422Y62710D01*
X258557Y62673D01*
X258691Y62633D01*
X258824Y62590D01*
X258956Y62542D01*
X259087Y62492D01*
X259216Y62437D01*
X259343Y62379D01*
X259469Y62318D01*
X259593Y62253D01*
X259715Y62184D01*
X259835Y62113D01*
X259953Y62038D01*
X260070Y61960D01*
X260184Y61878D01*
X260295Y61794D01*
X260404Y61706D01*
X260511Y61616D01*
X260616Y61522D01*
X260717Y61426D01*
X260816Y61327D01*
X260912Y61226D01*
X261006Y61121D01*
X261096Y61014D01*
X261184Y60905D01*
X261268Y60794D01*
X261350Y60680D01*
X261428Y60563D01*
X261503Y60445D01*
X261574Y60325D01*
X261643Y60203D01*
X261708Y60079D01*
X261769Y59953D01*
X261827Y59826D01*
X261882Y59697D01*
X261932Y59566D01*
X261980Y59434D01*
X262023Y59301D01*
X262063Y59167D01*
X262100Y59032D01*
X262132Y58896D01*
X262161Y58759D01*
X262186Y58621D01*
X262207Y58483D01*
X262224Y58344D01*
X262238Y58205D01*
X262247Y58065D01*
X262253Y57925D01*
X262255Y57785D01*
X244475Y62865D02*
X244335Y62863D01*
X244195Y62857D01*
X244055Y62848D01*
X243916Y62834D01*
X243777Y62817D01*
X243639Y62796D01*
X243501Y62771D01*
X243364Y62742D01*
X243228Y62710D01*
X243093Y62673D01*
X242959Y62633D01*
X242826Y62590D01*
X242694Y62542D01*
X242563Y62492D01*
X242434Y62437D01*
X242307Y62379D01*
X242181Y62318D01*
X242057Y62253D01*
X241935Y62184D01*
X241815Y62113D01*
X241697Y62038D01*
X241580Y61960D01*
X241466Y61878D01*
X241355Y61794D01*
X241246Y61706D01*
X241139Y61616D01*
X241034Y61522D01*
X240933Y61426D01*
X240834Y61327D01*
X240738Y61226D01*
X240644Y61121D01*
X240554Y61014D01*
X240466Y60905D01*
X240382Y60794D01*
X240300Y60680D01*
X240222Y60563D01*
X240147Y60445D01*
X240076Y60325D01*
X240007Y60203D01*
X239942Y60079D01*
X239881Y59953D01*
X239823Y59826D01*
X239768Y59697D01*
X239718Y59566D01*
X239670Y59434D01*
X239627Y59301D01*
X239587Y59167D01*
X239550Y59032D01*
X239518Y58896D01*
X239489Y58759D01*
X239464Y58621D01*
X239443Y58483D01*
X239426Y58344D01*
X239412Y58205D01*
X239403Y58065D01*
X239397Y57925D01*
X239395Y57785D01*
X262255Y57785D02*
X262255Y24765D01*
X257175Y19685D02*
X244475Y19685D01*
X239395Y24765D02*
X239395Y57785D01*
X262255Y24765D02*
X262253Y24625D01*
X262247Y24485D01*
X262238Y24345D01*
X262224Y24206D01*
X262207Y24067D01*
X262186Y23929D01*
X262161Y23791D01*
X262132Y23654D01*
X262100Y23518D01*
X262063Y23383D01*
X262023Y23249D01*
X261980Y23116D01*
X261932Y22984D01*
X261882Y22853D01*
X261827Y22724D01*
X261769Y22597D01*
X261708Y22471D01*
X261643Y22347D01*
X261574Y22225D01*
X261503Y22105D01*
X261428Y21987D01*
X261350Y21870D01*
X261268Y21756D01*
X261184Y21645D01*
X261096Y21536D01*
X261006Y21429D01*
X260912Y21324D01*
X260816Y21223D01*
X260717Y21124D01*
X260616Y21028D01*
X260511Y20934D01*
X260404Y20844D01*
X260295Y20756D01*
X260184Y20672D01*
X260070Y20590D01*
X259953Y20512D01*
X259835Y20437D01*
X259715Y20366D01*
X259593Y20297D01*
X259469Y20232D01*
X259343Y20171D01*
X259216Y20113D01*
X259087Y20058D01*
X258956Y20008D01*
X258824Y19960D01*
X258691Y19917D01*
X258557Y19877D01*
X258422Y19840D01*
X258286Y19808D01*
X258149Y19779D01*
X258011Y19754D01*
X257873Y19733D01*
X257734Y19716D01*
X257595Y19702D01*
X257455Y19693D01*
X257315Y19687D01*
X257175Y19685D01*
X244475Y19685D02*
X244335Y19687D01*
X244195Y19693D01*
X244055Y19702D01*
X243916Y19716D01*
X243777Y19733D01*
X243639Y19754D01*
X243501Y19779D01*
X243364Y19808D01*
X243228Y19840D01*
X243093Y19877D01*
X242959Y19917D01*
X242826Y19960D01*
X242694Y20008D01*
X242563Y20058D01*
X242434Y20113D01*
X242307Y20171D01*
X242181Y20232D01*
X242057Y20297D01*
X241935Y20366D01*
X241815Y20437D01*
X241697Y20512D01*
X241580Y20590D01*
X241466Y20672D01*
X241355Y20756D01*
X241246Y20844D01*
X241139Y20934D01*
X241034Y21028D01*
X240933Y21124D01*
X240834Y21223D01*
X240738Y21324D01*
X240644Y21429D01*
X240554Y21536D01*
X240466Y21645D01*
X240382Y21756D01*
X240300Y21870D01*
X240222Y21987D01*
X240147Y22105D01*
X240076Y22225D01*
X240007Y22347D01*
X239942Y22471D01*
X239881Y22597D01*
X239823Y22724D01*
X239768Y22853D01*
X239718Y22984D01*
X239670Y23116D01*
X239627Y23249D01*
X239587Y23383D01*
X239550Y23518D01*
X239518Y23654D01*
X239489Y23791D01*
X239464Y23929D01*
X239443Y24067D01*
X239426Y24206D01*
X239412Y24345D01*
X239403Y24485D01*
X239397Y24625D01*
X239395Y24765D01*
D14*
X243205Y44323D02*
X258445Y44323D01*
X258445Y37973D02*
X243205Y37973D01*
D12*
X276860Y28582D02*
X276860Y20955D01*
X269234Y28582D01*
X267327Y28582D01*
X265420Y26675D01*
X265420Y22862D01*
X267327Y20955D01*
X265420Y32649D02*
X265420Y40275D01*
X267327Y40275D01*
X274953Y32649D01*
X276860Y32649D01*
X280673Y56037D02*
X269234Y56037D01*
X269234Y61757D01*
X271140Y63663D01*
X274953Y63663D01*
X276860Y61757D01*
X276860Y56037D01*
X276860Y67731D02*
X265420Y67731D01*
X265420Y75357D01*
X271140Y71544D02*
X271140Y67731D01*
D13*
X25400Y403225D02*
X25400Y434975D01*
X25400Y403225D02*
X31750Y403225D01*
X31750Y409575D01*
X44450Y409575D01*
X44450Y403225D01*
X57150Y403225D01*
X57150Y409575D01*
X69850Y409575D01*
X69850Y403225D01*
X76200Y403225D01*
X76200Y434975D01*
X67310Y434975D01*
X38100Y434975D01*
X25400Y434975D01*
X38100Y434975D02*
X38100Y514985D01*
X40640Y520065D01*
X51308Y520065D01*
X63500Y514985D02*
X63500Y434975D01*
X63500Y514985D02*
X60960Y520065D01*
X51308Y520065D01*
X50292Y520065D01*
X67310Y497205D02*
X67310Y434975D01*
X67310Y497205D02*
X64008Y500761D01*
X34290Y497205D02*
X34290Y434975D01*
X34290Y497205D02*
X37592Y500761D01*
D15*
X31121Y422729D02*
X34764Y419085D01*
X31121Y422729D02*
X42052Y422729D01*
X42052Y419085D02*
X42052Y426373D01*
X66944Y425103D02*
X66944Y417815D01*
X59656Y425103D01*
X57835Y425103D01*
X56013Y423281D01*
X56013Y419637D01*
X57835Y417815D01*
D10*
X100965Y408940D02*
X100967Y408840D01*
X100973Y408741D01*
X100983Y408641D01*
X100996Y408543D01*
X101014Y408444D01*
X101035Y408347D01*
X101060Y408251D01*
X101089Y408155D01*
X101122Y408061D01*
X101158Y407968D01*
X101198Y407877D01*
X101242Y407787D01*
X101289Y407699D01*
X101339Y407613D01*
X101393Y407529D01*
X101450Y407447D01*
X101510Y407368D01*
X101574Y407290D01*
X101640Y407216D01*
X101709Y407144D01*
X101781Y407075D01*
X101855Y407009D01*
X101933Y406945D01*
X102012Y406885D01*
X102094Y406828D01*
X102178Y406774D01*
X102264Y406724D01*
X102352Y406677D01*
X102442Y406633D01*
X102533Y406593D01*
X102626Y406557D01*
X102720Y406524D01*
X102816Y406495D01*
X102912Y406470D01*
X103009Y406449D01*
X103108Y406431D01*
X103206Y406418D01*
X103306Y406408D01*
X103405Y406402D01*
X103505Y406400D01*
X118745Y406400D02*
X118845Y406402D01*
X118944Y406408D01*
X119044Y406418D01*
X119142Y406431D01*
X119241Y406449D01*
X119338Y406470D01*
X119434Y406495D01*
X119530Y406524D01*
X119624Y406557D01*
X119717Y406593D01*
X119808Y406633D01*
X119898Y406677D01*
X119986Y406724D01*
X120072Y406774D01*
X120156Y406828D01*
X120238Y406885D01*
X120317Y406945D01*
X120395Y407009D01*
X120469Y407075D01*
X120541Y407144D01*
X120610Y407216D01*
X120676Y407290D01*
X120740Y407368D01*
X120800Y407447D01*
X120857Y407529D01*
X120911Y407613D01*
X120961Y407699D01*
X121008Y407787D01*
X121052Y407877D01*
X121092Y407968D01*
X121128Y408061D01*
X121161Y408155D01*
X121190Y408251D01*
X121215Y408347D01*
X121236Y408444D01*
X121254Y408543D01*
X121267Y408641D01*
X121277Y408741D01*
X121283Y408840D01*
X121285Y408940D01*
X121285Y454660D02*
X121283Y454760D01*
X121277Y454859D01*
X121267Y454959D01*
X121254Y455057D01*
X121236Y455156D01*
X121215Y455253D01*
X121190Y455349D01*
X121161Y455445D01*
X121128Y455539D01*
X121092Y455632D01*
X121052Y455723D01*
X121008Y455813D01*
X120961Y455901D01*
X120911Y455987D01*
X120857Y456071D01*
X120800Y456153D01*
X120740Y456232D01*
X120676Y456310D01*
X120610Y456384D01*
X120541Y456456D01*
X120469Y456525D01*
X120395Y456591D01*
X120317Y456655D01*
X120238Y456715D01*
X120156Y456772D01*
X120072Y456826D01*
X119986Y456876D01*
X119898Y456923D01*
X119808Y456967D01*
X119717Y457007D01*
X119624Y457043D01*
X119530Y457076D01*
X119434Y457105D01*
X119338Y457130D01*
X119241Y457151D01*
X119142Y457169D01*
X119044Y457182D01*
X118944Y457192D01*
X118845Y457198D01*
X118745Y457200D01*
X103505Y457200D02*
X103405Y457198D01*
X103306Y457192D01*
X103206Y457182D01*
X103108Y457169D01*
X103009Y457151D01*
X102912Y457130D01*
X102816Y457105D01*
X102720Y457076D01*
X102626Y457043D01*
X102533Y457007D01*
X102442Y456967D01*
X102352Y456923D01*
X102264Y456876D01*
X102178Y456826D01*
X102094Y456772D01*
X102012Y456715D01*
X101933Y456655D01*
X101855Y456591D01*
X101781Y456525D01*
X101709Y456456D01*
X101640Y456384D01*
X101574Y456310D01*
X101510Y456232D01*
X101450Y456153D01*
X101393Y456071D01*
X101339Y455987D01*
X101289Y455901D01*
X101242Y455813D01*
X101198Y455723D01*
X101158Y455632D01*
X101122Y455539D01*
X101089Y455445D01*
X101060Y455349D01*
X101035Y455253D01*
X101014Y455156D01*
X100996Y455057D01*
X100983Y454959D01*
X100973Y454859D01*
X100967Y454760D01*
X100965Y454660D01*
X103505Y406400D02*
X118745Y406400D01*
X100965Y408940D02*
X100965Y412750D01*
X102235Y414020D01*
X121285Y412750D02*
X121285Y408940D01*
X121285Y412750D02*
X120015Y414020D01*
X102235Y449580D02*
X100965Y450850D01*
X102235Y449580D02*
X102235Y414020D01*
X120015Y449580D02*
X121285Y450850D01*
X120015Y449580D02*
X120015Y414020D01*
X100965Y450850D02*
X100965Y454660D01*
X121285Y454660D02*
X121285Y450850D01*
X118745Y457200D02*
X103505Y457200D01*
D16*
X111125Y459105D03*
X111125Y404495D03*
D11*
X109765Y412079D02*
X106799Y415045D01*
X115697Y415045D01*
X115697Y418010D02*
X115697Y412079D01*
X115697Y421200D02*
X115697Y427132D01*
X115697Y421200D02*
X109765Y427132D01*
X108282Y427132D01*
X106799Y425649D01*
X106799Y422683D01*
X108282Y421200D01*
X108282Y430321D02*
X114214Y430321D01*
X108282Y430321D02*
X106799Y431804D01*
X106799Y434770D01*
X108282Y436253D01*
X114214Y436253D01*
X115697Y434770D01*
X115697Y431804D01*
X114214Y430321D01*
X108282Y436253D01*
D17*
X330480Y12327D02*
X330480Y2921D01*
X330480Y12327D02*
X335183Y12327D01*
X336751Y10759D01*
X336751Y7624D01*
X335183Y6056D01*
X330480Y6056D01*
X333615Y6056D02*
X336751Y2921D01*
X346106Y10759D02*
X344538Y12327D01*
X341403Y12327D01*
X339835Y10759D01*
X339835Y9192D01*
X341403Y7624D01*
X344538Y7624D01*
X346106Y6056D01*
X346106Y4489D01*
X344538Y2921D01*
X341403Y2921D01*
X339835Y4489D01*
X352326Y2921D02*
X352326Y12327D01*
X355461Y12327D02*
X349190Y12327D01*
X360604Y46319D02*
X362172Y47887D01*
X365307Y47887D01*
X366875Y46319D01*
X366875Y44752D01*
X365307Y43184D01*
X363739Y43184D01*
X365307Y43184D02*
X366875Y41616D01*
X366875Y40049D01*
X365307Y38481D01*
X362172Y38481D01*
X360604Y40049D01*
X369959Y44752D02*
X373095Y38481D01*
X376230Y44752D01*
X388544Y47887D02*
X394815Y47887D01*
X388544Y47887D02*
X388544Y43184D01*
X391679Y44752D01*
X393247Y44752D01*
X394815Y43184D01*
X394815Y40049D01*
X393247Y38481D01*
X390112Y38481D01*
X388544Y40049D01*
X397899Y44752D02*
X401035Y38481D01*
X404170Y44752D01*
X425555Y47887D02*
X427123Y46319D01*
X425555Y47887D02*
X422420Y47887D01*
X420852Y46319D01*
X420852Y40049D01*
X422420Y38481D01*
X425555Y38481D01*
X427123Y40049D01*
X427123Y43184D01*
X423987Y43184D01*
X430207Y44752D02*
X430207Y38481D01*
X430207Y44752D02*
X434910Y44752D01*
X436478Y43184D01*
X436478Y38481D01*
X445833Y38481D02*
X445833Y47887D01*
X445833Y38481D02*
X441130Y38481D01*
X439562Y40049D01*
X439562Y43184D01*
X441130Y44752D01*
X445833Y44752D01*
X460934Y47887D02*
X460934Y41616D01*
X464069Y38481D01*
X467205Y41616D01*
X467205Y47887D01*
X470289Y44752D02*
X471857Y44752D01*
X471857Y38481D01*
X470289Y38481D02*
X473425Y38481D01*
X471857Y47887D02*
X471857Y49455D01*
X476526Y44752D02*
X476526Y38481D01*
X476526Y44752D02*
X481229Y44752D01*
X482797Y43184D01*
X482797Y38481D01*
X554202Y11275D02*
X554202Y5004D01*
X554202Y11275D02*
X557337Y14410D01*
X560473Y11275D01*
X560473Y5004D01*
X560473Y9707D02*
X554202Y9707D01*
X563557Y11275D02*
X563557Y5004D01*
X563557Y11275D02*
X568260Y11275D01*
X569828Y9707D01*
X569828Y5004D01*
X574480Y11275D02*
X577615Y11275D01*
X579183Y9707D01*
X579183Y5004D01*
X574480Y5004D01*
X572912Y6572D01*
X574480Y8139D01*
X579183Y8139D01*
X582268Y14410D02*
X583835Y14410D01*
X583835Y5004D01*
X582268Y5004D02*
X585403Y5004D01*
X590072Y5004D02*
X593207Y5004D01*
X594775Y6572D01*
X594775Y9707D01*
X593207Y11275D01*
X590072Y11275D01*
X588504Y9707D01*
X588504Y6572D01*
X590072Y5004D01*
X600995Y1869D02*
X602563Y1869D01*
X604130Y3436D01*
X604130Y11275D01*
X599427Y11275D01*
X597860Y9707D01*
X597860Y6572D01*
X599427Y5004D01*
X604130Y5004D01*
X616570Y5004D02*
X619705Y5004D01*
X618138Y5004D02*
X618138Y14410D01*
X619705Y14410D02*
X616570Y14410D01*
X622807Y11275D02*
X622807Y5004D01*
X622807Y11275D02*
X627510Y11275D01*
X629077Y9707D01*
X629077Y5004D01*
X517271Y40049D02*
X517271Y46319D01*
X518839Y47887D01*
X521974Y47887D01*
X523542Y46319D01*
X523542Y40049D01*
X521974Y38481D01*
X518839Y38481D01*
X517271Y40049D01*
X523542Y46319D01*
X542671Y44752D02*
X545806Y47887D01*
X545806Y38481D01*
X542671Y38481D02*
X548942Y38481D01*
X568071Y38481D02*
X574342Y38481D01*
X568071Y38481D02*
X574342Y44752D01*
X574342Y46319D01*
X572774Y47887D01*
X569639Y47887D01*
X568071Y46319D01*
X593471Y46319D02*
X595039Y47887D01*
X598174Y47887D01*
X599742Y46319D01*
X599742Y44752D01*
X598174Y43184D01*
X596606Y43184D01*
X598174Y43184D02*
X599742Y41616D01*
X599742Y40049D01*
X598174Y38481D01*
X595039Y38481D01*
X593471Y40049D01*
X623574Y38481D02*
X623574Y47887D01*
X618871Y43184D01*
X625142Y43184D01*
X644271Y47887D02*
X650542Y47887D01*
X644271Y47887D02*
X644271Y43184D01*
X647406Y44752D01*
X648974Y44752D01*
X650542Y43184D01*
X650542Y40049D01*
X648974Y38481D01*
X645839Y38481D01*
X644271Y40049D01*
X235331Y485521D02*
X235331Y491792D01*
X238466Y494927D01*
X241602Y491792D01*
X241602Y485521D01*
X241602Y490224D02*
X235331Y490224D01*
X244686Y485521D02*
X244686Y494927D01*
X249389Y494927D01*
X250957Y493359D01*
X250957Y490224D01*
X249389Y488656D01*
X244686Y488656D01*
X247822Y488656D02*
X250957Y485521D01*
X255609Y485521D02*
X258744Y485521D01*
X255609Y485521D02*
X254041Y487089D01*
X254041Y490224D01*
X255609Y491792D01*
X258744Y491792D01*
X260312Y490224D01*
X260312Y488656D01*
X254041Y488656D01*
X264964Y485521D02*
X264964Y493359D01*
X266532Y494927D01*
X266532Y490224D02*
X263397Y490224D01*
X270812Y528919D02*
X269244Y530487D01*
X266109Y530487D01*
X264541Y528919D01*
X264541Y522649D01*
X266109Y521081D01*
X269244Y521081D01*
X270812Y522649D01*
X270812Y525784D01*
X267676Y525784D01*
X273896Y527352D02*
X273896Y521081D01*
X273896Y527352D02*
X278599Y527352D01*
X280167Y525784D01*
X280167Y521081D01*
X289522Y521081D02*
X289522Y530487D01*
X289522Y521081D02*
X284819Y521081D01*
X283251Y522649D01*
X283251Y525784D01*
X284819Y527352D01*
X289522Y527352D01*
X298496Y494927D02*
X295361Y491792D01*
X298496Y494927D02*
X298496Y485521D01*
X295361Y485521D02*
X301631Y485521D01*
X304716Y493359D02*
X306283Y494927D01*
X309419Y494927D01*
X310987Y493359D01*
X310987Y491792D01*
X309419Y490224D01*
X307851Y490224D01*
X309419Y490224D02*
X310987Y488656D01*
X310987Y487089D01*
X309419Y485521D01*
X306283Y485521D01*
X304716Y487089D01*
X320761Y491792D02*
X323896Y494927D01*
X323896Y485521D01*
X320761Y485521D02*
X327031Y485521D01*
X330116Y485521D02*
X336387Y485521D01*
X330116Y485521D02*
X336387Y491792D01*
X336387Y493359D01*
X334819Y494927D01*
X331683Y494927D01*
X330116Y493359D01*
X346161Y491792D02*
X349296Y494927D01*
X349296Y485521D01*
X346161Y485521D02*
X352431Y485521D01*
X355516Y491792D02*
X358651Y494927D01*
X358651Y485521D01*
X355516Y485521D02*
X361787Y485521D01*
X371561Y491792D02*
X374696Y494927D01*
X374696Y485521D01*
X371561Y485521D02*
X377831Y485521D01*
X380916Y487089D02*
X380916Y493359D01*
X382483Y494927D01*
X385619Y494927D01*
X387187Y493359D01*
X387187Y487089D01*
X385619Y485521D01*
X382483Y485521D01*
X380916Y487089D01*
X387187Y493359D01*
X401236Y487089D02*
X402803Y485521D01*
X405939Y485521D01*
X407507Y487089D01*
X407507Y493359D01*
X405939Y494927D01*
X402803Y494927D01*
X401236Y493359D01*
X401236Y491792D01*
X402803Y490224D01*
X407507Y490224D01*
X426636Y493359D02*
X428203Y494927D01*
X431339Y494927D01*
X432907Y493359D01*
X432907Y491792D01*
X431339Y490224D01*
X432907Y488656D01*
X432907Y487089D01*
X431339Y485521D01*
X428203Y485521D01*
X426636Y487089D01*
X426636Y488656D01*
X428203Y490224D01*
X426636Y491792D01*
X426636Y493359D01*
X428203Y490224D02*
X431339Y490224D01*
X467276Y494927D02*
X473547Y494927D01*
X473547Y493359D01*
X467276Y487089D01*
X467276Y485521D01*
X495811Y493359D02*
X498947Y494927D01*
X495811Y493359D02*
X492676Y490224D01*
X492676Y487089D01*
X494243Y485521D01*
X497379Y485521D01*
X498947Y487089D01*
X498947Y488656D01*
X497379Y490224D01*
X492676Y490224D01*
X518076Y494927D02*
X524347Y494927D01*
X518076Y494927D02*
X518076Y490224D01*
X521211Y491792D01*
X522779Y491792D01*
X524347Y490224D01*
X524347Y487089D01*
X522779Y485521D01*
X519643Y485521D01*
X518076Y487089D01*
X548179Y485521D02*
X548179Y494927D01*
X543476Y490224D01*
X549747Y490224D01*
X568876Y493359D02*
X570443Y494927D01*
X573579Y494927D01*
X575147Y493359D01*
X575147Y491792D01*
X573579Y490224D01*
X572011Y490224D01*
X573579Y490224D02*
X575147Y488656D01*
X575147Y487089D01*
X573579Y485521D01*
X570443Y485521D01*
X568876Y487089D01*
X594276Y485521D02*
X600547Y485521D01*
X594276Y485521D02*
X600547Y491792D01*
X600547Y493359D01*
X598979Y494927D01*
X595843Y494927D01*
X594276Y493359D01*
X619676Y491792D02*
X622811Y494927D01*
X622811Y485521D01*
X619676Y485521D02*
X625947Y485521D01*
X645076Y487089D02*
X645076Y493359D01*
X646643Y494927D01*
X649779Y494927D01*
X651347Y493359D01*
X651347Y487089D01*
X649779Y485521D01*
X646643Y485521D01*
X645076Y487089D01*
X651347Y493359D01*
X329311Y521081D02*
X329311Y530487D01*
X329311Y521081D02*
X334014Y521081D01*
X335582Y522649D01*
X335582Y528919D01*
X334014Y530487D01*
X329311Y530487D01*
X338666Y527352D02*
X340234Y527352D01*
X340234Y521081D01*
X338666Y521081D02*
X341802Y521081D01*
X340234Y530487D02*
X340234Y532055D01*
X348038Y517946D02*
X349606Y517946D01*
X351174Y519513D01*
X351174Y527352D01*
X346471Y527352D01*
X344903Y525784D01*
X344903Y522649D01*
X346471Y521081D01*
X351174Y521081D01*
X354258Y527352D02*
X355826Y527352D01*
X355826Y521081D01*
X354258Y521081D02*
X357394Y521081D01*
X355826Y530487D02*
X355826Y532055D01*
X362063Y528919D02*
X362063Y522649D01*
X363630Y521081D01*
X363630Y527352D02*
X360495Y527352D01*
X368299Y527352D02*
X371435Y527352D01*
X373002Y525784D01*
X373002Y521081D01*
X368299Y521081D01*
X366732Y522649D01*
X368299Y524216D01*
X373002Y524216D01*
X376087Y530487D02*
X377655Y530487D01*
X377655Y521081D01*
X379222Y521081D02*
X376087Y521081D01*
X391679Y521081D02*
X394814Y521081D01*
X393247Y521081D02*
X393247Y530487D01*
X394814Y530487D02*
X391679Y530487D01*
X397916Y521081D02*
X404186Y530487D01*
X408839Y530487D02*
X411974Y530487D01*
X408839Y530487D02*
X407271Y528919D01*
X407271Y522649D01*
X408839Y521081D01*
X411974Y521081D01*
X413542Y522649D01*
X413542Y528919D01*
X411974Y530487D01*
X522351Y530487D02*
X522351Y521081D01*
X527054Y521081D01*
X528622Y522649D01*
X528622Y528919D01*
X527054Y530487D01*
X522351Y530487D01*
X531706Y527352D02*
X533274Y527352D01*
X533274Y521081D01*
X531706Y521081D02*
X534842Y521081D01*
X533274Y530487D02*
X533274Y532055D01*
X541078Y517946D02*
X542646Y517946D01*
X544214Y519513D01*
X544214Y527352D01*
X539511Y527352D01*
X537943Y525784D01*
X537943Y522649D01*
X539511Y521081D01*
X544214Y521081D01*
X547298Y527352D02*
X548866Y527352D01*
X548866Y521081D01*
X547298Y521081D02*
X550434Y521081D01*
X548866Y530487D02*
X548866Y532055D01*
X555103Y528919D02*
X555103Y522649D01*
X556670Y521081D01*
X556670Y527352D02*
X553535Y527352D01*
X561339Y527352D02*
X564475Y527352D01*
X566042Y525784D01*
X566042Y521081D01*
X561339Y521081D01*
X559772Y522649D01*
X561339Y524216D01*
X566042Y524216D01*
X569127Y530487D02*
X570695Y530487D01*
X570695Y521081D01*
X572262Y521081D02*
X569127Y521081D01*
X584719Y521081D02*
X587854Y521081D01*
X586287Y521081D02*
X586287Y530487D01*
X587854Y530487D02*
X584719Y530487D01*
X590956Y521081D02*
X597226Y530487D01*
X601879Y530487D02*
X605014Y530487D01*
X601879Y530487D02*
X600311Y528919D01*
X600311Y522649D01*
X601879Y521081D01*
X605014Y521081D01*
X606582Y522649D01*
X606582Y528919D01*
X605014Y530487D01*
X195882Y493359D02*
X194314Y494927D01*
X191179Y494927D01*
X189611Y493359D01*
X189611Y491792D01*
X191179Y490224D01*
X194314Y490224D01*
X195882Y488656D01*
X195882Y487089D01*
X194314Y485521D01*
X191179Y485521D01*
X189611Y487089D01*
X203669Y494927D02*
X205237Y493359D01*
X203669Y494927D02*
X200534Y494927D01*
X198966Y493359D01*
X198966Y487089D01*
X200534Y485521D01*
X203669Y485521D01*
X205237Y487089D01*
X208321Y485521D02*
X208321Y494927D01*
X208321Y485521D02*
X214592Y485521D01*
X218742Y528919D02*
X217174Y530487D01*
X214039Y530487D01*
X212471Y528919D01*
X212471Y527352D01*
X214039Y525784D01*
X217174Y525784D01*
X218742Y524216D01*
X218742Y522649D01*
X217174Y521081D01*
X214039Y521081D01*
X212471Y522649D01*
X221826Y521081D02*
X221826Y530487D01*
X221826Y521081D02*
X226529Y521081D01*
X228097Y522649D01*
X228097Y528919D01*
X226529Y530487D01*
X221826Y530487D01*
X231181Y527352D02*
X231181Y521081D01*
X231181Y527352D02*
X234317Y530487D01*
X237452Y527352D01*
X237452Y521081D01*
X237452Y525784D02*
X231181Y525784D01*
X307620Y38481D02*
X310755Y38481D01*
X309188Y38481D02*
X309188Y47887D01*
X310755Y47887D02*
X307620Y47887D01*
X315424Y47887D02*
X318560Y47887D01*
X315424Y47887D02*
X313857Y46319D01*
X313857Y40049D01*
X315424Y38481D01*
X318560Y38481D01*
X320127Y40049D01*
X320127Y46319D01*
X318560Y47887D01*
X323212Y44752D02*
X323212Y38481D01*
X323212Y41616D02*
X326347Y44752D01*
X327915Y44752D01*
D13*
X606425Y241300D02*
X638175Y241300D01*
X606425Y241300D02*
X606425Y234950D01*
X612775Y234950D01*
X612775Y222250D01*
X606425Y222250D01*
X606425Y209550D01*
X612775Y209550D01*
X612775Y196850D01*
X606425Y196850D01*
X606425Y184150D01*
X612775Y184150D01*
X612775Y171450D01*
X606425Y171450D01*
X606425Y133350D02*
X612775Y133350D01*
X612775Y120650D01*
X606425Y120650D01*
X606425Y107950D01*
X612775Y107950D01*
X612775Y95250D01*
X606425Y95250D01*
X606425Y82550D01*
X612775Y82550D01*
X612775Y69850D01*
X606425Y69850D01*
X606425Y63500D01*
X638175Y63500D01*
X638175Y72390D01*
X638175Y148590D01*
X638175Y173990D01*
D12*
X638175Y177292D01*
D13*
X638175Y228600D01*
X638175Y241300D01*
X638175Y228600D02*
X718185Y228600D01*
X723265Y226060D01*
X723265Y177292D01*
X703961Y177292D01*
X638175Y177292D01*
X638175Y76200D02*
X718185Y76200D01*
X723265Y78740D01*
X723265Y127508D01*
X638175Y127508D01*
X638175Y173990D02*
X700405Y173990D01*
X703961Y177292D01*
X700405Y72390D02*
X638175Y72390D01*
X700405Y72390D02*
X703961Y75692D01*
X700405Y232410D02*
X638175Y232410D01*
X700405Y232410D02*
X703961Y229108D01*
X700405Y130810D02*
X638175Y130810D01*
X700405Y130810D02*
X703961Y127508D01*
X606425Y158750D02*
X606425Y171450D01*
X606425Y158750D02*
X612775Y158750D01*
X612775Y146050D01*
X606425Y146050D01*
X606425Y133350D01*
X638175Y156210D02*
X700405Y156210D01*
X703961Y152908D01*
X700405Y148590D02*
X638175Y148590D01*
X700405Y148590D02*
X703961Y151892D01*
D15*
X622285Y231936D02*
X625929Y235579D01*
X625929Y224648D01*
X622285Y224648D02*
X629573Y224648D01*
X628303Y83687D02*
X621015Y83687D01*
X628303Y83687D02*
X628303Y81865D01*
X621015Y74578D01*
X621015Y72756D01*
D13*
X609600Y473075D02*
X641350Y473075D01*
X609600Y473075D02*
X609600Y466725D01*
X615950Y466725D01*
X615950Y454025D01*
X609600Y454025D01*
X609600Y441325D01*
X615950Y441325D01*
X615950Y428625D01*
X609600Y428625D01*
X609600Y415925D01*
X615950Y415925D01*
X615950Y403225D01*
X609600Y403225D01*
X609600Y396875D01*
X641350Y396875D01*
X641350Y405765D01*
D12*
X641350Y460375D01*
D13*
X641350Y473075D01*
X641350Y460375D02*
X721360Y460375D01*
X726440Y457835D01*
X726440Y421767D01*
X721360Y409575D02*
X641350Y409575D01*
X721360Y409575D02*
X726440Y412115D01*
X726440Y422783D01*
X703580Y405765D02*
X641350Y405765D01*
X703580Y405765D02*
X707136Y409067D01*
X703580Y464185D02*
X641350Y464185D01*
X703580Y464185D02*
X707136Y460883D01*
D15*
X629104Y467354D02*
X625460Y463711D01*
X629104Y467354D02*
X629104Y456423D01*
X625460Y456423D02*
X632748Y456423D01*
X626012Y417062D02*
X624190Y415240D01*
X626012Y417062D02*
X629656Y417062D01*
X631478Y415240D01*
X631478Y413419D01*
X629656Y411597D01*
X627834Y411597D01*
X629656Y411597D02*
X631478Y409775D01*
X631478Y407953D01*
X629656Y406131D01*
X626012Y406131D01*
X624190Y407953D01*
D10*
X228600Y351155D02*
X228598Y351055D01*
X228592Y350956D01*
X228582Y350856D01*
X228569Y350758D01*
X228551Y350659D01*
X228530Y350562D01*
X228505Y350466D01*
X228476Y350370D01*
X228443Y350276D01*
X228407Y350183D01*
X228367Y350092D01*
X228323Y350002D01*
X228276Y349914D01*
X228226Y349828D01*
X228172Y349744D01*
X228115Y349662D01*
X228055Y349583D01*
X227991Y349505D01*
X227925Y349431D01*
X227856Y349359D01*
X227784Y349290D01*
X227710Y349224D01*
X227632Y349160D01*
X227553Y349100D01*
X227471Y349043D01*
X227387Y348989D01*
X227301Y348939D01*
X227213Y348892D01*
X227123Y348848D01*
X227032Y348808D01*
X226939Y348772D01*
X226845Y348739D01*
X226749Y348710D01*
X226653Y348685D01*
X226556Y348664D01*
X226457Y348646D01*
X226359Y348633D01*
X226259Y348623D01*
X226160Y348617D01*
X226060Y348615D01*
X228600Y366395D02*
X228598Y366495D01*
X228592Y366594D01*
X228582Y366694D01*
X228569Y366792D01*
X228551Y366891D01*
X228530Y366988D01*
X228505Y367084D01*
X228476Y367180D01*
X228443Y367274D01*
X228407Y367367D01*
X228367Y367458D01*
X228323Y367548D01*
X228276Y367636D01*
X228226Y367722D01*
X228172Y367806D01*
X228115Y367888D01*
X228055Y367967D01*
X227991Y368045D01*
X227925Y368119D01*
X227856Y368191D01*
X227784Y368260D01*
X227710Y368326D01*
X227632Y368390D01*
X227553Y368450D01*
X227471Y368507D01*
X227387Y368561D01*
X227301Y368611D01*
X227213Y368658D01*
X227123Y368702D01*
X227032Y368742D01*
X226939Y368778D01*
X226845Y368811D01*
X226749Y368840D01*
X226653Y368865D01*
X226556Y368886D01*
X226457Y368904D01*
X226359Y368917D01*
X226259Y368927D01*
X226160Y368933D01*
X226060Y368935D01*
X180340Y368935D02*
X180240Y368933D01*
X180141Y368927D01*
X180041Y368917D01*
X179943Y368904D01*
X179844Y368886D01*
X179747Y368865D01*
X179651Y368840D01*
X179555Y368811D01*
X179461Y368778D01*
X179368Y368742D01*
X179277Y368702D01*
X179187Y368658D01*
X179099Y368611D01*
X179013Y368561D01*
X178929Y368507D01*
X178847Y368450D01*
X178768Y368390D01*
X178690Y368326D01*
X178616Y368260D01*
X178544Y368191D01*
X178475Y368119D01*
X178409Y368045D01*
X178345Y367967D01*
X178285Y367888D01*
X178228Y367806D01*
X178174Y367722D01*
X178124Y367636D01*
X178077Y367548D01*
X178033Y367458D01*
X177993Y367367D01*
X177957Y367274D01*
X177924Y367180D01*
X177895Y367084D01*
X177870Y366988D01*
X177849Y366891D01*
X177831Y366792D01*
X177818Y366694D01*
X177808Y366594D01*
X177802Y366495D01*
X177800Y366395D01*
X177800Y351155D02*
X177802Y351055D01*
X177808Y350956D01*
X177818Y350856D01*
X177831Y350758D01*
X177849Y350659D01*
X177870Y350562D01*
X177895Y350466D01*
X177924Y350370D01*
X177957Y350276D01*
X177993Y350183D01*
X178033Y350092D01*
X178077Y350002D01*
X178124Y349914D01*
X178174Y349828D01*
X178228Y349744D01*
X178285Y349662D01*
X178345Y349583D01*
X178409Y349505D01*
X178475Y349431D01*
X178544Y349359D01*
X178616Y349290D01*
X178690Y349224D01*
X178768Y349160D01*
X178847Y349100D01*
X178929Y349043D01*
X179013Y348989D01*
X179099Y348939D01*
X179187Y348892D01*
X179277Y348848D01*
X179368Y348808D01*
X179461Y348772D01*
X179555Y348739D01*
X179651Y348710D01*
X179747Y348685D01*
X179844Y348664D01*
X179943Y348646D01*
X180041Y348633D01*
X180141Y348623D01*
X180240Y348617D01*
X180340Y348615D01*
X228600Y351155D02*
X228600Y366395D01*
X226060Y348615D02*
X222250Y348615D01*
X220980Y349885D01*
X222250Y368935D02*
X226060Y368935D01*
X222250Y368935D02*
X220980Y367665D01*
X185420Y349885D02*
X184150Y348615D01*
X185420Y349885D02*
X220980Y349885D01*
X185420Y367665D02*
X184150Y368935D01*
X185420Y367665D02*
X220980Y367665D01*
X184150Y348615D02*
X180340Y348615D01*
X180340Y368935D02*
X184150Y368935D01*
X177800Y366395D02*
X177800Y351155D01*
D18*
X175895Y358775D03*
X230505Y358775D03*
D11*
X184790Y363101D02*
X181824Y360135D01*
X184790Y363101D02*
X184790Y354203D01*
X181824Y354203D02*
X187756Y354203D01*
X190945Y355686D02*
X190945Y361618D01*
X192428Y363101D01*
X195394Y363101D01*
X196877Y361618D01*
X196877Y355686D01*
X195394Y354203D01*
X192428Y354203D01*
X190945Y355686D01*
X196877Y361618D01*
X200067Y361618D02*
X200067Y355686D01*
X200067Y361618D02*
X201550Y363101D01*
X204515Y363101D01*
X205998Y361618D01*
X205998Y355686D01*
X204515Y354203D01*
X201550Y354203D01*
X200067Y355686D01*
X205998Y361618D01*
X209188Y363101D02*
X209188Y354203D01*
X209188Y357169D02*
X213637Y354203D01*
X209188Y357169D02*
X213637Y360135D01*
D10*
X491490Y311785D02*
X528320Y311785D01*
X532130Y307975D02*
X532130Y269875D01*
X528320Y266065D02*
X491490Y266065D01*
X483870Y304165D02*
X491490Y311785D01*
X490220Y305689D02*
X490220Y299339D01*
X493522Y302641D02*
X486918Y302641D01*
X483870Y273685D02*
X491490Y266065D01*
X483870Y273685D02*
X483870Y304165D01*
X528320Y311785D02*
X528442Y311783D01*
X528564Y311777D01*
X528686Y311767D01*
X528807Y311754D01*
X528928Y311736D01*
X529048Y311715D01*
X529168Y311689D01*
X529286Y311660D01*
X529404Y311628D01*
X529521Y311591D01*
X529636Y311551D01*
X529750Y311507D01*
X529862Y311459D01*
X529973Y311408D01*
X530082Y311353D01*
X530190Y311295D01*
X530295Y311233D01*
X530398Y311168D01*
X530500Y311100D01*
X530599Y311028D01*
X530695Y310954D01*
X530790Y310876D01*
X530881Y310795D01*
X530971Y310712D01*
X531057Y310626D01*
X531140Y310536D01*
X531221Y310445D01*
X531299Y310350D01*
X531373Y310254D01*
X531445Y310155D01*
X531513Y310053D01*
X531578Y309950D01*
X531640Y309845D01*
X531698Y309737D01*
X531753Y309628D01*
X531804Y309517D01*
X531852Y309405D01*
X531896Y309291D01*
X531936Y309176D01*
X531973Y309059D01*
X532005Y308941D01*
X532034Y308823D01*
X532060Y308703D01*
X532081Y308583D01*
X532099Y308462D01*
X532112Y308341D01*
X532122Y308219D01*
X532128Y308097D01*
X532130Y307975D01*
X532130Y269875D02*
X532128Y269753D01*
X532122Y269631D01*
X532112Y269509D01*
X532099Y269388D01*
X532081Y269267D01*
X532060Y269147D01*
X532034Y269027D01*
X532005Y268909D01*
X531973Y268791D01*
X531936Y268674D01*
X531896Y268559D01*
X531852Y268445D01*
X531804Y268333D01*
X531753Y268222D01*
X531698Y268113D01*
X531640Y268005D01*
X531578Y267900D01*
X531513Y267797D01*
X531445Y267695D01*
X531373Y267596D01*
X531299Y267500D01*
X531221Y267405D01*
X531140Y267314D01*
X531057Y267224D01*
X530971Y267138D01*
X530881Y267055D01*
X530790Y266974D01*
X530695Y266896D01*
X530599Y266822D01*
X530500Y266750D01*
X530398Y266682D01*
X530295Y266617D01*
X530190Y266555D01*
X530082Y266497D01*
X529973Y266442D01*
X529862Y266391D01*
X529750Y266343D01*
X529636Y266299D01*
X529521Y266259D01*
X529404Y266222D01*
X529286Y266190D01*
X529168Y266161D01*
X529048Y266135D01*
X528928Y266114D01*
X528807Y266096D01*
X528686Y266083D01*
X528564Y266073D01*
X528442Y266067D01*
X528320Y266065D01*
D12*
X468624Y269240D02*
X464810Y273053D01*
X476250Y273053D01*
X476250Y269240D02*
X476250Y276867D01*
X474343Y294535D02*
X470530Y294535D01*
X474343Y294535D02*
X476250Y296441D01*
X476250Y298348D01*
X474343Y300254D01*
X470530Y300254D01*
X474343Y294535D02*
X478157Y294535D01*
X480063Y292628D01*
X476250Y304322D02*
X464810Y304322D01*
X464810Y311948D01*
X470530Y308135D02*
X470530Y304322D01*
D10*
X217170Y57785D02*
X180340Y57785D01*
X220980Y53975D02*
X220980Y15875D01*
X217170Y12065D02*
X180340Y12065D01*
X172720Y50165D02*
X180340Y57785D01*
X179070Y51689D02*
X179070Y45339D01*
X182372Y48641D02*
X175768Y48641D01*
X172720Y19685D02*
X180340Y12065D01*
X172720Y19685D02*
X172720Y50165D01*
X217170Y57785D02*
X217292Y57783D01*
X217414Y57777D01*
X217536Y57767D01*
X217657Y57754D01*
X217778Y57736D01*
X217898Y57715D01*
X218018Y57689D01*
X218136Y57660D01*
X218254Y57628D01*
X218371Y57591D01*
X218486Y57551D01*
X218600Y57507D01*
X218712Y57459D01*
X218823Y57408D01*
X218932Y57353D01*
X219040Y57295D01*
X219145Y57233D01*
X219248Y57168D01*
X219350Y57100D01*
X219449Y57028D01*
X219545Y56954D01*
X219640Y56876D01*
X219731Y56795D01*
X219821Y56712D01*
X219907Y56626D01*
X219990Y56536D01*
X220071Y56445D01*
X220149Y56350D01*
X220223Y56254D01*
X220295Y56155D01*
X220363Y56053D01*
X220428Y55950D01*
X220490Y55845D01*
X220548Y55737D01*
X220603Y55628D01*
X220654Y55517D01*
X220702Y55405D01*
X220746Y55291D01*
X220786Y55176D01*
X220823Y55059D01*
X220855Y54941D01*
X220884Y54823D01*
X220910Y54703D01*
X220931Y54583D01*
X220949Y54462D01*
X220962Y54341D01*
X220972Y54219D01*
X220978Y54097D01*
X220980Y53975D01*
X220980Y15875D02*
X220978Y15753D01*
X220972Y15631D01*
X220962Y15509D01*
X220949Y15388D01*
X220931Y15267D01*
X220910Y15147D01*
X220884Y15027D01*
X220855Y14909D01*
X220823Y14791D01*
X220786Y14674D01*
X220746Y14559D01*
X220702Y14445D01*
X220654Y14333D01*
X220603Y14222D01*
X220548Y14113D01*
X220490Y14005D01*
X220428Y13900D01*
X220363Y13797D01*
X220295Y13695D01*
X220223Y13596D01*
X220149Y13500D01*
X220071Y13405D01*
X219990Y13314D01*
X219907Y13224D01*
X219821Y13138D01*
X219731Y13055D01*
X219640Y12974D01*
X219545Y12896D01*
X219449Y12822D01*
X219350Y12750D01*
X219248Y12682D01*
X219145Y12617D01*
X219040Y12555D01*
X218932Y12497D01*
X218823Y12442D01*
X218712Y12391D01*
X218600Y12343D01*
X218486Y12299D01*
X218371Y12259D01*
X218254Y12222D01*
X218136Y12190D01*
X218018Y12161D01*
X217898Y12135D01*
X217778Y12114D01*
X217657Y12096D01*
X217536Y12083D01*
X217414Y12073D01*
X217292Y12067D01*
X217170Y12065D01*
D11*
X189614Y24900D02*
X186563Y21849D01*
X189614Y24900D02*
X189614Y15748D01*
X192664Y15748D02*
X186563Y15748D01*
X206799Y17273D02*
X206799Y20324D01*
X206799Y17273D02*
X208324Y15748D01*
X209849Y15748D01*
X211375Y17273D01*
X211375Y20324D01*
X206799Y17273D02*
X206799Y14223D01*
X205273Y12697D01*
X214629Y15748D02*
X214629Y24900D01*
X220730Y24900D01*
X217679Y20324D02*
X214629Y20324D01*
D10*
X540385Y273685D02*
X583565Y273685D01*
X583565Y304165D02*
X540385Y304165D01*
X537845Y301625D02*
X537845Y276225D01*
X586105Y276225D02*
X586105Y301625D01*
X540385Y273685D02*
X540285Y273687D01*
X540186Y273693D01*
X540086Y273703D01*
X539988Y273716D01*
X539889Y273734D01*
X539792Y273755D01*
X539696Y273780D01*
X539600Y273809D01*
X539506Y273842D01*
X539413Y273878D01*
X539322Y273918D01*
X539232Y273962D01*
X539144Y274009D01*
X539058Y274059D01*
X538974Y274113D01*
X538892Y274170D01*
X538813Y274230D01*
X538735Y274294D01*
X538661Y274360D01*
X538589Y274429D01*
X538520Y274501D01*
X538454Y274575D01*
X538390Y274653D01*
X538330Y274732D01*
X538273Y274814D01*
X538219Y274898D01*
X538169Y274984D01*
X538122Y275072D01*
X538078Y275162D01*
X538038Y275253D01*
X538002Y275346D01*
X537969Y275440D01*
X537940Y275536D01*
X537915Y275632D01*
X537894Y275729D01*
X537876Y275828D01*
X537863Y275926D01*
X537853Y276026D01*
X537847Y276125D01*
X537845Y276225D01*
X583565Y273685D02*
X583665Y273687D01*
X583764Y273693D01*
X583864Y273703D01*
X583962Y273716D01*
X584061Y273734D01*
X584158Y273755D01*
X584254Y273780D01*
X584350Y273809D01*
X584444Y273842D01*
X584537Y273878D01*
X584628Y273918D01*
X584718Y273962D01*
X584806Y274009D01*
X584892Y274059D01*
X584976Y274113D01*
X585058Y274170D01*
X585137Y274230D01*
X585215Y274294D01*
X585289Y274360D01*
X585361Y274429D01*
X585430Y274501D01*
X585496Y274575D01*
X585560Y274653D01*
X585620Y274732D01*
X585677Y274814D01*
X585731Y274898D01*
X585781Y274984D01*
X585828Y275072D01*
X585872Y275162D01*
X585912Y275253D01*
X585948Y275346D01*
X585981Y275440D01*
X586010Y275536D01*
X586035Y275632D01*
X586056Y275729D01*
X586074Y275828D01*
X586087Y275926D01*
X586097Y276026D01*
X586103Y276125D01*
X586105Y276225D01*
X540385Y304165D02*
X540285Y304163D01*
X540186Y304157D01*
X540086Y304147D01*
X539988Y304134D01*
X539889Y304116D01*
X539792Y304095D01*
X539696Y304070D01*
X539600Y304041D01*
X539506Y304008D01*
X539413Y303972D01*
X539322Y303932D01*
X539232Y303888D01*
X539144Y303841D01*
X539058Y303791D01*
X538974Y303737D01*
X538892Y303680D01*
X538813Y303620D01*
X538735Y303556D01*
X538661Y303490D01*
X538589Y303421D01*
X538520Y303349D01*
X538454Y303275D01*
X538390Y303197D01*
X538330Y303118D01*
X538273Y303036D01*
X538219Y302952D01*
X538169Y302866D01*
X538122Y302778D01*
X538078Y302688D01*
X538038Y302597D01*
X538002Y302504D01*
X537969Y302410D01*
X537940Y302314D01*
X537915Y302218D01*
X537894Y302121D01*
X537876Y302022D01*
X537863Y301924D01*
X537853Y301824D01*
X537847Y301725D01*
X537845Y301625D01*
X583565Y304165D02*
X583665Y304163D01*
X583764Y304157D01*
X583864Y304147D01*
X583962Y304134D01*
X584061Y304116D01*
X584158Y304095D01*
X584254Y304070D01*
X584350Y304041D01*
X584444Y304008D01*
X584537Y303972D01*
X584628Y303932D01*
X584718Y303888D01*
X584806Y303841D01*
X584892Y303791D01*
X584976Y303737D01*
X585058Y303680D01*
X585137Y303620D01*
X585215Y303556D01*
X585289Y303490D01*
X585361Y303421D01*
X585430Y303349D01*
X585496Y303275D01*
X585560Y303197D01*
X585620Y303118D01*
X585677Y303036D01*
X585731Y302952D01*
X585781Y302866D01*
X585828Y302778D01*
X585872Y302688D01*
X585912Y302597D01*
X585948Y302504D01*
X585981Y302410D01*
X586010Y302314D01*
X586035Y302218D01*
X586056Y302121D01*
X586074Y302022D01*
X586087Y301924D01*
X586097Y301824D01*
X586103Y301725D01*
X586105Y301625D01*
X559435Y288925D02*
X558165Y288925D01*
D13*
X559435Y288925D02*
X559435Y281305D01*
X559435Y288925D02*
X559435Y296545D01*
X564515Y288925D02*
X564515Y281305D01*
X564515Y288925D02*
X564515Y296545D01*
D10*
X564515Y288925D02*
X565785Y288925D01*
D12*
X552671Y256540D02*
X545044Y256540D01*
X552671Y264167D01*
X552671Y266073D01*
X550764Y267980D01*
X546951Y267980D01*
X545044Y266073D01*
X556738Y267980D02*
X564365Y267980D01*
X564365Y266073D01*
X556738Y258447D01*
X556738Y256540D01*
X568432Y252727D02*
X568432Y264167D01*
X574152Y264167D01*
X576058Y262260D01*
X576058Y258447D01*
X574152Y256540D01*
X568432Y256540D01*
X580126Y256540D02*
X580126Y267980D01*
X587752Y267980D01*
X583939Y262260D02*
X580126Y262260D01*
D10*
X559562Y335280D02*
X555752Y335280D01*
X536448Y335280D02*
X530352Y335280D01*
X511048Y335280D02*
X504952Y335280D01*
X485648Y335280D02*
X479552Y335280D01*
X460248Y335280D02*
X454152Y335280D01*
X329438Y335280D02*
X329438Y401320D01*
X329438Y335280D02*
X333248Y335280D01*
X559562Y335280D02*
X559562Y365252D01*
X559562Y371348D01*
X559562Y401320D01*
X557022Y401320D01*
X535178Y401320D02*
X530352Y401320D01*
X511048Y401320D02*
X504952Y401320D01*
X485648Y401320D02*
X479552Y401320D01*
X460248Y401320D02*
X454152Y401320D01*
X434848Y401320D02*
X428752Y401320D01*
X409448Y401320D02*
X403352Y401320D01*
X384048Y401320D02*
X377952Y401320D01*
X358648Y401320D02*
X352552Y401320D01*
X333248Y401320D02*
X329438Y401320D01*
X352552Y335280D02*
X358648Y335280D01*
X377952Y335280D02*
X384048Y335280D01*
X403352Y335280D02*
X409448Y335280D01*
X428752Y335280D02*
X434848Y335280D01*
D11*
X375401Y366014D02*
X375401Y377708D01*
X379299Y373810D01*
X383197Y377708D01*
X383197Y366014D01*
X394891Y375759D02*
X392942Y377708D01*
X389044Y377708D01*
X387095Y375759D01*
X387095Y367963D01*
X389044Y366014D01*
X392942Y366014D01*
X394891Y367963D01*
X398789Y366014D02*
X398789Y377708D01*
X404636Y377708D01*
X406585Y375759D01*
X406585Y371861D01*
X404636Y369912D01*
X398789Y369912D01*
X410483Y366014D02*
X418279Y366014D01*
X410483Y366014D02*
X418279Y373810D01*
X418279Y375759D01*
X416330Y377708D01*
X412432Y377708D01*
X410483Y375759D01*
X422177Y377708D02*
X429973Y377708D01*
X422177Y377708D02*
X422177Y371861D01*
X426075Y373810D01*
X428024Y373810D01*
X429973Y371861D01*
X429973Y367963D01*
X428024Y366014D01*
X424126Y366014D01*
X422177Y367963D01*
X433871Y373810D02*
X437769Y377708D01*
X437769Y366014D01*
X433871Y366014D02*
X441667Y366014D01*
X445565Y377708D02*
X453361Y377708D01*
X445565Y377708D02*
X445565Y371861D01*
X449463Y373810D01*
X451412Y373810D01*
X453361Y371861D01*
X453361Y367963D01*
X451412Y366014D01*
X447514Y366014D01*
X445565Y367963D01*
X457259Y371861D02*
X465055Y371861D01*
X468953Y366014D02*
X472851Y366014D01*
X470902Y366014D02*
X470902Y377708D01*
X468953Y377708D02*
X472851Y377708D01*
X476749Y364065D02*
X484545Y364065D01*
X488443Y366014D02*
X488443Y377708D01*
X494290Y377708D01*
X496239Y375759D01*
X496239Y371861D01*
X494290Y369912D01*
X488443Y369912D01*
D10*
X309245Y467360D02*
X272415Y467360D01*
X313055Y463550D02*
X313055Y425450D01*
X309245Y421640D02*
X272415Y421640D01*
X264795Y459740D02*
X272415Y467360D01*
X271145Y461264D02*
X271145Y454914D01*
X274447Y458216D02*
X267843Y458216D01*
X264795Y429260D02*
X272415Y421640D01*
X264795Y429260D02*
X264795Y459740D01*
X309245Y467360D02*
X309367Y467358D01*
X309489Y467352D01*
X309611Y467342D01*
X309732Y467329D01*
X309853Y467311D01*
X309973Y467290D01*
X310093Y467264D01*
X310211Y467235D01*
X310329Y467203D01*
X310446Y467166D01*
X310561Y467126D01*
X310675Y467082D01*
X310787Y467034D01*
X310898Y466983D01*
X311007Y466928D01*
X311115Y466870D01*
X311220Y466808D01*
X311323Y466743D01*
X311425Y466675D01*
X311524Y466603D01*
X311620Y466529D01*
X311715Y466451D01*
X311806Y466370D01*
X311896Y466287D01*
X311982Y466201D01*
X312065Y466111D01*
X312146Y466020D01*
X312224Y465925D01*
X312298Y465829D01*
X312370Y465730D01*
X312438Y465628D01*
X312503Y465525D01*
X312565Y465420D01*
X312623Y465312D01*
X312678Y465203D01*
X312729Y465092D01*
X312777Y464980D01*
X312821Y464866D01*
X312861Y464751D01*
X312898Y464634D01*
X312930Y464516D01*
X312959Y464398D01*
X312985Y464278D01*
X313006Y464158D01*
X313024Y464037D01*
X313037Y463916D01*
X313047Y463794D01*
X313053Y463672D01*
X313055Y463550D01*
X313055Y425450D02*
X313053Y425328D01*
X313047Y425206D01*
X313037Y425084D01*
X313024Y424963D01*
X313006Y424842D01*
X312985Y424722D01*
X312959Y424602D01*
X312930Y424484D01*
X312898Y424366D01*
X312861Y424249D01*
X312821Y424134D01*
X312777Y424020D01*
X312729Y423908D01*
X312678Y423797D01*
X312623Y423688D01*
X312565Y423580D01*
X312503Y423475D01*
X312438Y423372D01*
X312370Y423270D01*
X312298Y423171D01*
X312224Y423075D01*
X312146Y422980D01*
X312065Y422889D01*
X311982Y422799D01*
X311896Y422713D01*
X311806Y422630D01*
X311715Y422549D01*
X311620Y422471D01*
X311524Y422397D01*
X311425Y422325D01*
X311323Y422257D01*
X311220Y422192D01*
X311115Y422130D01*
X311007Y422072D01*
X310898Y422017D01*
X310787Y421966D01*
X310675Y421918D01*
X310561Y421874D01*
X310446Y421834D01*
X310329Y421797D01*
X310211Y421765D01*
X310093Y421736D01*
X309973Y421710D01*
X309853Y421689D01*
X309732Y421671D01*
X309611Y421658D01*
X309489Y421648D01*
X309367Y421642D01*
X309245Y421640D01*
D12*
X275436Y419110D02*
X271623Y415297D01*
X275436Y419110D02*
X275436Y407670D01*
X271623Y407670D02*
X279250Y407670D01*
X285224Y409577D02*
X285224Y413390D01*
X285224Y409577D02*
X287130Y407670D01*
X289037Y407670D01*
X290944Y409577D01*
X290944Y413390D01*
X285224Y409577D02*
X285224Y405763D01*
X283317Y403857D01*
X295011Y407670D02*
X295011Y419110D01*
X302637Y419110D01*
X298824Y413390D02*
X295011Y413390D01*
D10*
X310515Y399415D02*
X267335Y399415D01*
X267335Y368935D02*
X310515Y368935D01*
X313055Y371475D02*
X313055Y396875D01*
X264795Y396875D02*
X264795Y371475D01*
X310515Y399415D02*
X310615Y399413D01*
X310714Y399407D01*
X310814Y399397D01*
X310912Y399384D01*
X311011Y399366D01*
X311108Y399345D01*
X311204Y399320D01*
X311300Y399291D01*
X311394Y399258D01*
X311487Y399222D01*
X311578Y399182D01*
X311668Y399138D01*
X311756Y399091D01*
X311842Y399041D01*
X311926Y398987D01*
X312008Y398930D01*
X312087Y398870D01*
X312165Y398806D01*
X312239Y398740D01*
X312311Y398671D01*
X312380Y398599D01*
X312446Y398525D01*
X312510Y398447D01*
X312570Y398368D01*
X312627Y398286D01*
X312681Y398202D01*
X312731Y398116D01*
X312778Y398028D01*
X312822Y397938D01*
X312862Y397847D01*
X312898Y397754D01*
X312931Y397660D01*
X312960Y397564D01*
X312985Y397468D01*
X313006Y397371D01*
X313024Y397272D01*
X313037Y397174D01*
X313047Y397074D01*
X313053Y396975D01*
X313055Y396875D01*
X267335Y399415D02*
X267235Y399413D01*
X267136Y399407D01*
X267036Y399397D01*
X266938Y399384D01*
X266839Y399366D01*
X266742Y399345D01*
X266646Y399320D01*
X266550Y399291D01*
X266456Y399258D01*
X266363Y399222D01*
X266272Y399182D01*
X266182Y399138D01*
X266094Y399091D01*
X266008Y399041D01*
X265924Y398987D01*
X265842Y398930D01*
X265763Y398870D01*
X265685Y398806D01*
X265611Y398740D01*
X265539Y398671D01*
X265470Y398599D01*
X265404Y398525D01*
X265340Y398447D01*
X265280Y398368D01*
X265223Y398286D01*
X265169Y398202D01*
X265119Y398116D01*
X265072Y398028D01*
X265028Y397938D01*
X264988Y397847D01*
X264952Y397754D01*
X264919Y397660D01*
X264890Y397564D01*
X264865Y397468D01*
X264844Y397371D01*
X264826Y397272D01*
X264813Y397174D01*
X264803Y397074D01*
X264797Y396975D01*
X264795Y396875D01*
X310515Y368935D02*
X310615Y368937D01*
X310714Y368943D01*
X310814Y368953D01*
X310912Y368966D01*
X311011Y368984D01*
X311108Y369005D01*
X311204Y369030D01*
X311300Y369059D01*
X311394Y369092D01*
X311487Y369128D01*
X311578Y369168D01*
X311668Y369212D01*
X311756Y369259D01*
X311842Y369309D01*
X311926Y369363D01*
X312008Y369420D01*
X312087Y369480D01*
X312165Y369544D01*
X312239Y369610D01*
X312311Y369679D01*
X312380Y369751D01*
X312446Y369825D01*
X312510Y369903D01*
X312570Y369982D01*
X312627Y370064D01*
X312681Y370148D01*
X312731Y370234D01*
X312778Y370322D01*
X312822Y370412D01*
X312862Y370503D01*
X312898Y370596D01*
X312931Y370690D01*
X312960Y370786D01*
X312985Y370882D01*
X313006Y370979D01*
X313024Y371078D01*
X313037Y371176D01*
X313047Y371276D01*
X313053Y371375D01*
X313055Y371475D01*
X267335Y368935D02*
X267235Y368937D01*
X267136Y368943D01*
X267036Y368953D01*
X266938Y368966D01*
X266839Y368984D01*
X266742Y369005D01*
X266646Y369030D01*
X266550Y369059D01*
X266456Y369092D01*
X266363Y369128D01*
X266272Y369168D01*
X266182Y369212D01*
X266094Y369259D01*
X266008Y369309D01*
X265924Y369363D01*
X265842Y369420D01*
X265763Y369480D01*
X265685Y369544D01*
X265611Y369610D01*
X265539Y369679D01*
X265470Y369751D01*
X265404Y369825D01*
X265340Y369903D01*
X265280Y369982D01*
X265223Y370064D01*
X265169Y370148D01*
X265119Y370234D01*
X265072Y370322D01*
X265028Y370412D01*
X264988Y370503D01*
X264952Y370596D01*
X264919Y370690D01*
X264890Y370786D01*
X264865Y370882D01*
X264844Y370979D01*
X264826Y371078D01*
X264813Y371176D01*
X264803Y371276D01*
X264797Y371375D01*
X264795Y371475D01*
X291465Y384175D02*
X292735Y384175D01*
D13*
X291465Y384175D02*
X291465Y391795D01*
X291465Y384175D02*
X291465Y376555D01*
X286385Y384175D02*
X286385Y391795D01*
X286385Y384175D02*
X286385Y376555D01*
D10*
X286385Y384175D02*
X285115Y384175D01*
D12*
X270096Y351790D02*
X262469Y351790D01*
X270096Y359417D01*
X270096Y361323D01*
X268189Y363230D01*
X264376Y363230D01*
X262469Y361323D01*
X274163Y363230D02*
X281790Y363230D01*
X281790Y361323D01*
X274163Y353697D01*
X274163Y351790D01*
X285857Y347977D02*
X285857Y359417D01*
X291577Y359417D01*
X293483Y357510D01*
X293483Y353697D01*
X291577Y351790D01*
X285857Y351790D01*
X297551Y351790D02*
X297551Y363230D01*
X305177Y363230D01*
X301364Y357510D02*
X297551Y357510D01*
D13*
X381400Y424425D02*
X381400Y470925D01*
X381400Y424425D02*
X494900Y424425D01*
X494900Y470925D01*
X381400Y470925D01*
D17*
X387437Y462016D02*
X387437Y457101D01*
X387437Y462016D02*
X388666Y463244D01*
X391123Y463244D01*
X392352Y462016D01*
X392352Y457101D01*
X391123Y455872D01*
X388666Y455872D01*
X387437Y457101D01*
X389894Y458329D02*
X392352Y455872D01*
X394921Y457101D02*
X394921Y463244D01*
X394921Y457101D02*
X396150Y455872D01*
X398607Y455872D01*
X399836Y457101D01*
X399836Y463244D01*
X402405Y460787D02*
X402405Y455872D01*
X402405Y460787D02*
X404863Y463244D01*
X407320Y460787D01*
X407320Y455872D01*
X407320Y459558D02*
X402405Y459558D01*
X409889Y455872D02*
X409889Y463244D01*
X413576Y463244D01*
X414804Y462016D01*
X414804Y459558D01*
X413576Y458329D01*
X409889Y458329D01*
X412347Y458329D02*
X414804Y455872D01*
X419831Y455872D02*
X419831Y463244D01*
X417374Y463244D02*
X422288Y463244D01*
X424858Y463244D02*
X429773Y463244D01*
X429773Y462016D01*
X424858Y457101D01*
X424858Y455872D01*
X429773Y455872D01*
X432342Y454643D02*
X437257Y454643D01*
X439826Y460787D02*
X442283Y463244D01*
X442283Y455872D01*
X439826Y455872D02*
X444741Y455872D01*
X449768Y462016D02*
X452225Y463244D01*
X449768Y462016D02*
X447310Y459558D01*
X447310Y457101D01*
X448539Y455872D01*
X450996Y455872D01*
X452225Y457101D01*
X452225Y458329D01*
X450996Y459558D01*
X447310Y459558D01*
X454794Y454643D02*
X459709Y454643D01*
X462278Y455872D02*
X462278Y463244D01*
X464736Y460787D01*
X467193Y463244D01*
X467193Y455872D01*
X469763Y455872D02*
X469763Y463244D01*
X469763Y459558D02*
X474677Y459558D01*
X474677Y463244D02*
X474677Y455872D01*
X477247Y463244D02*
X482162Y463244D01*
X482162Y462016D01*
X477247Y457101D01*
X477247Y455872D01*
X482162Y455872D01*
X484731Y460787D02*
X487188Y463244D01*
X487188Y455872D01*
X484731Y455872D02*
X489646Y455872D01*
D10*
X438150Y294005D02*
X438148Y293905D01*
X438142Y293806D01*
X438132Y293706D01*
X438119Y293608D01*
X438101Y293509D01*
X438080Y293412D01*
X438055Y293316D01*
X438026Y293220D01*
X437993Y293126D01*
X437957Y293033D01*
X437917Y292942D01*
X437873Y292852D01*
X437826Y292764D01*
X437776Y292678D01*
X437722Y292594D01*
X437665Y292512D01*
X437605Y292433D01*
X437541Y292355D01*
X437475Y292281D01*
X437406Y292209D01*
X437334Y292140D01*
X437260Y292074D01*
X437182Y292010D01*
X437103Y291950D01*
X437021Y291893D01*
X436937Y291839D01*
X436851Y291789D01*
X436763Y291742D01*
X436673Y291698D01*
X436582Y291658D01*
X436489Y291622D01*
X436395Y291589D01*
X436299Y291560D01*
X436203Y291535D01*
X436106Y291514D01*
X436007Y291496D01*
X435909Y291483D01*
X435809Y291473D01*
X435710Y291467D01*
X435610Y291465D01*
X438150Y309245D02*
X438148Y309345D01*
X438142Y309444D01*
X438132Y309544D01*
X438119Y309642D01*
X438101Y309741D01*
X438080Y309838D01*
X438055Y309934D01*
X438026Y310030D01*
X437993Y310124D01*
X437957Y310217D01*
X437917Y310308D01*
X437873Y310398D01*
X437826Y310486D01*
X437776Y310572D01*
X437722Y310656D01*
X437665Y310738D01*
X437605Y310817D01*
X437541Y310895D01*
X437475Y310969D01*
X437406Y311041D01*
X437334Y311110D01*
X437260Y311176D01*
X437182Y311240D01*
X437103Y311300D01*
X437021Y311357D01*
X436937Y311411D01*
X436851Y311461D01*
X436763Y311508D01*
X436673Y311552D01*
X436582Y311592D01*
X436489Y311628D01*
X436395Y311661D01*
X436299Y311690D01*
X436203Y311715D01*
X436106Y311736D01*
X436007Y311754D01*
X435909Y311767D01*
X435809Y311777D01*
X435710Y311783D01*
X435610Y311785D01*
X389890Y311785D02*
X389790Y311783D01*
X389691Y311777D01*
X389591Y311767D01*
X389493Y311754D01*
X389394Y311736D01*
X389297Y311715D01*
X389201Y311690D01*
X389105Y311661D01*
X389011Y311628D01*
X388918Y311592D01*
X388827Y311552D01*
X388737Y311508D01*
X388649Y311461D01*
X388563Y311411D01*
X388479Y311357D01*
X388397Y311300D01*
X388318Y311240D01*
X388240Y311176D01*
X388166Y311110D01*
X388094Y311041D01*
X388025Y310969D01*
X387959Y310895D01*
X387895Y310817D01*
X387835Y310738D01*
X387778Y310656D01*
X387724Y310572D01*
X387674Y310486D01*
X387627Y310398D01*
X387583Y310308D01*
X387543Y310217D01*
X387507Y310124D01*
X387474Y310030D01*
X387445Y309934D01*
X387420Y309838D01*
X387399Y309741D01*
X387381Y309642D01*
X387368Y309544D01*
X387358Y309444D01*
X387352Y309345D01*
X387350Y309245D01*
X387350Y294005D02*
X387352Y293905D01*
X387358Y293806D01*
X387368Y293706D01*
X387381Y293608D01*
X387399Y293509D01*
X387420Y293412D01*
X387445Y293316D01*
X387474Y293220D01*
X387507Y293126D01*
X387543Y293033D01*
X387583Y292942D01*
X387627Y292852D01*
X387674Y292764D01*
X387724Y292678D01*
X387778Y292594D01*
X387835Y292512D01*
X387895Y292433D01*
X387959Y292355D01*
X388025Y292281D01*
X388094Y292209D01*
X388166Y292140D01*
X388240Y292074D01*
X388318Y292010D01*
X388397Y291950D01*
X388479Y291893D01*
X388563Y291839D01*
X388649Y291789D01*
X388737Y291742D01*
X388827Y291698D01*
X388918Y291658D01*
X389011Y291622D01*
X389105Y291589D01*
X389201Y291560D01*
X389297Y291535D01*
X389394Y291514D01*
X389493Y291496D01*
X389591Y291483D01*
X389691Y291473D01*
X389790Y291467D01*
X389890Y291465D01*
X438150Y294005D02*
X438150Y309245D01*
X435610Y291465D02*
X431800Y291465D01*
X430530Y292735D01*
X431800Y311785D02*
X435610Y311785D01*
X431800Y311785D02*
X430530Y310515D01*
X394970Y292735D02*
X393700Y291465D01*
X394970Y292735D02*
X430530Y292735D01*
X394970Y310515D02*
X393700Y311785D01*
X394970Y310515D02*
X430530Y310515D01*
X393700Y291465D02*
X389890Y291465D01*
X389890Y311785D02*
X393700Y311785D01*
X387350Y309245D02*
X387350Y294005D01*
D18*
X385445Y301625D03*
X440055Y301625D03*
D11*
X406232Y305951D02*
X403267Y302985D01*
X406232Y305951D02*
X406232Y297053D01*
X403267Y297053D02*
X409198Y297053D01*
X412388Y297053D02*
X412388Y305951D01*
X412388Y300019D02*
X416837Y297053D01*
X412388Y300019D02*
X416837Y302985D01*
D12*
X361900Y192925D02*
X357900Y192925D01*
X361900Y192925D02*
X361900Y130925D01*
X357900Y130925D01*
X327900Y192925D02*
X323900Y192925D01*
X323900Y130925D01*
X327900Y130925D01*
D19*
X241700Y381000D02*
X161290Y381000D01*
X161290Y482600D02*
X232410Y482600D01*
D17*
X200533Y387843D02*
X193161Y387843D01*
X195618Y390301D01*
X193161Y392758D01*
X200533Y392758D01*
X193161Y399013D02*
X194389Y400242D01*
X193161Y399013D02*
X193161Y396556D01*
X194389Y395327D01*
X199304Y395327D01*
X200533Y396556D01*
X200533Y399013D01*
X199304Y400242D01*
X200533Y402811D02*
X193161Y402811D01*
X193161Y406498D01*
X194389Y407726D01*
X196847Y407726D01*
X198076Y406498D01*
X198076Y402811D01*
X200533Y410296D02*
X200533Y415210D01*
X200533Y410296D02*
X195618Y415210D01*
X194389Y415210D01*
X193161Y413982D01*
X193161Y411524D01*
X194389Y410296D01*
X193161Y417780D02*
X193161Y422695D01*
X193161Y417780D02*
X196847Y417780D01*
X195618Y420237D01*
X195618Y421466D01*
X196847Y422695D01*
X199304Y422695D01*
X200533Y421466D01*
X200533Y419008D01*
X199304Y417780D01*
X194389Y427721D02*
X193161Y430179D01*
X194389Y427721D02*
X196847Y425264D01*
X199304Y425264D01*
X200533Y426493D01*
X200533Y428950D01*
X199304Y430179D01*
X198076Y430179D01*
X196847Y428950D01*
X196847Y425264D01*
X200533Y432748D02*
X200533Y437663D01*
X200533Y432748D02*
X195618Y437663D01*
X194389Y437663D01*
X193161Y436434D01*
X193161Y433977D01*
X194389Y432748D01*
X196847Y440232D02*
X196847Y445147D01*
X193161Y447716D02*
X193161Y452631D01*
X193161Y447716D02*
X200533Y447716D01*
X200533Y452631D01*
X196847Y450174D02*
X196847Y447716D01*
X201762Y455201D02*
X201762Y460115D01*
X200533Y462685D02*
X193161Y462685D01*
X193161Y466371D01*
X194389Y467600D01*
X196847Y467600D01*
X198076Y466371D01*
X198076Y462685D01*
D10*
X415290Y210185D02*
X415190Y210183D01*
X415091Y210177D01*
X414991Y210167D01*
X414893Y210154D01*
X414794Y210136D01*
X414697Y210115D01*
X414601Y210090D01*
X414505Y210061D01*
X414411Y210028D01*
X414318Y209992D01*
X414227Y209952D01*
X414137Y209908D01*
X414049Y209861D01*
X413963Y209811D01*
X413879Y209757D01*
X413797Y209700D01*
X413718Y209640D01*
X413640Y209576D01*
X413566Y209510D01*
X413494Y209441D01*
X413425Y209369D01*
X413359Y209295D01*
X413295Y209217D01*
X413235Y209138D01*
X413178Y209056D01*
X413124Y208972D01*
X413074Y208886D01*
X413027Y208798D01*
X412983Y208708D01*
X412943Y208617D01*
X412907Y208524D01*
X412874Y208430D01*
X412845Y208334D01*
X412820Y208238D01*
X412799Y208141D01*
X412781Y208042D01*
X412768Y207944D01*
X412758Y207844D01*
X412752Y207745D01*
X412750Y207645D01*
X412750Y192405D02*
X412752Y192305D01*
X412758Y192206D01*
X412768Y192106D01*
X412781Y192008D01*
X412799Y191909D01*
X412820Y191812D01*
X412845Y191716D01*
X412874Y191620D01*
X412907Y191526D01*
X412943Y191433D01*
X412983Y191342D01*
X413027Y191252D01*
X413074Y191164D01*
X413124Y191078D01*
X413178Y190994D01*
X413235Y190912D01*
X413295Y190833D01*
X413359Y190755D01*
X413425Y190681D01*
X413494Y190609D01*
X413566Y190540D01*
X413640Y190474D01*
X413718Y190410D01*
X413797Y190350D01*
X413879Y190293D01*
X413963Y190239D01*
X414049Y190189D01*
X414137Y190142D01*
X414227Y190098D01*
X414318Y190058D01*
X414411Y190022D01*
X414505Y189989D01*
X414601Y189960D01*
X414697Y189935D01*
X414794Y189914D01*
X414893Y189896D01*
X414991Y189883D01*
X415091Y189873D01*
X415190Y189867D01*
X415290Y189865D01*
X461010Y189865D02*
X461110Y189867D01*
X461209Y189873D01*
X461309Y189883D01*
X461407Y189896D01*
X461506Y189914D01*
X461603Y189935D01*
X461699Y189960D01*
X461795Y189989D01*
X461889Y190022D01*
X461982Y190058D01*
X462073Y190098D01*
X462163Y190142D01*
X462251Y190189D01*
X462337Y190239D01*
X462421Y190293D01*
X462503Y190350D01*
X462582Y190410D01*
X462660Y190474D01*
X462734Y190540D01*
X462806Y190609D01*
X462875Y190681D01*
X462941Y190755D01*
X463005Y190833D01*
X463065Y190912D01*
X463122Y190994D01*
X463176Y191078D01*
X463226Y191164D01*
X463273Y191252D01*
X463317Y191342D01*
X463357Y191433D01*
X463393Y191526D01*
X463426Y191620D01*
X463455Y191716D01*
X463480Y191812D01*
X463501Y191909D01*
X463519Y192008D01*
X463532Y192106D01*
X463542Y192206D01*
X463548Y192305D01*
X463550Y192405D01*
X463550Y207645D02*
X463548Y207745D01*
X463542Y207844D01*
X463532Y207944D01*
X463519Y208042D01*
X463501Y208141D01*
X463480Y208238D01*
X463455Y208334D01*
X463426Y208430D01*
X463393Y208524D01*
X463357Y208617D01*
X463317Y208708D01*
X463273Y208798D01*
X463226Y208886D01*
X463176Y208972D01*
X463122Y209056D01*
X463065Y209138D01*
X463005Y209217D01*
X462941Y209295D01*
X462875Y209369D01*
X462806Y209441D01*
X462734Y209510D01*
X462660Y209576D01*
X462582Y209640D01*
X462503Y209700D01*
X462421Y209757D01*
X462337Y209811D01*
X462251Y209861D01*
X462163Y209908D01*
X462073Y209952D01*
X461982Y209992D01*
X461889Y210028D01*
X461795Y210061D01*
X461699Y210090D01*
X461603Y210115D01*
X461506Y210136D01*
X461407Y210154D01*
X461309Y210167D01*
X461209Y210177D01*
X461110Y210183D01*
X461010Y210185D01*
X412750Y207645D02*
X412750Y192405D01*
X415290Y210185D02*
X419100Y210185D01*
X420370Y208915D01*
X419100Y189865D02*
X415290Y189865D01*
X419100Y189865D02*
X420370Y191135D01*
X455930Y208915D02*
X457200Y210185D01*
X455930Y208915D02*
X420370Y208915D01*
X455930Y191135D02*
X457200Y189865D01*
X455930Y191135D02*
X420370Y191135D01*
X457200Y210185D02*
X461010Y210185D01*
X461010Y189865D02*
X457200Y189865D01*
X463550Y192405D02*
X463550Y207645D01*
D18*
X465455Y200025D03*
X410845Y200025D03*
D11*
X431927Y201639D02*
X434893Y204605D01*
X434893Y195707D01*
X431927Y195707D02*
X437859Y195707D01*
X441048Y195707D02*
X441048Y204605D01*
X441048Y198673D02*
X445497Y195707D01*
X441048Y198673D02*
X445497Y201639D01*
D10*
X415290Y184785D02*
X415190Y184783D01*
X415091Y184777D01*
X414991Y184767D01*
X414893Y184754D01*
X414794Y184736D01*
X414697Y184715D01*
X414601Y184690D01*
X414505Y184661D01*
X414411Y184628D01*
X414318Y184592D01*
X414227Y184552D01*
X414137Y184508D01*
X414049Y184461D01*
X413963Y184411D01*
X413879Y184357D01*
X413797Y184300D01*
X413718Y184240D01*
X413640Y184176D01*
X413566Y184110D01*
X413494Y184041D01*
X413425Y183969D01*
X413359Y183895D01*
X413295Y183817D01*
X413235Y183738D01*
X413178Y183656D01*
X413124Y183572D01*
X413074Y183486D01*
X413027Y183398D01*
X412983Y183308D01*
X412943Y183217D01*
X412907Y183124D01*
X412874Y183030D01*
X412845Y182934D01*
X412820Y182838D01*
X412799Y182741D01*
X412781Y182642D01*
X412768Y182544D01*
X412758Y182444D01*
X412752Y182345D01*
X412750Y182245D01*
X412750Y167005D02*
X412752Y166905D01*
X412758Y166806D01*
X412768Y166706D01*
X412781Y166608D01*
X412799Y166509D01*
X412820Y166412D01*
X412845Y166316D01*
X412874Y166220D01*
X412907Y166126D01*
X412943Y166033D01*
X412983Y165942D01*
X413027Y165852D01*
X413074Y165764D01*
X413124Y165678D01*
X413178Y165594D01*
X413235Y165512D01*
X413295Y165433D01*
X413359Y165355D01*
X413425Y165281D01*
X413494Y165209D01*
X413566Y165140D01*
X413640Y165074D01*
X413718Y165010D01*
X413797Y164950D01*
X413879Y164893D01*
X413963Y164839D01*
X414049Y164789D01*
X414137Y164742D01*
X414227Y164698D01*
X414318Y164658D01*
X414411Y164622D01*
X414505Y164589D01*
X414601Y164560D01*
X414697Y164535D01*
X414794Y164514D01*
X414893Y164496D01*
X414991Y164483D01*
X415091Y164473D01*
X415190Y164467D01*
X415290Y164465D01*
X461010Y164465D02*
X461110Y164467D01*
X461209Y164473D01*
X461309Y164483D01*
X461407Y164496D01*
X461506Y164514D01*
X461603Y164535D01*
X461699Y164560D01*
X461795Y164589D01*
X461889Y164622D01*
X461982Y164658D01*
X462073Y164698D01*
X462163Y164742D01*
X462251Y164789D01*
X462337Y164839D01*
X462421Y164893D01*
X462503Y164950D01*
X462582Y165010D01*
X462660Y165074D01*
X462734Y165140D01*
X462806Y165209D01*
X462875Y165281D01*
X462941Y165355D01*
X463005Y165433D01*
X463065Y165512D01*
X463122Y165594D01*
X463176Y165678D01*
X463226Y165764D01*
X463273Y165852D01*
X463317Y165942D01*
X463357Y166033D01*
X463393Y166126D01*
X463426Y166220D01*
X463455Y166316D01*
X463480Y166412D01*
X463501Y166509D01*
X463519Y166608D01*
X463532Y166706D01*
X463542Y166806D01*
X463548Y166905D01*
X463550Y167005D01*
X463550Y182245D02*
X463548Y182345D01*
X463542Y182444D01*
X463532Y182544D01*
X463519Y182642D01*
X463501Y182741D01*
X463480Y182838D01*
X463455Y182934D01*
X463426Y183030D01*
X463393Y183124D01*
X463357Y183217D01*
X463317Y183308D01*
X463273Y183398D01*
X463226Y183486D01*
X463176Y183572D01*
X463122Y183656D01*
X463065Y183738D01*
X463005Y183817D01*
X462941Y183895D01*
X462875Y183969D01*
X462806Y184041D01*
X462734Y184110D01*
X462660Y184176D01*
X462582Y184240D01*
X462503Y184300D01*
X462421Y184357D01*
X462337Y184411D01*
X462251Y184461D01*
X462163Y184508D01*
X462073Y184552D01*
X461982Y184592D01*
X461889Y184628D01*
X461795Y184661D01*
X461699Y184690D01*
X461603Y184715D01*
X461506Y184736D01*
X461407Y184754D01*
X461309Y184767D01*
X461209Y184777D01*
X461110Y184783D01*
X461010Y184785D01*
X412750Y182245D02*
X412750Y167005D01*
X415290Y184785D02*
X419100Y184785D01*
X420370Y183515D01*
X419100Y164465D02*
X415290Y164465D01*
X419100Y164465D02*
X420370Y165735D01*
X455930Y183515D02*
X457200Y184785D01*
X455930Y183515D02*
X420370Y183515D01*
X455930Y165735D02*
X457200Y164465D01*
X455930Y165735D02*
X420370Y165735D01*
X457200Y184785D02*
X461010Y184785D01*
X461010Y164465D02*
X457200Y164465D01*
X463550Y167005D02*
X463550Y182245D01*
D18*
X465455Y174625D03*
X410845Y174625D03*
D11*
X431927Y176239D02*
X434893Y179205D01*
X434893Y170307D01*
X431927Y170307D02*
X437859Y170307D01*
X441048Y170307D02*
X441048Y179205D01*
X441048Y173273D02*
X445497Y170307D01*
X441048Y173273D02*
X445497Y176239D01*
D10*
X415290Y80010D02*
X415190Y80008D01*
X415091Y80002D01*
X414991Y79992D01*
X414893Y79979D01*
X414794Y79961D01*
X414697Y79940D01*
X414601Y79915D01*
X414505Y79886D01*
X414411Y79853D01*
X414318Y79817D01*
X414227Y79777D01*
X414137Y79733D01*
X414049Y79686D01*
X413963Y79636D01*
X413879Y79582D01*
X413797Y79525D01*
X413718Y79465D01*
X413640Y79401D01*
X413566Y79335D01*
X413494Y79266D01*
X413425Y79194D01*
X413359Y79120D01*
X413295Y79042D01*
X413235Y78963D01*
X413178Y78881D01*
X413124Y78797D01*
X413074Y78711D01*
X413027Y78623D01*
X412983Y78533D01*
X412943Y78442D01*
X412907Y78349D01*
X412874Y78255D01*
X412845Y78159D01*
X412820Y78063D01*
X412799Y77966D01*
X412781Y77867D01*
X412768Y77769D01*
X412758Y77669D01*
X412752Y77570D01*
X412750Y77470D01*
X412750Y62230D02*
X412752Y62130D01*
X412758Y62031D01*
X412768Y61931D01*
X412781Y61833D01*
X412799Y61734D01*
X412820Y61637D01*
X412845Y61541D01*
X412874Y61445D01*
X412907Y61351D01*
X412943Y61258D01*
X412983Y61167D01*
X413027Y61077D01*
X413074Y60989D01*
X413124Y60903D01*
X413178Y60819D01*
X413235Y60737D01*
X413295Y60658D01*
X413359Y60580D01*
X413425Y60506D01*
X413494Y60434D01*
X413566Y60365D01*
X413640Y60299D01*
X413718Y60235D01*
X413797Y60175D01*
X413879Y60118D01*
X413963Y60064D01*
X414049Y60014D01*
X414137Y59967D01*
X414227Y59923D01*
X414318Y59883D01*
X414411Y59847D01*
X414505Y59814D01*
X414601Y59785D01*
X414697Y59760D01*
X414794Y59739D01*
X414893Y59721D01*
X414991Y59708D01*
X415091Y59698D01*
X415190Y59692D01*
X415290Y59690D01*
X461010Y59690D02*
X461110Y59692D01*
X461209Y59698D01*
X461309Y59708D01*
X461407Y59721D01*
X461506Y59739D01*
X461603Y59760D01*
X461699Y59785D01*
X461795Y59814D01*
X461889Y59847D01*
X461982Y59883D01*
X462073Y59923D01*
X462163Y59967D01*
X462251Y60014D01*
X462337Y60064D01*
X462421Y60118D01*
X462503Y60175D01*
X462582Y60235D01*
X462660Y60299D01*
X462734Y60365D01*
X462806Y60434D01*
X462875Y60506D01*
X462941Y60580D01*
X463005Y60658D01*
X463065Y60737D01*
X463122Y60819D01*
X463176Y60903D01*
X463226Y60989D01*
X463273Y61077D01*
X463317Y61167D01*
X463357Y61258D01*
X463393Y61351D01*
X463426Y61445D01*
X463455Y61541D01*
X463480Y61637D01*
X463501Y61734D01*
X463519Y61833D01*
X463532Y61931D01*
X463542Y62031D01*
X463548Y62130D01*
X463550Y62230D01*
X463550Y77470D02*
X463548Y77570D01*
X463542Y77669D01*
X463532Y77769D01*
X463519Y77867D01*
X463501Y77966D01*
X463480Y78063D01*
X463455Y78159D01*
X463426Y78255D01*
X463393Y78349D01*
X463357Y78442D01*
X463317Y78533D01*
X463273Y78623D01*
X463226Y78711D01*
X463176Y78797D01*
X463122Y78881D01*
X463065Y78963D01*
X463005Y79042D01*
X462941Y79120D01*
X462875Y79194D01*
X462806Y79266D01*
X462734Y79335D01*
X462660Y79401D01*
X462582Y79465D01*
X462503Y79525D01*
X462421Y79582D01*
X462337Y79636D01*
X462251Y79686D01*
X462163Y79733D01*
X462073Y79777D01*
X461982Y79817D01*
X461889Y79853D01*
X461795Y79886D01*
X461699Y79915D01*
X461603Y79940D01*
X461506Y79961D01*
X461407Y79979D01*
X461309Y79992D01*
X461209Y80002D01*
X461110Y80008D01*
X461010Y80010D01*
X412750Y77470D02*
X412750Y62230D01*
X415290Y80010D02*
X419100Y80010D01*
X420370Y78740D01*
X419100Y59690D02*
X415290Y59690D01*
X419100Y59690D02*
X420370Y60960D01*
X455930Y78740D02*
X457200Y80010D01*
X455930Y78740D02*
X420370Y78740D01*
X455930Y60960D02*
X457200Y59690D01*
X455930Y60960D02*
X420370Y60960D01*
X457200Y80010D02*
X461010Y80010D01*
X461010Y59690D02*
X457200Y59690D01*
X463550Y62230D02*
X463550Y77470D01*
D18*
X465455Y69850D03*
X410845Y69850D03*
D11*
X428752Y71464D02*
X431718Y74430D01*
X431718Y65532D01*
X428752Y65532D02*
X434684Y65532D01*
X437873Y67015D02*
X437873Y72947D01*
X439356Y74430D01*
X442322Y74430D01*
X443805Y72947D01*
X443805Y67015D01*
X442322Y65532D01*
X439356Y65532D01*
X437873Y67015D01*
X443805Y72947D01*
X446995Y74430D02*
X446995Y65532D01*
X446995Y68498D02*
X451443Y65532D01*
X446995Y68498D02*
X451443Y71464D01*
D10*
X412750Y128270D02*
X412752Y128370D01*
X412758Y128469D01*
X412768Y128569D01*
X412781Y128667D01*
X412799Y128766D01*
X412820Y128863D01*
X412845Y128959D01*
X412874Y129055D01*
X412907Y129149D01*
X412943Y129242D01*
X412983Y129333D01*
X413027Y129423D01*
X413074Y129511D01*
X413124Y129597D01*
X413178Y129681D01*
X413235Y129763D01*
X413295Y129842D01*
X413359Y129920D01*
X413425Y129994D01*
X413494Y130066D01*
X413566Y130135D01*
X413640Y130201D01*
X413718Y130265D01*
X413797Y130325D01*
X413879Y130382D01*
X413963Y130436D01*
X414049Y130486D01*
X414137Y130533D01*
X414227Y130577D01*
X414318Y130617D01*
X414411Y130653D01*
X414505Y130686D01*
X414601Y130715D01*
X414697Y130740D01*
X414794Y130761D01*
X414893Y130779D01*
X414991Y130792D01*
X415091Y130802D01*
X415190Y130808D01*
X415290Y130810D01*
X412750Y113030D02*
X412752Y112930D01*
X412758Y112831D01*
X412768Y112731D01*
X412781Y112633D01*
X412799Y112534D01*
X412820Y112437D01*
X412845Y112341D01*
X412874Y112245D01*
X412907Y112151D01*
X412943Y112058D01*
X412983Y111967D01*
X413027Y111877D01*
X413074Y111789D01*
X413124Y111703D01*
X413178Y111619D01*
X413235Y111537D01*
X413295Y111458D01*
X413359Y111380D01*
X413425Y111306D01*
X413494Y111234D01*
X413566Y111165D01*
X413640Y111099D01*
X413718Y111035D01*
X413797Y110975D01*
X413879Y110918D01*
X413963Y110864D01*
X414049Y110814D01*
X414137Y110767D01*
X414227Y110723D01*
X414318Y110683D01*
X414411Y110647D01*
X414505Y110614D01*
X414601Y110585D01*
X414697Y110560D01*
X414794Y110539D01*
X414893Y110521D01*
X414991Y110508D01*
X415091Y110498D01*
X415190Y110492D01*
X415290Y110490D01*
X461010Y110490D02*
X461110Y110492D01*
X461209Y110498D01*
X461309Y110508D01*
X461407Y110521D01*
X461506Y110539D01*
X461603Y110560D01*
X461699Y110585D01*
X461795Y110614D01*
X461889Y110647D01*
X461982Y110683D01*
X462073Y110723D01*
X462163Y110767D01*
X462251Y110814D01*
X462337Y110864D01*
X462421Y110918D01*
X462503Y110975D01*
X462582Y111035D01*
X462660Y111099D01*
X462734Y111165D01*
X462806Y111234D01*
X462875Y111306D01*
X462941Y111380D01*
X463005Y111458D01*
X463065Y111537D01*
X463122Y111619D01*
X463176Y111703D01*
X463226Y111789D01*
X463273Y111877D01*
X463317Y111967D01*
X463357Y112058D01*
X463393Y112151D01*
X463426Y112245D01*
X463455Y112341D01*
X463480Y112437D01*
X463501Y112534D01*
X463519Y112633D01*
X463532Y112731D01*
X463542Y112831D01*
X463548Y112930D01*
X463550Y113030D01*
X463550Y128270D02*
X463548Y128370D01*
X463542Y128469D01*
X463532Y128569D01*
X463519Y128667D01*
X463501Y128766D01*
X463480Y128863D01*
X463455Y128959D01*
X463426Y129055D01*
X463393Y129149D01*
X463357Y129242D01*
X463317Y129333D01*
X463273Y129423D01*
X463226Y129511D01*
X463176Y129597D01*
X463122Y129681D01*
X463065Y129763D01*
X463005Y129842D01*
X462941Y129920D01*
X462875Y129994D01*
X462806Y130066D01*
X462734Y130135D01*
X462660Y130201D01*
X462582Y130265D01*
X462503Y130325D01*
X462421Y130382D01*
X462337Y130436D01*
X462251Y130486D01*
X462163Y130533D01*
X462073Y130577D01*
X461982Y130617D01*
X461889Y130653D01*
X461795Y130686D01*
X461699Y130715D01*
X461603Y130740D01*
X461506Y130761D01*
X461407Y130779D01*
X461309Y130792D01*
X461209Y130802D01*
X461110Y130808D01*
X461010Y130810D01*
X412750Y128270D02*
X412750Y113030D01*
X415290Y130810D02*
X419100Y130810D01*
X420370Y129540D01*
X419100Y110490D02*
X415290Y110490D01*
X419100Y110490D02*
X420370Y111760D01*
X455930Y129540D02*
X457200Y130810D01*
X455930Y129540D02*
X420370Y129540D01*
X455930Y111760D02*
X457200Y110490D01*
X455930Y111760D02*
X420370Y111760D01*
X457200Y130810D02*
X461010Y130810D01*
X461010Y110490D02*
X457200Y110490D01*
X463550Y113030D02*
X463550Y128270D01*
D18*
X465455Y120650D03*
X410845Y120650D03*
D11*
X428752Y122264D02*
X431718Y125230D01*
X431718Y116332D01*
X428752Y116332D02*
X434684Y116332D01*
X437873Y117815D02*
X437873Y123747D01*
X439356Y125230D01*
X442322Y125230D01*
X443805Y123747D01*
X443805Y117815D01*
X442322Y116332D01*
X439356Y116332D01*
X437873Y117815D01*
X443805Y123747D01*
X446995Y125230D02*
X446995Y116332D01*
X446995Y119298D02*
X451443Y116332D01*
X446995Y119298D02*
X451443Y122264D01*
D20*
X506213Y165817D02*
X506617Y164506D01*
X506617Y164507D02*
X506012Y164310D01*
X505412Y164099D01*
X504818Y163873D01*
X504230Y163632D01*
X503647Y163377D01*
X503071Y163108D01*
X502501Y162825D01*
X501939Y162528D01*
X501384Y162218D01*
X500837Y161894D01*
X500298Y161557D01*
X499768Y161206D01*
X499246Y160843D01*
X498733Y160467D01*
X498229Y160079D01*
X497736Y159678D01*
X497252Y159266D01*
X496778Y158842D01*
X496315Y158406D01*
X495863Y157959D01*
X495422Y157501D01*
X494992Y157033D01*
X494573Y156554D01*
X494167Y156065D01*
X493773Y155566D01*
X493390Y155058D01*
X493021Y154540D01*
X492664Y154014D01*
X492320Y153479D01*
X491990Y152936D01*
X491673Y152385D01*
X491369Y151826D01*
X491079Y151260D01*
X490803Y150688D01*
X490542Y150108D01*
X490294Y149522D01*
X490061Y148931D01*
X489842Y148334D01*
X489638Y147732D01*
X489449Y147125D01*
X489275Y146513D01*
X489116Y145897D01*
X488972Y145278D01*
X488843Y144655D01*
X488729Y144030D01*
X488631Y143402D01*
X488548Y142771D01*
X488481Y142139D01*
X488429Y141505D01*
X488392Y140871D01*
X488372Y140235D01*
X488366Y139599D01*
X488376Y138963D01*
X488402Y138328D01*
X488444Y137694D01*
X488500Y137060D01*
X488573Y136429D01*
X488661Y135799D01*
X488764Y135172D01*
X488882Y134547D01*
X489016Y133925D01*
X489165Y133307D01*
X489329Y132693D01*
X489508Y132083D01*
X489701Y131477D01*
X489910Y130876D01*
X490133Y130281D01*
X490371Y129691D01*
X490623Y129108D01*
X490889Y128530D01*
X491170Y127959D01*
X491464Y127396D01*
X491772Y126840D01*
X492093Y126291D01*
X492428Y125750D01*
X492776Y125218D01*
X493137Y124695D01*
X493510Y124180D01*
X493896Y123675D01*
X492819Y122826D01*
X492819Y122825D01*
X492412Y123357D01*
X492019Y123899D01*
X491639Y124450D01*
X491272Y125011D01*
X490920Y125580D01*
X490581Y126158D01*
X490257Y126743D01*
X489947Y127337D01*
X489652Y127938D01*
X489371Y128546D01*
X489106Y129160D01*
X488856Y129781D01*
X488620Y130408D01*
X488401Y131040D01*
X488197Y131678D01*
X488008Y132320D01*
X487835Y132967D01*
X487679Y133618D01*
X487538Y134273D01*
X487413Y134930D01*
X487304Y135591D01*
X487212Y136254D01*
X487136Y136919D01*
X487076Y137586D01*
X487032Y138254D01*
X487005Y138923D01*
X486994Y139593D01*
X487000Y140262D01*
X487022Y140931D01*
X487060Y141600D01*
X487115Y142267D01*
X487186Y142933D01*
X487273Y143597D01*
X487376Y144258D01*
X487496Y144917D01*
X487632Y145572D01*
X487783Y146224D01*
X487951Y146873D01*
X488134Y147516D01*
X488334Y148156D01*
X488548Y148790D01*
X488779Y149419D01*
X489024Y150041D01*
X489285Y150658D01*
X489560Y151268D01*
X489851Y151871D01*
X490156Y152467D01*
X490476Y153056D01*
X490810Y153636D01*
X491158Y154208D01*
X491520Y154771D01*
X491895Y155325D01*
X492285Y155870D01*
X492687Y156405D01*
X493102Y156930D01*
X493530Y157445D01*
X493971Y157949D01*
X494423Y158442D01*
X494888Y158925D01*
X495364Y159395D01*
X495852Y159854D01*
X496351Y160300D01*
X496860Y160735D01*
X497380Y161156D01*
X497910Y161565D01*
X498450Y161961D01*
X499000Y162343D01*
X499559Y162712D01*
X500126Y163067D01*
X500702Y163409D01*
X501287Y163735D01*
X501879Y164048D01*
X502478Y164346D01*
X503085Y164629D01*
X503698Y164897D01*
X504318Y165150D01*
X504944Y165388D01*
X505576Y165611D01*
X506212Y165818D01*
X506254Y165681D01*
X505621Y165475D01*
X504993Y165254D01*
X504370Y165017D01*
X503754Y164765D01*
X503144Y164498D01*
X502540Y164217D01*
X501944Y163920D01*
X501355Y163610D01*
X500773Y163284D01*
X500200Y162945D01*
X499636Y162592D01*
X499080Y162225D01*
X498533Y161845D01*
X497996Y161451D01*
X497469Y161044D01*
X496951Y160625D01*
X496445Y160193D01*
X495949Y159748D01*
X495463Y159292D01*
X494990Y158824D01*
X494527Y158344D01*
X494077Y157854D01*
X493639Y157352D01*
X493213Y156840D01*
X492800Y156318D01*
X492400Y155785D01*
X492013Y155243D01*
X491639Y154692D01*
X491279Y154132D01*
X490933Y153563D01*
X490601Y152986D01*
X490282Y152400D01*
X489979Y151808D01*
X489690Y151208D01*
X489416Y150601D01*
X489156Y149987D01*
X488912Y149368D01*
X488683Y148742D01*
X488470Y148111D01*
X488272Y147476D01*
X488089Y146835D01*
X487922Y146190D01*
X487771Y145542D01*
X487636Y144889D01*
X487517Y144234D01*
X487414Y143576D01*
X487328Y142916D01*
X487257Y142254D01*
X487203Y141590D01*
X487165Y140925D01*
X487143Y140259D01*
X487137Y139593D01*
X487148Y138927D01*
X487175Y138262D01*
X487218Y137597D01*
X487278Y136934D01*
X487354Y136272D01*
X487446Y135613D01*
X487554Y134956D01*
X487678Y134301D01*
X487818Y133650D01*
X487974Y133003D01*
X488146Y132359D01*
X488333Y131720D01*
X488536Y131086D01*
X488755Y130457D01*
X488989Y129833D01*
X489238Y129216D01*
X489502Y128604D01*
X489781Y127999D01*
X490075Y127402D01*
X490383Y126811D01*
X490705Y126229D01*
X491042Y125654D01*
X491393Y125088D01*
X491757Y124530D01*
X492135Y123982D01*
X492527Y123443D01*
X492931Y122914D01*
X493043Y123002D01*
X492641Y123529D01*
X492252Y124065D01*
X491876Y124610D01*
X491513Y125165D01*
X491164Y125728D01*
X490829Y126300D01*
X490509Y126879D01*
X490202Y127467D01*
X489910Y128061D01*
X489632Y128663D01*
X489370Y129271D01*
X489122Y129885D01*
X488889Y130506D01*
X488672Y131131D01*
X488470Y131762D01*
X488283Y132398D01*
X488113Y133038D01*
X487957Y133682D01*
X487818Y134330D01*
X487695Y134981D01*
X487587Y135634D01*
X487496Y136291D01*
X487420Y136949D01*
X487361Y137609D01*
X487318Y138270D01*
X487291Y138932D01*
X487280Y139594D01*
X487286Y140256D01*
X487307Y140919D01*
X487345Y141580D01*
X487399Y142240D01*
X487470Y142899D01*
X487556Y143556D01*
X487658Y144210D01*
X487777Y144862D01*
X487911Y145511D01*
X488061Y146156D01*
X488227Y146798D01*
X488409Y147435D01*
X488606Y148067D01*
X488818Y148695D01*
X489046Y149317D01*
X489289Y149933D01*
X489547Y150543D01*
X489819Y151147D01*
X490107Y151744D01*
X490409Y152334D01*
X490725Y152916D01*
X491056Y153490D01*
X491400Y154056D01*
X491758Y154613D01*
X492130Y155162D01*
X492515Y155701D01*
X492913Y156230D01*
X493324Y156750D01*
X493748Y157259D01*
X494184Y157758D01*
X494631Y158246D01*
X495091Y158723D01*
X495563Y159189D01*
X496045Y159643D01*
X496539Y160085D01*
X497043Y160515D01*
X497557Y160932D01*
X498082Y161336D01*
X498616Y161728D01*
X499160Y162106D01*
X499713Y162471D01*
X500274Y162823D01*
X500845Y163160D01*
X501423Y163484D01*
X502009Y163793D01*
X502602Y164088D01*
X503202Y164368D01*
X503809Y164633D01*
X504422Y164884D01*
X505042Y165119D01*
X505667Y165339D01*
X506297Y165544D01*
X506339Y165408D01*
X505712Y165204D01*
X505091Y164985D01*
X504475Y164751D01*
X503865Y164502D01*
X503261Y164238D01*
X502664Y163959D01*
X502073Y163666D01*
X501491Y163358D01*
X500916Y163036D01*
X500349Y162701D01*
X499790Y162351D01*
X499240Y161988D01*
X498699Y161611D01*
X498168Y161222D01*
X497646Y160819D01*
X497134Y160404D01*
X496632Y159977D01*
X496142Y159537D01*
X495662Y159086D01*
X495193Y158623D01*
X494735Y158148D01*
X494290Y157663D01*
X493856Y157166D01*
X493435Y156660D01*
X493026Y156143D01*
X492630Y155616D01*
X492247Y155080D01*
X491878Y154534D01*
X491521Y153980D01*
X491179Y153417D01*
X490850Y152846D01*
X490535Y152267D01*
X490235Y151680D01*
X489949Y151087D01*
X489678Y150486D01*
X489421Y149879D01*
X489180Y149266D01*
X488953Y148647D01*
X488742Y148023D01*
X488546Y147394D01*
X488365Y146760D01*
X488200Y146122D01*
X488051Y145480D01*
X487917Y144835D01*
X487799Y144187D01*
X487698Y143536D01*
X487612Y142882D01*
X487542Y142227D01*
X487488Y141570D01*
X487450Y140912D01*
X487429Y140254D01*
X487423Y139595D01*
X487434Y138936D01*
X487461Y138277D01*
X487503Y137620D01*
X487562Y136963D01*
X487637Y136309D01*
X487728Y135656D01*
X487835Y135006D01*
X487958Y134358D01*
X488097Y133714D01*
X488251Y133074D01*
X488421Y132437D01*
X488607Y131805D01*
X488807Y131177D01*
X489024Y130554D01*
X489255Y129937D01*
X489501Y129326D01*
X489763Y128721D01*
X490039Y128123D01*
X490329Y127531D01*
X490634Y126947D01*
X490954Y126371D01*
X491287Y125802D01*
X491634Y125242D01*
X491994Y124690D01*
X492368Y124148D01*
X492755Y123615D01*
X493156Y123091D01*
X493268Y123180D01*
X492870Y123700D01*
X492485Y124231D01*
X492113Y124770D01*
X491754Y125319D01*
X491409Y125876D01*
X491078Y126442D01*
X490760Y127015D01*
X490457Y127596D01*
X490168Y128185D01*
X489893Y128780D01*
X489633Y129382D01*
X489388Y129990D01*
X489158Y130603D01*
X488943Y131222D01*
X488743Y131847D01*
X488559Y132476D01*
X488390Y133109D01*
X488236Y133746D01*
X488098Y134387D01*
X487976Y135031D01*
X487870Y135678D01*
X487779Y136327D01*
X487705Y136978D01*
X487646Y137631D01*
X487603Y138285D01*
X487577Y138940D01*
X487566Y139595D01*
X487572Y140251D01*
X487593Y140906D01*
X487631Y141560D01*
X487684Y142214D01*
X487754Y142865D01*
X487839Y143515D01*
X487940Y144163D01*
X488058Y144808D01*
X488190Y145450D01*
X488339Y146088D01*
X488503Y146723D01*
X488683Y147353D01*
X488878Y147979D01*
X489088Y148600D01*
X489313Y149215D01*
X489554Y149825D01*
X489809Y150429D01*
X490079Y151026D01*
X490363Y151617D01*
X490662Y152200D01*
X490975Y152776D01*
X491302Y153344D01*
X491643Y153904D01*
X491997Y154455D01*
X492365Y154998D01*
X492746Y155531D01*
X493139Y156055D01*
X493546Y156569D01*
X493965Y157073D01*
X494396Y157567D01*
X494840Y158050D01*
X495294Y158522D01*
X495761Y158983D01*
X496238Y159432D01*
X496726Y159869D01*
X497225Y160294D01*
X497734Y160707D01*
X498253Y161107D01*
X498782Y161495D01*
X499320Y161869D01*
X499867Y162231D01*
X500423Y162578D01*
X500987Y162912D01*
X501559Y163232D01*
X502138Y163538D01*
X502725Y163830D01*
X503319Y164107D01*
X503920Y164370D01*
X504527Y164618D01*
X505139Y164850D01*
X505758Y165068D01*
X506381Y165271D01*
X506423Y165134D01*
X505803Y164933D01*
X505188Y164716D01*
X504579Y164484D01*
X503975Y164238D01*
X503378Y163977D01*
X502787Y163701D01*
X502203Y163411D01*
X501627Y163106D01*
X501058Y162788D01*
X500497Y162456D01*
X499944Y162110D01*
X499400Y161751D01*
X498865Y161378D01*
X498339Y160993D01*
X497823Y160595D01*
X497316Y160184D01*
X496820Y159761D01*
X496335Y159326D01*
X495860Y158880D01*
X495396Y158421D01*
X494944Y157952D01*
X494503Y157472D01*
X494074Y156981D01*
X493657Y156479D01*
X493253Y155968D01*
X492861Y155447D01*
X492482Y154916D01*
X492116Y154377D01*
X491764Y153828D01*
X491425Y153271D01*
X491100Y152706D01*
X490788Y152133D01*
X490491Y151553D01*
X490208Y150966D01*
X489940Y150371D01*
X489686Y149771D01*
X489447Y149164D01*
X489223Y148552D01*
X489014Y147935D01*
X488820Y147312D01*
X488641Y146685D01*
X488478Y146054D01*
X488330Y145419D01*
X488198Y144781D01*
X488081Y144139D01*
X487981Y143495D01*
X487896Y142849D01*
X487827Y142200D01*
X487773Y141551D01*
X487736Y140900D01*
X487715Y140248D01*
X487709Y139596D01*
X487720Y138944D01*
X487746Y138293D01*
X487789Y137642D01*
X487847Y136993D01*
X487921Y136345D01*
X488011Y135699D01*
X488117Y135056D01*
X488238Y134416D01*
X488375Y133778D01*
X488528Y133144D01*
X488696Y132514D01*
X488880Y131889D01*
X489079Y131268D01*
X489293Y130652D01*
X489521Y130042D01*
X489765Y129437D01*
X490024Y128838D01*
X490297Y128246D01*
X490584Y127661D01*
X490886Y127083D01*
X491202Y126513D01*
X491531Y125950D01*
X491875Y125396D01*
X492231Y124850D01*
X492601Y124314D01*
X492984Y123786D01*
X493380Y123268D01*
X493492Y123357D01*
X493099Y123872D01*
X492718Y124397D01*
X492350Y124930D01*
X491995Y125473D01*
X491654Y126025D01*
X491326Y126584D01*
X491012Y127151D01*
X490712Y127726D01*
X490426Y128308D01*
X490154Y128897D01*
X489897Y129492D01*
X489655Y130094D01*
X489427Y130701D01*
X489214Y131313D01*
X489016Y131931D01*
X488834Y132553D01*
X488667Y133180D01*
X488515Y133810D01*
X488378Y134444D01*
X488258Y135081D01*
X488152Y135721D01*
X488063Y136363D01*
X487989Y137008D01*
X487931Y137653D01*
X487889Y138300D01*
X487863Y138948D01*
X487852Y139597D01*
X487858Y140245D01*
X487879Y140893D01*
X487916Y141541D01*
X487969Y142187D01*
X488038Y142832D01*
X488122Y143475D01*
X488222Y144115D01*
X488338Y144753D01*
X488470Y145388D01*
X488617Y146020D01*
X488779Y146648D01*
X488957Y147271D01*
X489150Y147890D01*
X489358Y148505D01*
X489580Y149114D01*
X489818Y149717D01*
X490071Y150314D01*
X490338Y150905D01*
X490619Y151489D01*
X490915Y152066D01*
X491224Y152636D01*
X491548Y153198D01*
X491885Y153752D01*
X492235Y154298D01*
X492599Y154834D01*
X492976Y155362D01*
X493366Y155880D01*
X493768Y156389D01*
X494183Y156888D01*
X494609Y157376D01*
X495048Y157854D01*
X495498Y158321D01*
X495959Y158776D01*
X496431Y159221D01*
X496914Y159653D01*
X497408Y160074D01*
X497911Y160483D01*
X498425Y160879D01*
X498948Y161262D01*
X499480Y161632D01*
X500021Y161990D01*
X500571Y162334D01*
X501129Y162664D01*
X501695Y162981D01*
X502268Y163283D01*
X502849Y163572D01*
X503436Y163846D01*
X504031Y164106D01*
X504631Y164351D01*
X505237Y164582D01*
X505849Y164797D01*
X506465Y164998D01*
X506507Y164861D01*
X505894Y164662D01*
X505286Y164447D01*
X504683Y164218D01*
X504086Y163974D01*
X503495Y163716D01*
X502911Y163443D01*
X502333Y163156D01*
X501763Y162855D01*
X501200Y162540D01*
X500645Y162211D01*
X500098Y161869D01*
X499560Y161514D01*
X499031Y161145D01*
X498511Y160764D01*
X498000Y160370D01*
X497499Y159964D01*
X497008Y159546D01*
X496528Y159115D01*
X496058Y158673D01*
X495599Y158220D01*
X495152Y157756D01*
X494716Y157281D01*
X494291Y156795D01*
X493879Y156299D01*
X493479Y155793D01*
X493091Y155277D01*
X492717Y154753D01*
X492355Y154219D01*
X492006Y153676D01*
X491671Y153125D01*
X491349Y152566D01*
X491041Y152000D01*
X490747Y151426D01*
X490467Y150845D01*
X490202Y150257D01*
X489951Y149663D01*
X489714Y149063D01*
X489492Y148457D01*
X489286Y147846D01*
X489094Y147230D01*
X488917Y146610D01*
X488756Y145986D01*
X488609Y145358D01*
X488479Y144726D01*
X488363Y144092D01*
X488264Y143454D01*
X488180Y142815D01*
X488111Y142174D01*
X488059Y141531D01*
X488022Y140887D01*
X488001Y140242D01*
X487995Y139597D01*
X488006Y138953D01*
X488032Y138308D01*
X488074Y137665D01*
X488131Y137022D01*
X488205Y136382D01*
X488294Y135743D01*
X488398Y135106D01*
X488519Y134473D01*
X488654Y133842D01*
X488805Y133215D01*
X488972Y132592D01*
X489153Y131973D01*
X489350Y131359D01*
X489561Y130750D01*
X489788Y130146D01*
X490029Y129548D01*
X490285Y128956D01*
X490555Y128370D01*
X490839Y127791D01*
X491138Y127219D01*
X491450Y126655D01*
X491776Y126099D01*
X492115Y125550D01*
X492468Y125011D01*
X492834Y124479D01*
X493213Y123958D01*
X493605Y123445D01*
X493717Y123534D01*
X493328Y124043D01*
X492951Y124562D01*
X492587Y125091D01*
X492236Y125627D01*
X491898Y126173D01*
X491574Y126726D01*
X491263Y127287D01*
X490966Y127856D01*
X490684Y128432D01*
X490415Y129014D01*
X490161Y129603D01*
X489921Y130198D01*
X489696Y130799D01*
X489485Y131404D01*
X489290Y132015D01*
X489109Y132631D01*
X488944Y133251D01*
X488794Y133874D01*
X488659Y134501D01*
X488539Y135131D01*
X488435Y135764D01*
X488347Y136400D01*
X488274Y137037D01*
X488216Y137676D01*
X488175Y138316D01*
X488149Y138957D01*
X488138Y139598D01*
X488144Y140240D01*
X488165Y140881D01*
X488201Y141521D01*
X488254Y142160D01*
X488322Y142798D01*
X488405Y143434D01*
X488504Y144068D01*
X488619Y144699D01*
X488749Y145327D01*
X488894Y145952D01*
X489055Y146573D01*
X489231Y147190D01*
X489422Y147802D01*
X489627Y148410D01*
X489848Y149012D01*
X490083Y149609D01*
X490333Y150200D01*
X490597Y150784D01*
X490875Y151362D01*
X491168Y151933D01*
X491474Y152496D01*
X491794Y153052D01*
X492127Y153600D01*
X492474Y154140D01*
X492834Y154671D01*
X493207Y155193D01*
X493592Y155706D01*
X493990Y156209D01*
X494400Y156702D01*
X494822Y157185D01*
X495256Y157658D01*
X495701Y158119D01*
X496157Y158570D01*
X496624Y159010D01*
X497102Y159438D01*
X497590Y159854D01*
X498088Y160258D01*
X498596Y160650D01*
X499114Y161029D01*
X499640Y161395D01*
X500175Y161749D01*
X500719Y162089D01*
X501271Y162416D01*
X501831Y162729D01*
X502398Y163028D01*
X502972Y163314D01*
X503554Y163585D01*
X504141Y163842D01*
X504735Y164085D01*
X505335Y164313D01*
X505940Y164526D01*
X506550Y164724D01*
X506592Y164588D01*
X505985Y164391D01*
X505383Y164178D01*
X504787Y163952D01*
X504197Y163710D01*
X503612Y163455D01*
X503034Y163185D01*
X502463Y162901D01*
X501899Y162603D01*
X501342Y162292D01*
X500793Y161967D01*
X500252Y161628D01*
X499720Y161277D01*
X499196Y160912D01*
X498682Y160535D01*
X498177Y160146D01*
X497681Y159744D01*
X497196Y159330D01*
X496721Y158904D01*
X496256Y158467D01*
X495802Y158019D01*
X495360Y157560D01*
X494928Y157089D01*
X494509Y156609D01*
X494101Y156119D01*
X493705Y155618D01*
X493322Y155108D01*
X492951Y154589D01*
X492593Y154061D01*
X492248Y153524D01*
X491917Y152979D01*
X491599Y152427D01*
X491294Y151866D01*
X491003Y151298D01*
X490726Y150724D01*
X490464Y150142D01*
X490215Y149555D01*
X489981Y148961D01*
X489762Y148362D01*
X489558Y147758D01*
X489368Y147149D01*
X489193Y146535D01*
X489033Y145918D01*
X488889Y145296D01*
X488759Y144672D01*
X488645Y144044D01*
X488547Y143414D01*
X488464Y142781D01*
X488396Y142147D01*
X488344Y141511D01*
X488307Y140874D01*
X488287Y140237D01*
X488281Y139599D01*
X488291Y138961D01*
X488317Y138324D01*
X488359Y137687D01*
X488416Y137052D01*
X488488Y136418D01*
X488576Y135786D01*
X488680Y135157D01*
X488799Y134530D01*
X488933Y133906D01*
X489082Y133286D01*
X489247Y132670D01*
X489426Y132058D01*
X489621Y131450D01*
X489830Y130847D01*
X490054Y130250D01*
X490293Y129658D01*
X490545Y129073D01*
X490813Y128493D01*
X491094Y127921D01*
X491389Y127355D01*
X491698Y126797D01*
X492021Y126247D01*
X492356Y125705D01*
X492705Y125171D01*
X493067Y124645D01*
X493442Y124129D01*
X493829Y123622D01*
X535881Y122825D02*
X534803Y123675D01*
X534804Y123674D02*
X535190Y124180D01*
X535563Y124694D01*
X535924Y125218D01*
X536272Y125750D01*
X536607Y126290D01*
X536928Y126839D01*
X537236Y127395D01*
X537530Y127959D01*
X537810Y128530D01*
X538077Y129107D01*
X538329Y129691D01*
X538567Y130281D01*
X538790Y130876D01*
X538998Y131477D01*
X539192Y132082D01*
X539371Y132692D01*
X539535Y133307D01*
X539684Y133925D01*
X539818Y134546D01*
X539936Y135171D01*
X540039Y135799D01*
X540127Y136428D01*
X540200Y137060D01*
X540256Y137693D01*
X540298Y138328D01*
X540324Y138963D01*
X540334Y139599D01*
X540328Y140235D01*
X540308Y140870D01*
X540271Y141505D01*
X540219Y142139D01*
X540152Y142771D01*
X540069Y143401D01*
X539971Y144029D01*
X539857Y144655D01*
X539728Y145278D01*
X539584Y145897D01*
X539425Y146513D01*
X539251Y147124D01*
X539062Y147731D01*
X538858Y148333D01*
X538639Y148931D01*
X538406Y149522D01*
X538159Y150108D01*
X537897Y150687D01*
X537621Y151260D01*
X537331Y151826D01*
X537027Y152385D01*
X536710Y152936D01*
X536380Y153479D01*
X536036Y154014D01*
X535679Y154540D01*
X535310Y155058D01*
X534928Y155566D01*
X534533Y156065D01*
X534127Y156554D01*
X533709Y157032D01*
X533279Y157501D01*
X532837Y157959D01*
X532385Y158406D01*
X531922Y158841D01*
X531448Y159266D01*
X530965Y159678D01*
X530471Y160079D01*
X529967Y160467D01*
X529454Y160843D01*
X528933Y161206D01*
X528402Y161557D01*
X527863Y161894D01*
X527316Y162218D01*
X526761Y162528D01*
X526199Y162825D01*
X525629Y163108D01*
X525053Y163377D01*
X524471Y163632D01*
X523882Y163872D01*
X523288Y164098D01*
X522688Y164310D01*
X522083Y164506D01*
X522487Y165817D01*
X522488Y165818D01*
X523125Y165611D01*
X523756Y165388D01*
X524382Y165150D01*
X525002Y164897D01*
X525615Y164629D01*
X526222Y164346D01*
X526821Y164048D01*
X527414Y163735D01*
X527998Y163408D01*
X528574Y163067D01*
X529142Y162712D01*
X529700Y162343D01*
X530250Y161961D01*
X530790Y161565D01*
X531320Y161156D01*
X531840Y160735D01*
X532350Y160300D01*
X532848Y159854D01*
X533336Y159395D01*
X533812Y158924D01*
X534277Y158442D01*
X534730Y157949D01*
X535170Y157445D01*
X535598Y156930D01*
X536013Y156405D01*
X536416Y155870D01*
X536805Y155325D01*
X537180Y154771D01*
X537542Y154207D01*
X537890Y153635D01*
X538224Y153055D01*
X538544Y152467D01*
X538849Y151871D01*
X539140Y151268D01*
X539415Y150658D01*
X539676Y150041D01*
X539922Y149418D01*
X540152Y148789D01*
X540367Y148155D01*
X540566Y147516D01*
X540749Y146872D01*
X540917Y146224D01*
X541068Y145572D01*
X541204Y144916D01*
X541324Y144258D01*
X541427Y143596D01*
X541514Y142932D01*
X541585Y142267D01*
X541640Y141599D01*
X541678Y140931D01*
X541700Y140262D01*
X541706Y139592D01*
X541695Y138923D01*
X541668Y138254D01*
X541624Y137586D01*
X541564Y136919D01*
X541488Y136254D01*
X541396Y135591D01*
X541287Y134930D01*
X541162Y134272D01*
X541021Y133618D01*
X540864Y132967D01*
X540692Y132320D01*
X540503Y131678D01*
X540299Y131040D01*
X540079Y130407D01*
X539844Y129781D01*
X539594Y129160D01*
X539328Y128545D01*
X539048Y127937D01*
X538753Y127336D01*
X538443Y126743D01*
X538118Y126157D01*
X537780Y125579D01*
X537427Y125010D01*
X537061Y124450D01*
X536681Y123899D01*
X536288Y123357D01*
X535881Y122825D01*
X535769Y122914D01*
X536173Y123443D01*
X536564Y123982D01*
X536942Y124530D01*
X537307Y125087D01*
X537658Y125654D01*
X537994Y126228D01*
X538317Y126811D01*
X538625Y127401D01*
X538919Y127999D01*
X539198Y128604D01*
X539462Y129215D01*
X539711Y129833D01*
X539945Y130456D01*
X540163Y131085D01*
X540367Y131720D01*
X540554Y132359D01*
X540726Y133002D01*
X540882Y133650D01*
X541022Y134301D01*
X541146Y134955D01*
X541254Y135612D01*
X541346Y136272D01*
X541422Y136934D01*
X541482Y137597D01*
X541525Y138262D01*
X541552Y138927D01*
X541563Y139593D01*
X541557Y140259D01*
X541535Y140925D01*
X541497Y141589D01*
X541443Y142253D01*
X541372Y142915D01*
X541286Y143576D01*
X541183Y144234D01*
X541064Y144889D01*
X540929Y145541D01*
X540778Y146190D01*
X540611Y146835D01*
X540429Y147475D01*
X540231Y148111D01*
X540017Y148742D01*
X539788Y149367D01*
X539544Y149987D01*
X539284Y150600D01*
X539010Y151207D01*
X538721Y151807D01*
X538418Y152400D01*
X538100Y152985D01*
X537767Y153563D01*
X537421Y154131D01*
X537061Y154692D01*
X536687Y155243D01*
X536300Y155785D01*
X535900Y156317D01*
X535487Y156840D01*
X535061Y157352D01*
X534623Y157853D01*
X534173Y158344D01*
X533711Y158824D01*
X533237Y159292D01*
X532752Y159748D01*
X532256Y160192D01*
X531749Y160624D01*
X531231Y161044D01*
X530704Y161451D01*
X530167Y161844D01*
X529620Y162225D01*
X529064Y162592D01*
X528500Y162945D01*
X527927Y163284D01*
X527346Y163609D01*
X526757Y163920D01*
X526160Y164217D01*
X525557Y164498D01*
X524946Y164765D01*
X524330Y165017D01*
X523707Y165254D01*
X523079Y165475D01*
X522446Y165681D01*
X522404Y165544D01*
X523034Y165339D01*
X523659Y165119D01*
X524278Y164884D01*
X524891Y164633D01*
X525498Y164368D01*
X526098Y164088D01*
X526692Y163793D01*
X527278Y163484D01*
X527856Y163160D01*
X528426Y162823D01*
X528987Y162471D01*
X529540Y162106D01*
X530084Y161728D01*
X530618Y161336D01*
X531143Y160932D01*
X531658Y160514D01*
X532162Y160085D01*
X532655Y159643D01*
X533138Y159189D01*
X533609Y158723D01*
X534069Y158246D01*
X534517Y157758D01*
X534953Y157259D01*
X535376Y156750D01*
X535787Y156230D01*
X536185Y155700D01*
X536570Y155161D01*
X536942Y154613D01*
X537300Y154056D01*
X537644Y153490D01*
X537975Y152915D01*
X538291Y152333D01*
X538593Y151744D01*
X538881Y151147D01*
X539153Y150543D01*
X539411Y149933D01*
X539654Y149317D01*
X539882Y148694D01*
X540095Y148067D01*
X540292Y147434D01*
X540473Y146797D01*
X540639Y146156D01*
X540789Y145511D01*
X540923Y144862D01*
X541042Y144210D01*
X541144Y143555D01*
X541230Y142899D01*
X541301Y142240D01*
X541355Y141580D01*
X541393Y140918D01*
X541414Y140256D01*
X541420Y139594D01*
X541409Y138931D01*
X541382Y138269D01*
X541339Y137608D01*
X541280Y136948D01*
X541204Y136290D01*
X541113Y135634D01*
X541005Y134980D01*
X540882Y134329D01*
X540743Y133682D01*
X540587Y133038D01*
X540416Y132398D01*
X540230Y131762D01*
X540028Y131131D01*
X539811Y130505D01*
X539578Y129885D01*
X539330Y129270D01*
X539067Y128662D01*
X538790Y128061D01*
X538498Y127466D01*
X538191Y126879D01*
X537870Y126299D01*
X537535Y125728D01*
X537186Y125164D01*
X536824Y124610D01*
X536448Y124065D01*
X536059Y123528D01*
X535656Y123002D01*
X535544Y123091D01*
X535944Y123614D01*
X536331Y124147D01*
X536705Y124690D01*
X537066Y125242D01*
X537413Y125802D01*
X537746Y126370D01*
X538065Y126947D01*
X538370Y127531D01*
X538661Y128122D01*
X538937Y128721D01*
X539198Y129326D01*
X539445Y129937D01*
X539676Y130554D01*
X539892Y131176D01*
X540093Y131804D01*
X540279Y132436D01*
X540449Y133073D01*
X540603Y133714D01*
X540742Y134358D01*
X540865Y135005D01*
X540972Y135656D01*
X541063Y136308D01*
X541138Y136963D01*
X541196Y137619D01*
X541239Y138277D01*
X541266Y138935D01*
X541277Y139594D01*
X541271Y140253D01*
X541250Y140912D01*
X541212Y141570D01*
X541158Y142227D01*
X541088Y142882D01*
X541002Y143535D01*
X540901Y144186D01*
X540783Y144835D01*
X540649Y145480D01*
X540500Y146122D01*
X540335Y146760D01*
X540155Y147394D01*
X539959Y148023D01*
X539747Y148647D01*
X539521Y149266D01*
X539279Y149879D01*
X539022Y150486D01*
X538751Y151086D01*
X538465Y151680D01*
X538165Y152267D01*
X537850Y152846D01*
X537521Y153417D01*
X537179Y153980D01*
X536823Y154534D01*
X536453Y155079D01*
X536070Y155616D01*
X535674Y156142D01*
X535265Y156659D01*
X534844Y157166D01*
X534410Y157662D01*
X533965Y158148D01*
X533507Y158622D01*
X533039Y159086D01*
X532559Y159537D01*
X532068Y159977D01*
X531566Y160404D01*
X531054Y160819D01*
X530533Y161222D01*
X530001Y161611D01*
X529460Y161988D01*
X528910Y162351D01*
X528352Y162700D01*
X527785Y163036D01*
X527210Y163358D01*
X526627Y163665D01*
X526037Y163959D01*
X525439Y164237D01*
X524836Y164501D01*
X524226Y164751D01*
X523610Y164985D01*
X522988Y165204D01*
X522361Y165408D01*
X522319Y165271D01*
X522943Y165068D01*
X523561Y164850D01*
X524174Y164617D01*
X524780Y164370D01*
X525381Y164107D01*
X525975Y163830D01*
X526562Y163538D01*
X527142Y163232D01*
X527714Y162912D01*
X528278Y162578D01*
X528833Y162230D01*
X529380Y161869D01*
X529918Y161495D01*
X530447Y161107D01*
X530966Y160707D01*
X531475Y160294D01*
X531974Y159869D01*
X532462Y159432D01*
X532940Y158982D01*
X533406Y158522D01*
X533861Y158050D01*
X534304Y157567D01*
X534735Y157073D01*
X535154Y156569D01*
X535561Y156055D01*
X535955Y155531D01*
X536336Y154998D01*
X536703Y154455D01*
X537058Y153904D01*
X537398Y153344D01*
X537725Y152776D01*
X538038Y152200D01*
X538337Y151616D01*
X538622Y151026D01*
X538891Y150428D01*
X539147Y149825D01*
X539387Y149215D01*
X539612Y148599D01*
X539823Y147978D01*
X540017Y147353D01*
X540197Y146722D01*
X540361Y146088D01*
X540510Y145449D01*
X540643Y144807D01*
X540760Y144162D01*
X540861Y143515D01*
X540946Y142865D01*
X541016Y142213D01*
X541069Y141560D01*
X541107Y140906D01*
X541128Y140250D01*
X541134Y139595D01*
X541123Y138940D01*
X541097Y138285D01*
X541054Y137631D01*
X540995Y136978D01*
X540921Y136327D01*
X540830Y135677D01*
X540724Y135031D01*
X540602Y134387D01*
X540464Y133746D01*
X540310Y133108D01*
X540141Y132475D01*
X539957Y131846D01*
X539757Y131222D01*
X539542Y130603D01*
X539312Y129989D01*
X539066Y129381D01*
X538807Y128779D01*
X538532Y128184D01*
X538243Y127596D01*
X537940Y127015D01*
X537622Y126441D01*
X537291Y125876D01*
X536946Y125319D01*
X536587Y124770D01*
X536215Y124230D01*
X535830Y123700D01*
X535432Y123179D01*
X535319Y123268D01*
X535715Y123786D01*
X536098Y124313D01*
X536468Y124850D01*
X536825Y125396D01*
X537168Y125950D01*
X537498Y126512D01*
X537814Y127083D01*
X538116Y127661D01*
X538403Y128246D01*
X538676Y128838D01*
X538935Y129436D01*
X539178Y130041D01*
X539407Y130652D01*
X539621Y131267D01*
X539820Y131888D01*
X540004Y132514D01*
X540172Y133144D01*
X540324Y133778D01*
X540462Y134415D01*
X540583Y135056D01*
X540689Y135699D01*
X540779Y136345D01*
X540853Y136992D01*
X540911Y137642D01*
X540954Y138292D01*
X540980Y138944D01*
X540991Y139596D01*
X540985Y140248D01*
X540964Y140899D01*
X540927Y141550D01*
X540873Y142200D01*
X540804Y142848D01*
X540719Y143495D01*
X540619Y144139D01*
X540502Y144780D01*
X540370Y145419D01*
X540222Y146054D01*
X540059Y146685D01*
X539880Y147312D01*
X539687Y147934D01*
X539477Y148552D01*
X539253Y149164D01*
X539014Y149771D01*
X538760Y150371D01*
X538492Y150965D01*
X538209Y151553D01*
X537912Y152133D01*
X537601Y152706D01*
X537275Y153271D01*
X536936Y153828D01*
X536584Y154376D01*
X536218Y154916D01*
X535839Y155446D01*
X535448Y155968D01*
X535043Y156479D01*
X534626Y156980D01*
X534197Y157471D01*
X533757Y157952D01*
X533304Y158421D01*
X532840Y158879D01*
X532366Y159326D01*
X531880Y159761D01*
X531384Y160184D01*
X530877Y160595D01*
X530361Y160993D01*
X529835Y161378D01*
X529300Y161751D01*
X528756Y162110D01*
X528203Y162456D01*
X527642Y162788D01*
X527074Y163106D01*
X526497Y163411D01*
X525913Y163701D01*
X525322Y163977D01*
X524725Y164238D01*
X524121Y164484D01*
X523512Y164716D01*
X522897Y164933D01*
X522277Y165134D01*
X522235Y164998D01*
X522852Y164797D01*
X523463Y164582D01*
X524069Y164351D01*
X524670Y164106D01*
X525264Y163846D01*
X525851Y163572D01*
X526432Y163283D01*
X527006Y162980D01*
X527571Y162664D01*
X528129Y162333D01*
X528679Y161989D01*
X529220Y161632D01*
X529752Y161262D01*
X530275Y160878D01*
X530789Y160482D01*
X531293Y160074D01*
X531786Y159653D01*
X532269Y159221D01*
X532741Y158776D01*
X533203Y158320D01*
X533653Y157854D01*
X534091Y157376D01*
X534518Y156887D01*
X534932Y156389D01*
X535334Y155880D01*
X535724Y155362D01*
X536101Y154834D01*
X536465Y154297D01*
X536815Y153752D01*
X537152Y153198D01*
X537476Y152636D01*
X537786Y152066D01*
X538081Y151489D01*
X538362Y150905D01*
X538629Y150314D01*
X538882Y149717D01*
X539120Y149113D01*
X539343Y148504D01*
X539551Y147890D01*
X539743Y147271D01*
X539921Y146647D01*
X540083Y146020D01*
X540230Y145388D01*
X540362Y144753D01*
X540478Y144115D01*
X540578Y143474D01*
X540662Y142831D01*
X540731Y142187D01*
X540784Y141540D01*
X540821Y140893D01*
X540842Y140245D01*
X540848Y139596D01*
X540837Y138948D01*
X540811Y138300D01*
X540769Y137653D01*
X540711Y137007D01*
X540637Y136363D01*
X540547Y135721D01*
X540442Y135081D01*
X540321Y134444D01*
X540185Y133810D01*
X540033Y133179D01*
X539866Y132553D01*
X539683Y131931D01*
X539486Y131313D01*
X539273Y130700D01*
X539045Y130093D01*
X538803Y129492D01*
X538546Y128897D01*
X538274Y128308D01*
X537988Y127726D01*
X537688Y127151D01*
X537374Y126584D01*
X537046Y126024D01*
X536705Y125473D01*
X536350Y124930D01*
X535982Y124396D01*
X535601Y123871D01*
X535207Y123356D01*
X535095Y123445D01*
X535486Y123957D01*
X535865Y124479D01*
X536231Y125010D01*
X536584Y125550D01*
X536924Y126098D01*
X537250Y126655D01*
X537562Y127219D01*
X537861Y127791D01*
X538145Y128369D01*
X538415Y128955D01*
X538671Y129547D01*
X538912Y130145D01*
X539139Y130749D01*
X539350Y131359D01*
X539547Y131973D01*
X539728Y132592D01*
X539895Y133215D01*
X540046Y133842D01*
X540181Y134472D01*
X540301Y135106D01*
X540406Y135742D01*
X540495Y136381D01*
X540569Y137022D01*
X540626Y137664D01*
X540668Y138308D01*
X540694Y138952D01*
X540705Y139597D01*
X540699Y140242D01*
X540678Y140887D01*
X540641Y141530D01*
X540589Y142173D01*
X540520Y142815D01*
X540436Y143454D01*
X540337Y144091D01*
X540221Y144726D01*
X540091Y145357D01*
X539945Y145985D01*
X539783Y146610D01*
X539606Y147230D01*
X539415Y147846D01*
X539208Y148457D01*
X538986Y149062D01*
X538750Y149662D01*
X538498Y150256D01*
X538233Y150844D01*
X537953Y151425D01*
X537659Y151999D01*
X537351Y152566D01*
X537029Y153125D01*
X536694Y153676D01*
X536345Y154218D01*
X535984Y154752D01*
X535609Y155277D01*
X535221Y155793D01*
X534821Y156299D01*
X534409Y156795D01*
X533985Y157280D01*
X533549Y157755D01*
X533101Y158220D01*
X532642Y158673D01*
X532172Y159115D01*
X531692Y159545D01*
X531201Y159964D01*
X530700Y160370D01*
X530190Y160764D01*
X529670Y161145D01*
X529140Y161514D01*
X528602Y161869D01*
X528055Y162211D01*
X527500Y162540D01*
X526938Y162855D01*
X526367Y163156D01*
X525790Y163443D01*
X525205Y163716D01*
X524614Y163974D01*
X524017Y164218D01*
X523414Y164447D01*
X522806Y164662D01*
X522193Y164861D01*
X522151Y164724D01*
X522761Y164526D01*
X523366Y164313D01*
X523965Y164085D01*
X524559Y163842D01*
X525147Y163585D01*
X525728Y163314D01*
X526302Y163028D01*
X526870Y162729D01*
X527429Y162416D01*
X527981Y162089D01*
X528525Y161749D01*
X529060Y161395D01*
X529587Y161029D01*
X530104Y160649D01*
X530612Y160258D01*
X531110Y159854D01*
X531598Y159438D01*
X532076Y159010D01*
X532543Y158570D01*
X532999Y158119D01*
X533445Y157657D01*
X533878Y157185D01*
X534300Y156702D01*
X534710Y156208D01*
X535108Y155705D01*
X535494Y155193D01*
X535866Y154671D01*
X536226Y154140D01*
X536573Y153600D01*
X536906Y153052D01*
X537226Y152496D01*
X537533Y151933D01*
X537825Y151362D01*
X538103Y150784D01*
X538367Y150199D01*
X538617Y149608D01*
X538852Y149012D01*
X539073Y148409D01*
X539279Y147802D01*
X539469Y147189D01*
X539645Y146572D01*
X539806Y145951D01*
X539951Y145327D01*
X540081Y144699D01*
X540196Y144067D01*
X540295Y143434D01*
X540378Y142798D01*
X540446Y142160D01*
X540499Y141521D01*
X540535Y140880D01*
X540556Y140239D01*
X540562Y139598D01*
X540551Y138956D01*
X540525Y138315D01*
X540484Y137675D01*
X540426Y137037D01*
X540353Y136399D01*
X540265Y135764D01*
X540161Y135131D01*
X540041Y134501D01*
X539906Y133874D01*
X539756Y133250D01*
X539591Y132630D01*
X539410Y132015D01*
X539215Y131404D01*
X539004Y130798D01*
X538779Y130197D01*
X538539Y129603D01*
X538285Y129014D01*
X538016Y128431D01*
X537733Y127856D01*
X537436Y127287D01*
X537126Y126726D01*
X536802Y126172D01*
X536464Y125627D01*
X536113Y125090D01*
X535749Y124562D01*
X535372Y124043D01*
X534983Y123533D01*
X534870Y123622D01*
X535258Y124129D01*
X535632Y124645D01*
X535994Y125170D01*
X536343Y125704D01*
X536679Y126246D01*
X537002Y126797D01*
X537311Y127355D01*
X537606Y127920D01*
X537887Y128493D01*
X538154Y129072D01*
X538407Y129658D01*
X538646Y130250D01*
X538870Y130847D01*
X539079Y131450D01*
X539273Y132057D01*
X539453Y132669D01*
X539618Y133286D01*
X539767Y133906D01*
X539901Y134529D01*
X540020Y135156D01*
X540123Y135786D01*
X540212Y136417D01*
X540284Y137051D01*
X540341Y137687D01*
X540383Y138323D01*
X540409Y138961D01*
X540419Y139598D01*
X540413Y140236D01*
X540393Y140874D01*
X540356Y141511D01*
X540304Y142147D01*
X540236Y142781D01*
X540153Y143413D01*
X540055Y144044D01*
X539941Y144671D01*
X539811Y145296D01*
X539667Y145917D01*
X539507Y146535D01*
X539332Y147148D01*
X539143Y147757D01*
X538938Y148362D01*
X538719Y148961D01*
X538485Y149554D01*
X538236Y150142D01*
X537974Y150723D01*
X537697Y151298D01*
X537406Y151866D01*
X537102Y152426D01*
X536783Y152979D01*
X536452Y153524D01*
X536107Y154061D01*
X535749Y154589D01*
X535378Y155108D01*
X534995Y155618D01*
X534599Y156118D01*
X534191Y156609D01*
X533772Y157089D01*
X533341Y157559D01*
X532898Y158019D01*
X532444Y158467D01*
X531979Y158904D01*
X531504Y159330D01*
X531019Y159744D01*
X530523Y160145D01*
X530018Y160535D01*
X529504Y160912D01*
X528980Y161277D01*
X528448Y161628D01*
X527907Y161967D01*
X527358Y162292D01*
X526801Y162603D01*
X526237Y162901D01*
X525666Y163185D01*
X525088Y163455D01*
X524504Y163710D01*
X523913Y163952D01*
X523317Y164178D01*
X522715Y164390D01*
X522109Y164588D01*
D10*
X535295Y123190D02*
X493405Y123190D01*
X491813Y137160D02*
X511487Y137160D01*
X491813Y137160D02*
X487801Y137160D01*
X511487Y137160D02*
X517213Y137160D01*
X536887Y137160D02*
X540899Y137160D01*
X536887Y137160D02*
X517213Y137160D01*
D20*
X522342Y165862D02*
X521937Y164551D01*
X521938Y164551D02*
X521347Y164724D01*
X520752Y164883D01*
X520153Y165028D01*
X519551Y165158D01*
X518946Y165274D01*
X518338Y165376D01*
X517728Y165463D01*
X517117Y165536D01*
X516504Y165595D01*
X515889Y165638D01*
X515274Y165668D01*
X514658Y165682D01*
X514042Y165682D01*
X513426Y165668D01*
X512811Y165638D01*
X512196Y165595D01*
X511583Y165536D01*
X510972Y165463D01*
X510362Y165376D01*
X509754Y165274D01*
X509149Y165158D01*
X508547Y165028D01*
X507948Y164883D01*
X507353Y164724D01*
X506762Y164551D01*
X506358Y165862D01*
X506980Y166045D01*
X507607Y166212D01*
X508238Y166364D01*
X508872Y166502D01*
X509509Y166624D01*
X510149Y166732D01*
X510791Y166824D01*
X511436Y166900D01*
X512082Y166962D01*
X512729Y167008D01*
X513377Y167039D01*
X514026Y167054D01*
X514674Y167054D01*
X515323Y167039D01*
X515971Y167008D01*
X516618Y166962D01*
X517264Y166900D01*
X517909Y166824D01*
X518551Y166732D01*
X519191Y166624D01*
X519828Y166502D01*
X520462Y166364D01*
X521093Y166212D01*
X521720Y166045D01*
X522342Y165862D01*
X522300Y165726D01*
X521681Y165907D01*
X521057Y166073D01*
X520430Y166225D01*
X519799Y166362D01*
X519165Y166484D01*
X518529Y166590D01*
X517890Y166682D01*
X517249Y166758D01*
X516606Y166819D01*
X515963Y166865D01*
X515318Y166896D01*
X514673Y166911D01*
X514027Y166911D01*
X513382Y166896D01*
X512737Y166865D01*
X512094Y166819D01*
X511451Y166758D01*
X510810Y166682D01*
X510171Y166590D01*
X509535Y166484D01*
X508901Y166362D01*
X508270Y166225D01*
X507643Y166073D01*
X507019Y165907D01*
X506400Y165726D01*
X506442Y165589D01*
X507058Y165769D01*
X507678Y165935D01*
X508302Y166086D01*
X508930Y166222D01*
X509560Y166343D01*
X510193Y166449D01*
X510829Y166540D01*
X511466Y166616D01*
X512106Y166677D01*
X512746Y166722D01*
X513387Y166753D01*
X514029Y166768D01*
X514671Y166768D01*
X515313Y166753D01*
X515954Y166722D01*
X516594Y166677D01*
X517234Y166616D01*
X517871Y166540D01*
X518507Y166449D01*
X519140Y166343D01*
X519770Y166222D01*
X520398Y166086D01*
X521022Y165935D01*
X521642Y165769D01*
X522258Y165589D01*
X522216Y165452D01*
X521603Y165632D01*
X520986Y165796D01*
X520365Y165946D01*
X519741Y166082D01*
X519114Y166202D01*
X518484Y166308D01*
X517852Y166398D01*
X517218Y166474D01*
X516583Y166534D01*
X515946Y166580D01*
X515308Y166610D01*
X514669Y166625D01*
X514031Y166625D01*
X513392Y166610D01*
X512754Y166580D01*
X512117Y166534D01*
X511482Y166474D01*
X510848Y166398D01*
X510216Y166308D01*
X509586Y166202D01*
X508959Y166082D01*
X508335Y165946D01*
X507714Y165796D01*
X507097Y165632D01*
X506484Y165452D01*
X506526Y165316D01*
X507136Y165494D01*
X507749Y165658D01*
X508367Y165807D01*
X508988Y165942D01*
X509611Y166061D01*
X510238Y166166D01*
X510866Y166257D01*
X511497Y166332D01*
X512129Y166392D01*
X512763Y166437D01*
X513397Y166467D01*
X514032Y166482D01*
X514668Y166482D01*
X515303Y166467D01*
X515937Y166437D01*
X516571Y166392D01*
X517203Y166332D01*
X517834Y166257D01*
X518462Y166166D01*
X519089Y166061D01*
X519712Y165942D01*
X520333Y165807D01*
X520951Y165658D01*
X521564Y165494D01*
X522174Y165316D01*
X522132Y165179D01*
X521525Y165357D01*
X520915Y165519D01*
X520301Y165668D01*
X519684Y165802D01*
X519063Y165921D01*
X518440Y166025D01*
X517815Y166115D01*
X517187Y166189D01*
X516559Y166249D01*
X515928Y166294D01*
X515297Y166324D01*
X514666Y166339D01*
X514034Y166339D01*
X513403Y166324D01*
X512772Y166294D01*
X512141Y166249D01*
X511513Y166189D01*
X510885Y166115D01*
X510260Y166025D01*
X509637Y165921D01*
X509016Y165802D01*
X508399Y165668D01*
X507785Y165519D01*
X507175Y165357D01*
X506568Y165179D01*
X506610Y165043D01*
X507214Y165219D01*
X507821Y165381D01*
X508431Y165529D01*
X509045Y165662D01*
X509662Y165780D01*
X510282Y165884D01*
X510904Y165973D01*
X511528Y166047D01*
X512153Y166107D01*
X512780Y166151D01*
X513408Y166181D01*
X514036Y166196D01*
X514664Y166196D01*
X515292Y166181D01*
X515920Y166151D01*
X516547Y166107D01*
X517172Y166047D01*
X517796Y165973D01*
X518418Y165884D01*
X519038Y165780D01*
X519655Y165662D01*
X520269Y165529D01*
X520879Y165381D01*
X521486Y165219D01*
X522090Y165043D01*
X522047Y164906D01*
X521448Y165081D01*
X520844Y165242D01*
X520236Y165389D01*
X519626Y165522D01*
X519012Y165639D01*
X518396Y165743D01*
X517777Y165831D01*
X517157Y165905D01*
X516535Y165964D01*
X515911Y166009D01*
X515287Y166038D01*
X514662Y166053D01*
X514038Y166053D01*
X513413Y166038D01*
X512789Y166009D01*
X512165Y165964D01*
X511543Y165905D01*
X510923Y165831D01*
X510304Y165743D01*
X509688Y165639D01*
X509074Y165522D01*
X508464Y165389D01*
X507856Y165242D01*
X507252Y165081D01*
X506653Y164906D01*
X506695Y164769D01*
X507291Y164944D01*
X507892Y165104D01*
X508496Y165250D01*
X509103Y165382D01*
X509713Y165499D01*
X510326Y165601D01*
X510942Y165689D01*
X511559Y165763D01*
X512177Y165822D01*
X512797Y165866D01*
X513418Y165895D01*
X514039Y165910D01*
X514661Y165910D01*
X515282Y165895D01*
X515903Y165866D01*
X516523Y165822D01*
X517141Y165763D01*
X517758Y165689D01*
X518374Y165601D01*
X518987Y165499D01*
X519597Y165382D01*
X520204Y165250D01*
X520808Y165104D01*
X521409Y164944D01*
X522005Y164769D01*
X521963Y164633D01*
X521370Y164806D01*
X520773Y164965D01*
X520172Y165111D01*
X519568Y165241D01*
X518961Y165358D01*
X518351Y165460D01*
X517740Y165548D01*
X517126Y165621D01*
X516511Y165679D01*
X515894Y165723D01*
X515277Y165753D01*
X514659Y165767D01*
X514041Y165767D01*
X513423Y165753D01*
X512806Y165723D01*
X512189Y165679D01*
X511574Y165621D01*
X510960Y165548D01*
X510349Y165460D01*
X509739Y165358D01*
X509132Y165241D01*
X508528Y165111D01*
X507927Y164965D01*
X507330Y164806D01*
X506737Y164633D01*
D12*
X508635Y146685D02*
X516262Y146685D01*
X508635Y146685D02*
X516262Y154312D01*
X516262Y156218D01*
X514355Y158125D01*
X510542Y158125D01*
X508635Y156218D01*
X497208Y151775D02*
X493395Y147962D01*
X497208Y151775D02*
X497208Y140335D01*
X493395Y140335D02*
X501022Y140335D01*
X526415Y149868D02*
X528322Y151775D01*
X532135Y151775D01*
X534042Y149868D01*
X534042Y147962D01*
X532135Y146055D01*
X530228Y146055D01*
X532135Y146055D02*
X534042Y144148D01*
X534042Y142242D01*
X532135Y140335D01*
X528322Y140335D01*
X526415Y142242D01*
D20*
X506213Y118192D02*
X506617Y116881D01*
X506617Y116882D02*
X506012Y116685D01*
X505412Y116474D01*
X504818Y116248D01*
X504230Y116007D01*
X503647Y115752D01*
X503071Y115483D01*
X502501Y115200D01*
X501939Y114903D01*
X501384Y114593D01*
X500837Y114269D01*
X500298Y113932D01*
X499768Y113581D01*
X499246Y113218D01*
X498733Y112842D01*
X498229Y112454D01*
X497736Y112053D01*
X497252Y111641D01*
X496778Y111217D01*
X496315Y110781D01*
X495863Y110334D01*
X495422Y109876D01*
X494992Y109408D01*
X494573Y108929D01*
X494167Y108440D01*
X493773Y107941D01*
X493390Y107433D01*
X493021Y106915D01*
X492664Y106389D01*
X492320Y105854D01*
X491990Y105311D01*
X491673Y104760D01*
X491369Y104201D01*
X491079Y103635D01*
X490803Y103063D01*
X490542Y102483D01*
X490294Y101897D01*
X490061Y101306D01*
X489842Y100709D01*
X489638Y100107D01*
X489449Y99500D01*
X489275Y98888D01*
X489116Y98272D01*
X488972Y97653D01*
X488843Y97030D01*
X488729Y96405D01*
X488631Y95777D01*
X488548Y95146D01*
X488481Y94514D01*
X488429Y93880D01*
X488392Y93246D01*
X488372Y92610D01*
X488366Y91974D01*
X488376Y91338D01*
X488402Y90703D01*
X488444Y90069D01*
X488500Y89435D01*
X488573Y88804D01*
X488661Y88174D01*
X488764Y87547D01*
X488882Y86922D01*
X489016Y86300D01*
X489165Y85682D01*
X489329Y85068D01*
X489508Y84458D01*
X489701Y83852D01*
X489910Y83251D01*
X490133Y82656D01*
X490371Y82066D01*
X490623Y81483D01*
X490889Y80905D01*
X491170Y80334D01*
X491464Y79771D01*
X491772Y79215D01*
X492093Y78666D01*
X492428Y78125D01*
X492776Y77593D01*
X493137Y77070D01*
X493510Y76555D01*
X493896Y76050D01*
X492819Y75201D01*
X492819Y75200D01*
X492412Y75732D01*
X492019Y76274D01*
X491639Y76825D01*
X491272Y77386D01*
X490920Y77955D01*
X490581Y78533D01*
X490257Y79118D01*
X489947Y79712D01*
X489652Y80313D01*
X489371Y80921D01*
X489106Y81535D01*
X488856Y82156D01*
X488620Y82783D01*
X488401Y83415D01*
X488197Y84053D01*
X488008Y84695D01*
X487835Y85342D01*
X487679Y85993D01*
X487538Y86648D01*
X487413Y87305D01*
X487304Y87966D01*
X487212Y88629D01*
X487136Y89294D01*
X487076Y89961D01*
X487032Y90629D01*
X487005Y91298D01*
X486994Y91968D01*
X487000Y92637D01*
X487022Y93306D01*
X487060Y93975D01*
X487115Y94642D01*
X487186Y95308D01*
X487273Y95972D01*
X487376Y96633D01*
X487496Y97292D01*
X487632Y97947D01*
X487783Y98599D01*
X487951Y99248D01*
X488134Y99891D01*
X488334Y100531D01*
X488548Y101165D01*
X488779Y101794D01*
X489024Y102416D01*
X489285Y103033D01*
X489560Y103643D01*
X489851Y104246D01*
X490156Y104842D01*
X490476Y105431D01*
X490810Y106011D01*
X491158Y106583D01*
X491520Y107146D01*
X491895Y107700D01*
X492285Y108245D01*
X492687Y108780D01*
X493102Y109305D01*
X493530Y109820D01*
X493971Y110324D01*
X494423Y110817D01*
X494888Y111300D01*
X495364Y111770D01*
X495852Y112229D01*
X496351Y112675D01*
X496860Y113110D01*
X497380Y113531D01*
X497910Y113940D01*
X498450Y114336D01*
X499000Y114718D01*
X499559Y115087D01*
X500126Y115442D01*
X500702Y115784D01*
X501287Y116110D01*
X501879Y116423D01*
X502478Y116721D01*
X503085Y117004D01*
X503698Y117272D01*
X504318Y117525D01*
X504944Y117763D01*
X505576Y117986D01*
X506212Y118193D01*
X506254Y118056D01*
X505621Y117850D01*
X504993Y117629D01*
X504370Y117392D01*
X503754Y117140D01*
X503144Y116873D01*
X502540Y116592D01*
X501944Y116295D01*
X501355Y115985D01*
X500773Y115659D01*
X500200Y115320D01*
X499636Y114967D01*
X499080Y114600D01*
X498533Y114220D01*
X497996Y113826D01*
X497469Y113419D01*
X496951Y113000D01*
X496445Y112568D01*
X495949Y112123D01*
X495463Y111667D01*
X494990Y111199D01*
X494527Y110719D01*
X494077Y110229D01*
X493639Y109727D01*
X493213Y109215D01*
X492800Y108693D01*
X492400Y108160D01*
X492013Y107618D01*
X491639Y107067D01*
X491279Y106507D01*
X490933Y105938D01*
X490601Y105361D01*
X490282Y104775D01*
X489979Y104183D01*
X489690Y103583D01*
X489416Y102976D01*
X489156Y102362D01*
X488912Y101743D01*
X488683Y101117D01*
X488470Y100486D01*
X488272Y99851D01*
X488089Y99210D01*
X487922Y98565D01*
X487771Y97917D01*
X487636Y97264D01*
X487517Y96609D01*
X487414Y95951D01*
X487328Y95291D01*
X487257Y94629D01*
X487203Y93965D01*
X487165Y93300D01*
X487143Y92634D01*
X487137Y91968D01*
X487148Y91302D01*
X487175Y90637D01*
X487218Y89972D01*
X487278Y89309D01*
X487354Y88647D01*
X487446Y87988D01*
X487554Y87331D01*
X487678Y86676D01*
X487818Y86025D01*
X487974Y85378D01*
X488146Y84734D01*
X488333Y84095D01*
X488536Y83461D01*
X488755Y82832D01*
X488989Y82208D01*
X489238Y81591D01*
X489502Y80979D01*
X489781Y80374D01*
X490075Y79777D01*
X490383Y79186D01*
X490705Y78604D01*
X491042Y78029D01*
X491393Y77463D01*
X491757Y76905D01*
X492135Y76357D01*
X492527Y75818D01*
X492931Y75289D01*
X493043Y75377D01*
X492641Y75904D01*
X492252Y76440D01*
X491876Y76985D01*
X491513Y77540D01*
X491164Y78103D01*
X490829Y78675D01*
X490509Y79254D01*
X490202Y79842D01*
X489910Y80436D01*
X489632Y81038D01*
X489370Y81646D01*
X489122Y82260D01*
X488889Y82881D01*
X488672Y83506D01*
X488470Y84137D01*
X488283Y84773D01*
X488113Y85413D01*
X487957Y86057D01*
X487818Y86705D01*
X487695Y87356D01*
X487587Y88009D01*
X487496Y88666D01*
X487420Y89324D01*
X487361Y89984D01*
X487318Y90645D01*
X487291Y91307D01*
X487280Y91969D01*
X487286Y92631D01*
X487307Y93294D01*
X487345Y93955D01*
X487399Y94615D01*
X487470Y95274D01*
X487556Y95931D01*
X487658Y96585D01*
X487777Y97237D01*
X487911Y97886D01*
X488061Y98531D01*
X488227Y99173D01*
X488409Y99810D01*
X488606Y100442D01*
X488818Y101070D01*
X489046Y101692D01*
X489289Y102308D01*
X489547Y102918D01*
X489819Y103522D01*
X490107Y104119D01*
X490409Y104709D01*
X490725Y105291D01*
X491056Y105865D01*
X491400Y106431D01*
X491758Y106988D01*
X492130Y107537D01*
X492515Y108076D01*
X492913Y108605D01*
X493324Y109125D01*
X493748Y109634D01*
X494184Y110133D01*
X494631Y110621D01*
X495091Y111098D01*
X495563Y111564D01*
X496045Y112018D01*
X496539Y112460D01*
X497043Y112890D01*
X497557Y113307D01*
X498082Y113711D01*
X498616Y114103D01*
X499160Y114481D01*
X499713Y114846D01*
X500274Y115198D01*
X500845Y115535D01*
X501423Y115859D01*
X502009Y116168D01*
X502602Y116463D01*
X503202Y116743D01*
X503809Y117008D01*
X504422Y117259D01*
X505042Y117494D01*
X505667Y117714D01*
X506297Y117919D01*
X506339Y117783D01*
X505712Y117579D01*
X505091Y117360D01*
X504475Y117126D01*
X503865Y116877D01*
X503261Y116613D01*
X502664Y116334D01*
X502073Y116041D01*
X501491Y115733D01*
X500916Y115411D01*
X500349Y115076D01*
X499790Y114726D01*
X499240Y114363D01*
X498699Y113986D01*
X498168Y113597D01*
X497646Y113194D01*
X497134Y112779D01*
X496632Y112352D01*
X496142Y111912D01*
X495662Y111461D01*
X495193Y110998D01*
X494735Y110523D01*
X494290Y110038D01*
X493856Y109541D01*
X493435Y109035D01*
X493026Y108518D01*
X492630Y107991D01*
X492247Y107455D01*
X491878Y106909D01*
X491521Y106355D01*
X491179Y105792D01*
X490850Y105221D01*
X490535Y104642D01*
X490235Y104055D01*
X489949Y103462D01*
X489678Y102861D01*
X489421Y102254D01*
X489180Y101641D01*
X488953Y101022D01*
X488742Y100398D01*
X488546Y99769D01*
X488365Y99135D01*
X488200Y98497D01*
X488051Y97855D01*
X487917Y97210D01*
X487799Y96562D01*
X487698Y95911D01*
X487612Y95257D01*
X487542Y94602D01*
X487488Y93945D01*
X487450Y93287D01*
X487429Y92629D01*
X487423Y91970D01*
X487434Y91311D01*
X487461Y90652D01*
X487503Y89995D01*
X487562Y89338D01*
X487637Y88684D01*
X487728Y88031D01*
X487835Y87381D01*
X487958Y86733D01*
X488097Y86089D01*
X488251Y85449D01*
X488421Y84812D01*
X488607Y84180D01*
X488807Y83552D01*
X489024Y82929D01*
X489255Y82312D01*
X489501Y81701D01*
X489763Y81096D01*
X490039Y80498D01*
X490329Y79906D01*
X490634Y79322D01*
X490954Y78746D01*
X491287Y78177D01*
X491634Y77617D01*
X491994Y77065D01*
X492368Y76523D01*
X492755Y75990D01*
X493156Y75466D01*
X493268Y75555D01*
X492870Y76075D01*
X492485Y76606D01*
X492113Y77145D01*
X491754Y77694D01*
X491409Y78251D01*
X491078Y78817D01*
X490760Y79390D01*
X490457Y79971D01*
X490168Y80560D01*
X489893Y81155D01*
X489633Y81757D01*
X489388Y82365D01*
X489158Y82978D01*
X488943Y83597D01*
X488743Y84222D01*
X488559Y84851D01*
X488390Y85484D01*
X488236Y86121D01*
X488098Y86762D01*
X487976Y87406D01*
X487870Y88053D01*
X487779Y88702D01*
X487705Y89353D01*
X487646Y90006D01*
X487603Y90660D01*
X487577Y91315D01*
X487566Y91970D01*
X487572Y92626D01*
X487593Y93281D01*
X487631Y93935D01*
X487684Y94589D01*
X487754Y95240D01*
X487839Y95890D01*
X487940Y96538D01*
X488058Y97183D01*
X488190Y97825D01*
X488339Y98463D01*
X488503Y99098D01*
X488683Y99728D01*
X488878Y100354D01*
X489088Y100975D01*
X489313Y101590D01*
X489554Y102200D01*
X489809Y102804D01*
X490079Y103401D01*
X490363Y103992D01*
X490662Y104575D01*
X490975Y105151D01*
X491302Y105719D01*
X491643Y106279D01*
X491997Y106830D01*
X492365Y107373D01*
X492746Y107906D01*
X493139Y108430D01*
X493546Y108944D01*
X493965Y109448D01*
X494396Y109942D01*
X494840Y110425D01*
X495294Y110897D01*
X495761Y111358D01*
X496238Y111807D01*
X496726Y112244D01*
X497225Y112669D01*
X497734Y113082D01*
X498253Y113482D01*
X498782Y113870D01*
X499320Y114244D01*
X499867Y114606D01*
X500423Y114953D01*
X500987Y115287D01*
X501559Y115607D01*
X502138Y115913D01*
X502725Y116205D01*
X503319Y116482D01*
X503920Y116745D01*
X504527Y116993D01*
X505139Y117225D01*
X505758Y117443D01*
X506381Y117646D01*
X506423Y117509D01*
X505803Y117308D01*
X505188Y117091D01*
X504579Y116859D01*
X503975Y116613D01*
X503378Y116352D01*
X502787Y116076D01*
X502203Y115786D01*
X501627Y115481D01*
X501058Y115163D01*
X500497Y114831D01*
X499944Y114485D01*
X499400Y114126D01*
X498865Y113753D01*
X498339Y113368D01*
X497823Y112970D01*
X497316Y112559D01*
X496820Y112136D01*
X496335Y111701D01*
X495860Y111255D01*
X495396Y110796D01*
X494944Y110327D01*
X494503Y109847D01*
X494074Y109356D01*
X493657Y108854D01*
X493253Y108343D01*
X492861Y107822D01*
X492482Y107291D01*
X492116Y106752D01*
X491764Y106203D01*
X491425Y105646D01*
X491100Y105081D01*
X490788Y104508D01*
X490491Y103928D01*
X490208Y103341D01*
X489940Y102746D01*
X489686Y102146D01*
X489447Y101539D01*
X489223Y100927D01*
X489014Y100310D01*
X488820Y99687D01*
X488641Y99060D01*
X488478Y98429D01*
X488330Y97794D01*
X488198Y97156D01*
X488081Y96514D01*
X487981Y95870D01*
X487896Y95224D01*
X487827Y94575D01*
X487773Y93926D01*
X487736Y93275D01*
X487715Y92623D01*
X487709Y91971D01*
X487720Y91319D01*
X487746Y90668D01*
X487789Y90017D01*
X487847Y89368D01*
X487921Y88720D01*
X488011Y88074D01*
X488117Y87431D01*
X488238Y86791D01*
X488375Y86153D01*
X488528Y85519D01*
X488696Y84889D01*
X488880Y84264D01*
X489079Y83643D01*
X489293Y83027D01*
X489521Y82417D01*
X489765Y81812D01*
X490024Y81213D01*
X490297Y80621D01*
X490584Y80036D01*
X490886Y79458D01*
X491202Y78888D01*
X491531Y78325D01*
X491875Y77771D01*
X492231Y77225D01*
X492601Y76689D01*
X492984Y76161D01*
X493380Y75643D01*
X493492Y75732D01*
X493099Y76247D01*
X492718Y76772D01*
X492350Y77305D01*
X491995Y77848D01*
X491654Y78400D01*
X491326Y78959D01*
X491012Y79526D01*
X490712Y80101D01*
X490426Y80683D01*
X490154Y81272D01*
X489897Y81867D01*
X489655Y82469D01*
X489427Y83076D01*
X489214Y83688D01*
X489016Y84306D01*
X488834Y84928D01*
X488667Y85555D01*
X488515Y86185D01*
X488378Y86819D01*
X488258Y87456D01*
X488152Y88096D01*
X488063Y88738D01*
X487989Y89383D01*
X487931Y90028D01*
X487889Y90675D01*
X487863Y91323D01*
X487852Y91972D01*
X487858Y92620D01*
X487879Y93268D01*
X487916Y93916D01*
X487969Y94562D01*
X488038Y95207D01*
X488122Y95850D01*
X488222Y96490D01*
X488338Y97128D01*
X488470Y97763D01*
X488617Y98395D01*
X488779Y99023D01*
X488957Y99646D01*
X489150Y100265D01*
X489358Y100880D01*
X489580Y101489D01*
X489818Y102092D01*
X490071Y102689D01*
X490338Y103280D01*
X490619Y103864D01*
X490915Y104441D01*
X491224Y105011D01*
X491548Y105573D01*
X491885Y106127D01*
X492235Y106673D01*
X492599Y107209D01*
X492976Y107737D01*
X493366Y108255D01*
X493768Y108764D01*
X494183Y109263D01*
X494609Y109751D01*
X495048Y110229D01*
X495498Y110696D01*
X495959Y111151D01*
X496431Y111596D01*
X496914Y112028D01*
X497408Y112449D01*
X497911Y112858D01*
X498425Y113254D01*
X498948Y113637D01*
X499480Y114007D01*
X500021Y114365D01*
X500571Y114709D01*
X501129Y115039D01*
X501695Y115356D01*
X502268Y115658D01*
X502849Y115947D01*
X503436Y116221D01*
X504031Y116481D01*
X504631Y116726D01*
X505237Y116957D01*
X505849Y117172D01*
X506465Y117373D01*
X506507Y117236D01*
X505894Y117037D01*
X505286Y116822D01*
X504683Y116593D01*
X504086Y116349D01*
X503495Y116091D01*
X502911Y115818D01*
X502333Y115531D01*
X501763Y115230D01*
X501200Y114915D01*
X500645Y114586D01*
X500098Y114244D01*
X499560Y113889D01*
X499031Y113520D01*
X498511Y113139D01*
X498000Y112745D01*
X497499Y112339D01*
X497008Y111921D01*
X496528Y111490D01*
X496058Y111048D01*
X495599Y110595D01*
X495152Y110131D01*
X494716Y109656D01*
X494291Y109170D01*
X493879Y108674D01*
X493479Y108168D01*
X493091Y107652D01*
X492717Y107128D01*
X492355Y106594D01*
X492006Y106051D01*
X491671Y105500D01*
X491349Y104941D01*
X491041Y104375D01*
X490747Y103801D01*
X490467Y103220D01*
X490202Y102632D01*
X489951Y102038D01*
X489714Y101438D01*
X489492Y100832D01*
X489286Y100221D01*
X489094Y99605D01*
X488917Y98985D01*
X488756Y98361D01*
X488609Y97733D01*
X488479Y97101D01*
X488363Y96467D01*
X488264Y95829D01*
X488180Y95190D01*
X488111Y94549D01*
X488059Y93906D01*
X488022Y93262D01*
X488001Y92617D01*
X487995Y91972D01*
X488006Y91328D01*
X488032Y90683D01*
X488074Y90040D01*
X488131Y89397D01*
X488205Y88757D01*
X488294Y88118D01*
X488398Y87481D01*
X488519Y86848D01*
X488654Y86217D01*
X488805Y85590D01*
X488972Y84967D01*
X489153Y84348D01*
X489350Y83734D01*
X489561Y83125D01*
X489788Y82521D01*
X490029Y81923D01*
X490285Y81331D01*
X490555Y80745D01*
X490839Y80166D01*
X491138Y79594D01*
X491450Y79030D01*
X491776Y78474D01*
X492115Y77925D01*
X492468Y77386D01*
X492834Y76854D01*
X493213Y76333D01*
X493605Y75820D01*
X493717Y75909D01*
X493328Y76418D01*
X492951Y76937D01*
X492587Y77466D01*
X492236Y78002D01*
X491898Y78548D01*
X491574Y79101D01*
X491263Y79662D01*
X490966Y80231D01*
X490684Y80807D01*
X490415Y81389D01*
X490161Y81978D01*
X489921Y82573D01*
X489696Y83174D01*
X489485Y83779D01*
X489290Y84390D01*
X489109Y85006D01*
X488944Y85626D01*
X488794Y86249D01*
X488659Y86876D01*
X488539Y87506D01*
X488435Y88139D01*
X488347Y88775D01*
X488274Y89412D01*
X488216Y90051D01*
X488175Y90691D01*
X488149Y91332D01*
X488138Y91973D01*
X488144Y92615D01*
X488165Y93256D01*
X488201Y93896D01*
X488254Y94535D01*
X488322Y95173D01*
X488405Y95809D01*
X488504Y96443D01*
X488619Y97074D01*
X488749Y97702D01*
X488894Y98327D01*
X489055Y98948D01*
X489231Y99565D01*
X489422Y100177D01*
X489627Y100785D01*
X489848Y101387D01*
X490083Y101984D01*
X490333Y102575D01*
X490597Y103159D01*
X490875Y103737D01*
X491168Y104308D01*
X491474Y104871D01*
X491794Y105427D01*
X492127Y105975D01*
X492474Y106515D01*
X492834Y107046D01*
X493207Y107568D01*
X493592Y108081D01*
X493990Y108584D01*
X494400Y109077D01*
X494822Y109560D01*
X495256Y110033D01*
X495701Y110494D01*
X496157Y110945D01*
X496624Y111385D01*
X497102Y111813D01*
X497590Y112229D01*
X498088Y112633D01*
X498596Y113025D01*
X499114Y113404D01*
X499640Y113770D01*
X500175Y114124D01*
X500719Y114464D01*
X501271Y114791D01*
X501831Y115104D01*
X502398Y115403D01*
X502972Y115689D01*
X503554Y115960D01*
X504141Y116217D01*
X504735Y116460D01*
X505335Y116688D01*
X505940Y116901D01*
X506550Y117099D01*
X506592Y116963D01*
X505985Y116766D01*
X505383Y116553D01*
X504787Y116327D01*
X504197Y116085D01*
X503612Y115830D01*
X503034Y115560D01*
X502463Y115276D01*
X501899Y114978D01*
X501342Y114667D01*
X500793Y114342D01*
X500252Y114003D01*
X499720Y113652D01*
X499196Y113287D01*
X498682Y112910D01*
X498177Y112521D01*
X497681Y112119D01*
X497196Y111705D01*
X496721Y111279D01*
X496256Y110842D01*
X495802Y110394D01*
X495360Y109935D01*
X494928Y109464D01*
X494509Y108984D01*
X494101Y108494D01*
X493705Y107993D01*
X493322Y107483D01*
X492951Y106964D01*
X492593Y106436D01*
X492248Y105899D01*
X491917Y105354D01*
X491599Y104802D01*
X491294Y104241D01*
X491003Y103673D01*
X490726Y103099D01*
X490464Y102517D01*
X490215Y101930D01*
X489981Y101336D01*
X489762Y100737D01*
X489558Y100133D01*
X489368Y99524D01*
X489193Y98910D01*
X489033Y98293D01*
X488889Y97671D01*
X488759Y97047D01*
X488645Y96419D01*
X488547Y95789D01*
X488464Y95156D01*
X488396Y94522D01*
X488344Y93886D01*
X488307Y93249D01*
X488287Y92612D01*
X488281Y91974D01*
X488291Y91336D01*
X488317Y90699D01*
X488359Y90062D01*
X488416Y89427D01*
X488488Y88793D01*
X488576Y88161D01*
X488680Y87532D01*
X488799Y86905D01*
X488933Y86281D01*
X489082Y85661D01*
X489247Y85045D01*
X489426Y84433D01*
X489621Y83825D01*
X489830Y83222D01*
X490054Y82625D01*
X490293Y82033D01*
X490545Y81448D01*
X490813Y80868D01*
X491094Y80296D01*
X491389Y79730D01*
X491698Y79172D01*
X492021Y78622D01*
X492356Y78080D01*
X492705Y77546D01*
X493067Y77020D01*
X493442Y76504D01*
X493829Y75997D01*
X535881Y75200D02*
X534803Y76050D01*
X534804Y76049D02*
X535190Y76555D01*
X535563Y77069D01*
X535924Y77593D01*
X536272Y78125D01*
X536607Y78665D01*
X536928Y79214D01*
X537236Y79770D01*
X537530Y80334D01*
X537810Y80905D01*
X538077Y81482D01*
X538329Y82066D01*
X538567Y82656D01*
X538790Y83251D01*
X538998Y83852D01*
X539192Y84457D01*
X539371Y85067D01*
X539535Y85682D01*
X539684Y86300D01*
X539818Y86921D01*
X539936Y87546D01*
X540039Y88174D01*
X540127Y88803D01*
X540200Y89435D01*
X540256Y90068D01*
X540298Y90703D01*
X540324Y91338D01*
X540334Y91974D01*
X540328Y92610D01*
X540308Y93245D01*
X540271Y93880D01*
X540219Y94514D01*
X540152Y95146D01*
X540069Y95776D01*
X539971Y96404D01*
X539857Y97030D01*
X539728Y97653D01*
X539584Y98272D01*
X539425Y98888D01*
X539251Y99499D01*
X539062Y100106D01*
X538858Y100708D01*
X538639Y101306D01*
X538406Y101897D01*
X538159Y102483D01*
X537897Y103062D01*
X537621Y103635D01*
X537331Y104201D01*
X537027Y104760D01*
X536710Y105311D01*
X536380Y105854D01*
X536036Y106389D01*
X535679Y106915D01*
X535310Y107433D01*
X534928Y107941D01*
X534533Y108440D01*
X534127Y108929D01*
X533709Y109407D01*
X533279Y109876D01*
X532837Y110334D01*
X532385Y110781D01*
X531922Y111216D01*
X531448Y111641D01*
X530965Y112053D01*
X530471Y112454D01*
X529967Y112842D01*
X529454Y113218D01*
X528933Y113581D01*
X528402Y113932D01*
X527863Y114269D01*
X527316Y114593D01*
X526761Y114903D01*
X526199Y115200D01*
X525629Y115483D01*
X525053Y115752D01*
X524471Y116007D01*
X523882Y116247D01*
X523288Y116473D01*
X522688Y116685D01*
X522083Y116881D01*
X522487Y118192D01*
X522488Y118193D01*
X523125Y117986D01*
X523756Y117763D01*
X524382Y117525D01*
X525002Y117272D01*
X525615Y117004D01*
X526222Y116721D01*
X526821Y116423D01*
X527414Y116110D01*
X527998Y115783D01*
X528574Y115442D01*
X529142Y115087D01*
X529700Y114718D01*
X530250Y114336D01*
X530790Y113940D01*
X531320Y113531D01*
X531840Y113110D01*
X532350Y112675D01*
X532848Y112229D01*
X533336Y111770D01*
X533812Y111299D01*
X534277Y110817D01*
X534730Y110324D01*
X535170Y109820D01*
X535598Y109305D01*
X536013Y108780D01*
X536416Y108245D01*
X536805Y107700D01*
X537180Y107146D01*
X537542Y106582D01*
X537890Y106010D01*
X538224Y105430D01*
X538544Y104842D01*
X538849Y104246D01*
X539140Y103643D01*
X539415Y103033D01*
X539676Y102416D01*
X539922Y101793D01*
X540152Y101164D01*
X540367Y100530D01*
X540566Y99891D01*
X540749Y99247D01*
X540917Y98599D01*
X541068Y97947D01*
X541204Y97291D01*
X541324Y96633D01*
X541427Y95971D01*
X541514Y95307D01*
X541585Y94642D01*
X541640Y93974D01*
X541678Y93306D01*
X541700Y92637D01*
X541706Y91967D01*
X541695Y91298D01*
X541668Y90629D01*
X541624Y89961D01*
X541564Y89294D01*
X541488Y88629D01*
X541396Y87966D01*
X541287Y87305D01*
X541162Y86647D01*
X541021Y85993D01*
X540864Y85342D01*
X540692Y84695D01*
X540503Y84053D01*
X540299Y83415D01*
X540079Y82782D01*
X539844Y82156D01*
X539594Y81535D01*
X539328Y80920D01*
X539048Y80312D01*
X538753Y79711D01*
X538443Y79118D01*
X538118Y78532D01*
X537780Y77954D01*
X537427Y77385D01*
X537061Y76825D01*
X536681Y76274D01*
X536288Y75732D01*
X535881Y75200D01*
X535769Y75289D01*
X536173Y75818D01*
X536564Y76357D01*
X536942Y76905D01*
X537307Y77462D01*
X537658Y78029D01*
X537994Y78603D01*
X538317Y79186D01*
X538625Y79776D01*
X538919Y80374D01*
X539198Y80979D01*
X539462Y81590D01*
X539711Y82208D01*
X539945Y82831D01*
X540163Y83460D01*
X540367Y84095D01*
X540554Y84734D01*
X540726Y85377D01*
X540882Y86025D01*
X541022Y86676D01*
X541146Y87330D01*
X541254Y87987D01*
X541346Y88647D01*
X541422Y89309D01*
X541482Y89972D01*
X541525Y90637D01*
X541552Y91302D01*
X541563Y91968D01*
X541557Y92634D01*
X541535Y93300D01*
X541497Y93964D01*
X541443Y94628D01*
X541372Y95290D01*
X541286Y95951D01*
X541183Y96609D01*
X541064Y97264D01*
X540929Y97916D01*
X540778Y98565D01*
X540611Y99210D01*
X540429Y99850D01*
X540231Y100486D01*
X540017Y101117D01*
X539788Y101742D01*
X539544Y102362D01*
X539284Y102975D01*
X539010Y103582D01*
X538721Y104182D01*
X538418Y104775D01*
X538100Y105360D01*
X537767Y105938D01*
X537421Y106506D01*
X537061Y107067D01*
X536687Y107618D01*
X536300Y108160D01*
X535900Y108692D01*
X535487Y109215D01*
X535061Y109727D01*
X534623Y110228D01*
X534173Y110719D01*
X533711Y111199D01*
X533237Y111667D01*
X532752Y112123D01*
X532256Y112567D01*
X531749Y112999D01*
X531231Y113419D01*
X530704Y113826D01*
X530167Y114219D01*
X529620Y114600D01*
X529064Y114967D01*
X528500Y115320D01*
X527927Y115659D01*
X527346Y115984D01*
X526757Y116295D01*
X526160Y116592D01*
X525557Y116873D01*
X524946Y117140D01*
X524330Y117392D01*
X523707Y117629D01*
X523079Y117850D01*
X522446Y118056D01*
X522404Y117919D01*
X523034Y117714D01*
X523659Y117494D01*
X524278Y117259D01*
X524891Y117008D01*
X525498Y116743D01*
X526098Y116463D01*
X526692Y116168D01*
X527278Y115859D01*
X527856Y115535D01*
X528426Y115198D01*
X528987Y114846D01*
X529540Y114481D01*
X530084Y114103D01*
X530618Y113711D01*
X531143Y113307D01*
X531658Y112889D01*
X532162Y112460D01*
X532655Y112018D01*
X533138Y111564D01*
X533609Y111098D01*
X534069Y110621D01*
X534517Y110133D01*
X534953Y109634D01*
X535376Y109125D01*
X535787Y108605D01*
X536185Y108075D01*
X536570Y107536D01*
X536942Y106988D01*
X537300Y106431D01*
X537644Y105865D01*
X537975Y105290D01*
X538291Y104708D01*
X538593Y104119D01*
X538881Y103522D01*
X539153Y102918D01*
X539411Y102308D01*
X539654Y101692D01*
X539882Y101069D01*
X540095Y100442D01*
X540292Y99809D01*
X540473Y99172D01*
X540639Y98531D01*
X540789Y97886D01*
X540923Y97237D01*
X541042Y96585D01*
X541144Y95930D01*
X541230Y95274D01*
X541301Y94615D01*
X541355Y93955D01*
X541393Y93293D01*
X541414Y92631D01*
X541420Y91969D01*
X541409Y91306D01*
X541382Y90644D01*
X541339Y89983D01*
X541280Y89323D01*
X541204Y88665D01*
X541113Y88009D01*
X541005Y87355D01*
X540882Y86704D01*
X540743Y86057D01*
X540587Y85413D01*
X540416Y84773D01*
X540230Y84137D01*
X540028Y83506D01*
X539811Y82880D01*
X539578Y82260D01*
X539330Y81645D01*
X539067Y81037D01*
X538790Y80436D01*
X538498Y79841D01*
X538191Y79254D01*
X537870Y78674D01*
X537535Y78103D01*
X537186Y77539D01*
X536824Y76985D01*
X536448Y76440D01*
X536059Y75903D01*
X535656Y75377D01*
X535544Y75466D01*
X535944Y75989D01*
X536331Y76522D01*
X536705Y77065D01*
X537066Y77617D01*
X537413Y78177D01*
X537746Y78745D01*
X538065Y79322D01*
X538370Y79906D01*
X538661Y80497D01*
X538937Y81096D01*
X539198Y81701D01*
X539445Y82312D01*
X539676Y82929D01*
X539892Y83551D01*
X540093Y84179D01*
X540279Y84811D01*
X540449Y85448D01*
X540603Y86089D01*
X540742Y86733D01*
X540865Y87380D01*
X540972Y88031D01*
X541063Y88683D01*
X541138Y89338D01*
X541196Y89994D01*
X541239Y90652D01*
X541266Y91310D01*
X541277Y91969D01*
X541271Y92628D01*
X541250Y93287D01*
X541212Y93945D01*
X541158Y94602D01*
X541088Y95257D01*
X541002Y95910D01*
X540901Y96561D01*
X540783Y97210D01*
X540649Y97855D01*
X540500Y98497D01*
X540335Y99135D01*
X540155Y99769D01*
X539959Y100398D01*
X539747Y101022D01*
X539521Y101641D01*
X539279Y102254D01*
X539022Y102861D01*
X538751Y103461D01*
X538465Y104055D01*
X538165Y104642D01*
X537850Y105221D01*
X537521Y105792D01*
X537179Y106355D01*
X536823Y106909D01*
X536453Y107454D01*
X536070Y107991D01*
X535674Y108517D01*
X535265Y109034D01*
X534844Y109541D01*
X534410Y110037D01*
X533965Y110523D01*
X533507Y110997D01*
X533039Y111461D01*
X532559Y111912D01*
X532068Y112352D01*
X531566Y112779D01*
X531054Y113194D01*
X530533Y113597D01*
X530001Y113986D01*
X529460Y114363D01*
X528910Y114726D01*
X528352Y115075D01*
X527785Y115411D01*
X527210Y115733D01*
X526627Y116040D01*
X526037Y116334D01*
X525439Y116612D01*
X524836Y116876D01*
X524226Y117126D01*
X523610Y117360D01*
X522988Y117579D01*
X522361Y117783D01*
X522319Y117646D01*
X522943Y117443D01*
X523561Y117225D01*
X524174Y116992D01*
X524780Y116745D01*
X525381Y116482D01*
X525975Y116205D01*
X526562Y115913D01*
X527142Y115607D01*
X527714Y115287D01*
X528278Y114953D01*
X528833Y114605D01*
X529380Y114244D01*
X529918Y113870D01*
X530447Y113482D01*
X530966Y113082D01*
X531475Y112669D01*
X531974Y112244D01*
X532462Y111807D01*
X532940Y111357D01*
X533406Y110897D01*
X533861Y110425D01*
X534304Y109942D01*
X534735Y109448D01*
X535154Y108944D01*
X535561Y108430D01*
X535955Y107906D01*
X536336Y107373D01*
X536703Y106830D01*
X537058Y106279D01*
X537398Y105719D01*
X537725Y105151D01*
X538038Y104575D01*
X538337Y103991D01*
X538622Y103401D01*
X538891Y102803D01*
X539147Y102200D01*
X539387Y101590D01*
X539612Y100974D01*
X539823Y100353D01*
X540017Y99728D01*
X540197Y99097D01*
X540361Y98463D01*
X540510Y97824D01*
X540643Y97182D01*
X540760Y96537D01*
X540861Y95890D01*
X540946Y95240D01*
X541016Y94588D01*
X541069Y93935D01*
X541107Y93281D01*
X541128Y92625D01*
X541134Y91970D01*
X541123Y91315D01*
X541097Y90660D01*
X541054Y90006D01*
X540995Y89353D01*
X540921Y88702D01*
X540830Y88052D01*
X540724Y87406D01*
X540602Y86762D01*
X540464Y86121D01*
X540310Y85483D01*
X540141Y84850D01*
X539957Y84221D01*
X539757Y83597D01*
X539542Y82978D01*
X539312Y82364D01*
X539066Y81756D01*
X538807Y81154D01*
X538532Y80559D01*
X538243Y79971D01*
X537940Y79390D01*
X537622Y78816D01*
X537291Y78251D01*
X536946Y77694D01*
X536587Y77145D01*
X536215Y76605D01*
X535830Y76075D01*
X535432Y75554D01*
X535319Y75643D01*
X535715Y76161D01*
X536098Y76688D01*
X536468Y77225D01*
X536825Y77771D01*
X537168Y78325D01*
X537498Y78887D01*
X537814Y79458D01*
X538116Y80036D01*
X538403Y80621D01*
X538676Y81213D01*
X538935Y81811D01*
X539178Y82416D01*
X539407Y83027D01*
X539621Y83642D01*
X539820Y84263D01*
X540004Y84889D01*
X540172Y85519D01*
X540324Y86153D01*
X540462Y86790D01*
X540583Y87431D01*
X540689Y88074D01*
X540779Y88720D01*
X540853Y89367D01*
X540911Y90017D01*
X540954Y90667D01*
X540980Y91319D01*
X540991Y91971D01*
X540985Y92623D01*
X540964Y93274D01*
X540927Y93925D01*
X540873Y94575D01*
X540804Y95223D01*
X540719Y95870D01*
X540619Y96514D01*
X540502Y97155D01*
X540370Y97794D01*
X540222Y98429D01*
X540059Y99060D01*
X539880Y99687D01*
X539687Y100309D01*
X539477Y100927D01*
X539253Y101539D01*
X539014Y102146D01*
X538760Y102746D01*
X538492Y103340D01*
X538209Y103928D01*
X537912Y104508D01*
X537601Y105081D01*
X537275Y105646D01*
X536936Y106203D01*
X536584Y106751D01*
X536218Y107291D01*
X535839Y107821D01*
X535448Y108343D01*
X535043Y108854D01*
X534626Y109355D01*
X534197Y109846D01*
X533757Y110327D01*
X533304Y110796D01*
X532840Y111254D01*
X532366Y111701D01*
X531880Y112136D01*
X531384Y112559D01*
X530877Y112970D01*
X530361Y113368D01*
X529835Y113753D01*
X529300Y114126D01*
X528756Y114485D01*
X528203Y114831D01*
X527642Y115163D01*
X527074Y115481D01*
X526497Y115786D01*
X525913Y116076D01*
X525322Y116352D01*
X524725Y116613D01*
X524121Y116859D01*
X523512Y117091D01*
X522897Y117308D01*
X522277Y117509D01*
X522235Y117373D01*
X522852Y117172D01*
X523463Y116957D01*
X524069Y116726D01*
X524670Y116481D01*
X525264Y116221D01*
X525851Y115947D01*
X526432Y115658D01*
X527006Y115355D01*
X527571Y115039D01*
X528129Y114708D01*
X528679Y114364D01*
X529220Y114007D01*
X529752Y113637D01*
X530275Y113253D01*
X530789Y112857D01*
X531293Y112449D01*
X531786Y112028D01*
X532269Y111596D01*
X532741Y111151D01*
X533203Y110695D01*
X533653Y110229D01*
X534091Y109751D01*
X534518Y109262D01*
X534932Y108764D01*
X535334Y108255D01*
X535724Y107737D01*
X536101Y107209D01*
X536465Y106672D01*
X536815Y106127D01*
X537152Y105573D01*
X537476Y105011D01*
X537786Y104441D01*
X538081Y103864D01*
X538362Y103280D01*
X538629Y102689D01*
X538882Y102092D01*
X539120Y101488D01*
X539343Y100879D01*
X539551Y100265D01*
X539743Y99646D01*
X539921Y99022D01*
X540083Y98395D01*
X540230Y97763D01*
X540362Y97128D01*
X540478Y96490D01*
X540578Y95849D01*
X540662Y95206D01*
X540731Y94562D01*
X540784Y93915D01*
X540821Y93268D01*
X540842Y92620D01*
X540848Y91971D01*
X540837Y91323D01*
X540811Y90675D01*
X540769Y90028D01*
X540711Y89382D01*
X540637Y88738D01*
X540547Y88096D01*
X540442Y87456D01*
X540321Y86819D01*
X540185Y86185D01*
X540033Y85554D01*
X539866Y84928D01*
X539683Y84306D01*
X539486Y83688D01*
X539273Y83075D01*
X539045Y82468D01*
X538803Y81867D01*
X538546Y81272D01*
X538274Y80683D01*
X537988Y80101D01*
X537688Y79526D01*
X537374Y78959D01*
X537046Y78399D01*
X536705Y77848D01*
X536350Y77305D01*
X535982Y76771D01*
X535601Y76246D01*
X535207Y75731D01*
X535095Y75820D01*
X535486Y76332D01*
X535865Y76854D01*
X536231Y77385D01*
X536584Y77925D01*
X536924Y78473D01*
X537250Y79030D01*
X537562Y79594D01*
X537861Y80166D01*
X538145Y80744D01*
X538415Y81330D01*
X538671Y81922D01*
X538912Y82520D01*
X539139Y83124D01*
X539350Y83734D01*
X539547Y84348D01*
X539728Y84967D01*
X539895Y85590D01*
X540046Y86217D01*
X540181Y86847D01*
X540301Y87481D01*
X540406Y88117D01*
X540495Y88756D01*
X540569Y89397D01*
X540626Y90039D01*
X540668Y90683D01*
X540694Y91327D01*
X540705Y91972D01*
X540699Y92617D01*
X540678Y93262D01*
X540641Y93905D01*
X540589Y94548D01*
X540520Y95190D01*
X540436Y95829D01*
X540337Y96466D01*
X540221Y97101D01*
X540091Y97732D01*
X539945Y98360D01*
X539783Y98985D01*
X539606Y99605D01*
X539415Y100221D01*
X539208Y100832D01*
X538986Y101437D01*
X538750Y102037D01*
X538498Y102631D01*
X538233Y103219D01*
X537953Y103800D01*
X537659Y104374D01*
X537351Y104941D01*
X537029Y105500D01*
X536694Y106051D01*
X536345Y106593D01*
X535984Y107127D01*
X535609Y107652D01*
X535221Y108168D01*
X534821Y108674D01*
X534409Y109170D01*
X533985Y109655D01*
X533549Y110130D01*
X533101Y110595D01*
X532642Y111048D01*
X532172Y111490D01*
X531692Y111920D01*
X531201Y112339D01*
X530700Y112745D01*
X530190Y113139D01*
X529670Y113520D01*
X529140Y113889D01*
X528602Y114244D01*
X528055Y114586D01*
X527500Y114915D01*
X526938Y115230D01*
X526367Y115531D01*
X525790Y115818D01*
X525205Y116091D01*
X524614Y116349D01*
X524017Y116593D01*
X523414Y116822D01*
X522806Y117037D01*
X522193Y117236D01*
X522151Y117099D01*
X522761Y116901D01*
X523366Y116688D01*
X523965Y116460D01*
X524559Y116217D01*
X525147Y115960D01*
X525728Y115689D01*
X526302Y115403D01*
X526870Y115104D01*
X527429Y114791D01*
X527981Y114464D01*
X528525Y114124D01*
X529060Y113770D01*
X529587Y113404D01*
X530104Y113024D01*
X530612Y112633D01*
X531110Y112229D01*
X531598Y111813D01*
X532076Y111385D01*
X532543Y110945D01*
X532999Y110494D01*
X533445Y110032D01*
X533878Y109560D01*
X534300Y109077D01*
X534710Y108583D01*
X535108Y108080D01*
X535494Y107568D01*
X535866Y107046D01*
X536226Y106515D01*
X536573Y105975D01*
X536906Y105427D01*
X537226Y104871D01*
X537533Y104308D01*
X537825Y103737D01*
X538103Y103159D01*
X538367Y102574D01*
X538617Y101983D01*
X538852Y101387D01*
X539073Y100784D01*
X539279Y100177D01*
X539469Y99564D01*
X539645Y98947D01*
X539806Y98326D01*
X539951Y97702D01*
X540081Y97074D01*
X540196Y96442D01*
X540295Y95809D01*
X540378Y95173D01*
X540446Y94535D01*
X540499Y93896D01*
X540535Y93255D01*
X540556Y92614D01*
X540562Y91973D01*
X540551Y91331D01*
X540525Y90690D01*
X540484Y90050D01*
X540426Y89412D01*
X540353Y88774D01*
X540265Y88139D01*
X540161Y87506D01*
X540041Y86876D01*
X539906Y86249D01*
X539756Y85625D01*
X539591Y85005D01*
X539410Y84390D01*
X539215Y83779D01*
X539004Y83173D01*
X538779Y82572D01*
X538539Y81978D01*
X538285Y81389D01*
X538016Y80806D01*
X537733Y80231D01*
X537436Y79662D01*
X537126Y79101D01*
X536802Y78547D01*
X536464Y78002D01*
X536113Y77465D01*
X535749Y76937D01*
X535372Y76418D01*
X534983Y75908D01*
X534870Y75997D01*
X535258Y76504D01*
X535632Y77020D01*
X535994Y77545D01*
X536343Y78079D01*
X536679Y78621D01*
X537002Y79172D01*
X537311Y79730D01*
X537606Y80295D01*
X537887Y80868D01*
X538154Y81447D01*
X538407Y82033D01*
X538646Y82625D01*
X538870Y83222D01*
X539079Y83825D01*
X539273Y84432D01*
X539453Y85044D01*
X539618Y85661D01*
X539767Y86281D01*
X539901Y86904D01*
X540020Y87531D01*
X540123Y88161D01*
X540212Y88792D01*
X540284Y89426D01*
X540341Y90062D01*
X540383Y90698D01*
X540409Y91336D01*
X540419Y91973D01*
X540413Y92611D01*
X540393Y93249D01*
X540356Y93886D01*
X540304Y94522D01*
X540236Y95156D01*
X540153Y95788D01*
X540055Y96419D01*
X539941Y97046D01*
X539811Y97671D01*
X539667Y98292D01*
X539507Y98910D01*
X539332Y99523D01*
X539143Y100132D01*
X538938Y100737D01*
X538719Y101336D01*
X538485Y101929D01*
X538236Y102517D01*
X537974Y103098D01*
X537697Y103673D01*
X537406Y104241D01*
X537102Y104801D01*
X536783Y105354D01*
X536452Y105899D01*
X536107Y106436D01*
X535749Y106964D01*
X535378Y107483D01*
X534995Y107993D01*
X534599Y108493D01*
X534191Y108984D01*
X533772Y109464D01*
X533341Y109934D01*
X532898Y110394D01*
X532444Y110842D01*
X531979Y111279D01*
X531504Y111705D01*
X531019Y112119D01*
X530523Y112520D01*
X530018Y112910D01*
X529504Y113287D01*
X528980Y113652D01*
X528448Y114003D01*
X527907Y114342D01*
X527358Y114667D01*
X526801Y114978D01*
X526237Y115276D01*
X525666Y115560D01*
X525088Y115830D01*
X524504Y116085D01*
X523913Y116327D01*
X523317Y116553D01*
X522715Y116765D01*
X522109Y116963D01*
D10*
X535295Y75565D02*
X493405Y75565D01*
X491813Y89535D02*
X511487Y89535D01*
X491813Y89535D02*
X487801Y89535D01*
X511487Y89535D02*
X517213Y89535D01*
X536887Y89535D02*
X540899Y89535D01*
X536887Y89535D02*
X517213Y89535D01*
D20*
X522342Y118237D02*
X521937Y116926D01*
X521938Y116926D02*
X521347Y117099D01*
X520752Y117258D01*
X520153Y117403D01*
X519551Y117533D01*
X518946Y117649D01*
X518338Y117751D01*
X517728Y117838D01*
X517117Y117911D01*
X516504Y117970D01*
X515889Y118013D01*
X515274Y118043D01*
X514658Y118057D01*
X514042Y118057D01*
X513426Y118043D01*
X512811Y118013D01*
X512196Y117970D01*
X511583Y117911D01*
X510972Y117838D01*
X510362Y117751D01*
X509754Y117649D01*
X509149Y117533D01*
X508547Y117403D01*
X507948Y117258D01*
X507353Y117099D01*
X506762Y116926D01*
X506358Y118237D01*
X506980Y118420D01*
X507607Y118587D01*
X508238Y118739D01*
X508872Y118877D01*
X509509Y118999D01*
X510149Y119107D01*
X510791Y119199D01*
X511436Y119275D01*
X512082Y119337D01*
X512729Y119383D01*
X513377Y119414D01*
X514026Y119429D01*
X514674Y119429D01*
X515323Y119414D01*
X515971Y119383D01*
X516618Y119337D01*
X517264Y119275D01*
X517909Y119199D01*
X518551Y119107D01*
X519191Y118999D01*
X519828Y118877D01*
X520462Y118739D01*
X521093Y118587D01*
X521720Y118420D01*
X522342Y118237D01*
X522300Y118101D01*
X521681Y118282D01*
X521057Y118448D01*
X520430Y118600D01*
X519799Y118737D01*
X519165Y118859D01*
X518529Y118965D01*
X517890Y119057D01*
X517249Y119133D01*
X516606Y119194D01*
X515963Y119240D01*
X515318Y119271D01*
X514673Y119286D01*
X514027Y119286D01*
X513382Y119271D01*
X512737Y119240D01*
X512094Y119194D01*
X511451Y119133D01*
X510810Y119057D01*
X510171Y118965D01*
X509535Y118859D01*
X508901Y118737D01*
X508270Y118600D01*
X507643Y118448D01*
X507019Y118282D01*
X506400Y118101D01*
X506442Y117964D01*
X507058Y118144D01*
X507678Y118310D01*
X508302Y118461D01*
X508930Y118597D01*
X509560Y118718D01*
X510193Y118824D01*
X510829Y118915D01*
X511466Y118991D01*
X512106Y119052D01*
X512746Y119097D01*
X513387Y119128D01*
X514029Y119143D01*
X514671Y119143D01*
X515313Y119128D01*
X515954Y119097D01*
X516594Y119052D01*
X517234Y118991D01*
X517871Y118915D01*
X518507Y118824D01*
X519140Y118718D01*
X519770Y118597D01*
X520398Y118461D01*
X521022Y118310D01*
X521642Y118144D01*
X522258Y117964D01*
X522216Y117827D01*
X521603Y118007D01*
X520986Y118171D01*
X520365Y118321D01*
X519741Y118457D01*
X519114Y118577D01*
X518484Y118683D01*
X517852Y118773D01*
X517218Y118849D01*
X516583Y118909D01*
X515946Y118955D01*
X515308Y118985D01*
X514669Y119000D01*
X514031Y119000D01*
X513392Y118985D01*
X512754Y118955D01*
X512117Y118909D01*
X511482Y118849D01*
X510848Y118773D01*
X510216Y118683D01*
X509586Y118577D01*
X508959Y118457D01*
X508335Y118321D01*
X507714Y118171D01*
X507097Y118007D01*
X506484Y117827D01*
X506526Y117691D01*
X507136Y117869D01*
X507749Y118033D01*
X508367Y118182D01*
X508988Y118317D01*
X509611Y118436D01*
X510238Y118541D01*
X510866Y118632D01*
X511497Y118707D01*
X512129Y118767D01*
X512763Y118812D01*
X513397Y118842D01*
X514032Y118857D01*
X514668Y118857D01*
X515303Y118842D01*
X515937Y118812D01*
X516571Y118767D01*
X517203Y118707D01*
X517834Y118632D01*
X518462Y118541D01*
X519089Y118436D01*
X519712Y118317D01*
X520333Y118182D01*
X520951Y118033D01*
X521564Y117869D01*
X522174Y117691D01*
X522132Y117554D01*
X521525Y117732D01*
X520915Y117894D01*
X520301Y118043D01*
X519684Y118177D01*
X519063Y118296D01*
X518440Y118400D01*
X517815Y118490D01*
X517187Y118564D01*
X516559Y118624D01*
X515928Y118669D01*
X515297Y118699D01*
X514666Y118714D01*
X514034Y118714D01*
X513403Y118699D01*
X512772Y118669D01*
X512141Y118624D01*
X511513Y118564D01*
X510885Y118490D01*
X510260Y118400D01*
X509637Y118296D01*
X509016Y118177D01*
X508399Y118043D01*
X507785Y117894D01*
X507175Y117732D01*
X506568Y117554D01*
X506610Y117418D01*
X507214Y117594D01*
X507821Y117756D01*
X508431Y117904D01*
X509045Y118037D01*
X509662Y118155D01*
X510282Y118259D01*
X510904Y118348D01*
X511528Y118422D01*
X512153Y118482D01*
X512780Y118526D01*
X513408Y118556D01*
X514036Y118571D01*
X514664Y118571D01*
X515292Y118556D01*
X515920Y118526D01*
X516547Y118482D01*
X517172Y118422D01*
X517796Y118348D01*
X518418Y118259D01*
X519038Y118155D01*
X519655Y118037D01*
X520269Y117904D01*
X520879Y117756D01*
X521486Y117594D01*
X522090Y117418D01*
X522047Y117281D01*
X521448Y117456D01*
X520844Y117617D01*
X520236Y117764D01*
X519626Y117897D01*
X519012Y118014D01*
X518396Y118118D01*
X517777Y118206D01*
X517157Y118280D01*
X516535Y118339D01*
X515911Y118384D01*
X515287Y118413D01*
X514662Y118428D01*
X514038Y118428D01*
X513413Y118413D01*
X512789Y118384D01*
X512165Y118339D01*
X511543Y118280D01*
X510923Y118206D01*
X510304Y118118D01*
X509688Y118014D01*
X509074Y117897D01*
X508464Y117764D01*
X507856Y117617D01*
X507252Y117456D01*
X506653Y117281D01*
X506695Y117144D01*
X507291Y117319D01*
X507892Y117479D01*
X508496Y117625D01*
X509103Y117757D01*
X509713Y117874D01*
X510326Y117976D01*
X510942Y118064D01*
X511559Y118138D01*
X512177Y118197D01*
X512797Y118241D01*
X513418Y118270D01*
X514039Y118285D01*
X514661Y118285D01*
X515282Y118270D01*
X515903Y118241D01*
X516523Y118197D01*
X517141Y118138D01*
X517758Y118064D01*
X518374Y117976D01*
X518987Y117874D01*
X519597Y117757D01*
X520204Y117625D01*
X520808Y117479D01*
X521409Y117319D01*
X522005Y117144D01*
X521963Y117008D01*
X521370Y117181D01*
X520773Y117340D01*
X520172Y117486D01*
X519568Y117616D01*
X518961Y117733D01*
X518351Y117835D01*
X517740Y117923D01*
X517126Y117996D01*
X516511Y118054D01*
X515894Y118098D01*
X515277Y118128D01*
X514659Y118142D01*
X514041Y118142D01*
X513423Y118128D01*
X512806Y118098D01*
X512189Y118054D01*
X511574Y117996D01*
X510960Y117923D01*
X510349Y117835D01*
X509739Y117733D01*
X509132Y117616D01*
X508528Y117486D01*
X507927Y117340D01*
X507330Y117181D01*
X506737Y117008D01*
D12*
X508635Y99060D02*
X516262Y99060D01*
X508635Y99060D02*
X516262Y106687D01*
X516262Y108593D01*
X514355Y110500D01*
X510542Y110500D01*
X508635Y108593D01*
X497208Y104150D02*
X493395Y100337D01*
X497208Y104150D02*
X497208Y92710D01*
X493395Y92710D02*
X501022Y92710D01*
X526415Y102243D02*
X528322Y104150D01*
X532135Y104150D01*
X534042Y102243D01*
X534042Y100337D01*
X532135Y98430D01*
X530228Y98430D01*
X532135Y98430D02*
X534042Y96523D01*
X534042Y94617D01*
X532135Y92710D01*
X528322Y92710D01*
X526415Y94617D01*
D10*
X463550Y87630D02*
X463548Y87530D01*
X463542Y87431D01*
X463532Y87331D01*
X463519Y87233D01*
X463501Y87134D01*
X463480Y87037D01*
X463455Y86941D01*
X463426Y86845D01*
X463393Y86751D01*
X463357Y86658D01*
X463317Y86567D01*
X463273Y86477D01*
X463226Y86389D01*
X463176Y86303D01*
X463122Y86219D01*
X463065Y86137D01*
X463005Y86058D01*
X462941Y85980D01*
X462875Y85906D01*
X462806Y85834D01*
X462734Y85765D01*
X462660Y85699D01*
X462582Y85635D01*
X462503Y85575D01*
X462421Y85518D01*
X462337Y85464D01*
X462251Y85414D01*
X462163Y85367D01*
X462073Y85323D01*
X461982Y85283D01*
X461889Y85247D01*
X461795Y85214D01*
X461699Y85185D01*
X461603Y85160D01*
X461506Y85139D01*
X461407Y85121D01*
X461309Y85108D01*
X461209Y85098D01*
X461110Y85092D01*
X461010Y85090D01*
X463550Y102870D02*
X463548Y102970D01*
X463542Y103069D01*
X463532Y103169D01*
X463519Y103267D01*
X463501Y103366D01*
X463480Y103463D01*
X463455Y103559D01*
X463426Y103655D01*
X463393Y103749D01*
X463357Y103842D01*
X463317Y103933D01*
X463273Y104023D01*
X463226Y104111D01*
X463176Y104197D01*
X463122Y104281D01*
X463065Y104363D01*
X463005Y104442D01*
X462941Y104520D01*
X462875Y104594D01*
X462806Y104666D01*
X462734Y104735D01*
X462660Y104801D01*
X462582Y104865D01*
X462503Y104925D01*
X462421Y104982D01*
X462337Y105036D01*
X462251Y105086D01*
X462163Y105133D01*
X462073Y105177D01*
X461982Y105217D01*
X461889Y105253D01*
X461795Y105286D01*
X461699Y105315D01*
X461603Y105340D01*
X461506Y105361D01*
X461407Y105379D01*
X461309Y105392D01*
X461209Y105402D01*
X461110Y105408D01*
X461010Y105410D01*
X415290Y105410D02*
X415190Y105408D01*
X415091Y105402D01*
X414991Y105392D01*
X414893Y105379D01*
X414794Y105361D01*
X414697Y105340D01*
X414601Y105315D01*
X414505Y105286D01*
X414411Y105253D01*
X414318Y105217D01*
X414227Y105177D01*
X414137Y105133D01*
X414049Y105086D01*
X413963Y105036D01*
X413879Y104982D01*
X413797Y104925D01*
X413718Y104865D01*
X413640Y104801D01*
X413566Y104735D01*
X413494Y104666D01*
X413425Y104594D01*
X413359Y104520D01*
X413295Y104442D01*
X413235Y104363D01*
X413178Y104281D01*
X413124Y104197D01*
X413074Y104111D01*
X413027Y104023D01*
X412983Y103933D01*
X412943Y103842D01*
X412907Y103749D01*
X412874Y103655D01*
X412845Y103559D01*
X412820Y103463D01*
X412799Y103366D01*
X412781Y103267D01*
X412768Y103169D01*
X412758Y103069D01*
X412752Y102970D01*
X412750Y102870D01*
X412750Y87630D02*
X412752Y87530D01*
X412758Y87431D01*
X412768Y87331D01*
X412781Y87233D01*
X412799Y87134D01*
X412820Y87037D01*
X412845Y86941D01*
X412874Y86845D01*
X412907Y86751D01*
X412943Y86658D01*
X412983Y86567D01*
X413027Y86477D01*
X413074Y86389D01*
X413124Y86303D01*
X413178Y86219D01*
X413235Y86137D01*
X413295Y86058D01*
X413359Y85980D01*
X413425Y85906D01*
X413494Y85834D01*
X413566Y85765D01*
X413640Y85699D01*
X413718Y85635D01*
X413797Y85575D01*
X413879Y85518D01*
X413963Y85464D01*
X414049Y85414D01*
X414137Y85367D01*
X414227Y85323D01*
X414318Y85283D01*
X414411Y85247D01*
X414505Y85214D01*
X414601Y85185D01*
X414697Y85160D01*
X414794Y85139D01*
X414893Y85121D01*
X414991Y85108D01*
X415091Y85098D01*
X415190Y85092D01*
X415290Y85090D01*
X463550Y87630D02*
X463550Y102870D01*
X461010Y85090D02*
X457200Y85090D01*
X455930Y86360D01*
X457200Y105410D02*
X461010Y105410D01*
X457200Y105410D02*
X455930Y104140D01*
X420370Y86360D02*
X419100Y85090D01*
X420370Y86360D02*
X455930Y86360D01*
X420370Y104140D02*
X419100Y105410D01*
X420370Y104140D02*
X455930Y104140D01*
X419100Y85090D02*
X415290Y85090D01*
X415290Y105410D02*
X419100Y105410D01*
X412750Y102870D02*
X412750Y87630D01*
D18*
X410845Y95250D03*
X465455Y95250D03*
D11*
X427341Y99576D02*
X424375Y96610D01*
X427341Y99576D02*
X427341Y90678D01*
X424375Y90678D02*
X430307Y90678D01*
X433496Y92161D02*
X433496Y98093D01*
X434979Y99576D01*
X437945Y99576D01*
X439428Y98093D01*
X439428Y92161D01*
X437945Y90678D01*
X434979Y90678D01*
X433496Y92161D01*
X439428Y98093D01*
X442618Y98093D02*
X442618Y92161D01*
X442618Y98093D02*
X444101Y99576D01*
X447066Y99576D01*
X448549Y98093D01*
X448549Y92161D01*
X447066Y90678D01*
X444101Y90678D01*
X442618Y92161D01*
X448549Y98093D01*
D10*
X461010Y135890D02*
X461110Y135892D01*
X461209Y135898D01*
X461309Y135908D01*
X461407Y135921D01*
X461506Y135939D01*
X461603Y135960D01*
X461699Y135985D01*
X461795Y136014D01*
X461889Y136047D01*
X461982Y136083D01*
X462073Y136123D01*
X462163Y136167D01*
X462251Y136214D01*
X462337Y136264D01*
X462421Y136318D01*
X462503Y136375D01*
X462582Y136435D01*
X462660Y136499D01*
X462734Y136565D01*
X462806Y136634D01*
X462875Y136706D01*
X462941Y136780D01*
X463005Y136858D01*
X463065Y136937D01*
X463122Y137019D01*
X463176Y137103D01*
X463226Y137189D01*
X463273Y137277D01*
X463317Y137367D01*
X463357Y137458D01*
X463393Y137551D01*
X463426Y137645D01*
X463455Y137741D01*
X463480Y137837D01*
X463501Y137934D01*
X463519Y138033D01*
X463532Y138131D01*
X463542Y138231D01*
X463548Y138330D01*
X463550Y138430D01*
X463550Y153670D02*
X463548Y153770D01*
X463542Y153869D01*
X463532Y153969D01*
X463519Y154067D01*
X463501Y154166D01*
X463480Y154263D01*
X463455Y154359D01*
X463426Y154455D01*
X463393Y154549D01*
X463357Y154642D01*
X463317Y154733D01*
X463273Y154823D01*
X463226Y154911D01*
X463176Y154997D01*
X463122Y155081D01*
X463065Y155163D01*
X463005Y155242D01*
X462941Y155320D01*
X462875Y155394D01*
X462806Y155466D01*
X462734Y155535D01*
X462660Y155601D01*
X462582Y155665D01*
X462503Y155725D01*
X462421Y155782D01*
X462337Y155836D01*
X462251Y155886D01*
X462163Y155933D01*
X462073Y155977D01*
X461982Y156017D01*
X461889Y156053D01*
X461795Y156086D01*
X461699Y156115D01*
X461603Y156140D01*
X461506Y156161D01*
X461407Y156179D01*
X461309Y156192D01*
X461209Y156202D01*
X461110Y156208D01*
X461010Y156210D01*
X415290Y156210D02*
X415190Y156208D01*
X415091Y156202D01*
X414991Y156192D01*
X414893Y156179D01*
X414794Y156161D01*
X414697Y156140D01*
X414601Y156115D01*
X414505Y156086D01*
X414411Y156053D01*
X414318Y156017D01*
X414227Y155977D01*
X414137Y155933D01*
X414049Y155886D01*
X413963Y155836D01*
X413879Y155782D01*
X413797Y155725D01*
X413718Y155665D01*
X413640Y155601D01*
X413566Y155535D01*
X413494Y155466D01*
X413425Y155394D01*
X413359Y155320D01*
X413295Y155242D01*
X413235Y155163D01*
X413178Y155081D01*
X413124Y154997D01*
X413074Y154911D01*
X413027Y154823D01*
X412983Y154733D01*
X412943Y154642D01*
X412907Y154549D01*
X412874Y154455D01*
X412845Y154359D01*
X412820Y154263D01*
X412799Y154166D01*
X412781Y154067D01*
X412768Y153969D01*
X412758Y153869D01*
X412752Y153770D01*
X412750Y153670D01*
X412750Y138430D02*
X412752Y138330D01*
X412758Y138231D01*
X412768Y138131D01*
X412781Y138033D01*
X412799Y137934D01*
X412820Y137837D01*
X412845Y137741D01*
X412874Y137645D01*
X412907Y137551D01*
X412943Y137458D01*
X412983Y137367D01*
X413027Y137277D01*
X413074Y137189D01*
X413124Y137103D01*
X413178Y137019D01*
X413235Y136937D01*
X413295Y136858D01*
X413359Y136780D01*
X413425Y136706D01*
X413494Y136634D01*
X413566Y136565D01*
X413640Y136499D01*
X413718Y136435D01*
X413797Y136375D01*
X413879Y136318D01*
X413963Y136264D01*
X414049Y136214D01*
X414137Y136167D01*
X414227Y136123D01*
X414318Y136083D01*
X414411Y136047D01*
X414505Y136014D01*
X414601Y135985D01*
X414697Y135960D01*
X414794Y135939D01*
X414893Y135921D01*
X414991Y135908D01*
X415091Y135898D01*
X415190Y135892D01*
X415290Y135890D01*
X463550Y138430D02*
X463550Y153670D01*
X461010Y135890D02*
X457200Y135890D01*
X455930Y137160D01*
X457200Y156210D02*
X461010Y156210D01*
X457200Y156210D02*
X455930Y154940D01*
X420370Y137160D02*
X419100Y135890D01*
X420370Y137160D02*
X455930Y137160D01*
X420370Y154940D02*
X419100Y156210D01*
X420370Y154940D02*
X455930Y154940D01*
X419100Y135890D02*
X415290Y135890D01*
X415290Y156210D02*
X419100Y156210D01*
X412750Y153670D02*
X412750Y138430D01*
D18*
X410845Y146050D03*
X465455Y146050D03*
D11*
X427341Y150376D02*
X424375Y147410D01*
X427341Y150376D02*
X427341Y141478D01*
X424375Y141478D02*
X430307Y141478D01*
X433496Y142961D02*
X433496Y148893D01*
X434979Y150376D01*
X437945Y150376D01*
X439428Y148893D01*
X439428Y142961D01*
X437945Y141478D01*
X434979Y141478D01*
X433496Y142961D01*
X439428Y148893D01*
X442618Y148893D02*
X442618Y142961D01*
X442618Y148893D02*
X444101Y150376D01*
X447066Y150376D01*
X448549Y148893D01*
X448549Y142961D01*
X447066Y141478D01*
X444101Y141478D01*
X442618Y142961D01*
X448549Y148893D01*
D10*
X340360Y426085D02*
X340360Y469265D01*
X370840Y469265D02*
X370840Y426085D01*
X368300Y471805D02*
X342900Y471805D01*
X342900Y423545D02*
X368300Y423545D01*
X340360Y469265D02*
X340362Y469365D01*
X340368Y469464D01*
X340378Y469564D01*
X340391Y469662D01*
X340409Y469761D01*
X340430Y469858D01*
X340455Y469954D01*
X340484Y470050D01*
X340517Y470144D01*
X340553Y470237D01*
X340593Y470328D01*
X340637Y470418D01*
X340684Y470506D01*
X340734Y470592D01*
X340788Y470676D01*
X340845Y470758D01*
X340905Y470837D01*
X340969Y470915D01*
X341035Y470989D01*
X341104Y471061D01*
X341176Y471130D01*
X341250Y471196D01*
X341328Y471260D01*
X341407Y471320D01*
X341489Y471377D01*
X341573Y471431D01*
X341659Y471481D01*
X341747Y471528D01*
X341837Y471572D01*
X341928Y471612D01*
X342021Y471648D01*
X342115Y471681D01*
X342211Y471710D01*
X342307Y471735D01*
X342404Y471756D01*
X342503Y471774D01*
X342601Y471787D01*
X342701Y471797D01*
X342800Y471803D01*
X342900Y471805D01*
X340360Y426085D02*
X340362Y425985D01*
X340368Y425886D01*
X340378Y425786D01*
X340391Y425688D01*
X340409Y425589D01*
X340430Y425492D01*
X340455Y425396D01*
X340484Y425300D01*
X340517Y425206D01*
X340553Y425113D01*
X340593Y425022D01*
X340637Y424932D01*
X340684Y424844D01*
X340734Y424758D01*
X340788Y424674D01*
X340845Y424592D01*
X340905Y424513D01*
X340969Y424435D01*
X341035Y424361D01*
X341104Y424289D01*
X341176Y424220D01*
X341250Y424154D01*
X341328Y424090D01*
X341407Y424030D01*
X341489Y423973D01*
X341573Y423919D01*
X341659Y423869D01*
X341747Y423822D01*
X341837Y423778D01*
X341928Y423738D01*
X342021Y423702D01*
X342115Y423669D01*
X342211Y423640D01*
X342307Y423615D01*
X342404Y423594D01*
X342503Y423576D01*
X342601Y423563D01*
X342701Y423553D01*
X342800Y423547D01*
X342900Y423545D01*
X370840Y469265D02*
X370838Y469365D01*
X370832Y469464D01*
X370822Y469564D01*
X370809Y469662D01*
X370791Y469761D01*
X370770Y469858D01*
X370745Y469954D01*
X370716Y470050D01*
X370683Y470144D01*
X370647Y470237D01*
X370607Y470328D01*
X370563Y470418D01*
X370516Y470506D01*
X370466Y470592D01*
X370412Y470676D01*
X370355Y470758D01*
X370295Y470837D01*
X370231Y470915D01*
X370165Y470989D01*
X370096Y471061D01*
X370024Y471130D01*
X369950Y471196D01*
X369872Y471260D01*
X369793Y471320D01*
X369711Y471377D01*
X369627Y471431D01*
X369541Y471481D01*
X369453Y471528D01*
X369363Y471572D01*
X369272Y471612D01*
X369179Y471648D01*
X369085Y471681D01*
X368989Y471710D01*
X368893Y471735D01*
X368796Y471756D01*
X368697Y471774D01*
X368599Y471787D01*
X368499Y471797D01*
X368400Y471803D01*
X368300Y471805D01*
X370840Y426085D02*
X370838Y425985D01*
X370832Y425886D01*
X370822Y425786D01*
X370809Y425688D01*
X370791Y425589D01*
X370770Y425492D01*
X370745Y425396D01*
X370716Y425300D01*
X370683Y425206D01*
X370647Y425113D01*
X370607Y425022D01*
X370563Y424932D01*
X370516Y424844D01*
X370466Y424758D01*
X370412Y424674D01*
X370355Y424592D01*
X370295Y424513D01*
X370231Y424435D01*
X370165Y424361D01*
X370096Y424289D01*
X370024Y424220D01*
X369950Y424154D01*
X369872Y424090D01*
X369793Y424030D01*
X369711Y423973D01*
X369627Y423919D01*
X369541Y423869D01*
X369453Y423822D01*
X369363Y423778D01*
X369272Y423738D01*
X369179Y423702D01*
X369085Y423669D01*
X368989Y423640D01*
X368893Y423615D01*
X368796Y423594D01*
X368697Y423576D01*
X368599Y423563D01*
X368499Y423553D01*
X368400Y423547D01*
X368300Y423545D01*
X355600Y450215D02*
X355600Y451485D01*
D13*
X355600Y450215D02*
X347980Y450215D01*
X355600Y450215D02*
X363220Y450215D01*
X355600Y445135D02*
X347980Y445135D01*
X355600Y445135D02*
X363220Y445135D01*
D10*
X355600Y445135D02*
X355600Y443865D01*
D12*
X334645Y436252D02*
X334645Y428625D01*
X327019Y436252D01*
X325112Y436252D01*
X323205Y434345D01*
X323205Y430532D01*
X325112Y428625D01*
X323205Y440319D02*
X323205Y447945D01*
X325112Y447945D01*
X332738Y440319D01*
X334645Y440319D01*
X338458Y452013D02*
X327019Y452013D01*
X327019Y457733D01*
X328925Y459639D01*
X332738Y459639D01*
X334645Y457733D01*
X334645Y452013D01*
X334645Y463707D02*
X323205Y463707D01*
X323205Y471333D01*
X328925Y467520D02*
X328925Y463707D01*
D10*
X535940Y469265D02*
X535940Y426085D01*
X505460Y426085D02*
X505460Y469265D01*
X508000Y423545D02*
X533400Y423545D01*
X533400Y471805D02*
X508000Y471805D01*
X535940Y426085D02*
X535938Y425985D01*
X535932Y425886D01*
X535922Y425786D01*
X535909Y425688D01*
X535891Y425589D01*
X535870Y425492D01*
X535845Y425396D01*
X535816Y425300D01*
X535783Y425206D01*
X535747Y425113D01*
X535707Y425022D01*
X535663Y424932D01*
X535616Y424844D01*
X535566Y424758D01*
X535512Y424674D01*
X535455Y424592D01*
X535395Y424513D01*
X535331Y424435D01*
X535265Y424361D01*
X535196Y424289D01*
X535124Y424220D01*
X535050Y424154D01*
X534972Y424090D01*
X534893Y424030D01*
X534811Y423973D01*
X534727Y423919D01*
X534641Y423869D01*
X534553Y423822D01*
X534463Y423778D01*
X534372Y423738D01*
X534279Y423702D01*
X534185Y423669D01*
X534089Y423640D01*
X533993Y423615D01*
X533896Y423594D01*
X533797Y423576D01*
X533699Y423563D01*
X533599Y423553D01*
X533500Y423547D01*
X533400Y423545D01*
X535940Y469265D02*
X535938Y469365D01*
X535932Y469464D01*
X535922Y469564D01*
X535909Y469662D01*
X535891Y469761D01*
X535870Y469858D01*
X535845Y469954D01*
X535816Y470050D01*
X535783Y470144D01*
X535747Y470237D01*
X535707Y470328D01*
X535663Y470418D01*
X535616Y470506D01*
X535566Y470592D01*
X535512Y470676D01*
X535455Y470758D01*
X535395Y470837D01*
X535331Y470915D01*
X535265Y470989D01*
X535196Y471061D01*
X535124Y471130D01*
X535050Y471196D01*
X534972Y471260D01*
X534893Y471320D01*
X534811Y471377D01*
X534727Y471431D01*
X534641Y471481D01*
X534553Y471528D01*
X534463Y471572D01*
X534372Y471612D01*
X534279Y471648D01*
X534185Y471681D01*
X534089Y471710D01*
X533993Y471735D01*
X533896Y471756D01*
X533797Y471774D01*
X533699Y471787D01*
X533599Y471797D01*
X533500Y471803D01*
X533400Y471805D01*
X505460Y426085D02*
X505462Y425985D01*
X505468Y425886D01*
X505478Y425786D01*
X505491Y425688D01*
X505509Y425589D01*
X505530Y425492D01*
X505555Y425396D01*
X505584Y425300D01*
X505617Y425206D01*
X505653Y425113D01*
X505693Y425022D01*
X505737Y424932D01*
X505784Y424844D01*
X505834Y424758D01*
X505888Y424674D01*
X505945Y424592D01*
X506005Y424513D01*
X506069Y424435D01*
X506135Y424361D01*
X506204Y424289D01*
X506276Y424220D01*
X506350Y424154D01*
X506428Y424090D01*
X506507Y424030D01*
X506589Y423973D01*
X506673Y423919D01*
X506759Y423869D01*
X506847Y423822D01*
X506937Y423778D01*
X507028Y423738D01*
X507121Y423702D01*
X507215Y423669D01*
X507311Y423640D01*
X507407Y423615D01*
X507504Y423594D01*
X507603Y423576D01*
X507701Y423563D01*
X507801Y423553D01*
X507900Y423547D01*
X508000Y423545D01*
X505460Y469265D02*
X505462Y469365D01*
X505468Y469464D01*
X505478Y469564D01*
X505491Y469662D01*
X505509Y469761D01*
X505530Y469858D01*
X505555Y469954D01*
X505584Y470050D01*
X505617Y470144D01*
X505653Y470237D01*
X505693Y470328D01*
X505737Y470418D01*
X505784Y470506D01*
X505834Y470592D01*
X505888Y470676D01*
X505945Y470758D01*
X506005Y470837D01*
X506069Y470915D01*
X506135Y470989D01*
X506204Y471061D01*
X506276Y471130D01*
X506350Y471196D01*
X506428Y471260D01*
X506507Y471320D01*
X506589Y471377D01*
X506673Y471431D01*
X506759Y471481D01*
X506847Y471528D01*
X506937Y471572D01*
X507028Y471612D01*
X507121Y471648D01*
X507215Y471681D01*
X507311Y471710D01*
X507407Y471735D01*
X507504Y471756D01*
X507603Y471774D01*
X507701Y471787D01*
X507801Y471797D01*
X507900Y471803D01*
X508000Y471805D01*
X520700Y445135D02*
X520700Y443865D01*
D13*
X520700Y445135D02*
X528320Y445135D01*
X520700Y445135D02*
X513080Y445135D01*
X520700Y450215D02*
X528320Y450215D01*
X520700Y450215D02*
X513080Y450215D01*
D10*
X520700Y450215D02*
X520700Y451485D01*
D12*
X553085Y428846D02*
X553085Y421219D01*
X545459Y428846D01*
X543552Y428846D01*
X541645Y426939D01*
X541645Y423126D01*
X543552Y421219D01*
X541645Y432913D02*
X541645Y440540D01*
X543552Y440540D01*
X551178Y432913D01*
X553085Y432913D01*
X556898Y444607D02*
X545459Y444607D01*
X545459Y450327D01*
X547365Y452233D01*
X551178Y452233D01*
X553085Y450327D01*
X553085Y444607D01*
X553085Y456301D02*
X541645Y456301D01*
X541645Y463927D01*
X547365Y460114D02*
X547365Y456301D01*
M02*
