G04 EAGLE Gerber RS-274X export*
G75*
%MOMM*%
%FSLAX34Y34*%
%LPD*%
%INSoldermask Bottom*%
%IPNEG*%
%AMOC8*
5,1,8,0,0,1.08239X$1,22.5*%
G01*
%ADD10C,1.727200*%
%ADD11C,2.103200*%
%ADD12P,1.649562X8X292.500000*%
%ADD13P,1.649562X8X112.500000*%
%ADD14P,2.034460X8X22.500000*%
%ADD15P,2.144431X8X22.500000*%
%ADD16R,1.981200X1.981200*%
%ADD17P,1.649562X8X202.500000*%
%ADD18C,1.803400*%
%ADD19P,1.951982X8X22.500000*%
%ADD20R,1.701800X1.701800*%
%ADD21C,1.701800*%
%ADD22P,1.649562X8X22.500000*%
%ADD23C,1.341200*%
%ADD24C,2.743200*%
%ADD25R,1.470200X1.470200*%
%ADD26C,1.470200*%


D10*
X146050Y27940D02*
X130810Y27940D01*
X130810Y53340D02*
X146050Y53340D01*
D11*
X183750Y111525D03*
X132950Y111525D03*
X259950Y314725D03*
X158350Y314725D03*
X56750Y314725D03*
X56750Y111525D03*
D12*
X250825Y53975D03*
X250825Y28575D03*
D10*
X38100Y376555D02*
X38100Y391795D01*
X63500Y391795D02*
X63500Y376555D01*
D13*
X111125Y393700D03*
X111125Y469900D03*
D14*
X546100Y508000D03*
X520700Y25400D03*
X571500Y508000D03*
X596900Y508000D03*
X622300Y508000D03*
X647700Y508000D03*
X520700Y508000D03*
X495300Y508000D03*
X469900Y508000D03*
X429260Y508000D03*
X403860Y508000D03*
X378460Y508000D03*
X353060Y508000D03*
X327660Y508000D03*
X302260Y508000D03*
X276860Y508000D03*
X251460Y508000D03*
X546100Y25400D03*
X571500Y25400D03*
X596900Y25400D03*
X622300Y25400D03*
X647700Y25400D03*
X469900Y25400D03*
X444500Y25400D03*
X419100Y25400D03*
X393700Y25400D03*
X368300Y25400D03*
X342900Y25400D03*
X226060Y508000D03*
X200660Y508000D03*
X317500Y25400D03*
X292100Y25400D03*
D15*
X674370Y279400D03*
X648970Y279400D03*
D16*
X648970Y304800D03*
D15*
X674370Y304800D03*
X674370Y254000D03*
X648970Y254000D03*
D10*
X594995Y228600D02*
X579755Y228600D01*
X579755Y203200D02*
X594995Y203200D01*
X594995Y177800D02*
X579755Y177800D01*
X579755Y127000D02*
X594995Y127000D01*
X594995Y101600D02*
X579755Y101600D01*
X579755Y76200D02*
X594995Y76200D01*
X594995Y152400D02*
X579755Y152400D01*
X582930Y460375D02*
X598170Y460375D01*
X598170Y434975D02*
X582930Y434975D01*
X582930Y409575D02*
X598170Y409575D01*
D17*
X241300Y358775D03*
X165100Y358775D03*
D18*
X495300Y288925D03*
D19*
X520700Y288925D03*
D18*
X184150Y34925D03*
D19*
X209550Y34925D03*
D17*
X574675Y288925D03*
X549275Y288925D03*
D20*
X546100Y406400D03*
D21*
X520700Y406400D03*
X495300Y406400D03*
X469900Y406400D03*
X444500Y406400D03*
X419100Y406400D03*
X393700Y406400D03*
X368300Y406400D03*
X342900Y406400D03*
X342900Y330200D03*
X368300Y330200D03*
X393700Y330200D03*
X419100Y330200D03*
X444500Y330200D03*
X469900Y330200D03*
X495300Y330200D03*
X520700Y330200D03*
X546100Y330200D03*
D18*
X276225Y444500D03*
D19*
X301625Y444500D03*
D22*
X276225Y384175D03*
X301625Y384175D03*
D23*
X413750Y447675D03*
X462550Y447675D03*
D17*
X450850Y301625D03*
X374650Y301625D03*
D24*
X342900Y194425D03*
X342900Y129425D03*
D25*
X235900Y393700D03*
D26*
X235900Y419100D03*
X235900Y444500D03*
X235900Y469900D03*
X157800Y469900D03*
X157800Y444500D03*
X157800Y419100D03*
X157800Y393700D03*
D22*
X400050Y200025D03*
X476250Y200025D03*
X400050Y174625D03*
X476250Y174625D03*
X400050Y69850D03*
X476250Y69850D03*
X400050Y120650D03*
X476250Y120650D03*
X527050Y139700D03*
X514350Y158750D03*
X501650Y139700D03*
X527050Y92075D03*
X514350Y111125D03*
X501650Y92075D03*
D17*
X476250Y95250D03*
X400050Y95250D03*
X476250Y146050D03*
X400050Y146050D03*
D13*
X355600Y434975D03*
X355600Y460375D03*
D12*
X520700Y460375D03*
X520700Y434975D03*
M02*
