M48
;GenerationSoftware,Autodesk,EAGLE,9.2.1*%
;CreationDate,2019-01-20T09:49:04Z*%
FMAT,2
ICI,OFF
METRIC,TZ,000.000
T8C0.630
T7C0.759
T6C0.813
T5C0.991
T4C1.000
T3C1.016
T2C1.250
T1C1.300
%
G90
M71
T1
X34290Y12942
X34290Y19443
T2
X5675Y11152
X18375Y11152
X13295Y11152
X25995Y31472
X15835Y31472
X5675Y31472
T3
X13843Y5334
X13843Y2794
X59055Y43498
X59055Y40958
X3810Y38418
X6350Y38418
X59055Y46037
X58737Y22860
X58737Y20320
X58737Y17780
X58737Y12700
X58737Y10160
X58737Y7620
X58737Y15240
T4
X54610Y50800
X52070Y2540
X57150Y50800
X59690Y50800
X62230Y50800
X64770Y50800
X52070Y50800
X49530Y50800
X46990Y50800
X42926Y50800
X40386Y50800
X37846Y50800
X35306Y50800
X32766Y50800
X30226Y50800
X27686Y50800
X41910Y2540
X39370Y2540
X36830Y2540
X34290Y2540
X22606Y50800
X20066Y50800
X31750Y2540
X54610Y2540
X67437Y27940
X64897Y27940
X64897Y30480
X67437Y30480
X67437Y25400
X64897Y25400
X25146Y50800
X57150Y2540
X59690Y2540
X62230Y2540
X64770Y2540
X46990Y2540
X44450Y2540
X29210Y2540
T5
X46990Y33020
X49530Y33020
X52070Y33020
X54610Y33020
X36830Y33020
X54610Y40640
X52070Y40640
X49530Y40640
X46990Y40640
X44450Y40640
X41910Y40640
X39370Y40640
X36830Y40640
X34290Y40640
X34290Y33020
X39370Y33020
X41910Y33020
X44450Y33020
T6
X25082Y5398
X25082Y2857
X11112Y39370
X11112Y46990
X18415Y3492
X20955Y3492
X57467Y28892
X54927Y28892
X49530Y28892
X52070Y28892
X27622Y44450
X30162Y44450
X27622Y38418
X30162Y38418
X40005Y9525
X47625Y14605
X45085Y30162
X37465Y30162
X16510Y35878
X24130Y35878
X40005Y14605
X35560Y43498
X35560Y46037
X52070Y46037
X52070Y43498
X47625Y17463
X40005Y20003
X47625Y20003
X40005Y17463
X40005Y6985
X47625Y6985
X40005Y12065
X47625Y12065
X52705Y13970
X51435Y15875
X50165Y13970
X52705Y9208
X51435Y11112
X50165Y9208
X47625Y9525
T7
X23590Y39370
X23590Y41910
X23590Y44450
X23590Y46990
X15780Y46990
X15780Y39370
X15780Y41910
X15780Y44450
T8
X41375Y44767
X46255Y44767
M30